<svg width="24" height="24" viewBox="0 0 24 24" fill="none" xmlns="http://www.w3.org/2000/svg">
<path d="M21.2366 6C21.4047 6 21.5422 6.12857 21.5422 6.28571C21.5422 6.44286 21.4047 6.57143 21.2366 6.57143H2.62594C2.45789 6.57143 2.32039 6.44286 2.32039 6.28571C2.32039 6.12857 2.45789 6 2.62594 6H21.2366ZM18.5177 11.7143C18.6858 11.7143 18.8233 11.8429 18.8233 12C18.8233 12.1571 18.6858 12.2857 18.5177 12.2857H5.62593C5.45788 12.2857 5.32039 12.1571 5.32039 12C5.32039 11.8429 5.45788 11.7143 5.62593 11.7143H18.5177ZM21.6795 17.7143C21.6795 17.8714 21.542 18 21.3739 18H2.79399C2.62594 18 2.48844 17.8714 2.48844 17.7143C2.48844 17.5571 2.62594 17.4286 2.79399 17.4286H21.3739C21.542 17.4286 21.6795 17.5571 21.6795 17.7143Z" stroke="currentColor"/>
</svg>
