<svg width="24" height="24" viewBox="0 0 24 24" fill="none" xmlns="http://www.w3.org/2000/svg">
<path d="M4.65737 15.6476C4.44978 15.8414 4.44978 16.1602 4.65737 16.354L7.87165 19.3547C8.07924 19.5484 8.42076 19.5484 8.62835 19.3547C8.83594 19.1609 8.83594 18.8421 8.62835 18.6483L6.32812 16.5009H18.9643C19.2589 16.5009 19.5 16.2759 19.5 16.0008C19.5 15.7258 19.2589 15.5007 18.9643 15.5007H6.32812L8.62835 13.3534C8.83594 13.1596 8.83594 12.8408 8.62835 12.647C8.42076 12.4532 8.07924 12.4532 7.87165 12.647L4.65737 15.6476ZM16.1283 4.64534C15.9208 4.45155 15.5792 4.45155 15.3717 4.64534C15.1641 4.83913 15.1641 5.15795 15.3717 5.35174L17.6719 7.49906H5.03571C4.74107 7.49906 4.5 7.72411 4.5 7.99917C4.5 8.27422 4.74107 8.49927 5.03571 8.49927H17.6719L15.3717 10.6466C15.1641 10.8404 15.1641 11.1592 15.3717 11.353C15.5792 11.5468 15.9208 11.5468 16.1283 11.353L19.3426 8.35236C19.5502 8.15857 19.5502 7.83976 19.3426 7.64597L16.1283 4.64534Z" fill="currentColor"/>
</svg>
