<svg width="24" height="24" viewBox="0 0 24 24" fill="none" xmlns="http://www.w3.org/2000/svg">
<path d="M8.35237 4.65737C8.15857 4.44978 7.83976 4.44978 7.64597 4.65737L4.64534 7.87165C4.45155 8.07924 4.45155 8.42076 4.64534 8.62835C4.83913 8.83594 5.15795 8.83594 5.35174 8.62835L7.49906 6.32812V18.9643C7.49906 19.2589 7.72411 19.5 7.99917 19.5C8.27422 19.5 8.49927 19.2589 8.49927 18.9643V6.32812L10.6466 8.62835C10.8404 8.83594 11.1592 8.83594 11.353 8.62835C11.5468 8.42076 11.5468 8.07924 11.353 7.87165L8.35237 4.65737ZM19.3547 16.1283C19.5484 15.9208 19.5484 15.5792 19.3547 15.3717C19.1609 15.1641 18.8421 15.1641 18.6483 15.3717L16.5009 17.6719V5.03571C16.5009 4.74107 16.2759 4.5 16.0008 4.5C15.7258 4.5 15.5007 4.74107 15.5007 5.03571V17.6719L13.3534 15.3717C13.1596 15.1641 12.8408 15.1641 12.647 15.3717C12.4532 15.5792 12.4532 15.9208 12.647 16.1283L15.6476 19.3426C15.8414 19.5502 16.1602 19.5502 16.354 19.3426L19.3547 16.1283Z" fill="currentColor"/>
</svg>
