<svg width="24" height="24" viewBox="0 0 24 24" fill="none" xmlns="http://www.w3.org/2000/svg">
<path fill-rule="evenodd" clip-rule="evenodd" d="M15.6714 5.98354C11.1341 3.54281 6.15784 6.0166 5.03636 9.27256C4.44301 10.9952 4.53943 11.9718 4.78205 12.5258C5.02044 13.0702 5.4464 13.314 5.79271 13.4638C5.85947 13.4926 5.97501 13.5091 6.17848 13.4696C6.38112 13.4303 6.62092 13.3457 6.90629 13.2279C7.03321 13.1756 7.17035 13.1157 7.31474 13.0526L7.31476 13.0526L7.31479 13.0526C7.77799 12.8503 8.3157 12.6155 8.82921 12.4918C9.61039 12.3036 10.2972 12.5053 10.7931 12.9581C11.2741 13.3973 11.5429 14.0403 11.5938 14.7019L11.6019 14.8108C11.6499 15.4631 11.7526 16.8587 12.3593 17.8753C12.6683 18.3932 13.0886 18.7773 13.6808 18.9287C14.2841 19.0829 15.1503 19.0173 16.3882 18.4526C18.5793 17.4532 19.564 15.0072 19.3867 12.3876C19.2096 9.76996 17.8762 7.1696 15.6714 5.98354ZM4.09087 8.9469C5.42624 5.06998 11.1008 2.38939 16.1451 5.10287C18.7311 6.49392 20.1908 9.45842 20.3845 12.3201C20.5779 15.1797 19.511 18.1273 16.8032 19.3625C15.444 19.9824 14.3348 20.128 13.4332 19.8976C12.5205 19.6643 11.9066 19.0681 11.5005 18.3877C10.7646 17.1545 10.6501 15.5315 10.6053 14.8966L10.6053 14.8965C10.6022 14.8523 10.5994 14.8129 10.5968 14.7787C10.5617 14.3227 10.3792 13.9344 10.1189 13.6966C9.87346 13.4725 9.5288 13.3518 9.06342 13.464C8.64332 13.5652 8.22563 13.7473 7.78268 13.9405C7.62151 14.0107 7.45699 14.0825 7.2878 14.1523C6.98905 14.2756 6.67361 14.3922 6.36895 14.4513C6.06513 14.5102 5.72133 14.5224 5.39579 14.3816C4.9575 14.1921 4.25392 13.8127 3.86604 12.927C3.48238 12.0509 3.45578 10.7907 4.09087 8.9469ZM10.6809 7.46113C10.6809 6.90885 11.1286 6.46113 11.6809 6.46113C12.2332 6.46113 12.6809 6.90885 12.6809 7.46113C12.6809 8.01342 12.2332 8.46113 11.6809 8.46113C11.1286 8.46113 10.6809 8.01342 10.6809 7.46113ZM15.2949 7.87012C14.7426 7.87012 14.2949 8.31783 14.2949 8.87012C14.2949 9.4224 14.7426 9.87012 15.2949 9.87012C15.8472 9.87012 16.2949 9.4224 16.2949 8.87012C16.2949 8.31783 15.8472 7.87012 15.2949 7.87012ZM15.9081 12.4845C15.9081 11.9322 16.3559 11.4845 16.9081 11.4845C17.4604 11.4845 17.9081 11.9322 17.9081 12.4845C17.9081 13.0367 17.4604 13.4845 16.9081 13.4845C16.3559 13.4845 15.9081 13.0367 15.9081 12.4845ZM15.9316 15.2578C15.3794 15.2578 14.9316 15.7055 14.9316 16.2578C14.9316 16.8101 15.3794 17.2578 15.9316 17.2578C16.4839 17.2578 16.9316 16.8101 16.9316 16.2578C16.9316 15.7055 16.4839 15.2578 15.9316 15.2578Z" fill="currentColor"/>
</svg>
