<svg width="24" height="24" viewBox="0 0 24 24" fill="none" xmlns="http://www.w3.org/2000/svg">
<path d="M2.58906 11.7555C2.47031 11.8961 2.47031 12.1047 2.58906 12.2453L5.98192 16.2365C6.10915 16.3862 6.32121 16.3953 6.46116 16.2592C6.60112 16.1231 6.6096 15.8964 6.48237 15.7467L3.60692 12.3633H20.3931L17.5176 15.7467C17.3904 15.8964 17.4031 16.1231 17.5388 16.2592C17.6746 16.3953 17.8908 16.3817 18.0181 16.2365L21.4109 12.2453C21.5297 12.1047 21.5297 11.8961 21.4109 11.7555L18.0181 7.76433C17.8908 7.61466 17.6788 7.60559 17.5388 7.74165C17.3989 7.87771 17.3904 8.10448 17.5176 8.25415L20.3931 11.6376H3.60692L6.48237 8.25415C6.6096 8.10448 6.59688 7.87771 6.46116 7.74165C6.32545 7.60559 6.10915 7.61919 5.98192 7.76433L2.58906 11.7555Z" stroke="currentColor"/>
</svg>
