<svg width="24" height="24" viewBox="0 0 24 24" fill="none" xmlns="http://www.w3.org/2000/svg">
<path d="M12 3.8C12.3456 3.8 12.6667 3.97847 12.8492 4.27199L15.0468 7.80645L19.0873 8.80424C19.4229 8.8871 19.6918 9.13736 19.7986 9.46606C19.9054 9.79477 19.8349 10.1553 19.6122 10.4196L16.9298 13.6018L17.2294 17.7529C17.2543 18.0977 17.0994 18.4308 16.8198 18.6339C16.5402 18.8371 16.1755 18.8815 15.8553 18.7513L12 17.1835L8.1446 18.7513C7.82443 18.8815 7.45974 18.8371 7.18013 18.6339C6.90051 18.4308 6.74562 18.0977 6.77051 17.7529L7.07015 13.6018L4.38776 10.4196C4.165 10.1553 4.0945 9.79477 4.2013 9.46606C4.3081 9.13736 4.57707 8.8871 4.91261 8.80424L8.95317 7.80645L11.1507 4.27199C11.3332 3.97847 11.6543 3.8 12 3.8Z" fill="currentColor"/>
</svg>
