<svg viewBox="0 0 24 24" fill="none" xmlns="http://www.w3.org/2000/svg">
  <path fill-rule="evenodd" clip-rule="evenodd" d="M12.0003 3.60718C11.7241 3.60718 11.5003 3.83104 11.5003 4.10718C11.5003 4.38332 11.7241 4.60718 12.0003 4.60718C16.0832 4.60718 19.3931 7.91707 19.3931 12C19.3931 16.083 16.0832 19.3929 12.0003 19.3929C7.91732 19.3929 4.60742 16.083 4.60742 12C4.60742 11.7239 4.38356 11.5 4.10742 11.5C3.83128 11.5 3.60742 11.7239 3.60742 12C3.60742 16.6353 7.36503 20.3929 12.0003 20.3929C16.6355 20.3929 20.3931 16.6353 20.3931 12C20.3931 7.36479 16.6355 3.60718 12.0003 3.60718ZM7.75956 5.94358C7.98562 5.78499 8.0403 5.47316 7.88171 5.24711C7.72311 5.02105 7.41129 4.96636 7.18523 5.12496C6.25487 5.77768 5.46313 6.61444 4.86273 7.5826C4.7172 7.81728 4.78947 8.12551 5.02415 8.27104C5.25882 8.41657 5.56705 8.34431 5.71258 8.10963C6.2416 7.25656 6.93953 6.51891 7.75956 5.94358ZM10.9936 8.42778C10.9936 8.98399 11.4445 9.4349 12.0007 9.4349C12.5569 9.4349 13.0078 8.98399 13.0078 8.42778C13.0078 7.87156 12.5569 7.42065 12.0007 7.42065C11.4445 7.42065 10.9936 7.87156 10.9936 8.42778ZM12.7305 11.3163C12.7305 10.9139 12.4043 10.5877 12.0019 10.5877C11.5995 10.5877 11.2733 10.9139 11.2733 11.3163V15.8505C11.2733 16.2529 11.5995 16.5791 12.0019 16.5791C12.4043 16.5791 12.7305 16.2529 12.7305 15.8505V11.3163Z" fill="currentColor"/>
</svg> 