<svg width="24" height="24" viewBox="0 0 24 24" fill="none" xmlns="http://www.w3.org/2000/svg">
<path d="M19.9408 18.9007L16.7264 11.0419C16.6671 10.8968 16.5664 10.7727 16.4371 10.6854C16.3078 10.5981 16.1557 10.5515 16.0002 10.5515C15.8446 10.5515 15.6926 10.5981 15.5633 10.6854C15.434 10.7727 15.3333 10.8968 15.2739 11.0419L12.0595 18.9007C12.0196 18.997 11.9988 19.1004 11.9986 19.2049C11.9983 19.3094 12.0185 19.4129 12.058 19.5095C12.0975 19.606 12.1555 19.6938 12.2287 19.7677C12.3019 19.8416 12.3888 19.9001 12.4845 19.94C12.5802 19.9799 12.6827 20.0002 12.7862 20C12.8897 19.9997 12.9922 19.9789 13.0876 19.9385C13.1831 19.8982 13.2698 19.8392 13.3426 19.765C13.4155 19.6907 13.473 19.6027 13.5121 19.5059L14.1667 17.9057H17.8336L18.4883 19.5059C18.5476 19.6511 18.6484 19.7753 18.7777 19.8626C18.907 19.95 19.0591 19.9966 19.2147 19.9966C19.3438 19.9965 19.471 19.9643 19.5848 19.9028C19.6987 19.8414 19.7958 19.7526 19.8675 19.6442C19.9393 19.5359 19.9834 19.4113 19.9962 19.2817C20.0089 19.152 19.9898 19.0211 19.9405 18.9007H19.9408ZM14.8157 16.3195L16.0004 13.423L17.185 16.3195H14.8157ZM12.4231 15.6317C12.5452 15.4615 12.5953 15.2494 12.5626 15.0419C12.5299 14.8344 12.4169 14.6485 12.2485 14.525C12.2413 14.5196 11.7127 14.1238 10.9452 13.273C12.3613 11.3379 13.1635 9.13631 13.4906 8.10025H14.6432C14.8516 8.10025 15.0514 8.0167 15.1988 7.86796C15.3461 7.71923 15.4289 7.5175 15.4289 7.30716C15.4289 7.09682 15.3461 6.8951 15.1988 6.74637C15.0514 6.59763 14.8516 6.51408 14.6432 6.51408H10.5002V5.79309C10.5002 5.58275 10.4174 5.38102 10.2701 5.23229C10.1227 5.08356 9.92284 5 9.71445 5C9.50606 5 9.30621 5.08356 9.15885 5.23229C9.0115 5.38102 8.92872 5.58275 8.92872 5.79309V6.51408H4.78574C4.57735 6.51408 4.37749 6.59763 4.23014 6.74637C4.08278 6.8951 4 7.09682 4 7.30716C4 7.5175 4.08278 7.71923 4.23014 7.86796C4.37749 8.0167 4.57735 8.10025 4.78574 8.10025H11.8306C11.4906 9.07178 10.8645 10.6057 9.90946 12.0066C8.78764 10.504 8.37084 9.53178 8.36763 9.52384C8.2855 9.33227 8.13186 9.18111 7.94003 9.10313C7.7482 9.02515 7.53365 9.02665 7.34291 9.10731C7.15216 9.18796 7.00062 9.34126 6.92113 9.53397C6.84164 9.72667 6.84062 9.94323 6.9183 10.1367C6.93902 10.1864 7.43796 11.3707 8.80621 13.1623C8.83907 13.2052 8.87157 13.247 8.90407 13.2888C7.5026 14.8876 6.12756 15.8794 5.55219 16.1995C5.36923 16.3002 5.23341 16.4702 5.1746 16.672C5.11579 16.8738 5.13882 17.0909 5.23861 17.2756C5.3384 17.4602 5.50678 17.5973 5.70671 17.6567C5.90665 17.716 6.12175 17.6928 6.30471 17.5921C6.38186 17.5495 8.04048 16.6227 9.93446 14.5066C10.7388 15.3747 11.2916 15.7842 11.3249 15.808C11.4084 15.8693 11.5032 15.9133 11.6036 15.9376C11.7041 15.9619 11.8083 15.9659 11.9103 15.9495C12.0123 15.9331 12.1101 15.8966 12.1981 15.842C12.2861 15.7874 12.3625 15.7158 12.4231 15.6313V15.6317Z" fill="currentColor"/>
</svg>
