<svg width="24" height="24" viewBox="0 0 24 24" fill="none" xmlns="http://www.w3.org/2000/svg">
<path d="M18.872 17.1205L16.2764 10.8335C16.2285 10.7174 16.1471 10.6181 16.0427 10.5483C15.9383 10.4785 15.8156 10.4412 15.6899 10.4412C15.5643 10.4412 15.4416 10.4785 15.3372 10.5483C15.2327 10.6181 15.1514 10.7174 15.1035 10.8335L12.5079 17.1205C12.4757 17.1976 12.4589 17.2803 12.4587 17.3639C12.4585 17.4475 12.4748 17.5303 12.5067 17.6076C12.5386 17.6848 12.5854 17.755 12.6445 17.8141C12.7036 17.8732 12.7738 17.9201 12.8511 17.952C12.9283 17.9839 13.0111 18.0002 13.0947 18C13.1783 17.9998 13.261 17.9831 13.3381 17.9508C13.4152 17.9185 13.4852 17.8714 13.544 17.812C13.6028 17.7526 13.6493 17.6822 13.6808 17.6047L14.2095 16.3246H17.1704L17.6991 17.6047C17.747 17.7209 17.8283 17.8202 17.9327 17.8901C18.0372 17.96 18.16 17.9973 18.2857 17.9973C18.3899 17.9972 18.4925 17.9714 18.5845 17.9223C18.6764 17.8731 18.7548 17.802 18.8128 17.7154C18.8707 17.6287 18.9064 17.5291 18.9166 17.4253C18.9269 17.3216 18.9115 17.2169 18.8717 17.1205H18.872ZM14.7335 15.0556L15.6901 12.7384L16.6467 15.0556H14.7335ZM12.8015 14.5054C12.9001 14.3692 12.9406 14.1995 12.9142 14.0335C12.8877 13.8675 12.7965 13.7188 12.6605 13.62C12.6547 13.6157 12.2279 13.299 11.6081 12.6184C12.7516 11.0703 13.3994 9.30905 13.6635 8.4802H14.5942C14.7625 8.4802 14.9238 8.41336 15.0428 8.29437C15.1618 8.17538 15.2287 8.014 15.2287 7.84573C15.2287 7.67746 15.1618 7.51608 15.0428 7.39709C14.9238 7.27811 14.7625 7.21126 14.5942 7.21126H11.2488V6.63447C11.2488 6.4662 11.182 6.30482 11.063 6.18583C10.944 6.06685 10.7826 6 10.6143 6C10.4461 6 10.2847 6.06685 10.1657 6.18583C10.0467 6.30482 9.97986 6.4662 9.97986 6.63447V7.21126H6.63447C6.4662 7.21126 6.30482 7.27811 6.18583 7.39709C6.06685 7.51608 6 7.67746 6 7.84573C6 8.014 6.06685 8.17538 6.18583 8.29437C6.30482 8.41336 6.4662 8.4802 6.63447 8.4802H12.3231C12.0485 9.25743 11.543 10.4846 10.7718 11.6053C9.86594 10.4032 9.52938 9.62542 9.52679 9.61908C9.46047 9.46582 9.33641 9.34488 9.18151 9.2825C9.02661 9.22012 8.85336 9.22132 8.69934 9.28585C8.54532 9.35037 8.42295 9.47301 8.35876 9.62717C8.29458 9.78134 8.29376 9.95459 8.35648 10.1093C8.37321 10.1491 8.7761 11.0965 9.88094 12.5299C9.90747 12.5642 9.93372 12.5976 9.95996 12.6311C8.82829 13.9101 7.71797 14.7035 7.25337 14.9596C7.10563 15.0402 6.99596 15.1761 6.94847 15.3376C6.90099 15.499 6.91958 15.6727 7.00016 15.8204C7.08074 15.9682 7.2167 16.0779 7.37814 16.1253C7.53959 16.1728 7.71328 16.1542 7.86102 16.0737C7.92331 16.0396 9.26262 15.2982 10.792 13.6053C11.4414 14.2997 11.8879 14.6274 11.9147 14.6464C11.9822 14.6954 12.0587 14.7306 12.1398 14.7501C12.2209 14.7695 12.305 14.7727 12.3874 14.7596C12.4698 14.7465 12.5488 14.7172 12.6198 14.6736C12.6909 14.6299 12.7526 14.5726 12.8015 14.5051V14.5054Z" fill="currentColor"/>
</svg>
