<svg width="24" height="24" viewBox="0 0 24 24" fill="none" xmlns="http://www.w3.org/2000/svg">
<path d="M4.5 4.28571C4.5 4.12857 4.64674 4 4.82609 4H6.13043H7.43478H13.6304C16.1535 4 18.1957 5.78929 18.1957 8C18.1957 9.53929 17.2011 10.875 15.7459 11.5464C17.8981 11.9929 19.5 13.6893 19.5 15.7143C19.5 18.0821 17.3111 20 14.6087 20H7.43478H6.13043H4.82609C4.64674 20 4.5 19.8714 4.5 19.7143C4.5 19.5571 4.64674 19.4286 4.82609 19.4286H5.80435V11.7143V4.57143H4.82609C4.64674 4.57143 4.5 4.44286 4.5 4.28571ZM6.45652 19.4286H7.43478H14.6087C16.9484 19.4286 18.8478 17.7643 18.8478 15.7143C18.8478 13.6643 16.9484 12 14.6087 12H13.6304H6.45652V19.4286ZM6.45652 11.4286H13.6304C15.7908 11.4286 17.5435 9.89286 17.5435 8C17.5435 6.10714 15.7908 4.57143 13.6304 4.57143H7.43478H6.45652V11.4286Z" stroke="currentColor"/>
</svg>
