<svg width="24" height="24" viewBox="0 0 24 24" fill="none" xmlns="http://www.w3.org/2000/svg">
<path d="M12.2643 4.17857C12.2214 4.07143 12.1143 4 12 4C11.8857 4 11.7786 4.07143 11.7357 4.17857L5.52143 19.4286H4.28571C4.12857 19.4286 4 19.5571 4 19.7143C4 19.8714 4.12857 20 4.28571 20H7.71429C7.87143 20 8 19.8714 8 19.7143C8 19.5571 7.87143 19.4286 7.71429 19.4286H6.13929L8 14.8571H16L17.8607 19.4286H16.2857C16.1286 19.4286 16 19.5571 16 19.7143C16 19.8714 16.1286 20 16.2857 20H19.7143C19.8714 20 20 19.8714 20 19.7143C20 19.5571 19.8714 19.4286 19.7143 19.4286H18.4786L12.2643 4.17857ZM15.7643 14.2857H8.23571L12 5.04286L15.7643 14.2857Z" stroke="currentColor"/>
</svg>
