<svg width="24" height="24" viewBox="0 0 24 24" fill="none" xmlns="http://www.w3.org/2000/svg">
<path d="M2.025 5.30357C2.025 5.15625 2.14312 5.03571 2.2875 5.03571H7.5375V18.9643H4.9125C4.76812 18.9643 4.65 19.0848 4.65 19.2321C4.65 19.3795 4.76812 19.5 4.9125 19.5H7.8H10.6875C10.8319 19.5 10.95 19.3795 10.95 19.2321C10.95 19.0848 10.8319 18.9643 10.6875 18.9643H8.0625V5.03571H13.3125C13.4569 5.03571 13.575 5.15625 13.575 5.30357V6.91071C13.575 7.05804 13.6931 7.17857 13.8375 7.17857C13.9819 7.17857 14.1 7.05804 14.1 6.91071V5.30357C14.1 4.85826 13.7489 4.5 13.3125 4.5H7.8H2.2875C1.85109 4.5 1.5 4.85826 1.5 5.30357V6.91071C1.5 7.05804 1.61812 7.17857 1.7625 7.17857C1.90687 7.17857 2.025 7.05804 2.025 6.91071V5.30357ZM12.525 11.7321C12.525 11.5848 12.6431 11.4643 12.7875 11.4643H16.9875V18.9643H14.3625C14.2181 18.9643 14.1 19.0848 14.1 19.2321C14.1 19.3795 14.2181 19.5 14.3625 19.5H17.25H20.1375C20.2819 19.5 20.4 19.3795 20.4 19.2321C20.4 19.0848 20.2819 18.9643 20.1375 18.9643H17.5125V11.4643H21.7125C21.8569 11.4643 21.975 11.5848 21.975 11.7321V13.3393C21.975 13.4866 22.0931 13.6071 22.2375 13.6071C22.3819 13.6071 22.5 13.4866 22.5 13.3393V11.7321C22.5 11.2868 22.1489 10.9286 21.7125 10.9286H17.25H12.7875C12.3511 10.9286 12 11.2868 12 11.7321V13.3393C12 13.4866 12.1181 13.6071 12.2625 13.6071C12.4069 13.6071 12.525 13.4866 12.525 13.3393V11.7321Z" stroke="currentColor"/>
</svg>
