<svg width="24" height="24" viewBox="0 0 24 24" fill="none" xmlns="http://www.w3.org/2000/svg">
<path d="M4.87354 4.075C4.75514 3.975 4.57945 3.975 4.46105 4.075L1.10006 6.93214C0.974021 7.03929 0.966382 7.21786 1.08096 7.33571C1.19554 7.45357 1.38651 7.46071 1.51254 7.35357L4.36175 4.93214V19.0679L1.51254 16.6464C1.38651 16.5393 1.19554 16.55 1.08096 16.6643C0.966382 16.7786 0.97784 16.9607 1.10006 17.0679L4.46105 19.925C4.57945 20.025 4.75514 20.025 4.87354 19.925L8.23453 17.0679C8.36057 16.9607 8.36821 16.7821 8.25363 16.6643C8.13905 16.5464 7.94809 16.5393 7.82205 16.6464L4.97284 19.0679V4.93214L7.82205 7.35357C7.94809 7.46071 8.13905 7.45 8.25363 7.33571C8.36821 7.22143 8.35675 7.03929 8.23453 6.93214L4.87354 4.075ZM11.0837 6C10.9157 6 10.7782 6.12857 10.7782 6.28571C10.7782 6.44286 10.9157 6.57143 11.0837 6.57143H22.6945C22.8625 6.57143 23 6.44286 23 6.28571C23 6.12857 22.8625 6 22.6945 6H11.0837ZM10.7782 11.7143C10.6101 11.7143 10.4727 11.8429 10.4727 12C10.4727 12.1571 10.6101 12.2857 10.7782 12.2857H22.6945C22.8625 12.2857 23 12.1571 23 12C23 11.8429 22.8625 11.7143 22.6945 11.7143H10.7782ZM10.7782 17.7143C10.7782 17.8714 10.9157 18 11.0837 18H22.6945C22.8625 18 23 17.8714 23 17.7143C23 17.5571 22.8625 17.4286 22.6945 17.4286H11.0837C10.9157 17.4286 10.7782 17.5571 10.7782 17.7143Z" stroke="currentColor"/>
</svg>
