<svg viewBox="0 0 24 24" fill="none" xmlns="http://www.w3.org/2000/svg">
  <path fill-rule="evenodd" clip-rule="evenodd" d="M5.4668 10.6254C5.4668 7.6054 7.91497 5.15723 10.9349 5.15723C13.9549 5.15723 16.4031 7.6054 16.4031 10.6254C16.4031 13.6454 13.9549 16.0935 10.9349 16.0935C7.91497 16.0935 5.4668 13.6454 5.4668 10.6254ZM10.9349 3.65723C7.08654 3.65723 3.9668 6.77697 3.9668 10.6254C3.9668 14.4738 7.08654 17.5935 10.9349 17.5935C12.4434 17.5935 13.8399 17.1142 14.9805 16.2996L18.748 20.1196C19.0388 20.4145 19.5137 20.4177 19.8086 20.1269C20.1035 19.836 20.1068 19.3612 19.816 19.0663L16.102 15.3006C17.2213 14.0643 17.9031 12.4245 17.9031 10.6254C17.9031 6.77697 14.7834 3.65723 10.9349 3.65723Z" fill="currentColor"/>
</svg> 