<svg width="24" height="24" viewBox="0 0 24 24" fill="none" xmlns="http://www.w3.org/2000/svg">
<path d="M11.5012 14.575C12.7024 14.575 13.6762 13.6012 13.6762 12.4C13.6762 11.1988 12.7024 10.225 11.5012 10.225C10.3 10.225 9.32617 11.1988 9.32617 12.4C9.32617 13.6012 10.3 14.575 11.5012 14.575Z" stroke="currentColor" stroke-width="1.5"/>
<path d="M5.45372 11.414C5.79665 11.6286 6.01705 11.9955 6.01705 12.4C6.01705 12.8046 5.79665 13.1714 5.45372 13.386C5.221 13.5332 5.0702 13.6499 4.96362 13.7891C4.84769 13.9402 4.76266 14.1127 4.7134 14.2967C4.66414 14.4807 4.65161 14.6726 4.67652 14.8614C4.71422 15.1471 4.88315 15.4399 5.22027 16.025C5.55885 16.6101 5.72777 16.9023 5.95615 17.0784C6.10726 17.1944 6.27974 17.2794 6.46372 17.3287C6.64771 17.3779 6.83959 17.3905 7.02842 17.3656C7.20242 17.3424 7.3786 17.2713 7.6222 17.1423C7.79653 17.0468 7.99225 16.9973 8.19098 16.9983C8.38971 16.9994 8.58492 17.0509 8.75827 17.148C9.10845 17.351 9.31652 17.7244 9.33102 18.129C9.34117 18.4045 9.36727 18.593 9.4347 18.7546C9.50757 18.9307 9.61442 19.0906 9.74915 19.2254C9.88387 19.3601 10.0438 19.467 10.2199 19.5398C10.4859 19.65 10.8238 19.65 11.4995 19.65C12.1752 19.65 12.513 19.65 12.7791 19.5398C12.9552 19.467 13.1151 19.3601 13.2498 19.2254C13.3846 19.0906 13.4914 18.9307 13.5643 18.7546C13.631 18.593 13.6578 18.4045 13.668 18.129C13.6825 17.7244 13.8905 17.3503 14.2407 17.148C14.4141 17.0509 14.6093 16.9994 14.808 16.9983C15.0067 16.9973 15.2025 17.0468 15.3768 17.1423C15.6204 17.2713 15.7973 17.3424 15.9713 17.3656C16.3524 17.4157 16.7378 17.3124 17.0428 17.0784C17.2712 16.903 17.4401 16.6101 17.778 16.025C17.9288 15.764 18.0455 15.5618 18.1325 15.3921M17.5453 13.3867C17.3755 13.2836 17.2348 13.139 17.1363 12.9665C17.0377 12.794 16.9846 12.5994 16.9819 12.4007C16.9819 11.9955 17.2023 11.6286 17.5453 11.4133C17.778 11.2668 17.9281 11.1501 18.0354 11.0109C18.1513 10.8598 18.2363 10.6873 18.2856 10.5033C18.3349 10.3194 18.3474 10.1275 18.3225 9.93865C18.2848 9.653 18.1158 9.3601 17.7787 8.77502C17.4401 8.18995 17.2712 7.89777 17.0428 7.7216C16.8917 7.60567 16.7193 7.52064 16.5353 7.47138C16.3513 7.42212 16.1594 7.40958 15.9706 7.4345C15.7966 7.4577 15.6204 7.52875 15.3761 7.6578C15.2018 7.75308 15.0062 7.80253 14.8076 7.80151C14.6091 7.8005 14.414 7.74905 14.2407 7.652C14.0699 7.55043 13.9278 7.40712 13.8276 7.23554C13.7274 7.06395 13.6725 6.86972 13.668 6.67107C13.6578 6.39557 13.6317 6.20707 13.5643 6.0454C13.4914 5.86936 13.3846 5.7094 13.2498 5.57467C13.1151 5.43995 12.9552 5.3331 12.7791 5.26022C12.513 5.15002 12.1752 5.15002 11.4995 5.15002C10.8238 5.15002 10.4859 5.15002 10.2199 5.26022C10.0438 5.3331 9.88387 5.43995 9.74915 5.57467C9.61442 5.7094 9.50757 5.86936 9.4347 6.0454C9.368 6.20707 9.34117 6.39557 9.33102 6.67107C9.3265 6.86972 9.27157 7.06395 9.17139 7.23554C9.0712 7.40712 8.92904 7.55043 8.75827 7.652C8.58492 7.74918 8.38971 7.8007 8.19098 7.80171C7.99225 7.80273 7.79653 7.75321 7.6222 7.6578C7.3786 7.52875 7.2017 7.4577 7.0277 7.4345C6.64658 7.38438 6.26115 7.48765 5.95615 7.7216C5.7285 7.89777 5.55885 8.18995 5.221 8.77502C5.0702 9.03602 4.95347 9.2383 4.86647 9.40795" stroke="currentColor" stroke-width="1.5" stroke-linecap="round"/>
</svg>
