<svg width="24" height="24" viewBox="0 0 24 24" fill="none" xmlns="http://www.w3.org/2000/svg">
<path d="M12.2287 13.8002C13.2228 13.8002 14.0287 12.9943 14.0287 12.0002C14.0287 11.0061 13.2228 10.2002 12.2287 10.2002C11.2346 10.2002 10.4287 11.0061 10.4287 12.0002C10.4287 12.9943 11.2346 13.8002 12.2287 13.8002Z" stroke="currentColor" stroke-width="1.5"/>
<path d="M7.22578 11.184C7.50958 11.3616 7.69198 11.6652 7.69198 12C7.69198 12.3348 7.50958 12.6384 7.22578 12.816C7.03318 12.9378 6.90838 13.0344 6.82018 13.1496C6.72423 13.2747 6.65386 13.4174 6.6131 13.5697C6.57233 13.7219 6.56196 13.8807 6.58258 14.037C6.61378 14.2734 6.75358 14.5158 7.03258 15C7.31278 15.4842 7.45258 15.726 7.64158 15.8718C7.76664 15.9677 7.90938 16.0381 8.06164 16.0789C8.2139 16.1196 8.37271 16.13 8.52898 16.1094C8.67298 16.0902 8.81878 16.0314 9.02038 15.9246C9.16465 15.8456 9.32663 15.8047 9.4911 15.8055C9.65556 15.8063 9.81711 15.849 9.96058 15.9294C10.2504 16.0974 10.4226 16.4064 10.4346 16.7412C10.443 16.9692 10.4646 17.1252 10.5204 17.259C10.5807 17.4047 10.6691 17.5371 10.7806 17.6486C10.8921 17.7601 11.0245 17.8485 11.1702 17.9088C11.3904 18 11.67 18 12.2292 18C12.7884 18 13.068 18 13.2882 17.9088C13.4339 17.8485 13.5662 17.7601 13.6777 17.6486C13.7892 17.5371 13.8777 17.4047 13.938 17.259C13.9932 17.1252 14.0154 16.9692 14.0238 16.7412C14.0358 16.4064 14.208 16.0968 14.4978 15.9294C14.6412 15.849 14.8028 15.8063 14.9673 15.8055C15.1317 15.8047 15.2937 15.8456 15.438 15.9246C15.6396 16.0314 15.786 16.0902 15.93 16.1094C16.2454 16.1509 16.5644 16.0654 16.8168 15.8718C17.0058 15.7266 17.1456 15.4842 17.4252 15C17.55 14.784 17.6466 14.6166 17.7186 14.4762M17.2326 12.8166C17.0921 12.7312 16.9756 12.6115 16.8941 12.4688C16.8125 12.3261 16.7686 12.165 16.7664 12.0006C16.7664 11.6652 16.9488 11.3616 17.2326 11.1834C17.4252 11.0622 17.5494 10.9656 17.6382 10.8504C17.7341 10.7253 17.8045 10.5826 17.8453 10.4303C17.886 10.2781 17.8964 10.1193 17.8758 9.963C17.8446 9.7266 17.7048 9.4842 17.4258 9C17.1456 8.5158 17.0058 8.274 16.8168 8.1282C16.6917 8.03225 16.549 7.96189 16.3967 7.92112C16.2445 7.88035 16.0856 7.86998 15.9294 7.8906C15.7854 7.9098 15.6396 7.9686 15.4374 8.0754C15.2932 8.15425 15.1313 8.19517 14.967 8.19433C14.8026 8.19349 14.6412 8.15092 14.4978 8.0706C14.3564 7.98654 14.2388 7.86794 14.1559 7.72594C14.073 7.58394 14.0275 7.42319 14.0238 7.2588C14.0154 7.0308 13.9938 6.8748 13.938 6.741C13.8777 6.59531 13.7892 6.46293 13.6777 6.35143C13.5662 6.23994 13.4339 6.15151 13.2882 6.0912C13.068 6 12.7884 6 12.2292 6C11.67 6 11.3904 6 11.1702 6.0912C11.0245 6.15151 10.8921 6.23994 10.7806 6.35143C10.6691 6.46293 10.5807 6.59531 10.5204 6.741C10.4652 6.8748 10.443 7.0308 10.4346 7.2588C10.4308 7.42319 10.3854 7.58394 10.3025 7.72594C10.2196 7.86794 10.1019 7.98654 9.96058 8.0706C9.81711 8.15103 9.65556 8.19366 9.4911 8.1945C9.32663 8.19534 9.16465 8.15436 9.02038 8.0754C8.81878 7.9686 8.67238 7.9098 8.52838 7.8906C8.21297 7.84912 7.894 7.93458 7.64158 8.1282C7.45318 8.274 7.31278 8.5158 7.03318 9C6.90838 9.216 6.81178 9.3834 6.73978 9.5238" stroke="currentColor" stroke-width="1.5" stroke-linecap="round"/>
</svg>
