<svg width="24" height="24" viewBox="0 0 24 24" fill="none" xmlns="http://www.w3.org/2000/svg">
<path d="M6.34667 6.34667L6.96875 6.96875M12 4V4.88875M17.6533 6.34667L17.0313 6.96875M20 12H19.1113M17.6533 17.6533L17.0313 17.0313M12 20V19.1113M6.34667 17.6533L6.96875 17.0313M4 12H4.88875" stroke="currentColor" stroke-linecap="round" stroke-linejoin="round"/>
<path d="M11.9997 15.5552C12.9427 15.5552 13.847 15.1806 14.5138 14.5138C15.1806 13.847 15.5552 12.9427 15.5552 11.9997C15.5552 11.0568 15.1806 10.1525 14.5138 9.48569C13.847 8.81892 12.9427 8.44434 11.9997 8.44434C11.0568 8.44434 10.1525 8.81892 9.48569 9.48569C8.81892 10.1525 8.44434 11.0568 8.44434 11.9997C8.44434 12.9427 8.81892 13.847 9.48569 14.5138C10.1525 15.1806 11.0568 15.5552 11.9997 15.5552Z" stroke="currentColor" stroke-linecap="round" stroke-linejoin="round"/>
</svg>
