<svg width="32" height="32" viewBox="0 0 32 32" fill="none" xmlns="http://www.w3.org/2000/svg">
  <path d="M24.25 11H7.75C7.55109 11 7.36032 10.8946 7.21967 10.7071C7.07902 10.5196 7 10.2652 7 10C7 9.73478 7.07902 9.48043 7.21967 9.29289C7.36032 9.10536 7.55109 9 7.75 9H24.25C24.4489 9 24.6397 9.10536 24.7803 9.29289C24.921 9.48043 25 9.73478 25 10C25 10.2652 24.921 10.5196 24.7803 10.7071C24.6397 10.8946 24.4489 11 24.25 11Z" fill="currentColor"/>
  <path d="M7.75 15H18.25C18.4489 15 18.6397 15.1054 18.7803 15.2929C18.921 15.4804 19 15.7348 19 16C19 16.2652 18.921 16.5196 18.7803 16.7071C18.6397 16.8946 18.4489 17 18.25 17H7.75C7.55109 17 7.36032 16.8946 7.21967 16.7071C7.07902 16.5196 7 16.2652 7 16C7 15.7348 7.07902 15.4804 7.21967 15.2929C7.36032 15.1054 7.55109 15 7.75 15Z" fill="currentColor"/>
  <path d="M7.75 21H24.25C24.4489 21 24.6397 21.1054 24.7803 21.2929C24.921 21.4804 25 21.7348 25 22C25 22.2652 24.921 22.5196 24.7803 22.7071C24.6397 22.8946 24.4489 23 24.25 23H7.75C7.55109 23 7.36032 22.8946 7.21967 22.7071C7.07902 22.5196 7 22.2652 7 22C7 21.7348 7.07902 21.4804 7.21967 21.2929C7.36032 21.1054 7.55109 21 7.75 21Z" fill="currentColor"/>
</svg>
