<svg width="18" height="18" viewBox="0 0 18 18" fill="none" xmlns="http://www.w3.org/2000/svg">
  <path d="M17.25 4H0.75C0.551088 4 0.360321 3.89464 0.219669 3.70711C0.0790176 3.51957 0 3.26522 0 3C0 2.73478 0.0790176 2.48043 0.219669 2.29289C0.360321 2.10536 0.551088 2 0.75 2H17.25C17.4489 2 17.6397 2.10536 17.7803 2.29289C17.921 2.48043 18 2.73478 18 3C18 3.26522 17.921 3.51957 17.7803 3.70711C17.6397 3.89464 17.4489 4 17.25 4Z" fill="#F1F1F1" fill-opacity="0.9" />
  <path d="M0.75 8H11.25C11.4489 8 11.6397 8.10536 11.7803 8.29289C11.921 8.48043 12 8.73478 12 9C12 9.26522 11.921 9.51957 11.7803 9.70711C11.6397 9.89464 11.4489 10 11.25 10H0.75C0.551087 10 0.360322 9.89464 0.219669 9.70711C0.0790167 9.51957 0 9.26522 0 9C0 8.73478 0.0790167 8.48043 0.219669 8.29289C0.360322 8.10536 0.551087 8 0.75 8Z" fill="#F1F1F1" fill-opacity="0.9" />
  <path d="M0.75 14H17.25C17.4489 14 17.6397 14.1054 17.7803 14.2929C17.921 14.4804 18 14.7348 18 15C18 15.2652 17.921 15.5196 17.7803 15.7071C17.6397 15.8946 17.4489 16 17.25 16H0.75C0.551088 16 0.360321 15.8946 0.219669 15.7071C0.0790176 15.5196 0 15.2652 0 15C0 14.7348 0.0790176 14.4804 0.219669 14.2929C0.360321 14.1054 0.551088 14 0.75 14Z" fill="#F1F1F1" fill-opacity="0.9" />
</svg>