<svg viewBox="0 0 18 18" fill="none" xmlns="http://www.w3.org/2000/svg">
  <path fill-rule="evenodd" clip-rule="evenodd" d="M10.3793 8.96495L15.5062 3.83806C15.6468 3.69741 15.7072 3.48802 15.6741 3.25596C15.6409 3.02389 15.5169 2.78816 15.3294 2.60063C15.1419 2.41309 14.9061 2.28911 14.6741 2.25596C14.442 2.22281 14.2326 2.2832 14.092 2.42385L8.96508 7.55073L3.90938 2.49503C3.76872 2.35438 3.55933 2.29399 3.32727 2.32714C3.0952 2.36029 2.85948 2.48427 2.67194 2.67181C2.4844 2.85935 2.36042 3.09508 2.32727 3.32714C2.29412 3.55921 2.35451 3.7686 2.49516 3.90925L7.55086 8.96495L2.4247 14.0911C2.28405 14.2318 2.22365 14.4412 2.25681 14.6732C2.28996 14.9053 2.41394 15.141 2.60148 15.3285C2.78901 15.5161 3.02474 15.6401 3.25681 15.6732C3.48887 15.7064 3.69826 15.646 3.83891 15.5053L8.96508 10.3792L14.1624 15.5765C14.3031 15.7172 14.5125 15.7776 14.7445 15.7444C14.9766 15.7113 15.2123 15.5873 15.3999 15.3997C15.5874 15.2122 15.7114 14.9765 15.7445 14.7444C15.7777 14.5123 15.7173 14.3029 15.5766 14.1623L10.3793 8.96495Z" fill="currentColor"/>
</svg> 