<svg viewBox="0 0 24 24" fill="none" xmlns="http://www.w3.org/2000/svg">
  <path d="M11.989 15.2281V4.20695M11.989 15.2281C11.989 16.6324 12.9332 17.8609 14.2895 18.221C14.5485 18.2898 14.8152 18.3246 15.0831 18.3246H18.4812M11.989 15.2281C11.989 16.6324 11.0447 17.8609 9.68844 18.221C9.42951 18.2898 9.16274 18.3246 8.89484 18.3246H5.51885M11.989 4.20695C12.5614 4.17946 13.5913 4.26157 13.9926 5.77438C14.185 6.49918 14.4568 7.59219 14.9658 9.28021C15.2821 10.3291 15.8991 11.8427 16.277 12.7394C16.4691 13.1951 16.9164 13.4865 17.4106 13.4865H18.4812M11.989 4.20695C11.4165 4.17946 10.3866 4.26157 9.98534 5.77438C9.793 6.49918 9.52119 7.59219 9.01216 9.28021C8.69587 10.3291 8.0789 11.8427 7.70092 12.7394C7.50883 13.1951 7.06159 13.4865 6.56738 13.4865H5.51885M18.5098 12.7714H21V19.7971H18.5098V12.7714ZM5.49023 12.7714H3V19.7971H5.49023V12.7714Z" stroke="currentColor" stroke-linejoin="round"/>
</svg> 