<svg viewBox="0 0 24 24" fill="none" xmlns="http://www.w3.org/2000/svg">
  <path d="M4.91214 10.844C5.31419 11.0956 5.57259 11.5257 5.57259 12C5.57259 12.4743 5.31419 12.9044 4.91214 13.156C4.63929 13.3285 4.46249 13.4654 4.33754 13.6286C4.20161 13.8058 4.10193 14.008 4.04417 14.2237C3.98642 14.4394 3.97173 14.6644 4.00094 14.8858C4.04514 15.2207 4.24319 15.5641 4.63844 16.25C5.03539 16.936 5.23344 17.2785 5.50119 17.485C5.67836 17.621 5.88057 17.7207 6.09627 17.7784C6.31198 17.8362 6.53695 17.8509 6.75834 17.8217C6.96234 17.7945 7.16889 17.7112 7.45449 17.5599C7.65888 17.448 7.88835 17.3899 8.12134 17.3911C8.35433 17.3923 8.5832 17.4527 8.78644 17.5667C9.19699 17.8047 9.44094 18.2424 9.45794 18.7167C9.46984 19.0397 9.50044 19.2607 9.57949 19.4502C9.66492 19.6566 9.7902 19.8442 9.94815 20.0021C10.1061 20.1601 10.2936 20.2854 10.5 20.3708C10.812 20.5 11.2081 20.5 12.0003 20.5C12.7925 20.5 13.1886 20.5 13.5005 20.3708C13.7069 20.2854 13.8945 20.1601 14.0524 20.0021C14.2104 19.8442 14.3356 19.6566 14.4211 19.4502C14.4993 19.2607 14.5307 19.0397 14.5426 18.7167C14.5596 18.2424 14.8036 17.8038 15.2141 17.5667C15.4174 17.4527 15.6462 17.3923 15.8792 17.3911C16.1122 17.3899 16.3417 17.448 16.5461 17.5599C16.8317 17.7112 17.0391 17.7945 17.2431 17.8217C17.6899 17.8804 18.1418 17.7593 18.4994 17.485C18.7671 17.2793 18.9652 16.936 19.3613 16.25C19.5381 15.944 19.6749 15.7069 19.7769 15.508M19.0884 13.1569C18.8894 13.0359 18.7244 12.8664 18.6089 12.6642C18.4934 12.462 18.4311 12.2337 18.428 12.0009C18.428 11.5257 18.6864 11.0956 19.0884 10.8432C19.3613 10.6715 19.5372 10.5346 19.663 10.3714C19.799 10.1942 19.8986 9.99202 19.9564 9.77631C20.0142 9.56061 20.0288 9.33563 19.9996 9.11425C19.9554 8.77935 19.7574 8.43595 19.3621 7.75C18.9652 7.06405 18.7671 6.7215 18.4994 6.51495C18.3222 6.37903 18.12 6.27934 17.9043 6.22159C17.6886 6.16383 17.4636 6.14914 17.2422 6.17835C17.0382 6.20555 16.8317 6.28885 16.5452 6.44015C16.3409 6.55185 16.1116 6.60983 15.8788 6.60864C15.646 6.60745 15.4173 6.54713 15.2141 6.43335C15.0139 6.31427 14.8473 6.14625 14.7298 5.94508C14.6123 5.74391 14.5479 5.51619 14.5426 5.2833C14.5307 4.9603 14.5001 4.7393 14.4211 4.54975C14.3356 4.34335 14.2104 4.15582 14.0524 3.99786C13.8945 3.83991 13.7069 3.71464 13.5005 3.6292C13.1886 3.5 12.7925 3.5 12.0003 3.5C11.2081 3.5 10.812 3.5 10.5 3.6292C10.2936 3.71464 10.1061 3.83991 9.94815 3.99786C9.7902 4.15582 9.66492 4.34335 9.57949 4.54975C9.50129 4.7393 9.46984 4.9603 9.45794 5.2833C9.45264 5.51619 9.38824 5.74391 9.27078 5.94508C9.15331 6.14625 8.98665 6.31427 8.78644 6.43335C8.5832 6.54729 8.35433 6.60769 8.12134 6.60888C7.88835 6.61007 7.65888 6.55201 7.45449 6.44015C7.16889 6.28885 6.96149 6.20555 6.75749 6.17835C6.31066 6.11959 5.85878 6.24066 5.50119 6.51495C5.23429 6.7215 5.03539 7.06405 4.63929 7.75C4.46249 8.056 4.32564 8.29315 4.22364 8.49205M14.5503 12C14.5503 13.4083 13.4086 14.55 12.0003 14.55C10.592 14.55 9.45029 13.4083 9.45029 12C9.45029 10.5917 10.592 9.45 12.0003 9.45C13.4086 9.45 14.5503 10.5917 14.5503 12Z" stroke="currentColor" stroke-linecap="round" stroke-linejoin="round"/>
</svg> 