<svg width="48" height="40" viewBox="0 0 48 40" fill="none" xmlns="http://www.w3.org/2000/svg">
<path d="M35 29.1667V17.8333C35 17.6263 34.9503 17.4222 34.8548 17.237C34.7594 17.0519 34.6208 16.8909 34.45 16.7667L24.825 9.76667C24.587 9.59357 24.2975 9.5 24 9.5C23.7025 9.5 23.413 9.59357 23.175 9.76667L13.55 16.7667C13.3792 16.8909 13.2406 17.0519 13.1452 17.237C13.0497 17.4222 13 17.6263 13 17.8333V29.1667C13 29.5203 13.1449 29.8594 13.4027 30.1095C13.6606 30.3595 14.0103 30.5 14.375 30.5H19.875C20.2397 30.5 20.5894 30.3595 20.8473 30.1095C21.1051 29.8594 21.25 29.5203 21.25 29.1667V25.1667C21.25 24.813 21.3949 24.4739 21.6527 24.2239C21.9106 23.9738 22.2603 23.8333 22.625 23.8333H25.375C25.7397 23.8333 26.0894 23.9738 26.3473 24.2239C26.6051 24.4739 26.75 24.813 26.75 25.1667V29.1667C26.75 29.5203 26.8949 29.8594 27.1527 30.1095C27.4106 30.3595 27.7603 30.5 28.125 30.5H33.625C33.9897 30.5 34.3394 30.3595 34.5973 30.1095C34.8551 29.8594 35 29.5203 35 29.1667Z" stroke="white" stroke-width="2" stroke-linecap="round" stroke-linejoin="round"/>
</svg>
