<svg width="49" height="40" viewBox="0 0 49 40" fill="none" xmlns="http://www.w3.org/2000/svg">
<path fill-rule="evenodd" clip-rule="evenodd" d="M23.5251 15.1641C23.3363 15.1007 23.1339 15.0664 22.9251 15.0664H18.2C17.9913 15.0664 17.7888 15.1007 17.6001 15.1641V13.3629C17.6001 12.4513 16.8109 11.7124 15.8375 11.7124H14.2625C13.2891 11.7124 12.5 12.4513 12.5 13.3629V28.8494C12.5 29.761 13.2891 30.4999 14.2625 30.4999H15.8375C16.2905 30.4999 16.7035 30.3399 17.0157 30.077C17.3326 30.3418 17.7517 30.4999 18.2 30.4999H22.9251C23.3734 30.4999 23.7925 30.3418 24.1095 30.077C24.4217 30.3399 24.8347 30.4999 25.2876 30.4999H28.4377C29.4111 30.4999 30.2002 29.7609 30.2002 28.8494V25.6085L30.5716 28.812C30.6883 29.8114 31.6349 30.5988 32.7491 30.4899L34.7384 30.294C35.8572 30.1837 36.604 29.2235 36.4882 28.2228L34.7719 13.4027L34.7714 13.3985C34.6511 12.4027 33.7089 11.6124 32.5912 11.7225L30.6027 11.9184C30.4624 11.9322 30.3278 11.9594 30.2002 11.9984V11.1505C30.2002 10.239 29.4111 9.5 28.4377 9.5H25.2876C24.3142 9.5 23.5251 10.239 23.5251 11.1505V15.1641ZM25.4751 11.5076V28.6738H28.2501V11.937L25.4751 11.5076ZM14.45 28.6738V13.5385H15.65V28.6738H14.45ZM18.3876 24.9518V21.2996H22.7376V24.9518H18.3876ZM18.3876 26.7779V28.6738H22.7376V26.7779H18.3876ZM32.7923 13.5388L30.8107 13.734C30.8095 13.7351 30.8076 13.7368 30.8055 13.7393C30.7964 13.7503 30.7887 13.7682 30.7915 13.7925L32.5102 28.6143C32.5131 28.6388 32.5251 28.6565 32.5386 28.6671C32.5434 28.6709 32.5471 28.6727 32.549 28.6735L34.5303 28.4783C34.5316 28.4773 34.5334 28.4756 34.5356 28.473C34.5446 28.462 34.5523 28.444 34.5495 28.4196L32.8337 13.6038L32.8336 13.6027C32.83 13.5751 32.8164 13.556 32.8026 13.5452C32.7979 13.5415 32.7943 13.5397 32.7923 13.5388Z" fill="white"/>
</svg>
