<svg width="49" height="40" viewBox="0 0 49 40" fill="none" xmlns="http://www.w3.org/2000/svg">
<path d="M24.5 14.75C25.3571 11.2959 28.5945 9.53227 35.6429 9.50001C35.7555 9.49957 35.8672 9.52191 35.9714 9.56573C36.0756 9.60955 36.1702 9.67398 36.2499 9.75532C36.3296 9.83666 36.3927 9.93329 36.4356 10.0396C36.4785 10.146 36.5004 10.26 36.5 10.375V26.125C36.5 26.3571 36.4097 26.5796 36.2489 26.7437C36.0882 26.9078 35.8702 27 35.6429 27C28.7857 27 26.1366 28.4115 24.5 30.5M24.5 14.75C23.6429 11.2959 20.4055 9.53227 13.3571 9.50001C13.2445 9.49957 13.1328 9.52191 13.0286 9.56573C12.9244 9.60955 12.8298 9.67398 12.7501 9.75532C12.6704 9.83666 12.6073 9.93329 12.5644 10.0396C12.5215 10.146 12.4996 10.26 12.5 10.375V26.0195C12.5 26.5598 12.8279 27 13.3571 27C20.2143 27 22.873 28.4219 24.5 30.5M24.5 14.75V30.5" stroke="white" stroke-width="2" stroke-linecap="round" stroke-linejoin="round"/>
</svg>
