<svg width="48" height="40" viewBox="0 0 48 40" fill="none" xmlns="http://www.w3.org/2000/svg">
<path d="M19.28 14.4V9.5M29.5467 14.4V9.5M22.2134 22.0999H17.8134V26.2999H22.2134M22.2134 22.0999V26.2999M22.2134 22.0999H31.0134M22.2134 26.2999L31.0134 26.3V17.9H22.2134L22.2134 26.2999ZM26.6134 17.9V26.3M15.1332 30.5H33.691C34.6416 30.5 35.4121 29.7645 35.4121 28.8571V13.9429C35.4121 13.0356 34.6416 12.3 33.691 12.3H15.1332C14.1827 12.3 13.4121 13.0356 13.4121 13.9429V28.8571C13.4121 29.7645 14.1827 30.5 15.1332 30.5Z" stroke="white" stroke-width="2" stroke-linecap="round" stroke-linejoin="round"/>
</svg>
