<svg width="48" height="40" viewBox="0 0 48 40" fill="none" xmlns="http://www.w3.org/2000/svg">
<path d="M20.9695 9.50015C19.451 9.50015 18.2003 10.5946 18.2003 11.9232L18.215 11.7908L17.3058 16.5642L15.5612 20.7415C15.528 20.7795 15.4883 20.8078 15.431 20.8078H14.508V20.0001H9.89258V30.5H14.508V28.0769H18.132C19.6495 28.0769 21.0166 27.4332 21.8926 26.4333C22.7695 27.4332 24.1357 28.0769 25.6532 28.0769H29.2772V30.5H33.8926V20.0001H29.2772V20.8078H28.3541C28.296 20.8078 28.2572 20.7795 28.2249 20.7415L26.4793 16.5642L25.5701 11.7908L25.5849 11.9232C25.5849 10.5946 24.3341 9.50015 22.8157 9.50015C22.5018 9.50015 22.1806 9.55346 21.8926 9.6835C21.6058 9.55932 21.2894 9.49649 20.9695 9.50015ZM20.9372 11.1284C20.9557 11.2448 20.9695 11.5097 20.9695 11.9232V24.3923C20.8486 24.9734 20.4982 25.499 19.9796 25.8772C19.461 26.2554 18.8071 26.4622 18.132 26.4616H14.508V22.4231H15.431C15.7881 22.4227 16.1387 22.3395 16.447 22.182C16.7554 22.0245 17.0106 21.7984 17.1867 21.5266L17.2237 21.4668L19.0947 16.9745L20.0464 11.9894V11.9232C20.0464 11.479 20.436 11.1438 20.9372 11.1284ZM22.848 11.1284C23.3492 11.1446 23.7387 11.4782 23.7387 11.9232V11.9894L24.6904 16.9745L26.5624 21.4668L26.5984 21.5274C26.7747 21.799 27.03 22.0249 27.3383 22.1823C27.6467 22.3396 27.9972 22.4227 28.3541 22.4231H29.2772V26.4616H25.6532C24.9779 26.4622 24.3239 26.2553 23.8053 25.8769C23.2866 25.4985 22.9364 24.9728 22.8157 24.3915V11.9232C22.8157 11.5097 22.8304 11.2448 22.848 11.1284ZM11.7387 21.6154H12.6618V28.8846H11.7387V21.6154ZM31.1233 21.6154H32.0464V28.8846H31.1233V21.6154Z" fill="white"/>
</svg>
