<?xml version="1.0" standalone="no"?>
<!DOCTYPE svg PUBLIC "-//W3C//DTD SVG 1.1//EN" "http://www.w3.org/Graphics/SVG/1.1/DTD/svg11.dtd" >
<svg xmlns="http://www.w3.org/2000/svg" xmlns:xlink="http://www.w3.org/1999/xlink" version="1.1">
<metadata>
Created by FontForge 20170731 at Mon Mar 30 11:32:11 2020
 By Aleksey,,,
Copyright 2013-2020 Aleksandr Andreev and Nikita Simmons (https://sci.ponomar.net/).
</metadata>
<defs>
<font id="TriodionUnicode" horiz-adv-x="0" >
  <font-face 
    font-family="Triodion Unicode"
    font-weight="400"
    font-stretch="normal"
    units-per-em="1000"
    panose-1="2 0 5 3 0 0 0 0 0 0"
    ascent="800"
    descent="-200"
    x-height="431"
    cap-height="676"
    bbox="-578 -511 1394 1126"
    underline-thickness="7"
    underline-position="-57"
    unicode-range="U+000D-F0023"
  />
<missing-glyph horiz-adv-x="651" 
d="M46 0v751h559v-751h-559zM559 46v659h-467v-659h467z" />
    <glyph glyph-name=".notdef" horiz-adv-x="651" 
d="M46 0v751h559v-751h-559zM559 46v659h-467v-659h467z" />
    <glyph glyph-name=".null" horiz-adv-x="427" 
d="M0 0v770h427v-770h-427zM398 748h-369l184 -350zM405 733l-184 -350l184 -349v699zM29 19h369l-185 350zM206 383l-184 350v-699z" />
    <glyph glyph-name="uni000D" unicode="&#xd;" horiz-adv-x="450" 
 />
    <glyph glyph-name="space" unicode=" " horiz-adv-x="450" 
 />
    <glyph glyph-name="exclam" unicode="!" horiz-adv-x="187" 
d="M116 225q-2 -11 -13 -11q-10 0 -12 12q-22 189 -67 454q-1 7 4 13.5t12 6.5l96 -2q16 0 16 -16q-5 -231 -36 -457zM93 140q29 0 50.5 -21.5t21.5 -50.5t-21.5 -50t-50.5 -21t-50.5 21t-21.5 50t21.5 50.5t50.5 21.5z" />
    <glyph glyph-name="quotedbl" unicode="&#x22;" horiz-adv-x="361" 
d="M233 347q-21 -9 -43 -9l67 256q9 6 38 15q15 4 33 7l14 -9zM83 347q-21 -9 -43 -9l67 256q9 6 38 15q15 4 33 7l14 -9z" />
    <glyph glyph-name="numbersign" unicode="#" horiz-adv-x="521" 
d="M471 271v-55h-109l-31 -216h-58l31 216h-134l-33 -216h-58l33 216h-107v55h116l21 134h-110v55h118l31 202h58l-31 -202h133l30 202h58l-30 -202h97v-55h-105l-20 -134h100zM333 405h-133l-21 -134h134z" />
    <glyph glyph-name="dollar" unicode="$" horiz-adv-x="500" 
d="M230 0q-65 0 -101.5 11t-84.5 40v130h15q17 -76 56 -114.5t115 -38.5v282q-98 55 -138 98q-40 44 -40 104q0 132 178 152v63h34v-63q114 -14 161 -53v-111h-15q-13 63 -47.5 96t-98.5 41v-246q3 -2 46.5 -27t61.5 -38q9 -6 14.5 -9.5t10.5 -8.5l7.5 -7.5t9 -10
t10.5 -12.5q20 -23 28 -65q5 -16 5 -43q0 -77 -47 -114q-46 -39 -146 -56v-87h-34v87zM230 407v230q-104 -21 -104 -103q0 -34 20 -60q18 -22 84 -67zM264 293v-265q114 23 114 118q0 48 -22 74q-23 30 -92 73z" />
    <glyph glyph-name="percent" unicode="%" horiz-adv-x="815" 
d="M569 0q-55 0 -87.5 36t-32.5 93q0 93 67 168q69 74 153 74q49 0 76 -28t27 -79q0 -62 -24.5 -118.5t-61.5 -94.5q-51 -51 -117 -51zM525 94q0 -28 17 -46t44 -18q46 0 83 39t57 89q20 55 20 101q0 32 -20.5 56t-49.5 24q-46 0 -82.5 -51t-53.5 -108q-15 -54 -15 -86z
M179 289q-49 0 -83.5 38t-34.5 89q0 94 67 170q69 76 154 76q32 0 50 -14q21 -15 30.5 -20.5t31 -12.5t45.5 -7q48 0 81 15q32 13 75 53h39l-385 -689h-48l351 626q-53 -30 -110 -30q-41 0 -65 10q7 -24 7 -44q0 -93 -60 -177q-59 -83 -145 -83zM137 384q0 -26 16.5 -43.5
t42.5 -17.5q61 0 112 71q51 72 51 157q0 19 -9 49q-37 10 -52 22q-10 10 -16 10q-48 0 -96 -88q-49 -86 -49 -160z" />
    <glyph glyph-name="ampersand" unicode="&#x26;" horiz-adv-x="544" 
d="M268 468q0 30 -15 49.5t-42 19.5q-29 0 -43 -25t-14 -60q0 -44 25 -100q51 29 72 60q17 29 17 56zM301 73q-105 110 -155 208q-23 -20 -36.5 -34.5t-25 -41t-11.5 -56.5q0 -82 72 -108q18 -7 42 -7q64 0 114 39zM298 293q12 14 30 21h177l9 -15q-15 -19 -39 -35
q-31 14 -69 16q13 -22 13 -63q0 -60 -47 -121q13 -13 25.5 -24.5t24.5 -20.5q23 -19 50 -19q11 0 24 3l4 -17q-44 -18 -59 -23q-22 -7 -33 -7q-10 0 -30 16q-26 19 -51 44q-69 -60 -152 -60q-118 0 -155 87q-12 29 -12 66q0 43 31 91q32 47 89 88q-25 62 -25 109
q0 49 22.5 85.5t58.5 54.5q24 11 48 11q45 0 68 -26t23 -72q0 -42 -26 -79q-25 -35 -74 -66q-18 -12 -27 -19q52 -97 149 -196q26 39 26 79q0 52 -41 75q-12 6 -23 6z" />
    <glyph glyph-name="quotesingle" unicode="'" horiz-adv-x="212" 
d="M83 347q-21 -9 -43 -9l67 256q9 6 38 15q15 4 33 7l14 -9z" />
    <glyph glyph-name="parenleft" unicode="(" horiz-adv-x="319" 
d="M166 313q0 -77 4.5 -145.5t17.5 -144.5t34 -133t57 -99.5t84 -55.5v-24q-68 8 -127.5 63t-99 137t-62.5 180.5t-23 194.5v9q0 94 22.5 191t62 180t99 141t128.5 70v-19q-41 -10 -73.5 -38.5t-53.5 -72t-35.5 -92.5t-21.5 -110t-10 -115t-3 -117z" />
    <glyph glyph-name="parenright" unicode=")" horiz-adv-x="319" 
d="M-44 -265q197 52 197 588q0 485 -197 535v19q55 -10 105 -50t87 -98.5t64.5 -131t41.5 -150t14 -152.5q0 -94 -22.5 -193t-61.5 -183.5t-99.5 -142t-128.5 -65.5v24z" />
    <glyph glyph-name="asterisk" unicode="*" horiz-adv-x="387" 
d="M376 539l-96 -34l46 -93l-93 45l-35 -96l-34 96l-91 -45l44 93l-96 34l94 34l-44 92l93 -45l34 96l35 -96l93 45l-46 -92zM290 539l-50 17l24 48l-49 -23l-17 49l-17 -49l-48 22l22 -47l-48 -17l49 -18l-23 -48l48 23l17 -49l17 49l49 -23l-24 48z" />
    <glyph glyph-name="plus" unicode="+" horiz-adv-x="453" 
d="M0 336h180v184h97v-184h173v-96h-173v-192h-97v192h-180v96z" />
    <glyph glyph-name="comma" unicode="," horiz-adv-x="305" 
d="M46 16q-8 0 -12.5 8t-4.5 17q0 31 21.5 66t54 59t62.5 24q52 0 82 -47t30 -107q0 -61 -35 -122t-86 -97q-13 -9 -21 -9q-7 0 -11.5 4.5t-4.5 11.5q0 13 8 23q29 41 43 73.5t14 69.5q0 39 -13.5 65t-42.5 26q-39 0 -61 -49q-3 -6 -9.5 -11t-13.5 -5z" />
    <glyph glyph-name="hyphen" unicode="-" horiz-adv-x="360" 
d="M333 165h-306v70h306v-70z" />
    <glyph glyph-name="period" unicode="." horiz-adv-x="176" 
d="M83 140q29 0 50.5 -21.5t21.5 -50.5t-21.5 -50t-50.5 -21t-50.5 21t-21.5 50t21.5 50.5t50.5 21.5z" />
    <glyph glyph-name="slash" unicode="/" horiz-adv-x="405" 
d="M400 768l-376 -1049h-59l376 1049h59z" />
    <glyph glyph-name="zero" unicode="0" horiz-adv-x="450" 
d="M226 575q-19 0 -35.5 -12t-33.5 -41t-27 -90.5t-10 -148.5q0 -258 104 -258q9 0 18.5 3t23.5 11.5t26 28t20 48.5q18 66 18 206q0 94 -16.5 154t-41.5 82q-19 17 -46 17zM222 -10q-58 0 -100 42q-41 40 -64.5 110.5t-23.5 151.5q0 142 57 229t135 87q74 0 122 -65
q68 -90 68 -242q0 -83 -19 -147t-49 -98.5t-62 -51t-64 -16.5z" />
    <glyph glyph-name="one" unicode="1" horiz-adv-x="418" 
d="M262 122q0 -60 16.5 -75.5t71.5 -15.5q4 -6 4 -17q0 -8 -4 -14h-262q-4 6 -4 14q0 11 4 17q57 0 77.5 16t20.5 75v326q0 58 -20 58q-27 0 -88 -25q-11 8 -14 27q135 63 196 100q6 0 6 -5q-4 -26 -4 -134v-347z" />
    <glyph glyph-name="two" unicode="2" horiz-adv-x="450" 
d="M54 468q0 50 51 96t129 46q68 0 118.5 -38.5t50.5 -113.5q0 -36 -15 -68t-32.5 -52.5t-52.5 -54.5l-101 -97q-74 -74 -74 -121h178q27 0 42 21t28 75q19 4 29 -5q0 -58 -24 -156h-78h-175h-83q0 48 22.5 91t91.5 114l74 73q82 83 82 176q0 65 -26.5 93t-60.5 28
q-50 0 -74.5 -19t-24.5 -42q0 -5 4 -14t4 -10q4 -14 4 -21q0 -15 -16 -26.5t-31 -11.5q-16 0 -28 11t-12 26z" />
    <glyph glyph-name="three" unicode="3" horiz-adv-x="450" 
d="M215 575q-18 0 -37 -5t-38.5 -23.5t-19.5 -47.5q0 -52 -39 -52q-16 0 -25 11t-9 23q0 15 9.5 34.5t29.5 42t59.5 37.5t90.5 15q70 0 109 -39q31 -32 31 -79q0 -42 -23 -73.5t-82 -59.5l1 -2q56 -9 98.5 -47t42.5 -111q0 -95 -66 -152t-159 -57q-50 0 -97 19.5t-47 47.5
q0 12 13.5 23.5t28.5 11.5q24 0 43 -26q1 -1 4.5 -6.5t5 -7.5t5 -6.5t6.5 -6.5t8.5 -5.5t11.5 -5t14 -2.5t17 -1q16 0 34.5 7t40 22.5t35.5 49.5t14 81q0 129 -131 129q-31 0 -48 -2l-5 32q69 10 113 54t44 87q0 45 -24 67.5t-59 22.5z" />
    <glyph glyph-name="four" unicode="4" horiz-adv-x="450" 
d="M260 507q-63 -85 -192 -288h192v288zM418 219q16 0 16 -16q0 -9 -10 -20t-20 -11h-68v-92q0 -33 14 -41t56 -8q4 -6 4 -17q0 -8 -4 -14h-110h-118q-4 6 -4 14q0 11 4 17q27 0 42 2.5t27.5 13.5t12.5 33v92h-204q-29 0 -40 42q164 256 272 385q9 11 16 11h32l2 -2
q-2 -8 -2 -97v-292h82z" />
    <glyph glyph-name="five" unicode="5" horiz-adv-x="450" 
d="M313 189q0 78 -32 115t-84 37q-63 0 -127 -24l34 288q58 -5 108 -5q59 0 164 11l7 -4l-16 -68q-61 -6 -105 -6q-34 0 -117 9l-20 -167q41 16 98 16q81 0 130 -54t49 -130q0 -95 -59.5 -156t-152.5 -61q-46 0 -94 22.5t-48 51.5q0 15 11.5 26t26.5 11q27 0 51 -32
q1 -2 6 -8.5t7 -9.5t7 -8t9 -7.5t10 -6t12.5 -4.5t14.5 -1q46 0 78 47.5t32 117.5z" />
    <glyph glyph-name="six" unicode="6" horiz-adv-x="450" 
d="M128 307q-8 -39 -8 -78q0 -118 32 -161.5t88 -43.5q39 0 64.5 41t25.5 119q0 22 -5.5 44.5t-17.5 46.5t-37 39.5t-60 15.5q-49 0 -82 -23zM136 343q47 22 96 22q95 0 138.5 -45.5t43.5 -117.5q0 -47 -18 -93.5t-62 -82.5t-106 -36q-26 0 -49.5 5.5t-50.5 21.5t-46.5 42
t-32.5 70.5t-13 102.5q0 61 24.5 125t69.5 117q83 97 218 137q12 -8 12 -26q-169 -64 -224 -242z" />
    <glyph glyph-name="seven" unicode="7" horiz-adv-x="450" 
d="M158 535q-19 0 -32.5 -4.5t-29.5 -25t-26 -57.5q-1 0 -4 -0.5t-4 -0.5q-8 0 -24 4q20 130 20 160q0 3 4 3q4 -1 17 -7.5t33 -6.5h206q38 0 78 11l16 -12q-119 -289 -224 -609h-68l-8 4q64 143 224 541h-178z" />
    <glyph glyph-name="eight" unicode="8" horiz-adv-x="450" 
d="M226 575q-43 0 -67.5 -24t-24.5 -60q0 -59 70 -105l32 -19q80 62 80 119q0 38 -22 63.5t-68 25.5zM386 485q0 -43 -38.5 -80t-85.5 -59l72 -43q78 -48 78 -141q0 -65 -52 -118.5t-144 -53.5q-81 0 -129.5 40.5t-48.5 115.5q0 68 58 120q39 33 80 55l-24 16
q-88 54 -88 135q0 59 46.5 98.5t121.5 39.5q72 0 113 -35t41 -90zM218 25q47 0 83.5 25.5t36.5 91.5q0 80 -86 133l-48 28q-56 -37 -77 -80t-21 -77q0 -61 35.5 -91t76.5 -30z" />
    <glyph glyph-name="nine" unicode="9" horiz-adv-x="450" 
d="M322 292q8 39 8 78q0 118 -32 161.5t-88 43.5q-39 0 -64.5 -41t-25.5 -119q0 -22 5.5 -44.5t17.5 -46.5t37 -39.5t60 -15.5q49 0 82 23zM314 256q-47 -22 -96 -22q-95 0 -138.5 45.5t-43.5 117.5q0 47 18 93.5t62 83t106 36.5q25 0 49 -5.5t51 -22t46.5 -42t32.5 -70.5
t13 -103q0 -61 -24.5 -125t-69.5 -117q-81 -94 -218 -135q-12 8 -12 24q169 64 224 242z" />
    <glyph glyph-name="colon" unicode=":" horiz-adv-x="204" 
d="M36 356q-6 8 0 15l59 73q8 10 16 0l62 -77q5 -7 0 -14l-59 -74q-8 -10 -16 0zM36 82q-6 8 0 15l59 73q8 10 16 0l62 -77q5 -7 0 -14l-59 -74q-8 -10 -16 0z" />
    <glyph glyph-name="semicolon" unicode=";" horiz-adv-x="314" 
d="M17 51q4 25 21 50.5t39.5 45t50.5 31.5t54 12q53 0 82.5 -46t29.5 -108q0 -61 -35 -122t-86 -97q-13 -9 -21 -9q-6 0 -10 3q-6 4 -6 13q0 13 8 23q57 82 57 138q0 44 -16.5 73.5t-49.5 29.5q-53 0 -82 -45q-12 -19 -25 -16q-15 5 -11 24zM149 459q29 0 50.5 -21.5
t21.5 -50.5t-21.5 -50t-50.5 -21t-50.5 21t-21.5 50t21.5 50.5t50.5 21.5z" />
    <glyph glyph-name="less" unicode="&#x3c;" horiz-adv-x="611" 
d="M583 508l-422 -212l422 -211v-60l-543 271l543 272v-60z" />
    <glyph glyph-name="equal" unicode="=" horiz-adv-x="376" 
d="M330 491q32 0 32 -49q0 -47 -32 -47h-284q-32 0 -32 47q0 49 32 49h284zM329 299q32 0 32 -49q0 -47 -32 -47h-283q-32 0 -32 47q0 49 32 49h283z" />
    <glyph glyph-name="greater" unicode="&#x3e;" horiz-adv-x="600" 
d="M40 84l423 212l-423 212v60l543 -272l-543 -271v59z" />
    <glyph glyph-name="question" unicode="?" horiz-adv-x="368" 
d="M129 781q84 0 148 -42t64 -113q0 -70 -87 -139l-35 -29q-69 -56 -69 -91q0 -55 82 -82q-40 -25 -71 -76q-66 28 -91 70q14 75 87 169l24 32q62 79 62 114q0 50 -51 79t-116 29q-3 0 -33 -2q29 32 49 79q26 2 37 2zM220 84q-45 -23 -80 -80q-34 55 -80 80q45 23 80 80
q35 -57 80 -80z" />
    <glyph glyph-name="at" unicode="@" horiz-adv-x="921" 
d="M409 143q-39 0 -63.5 34.5t-24.5 78.5q0 90 57 171q55 81 139 81q24 0 41 -10q17 -15 31 -42l10 38h69l-65 -254q-2 -16 -2 -18q0 -46 39 -46q49 0 89 61t40 136q0 113 -85 192q-85 80 -202 80q-126 0 -204 -93q-78 -94 -78 -229q0 -131 82 -214q82 -84 210 -84
q90 0 196 48l12 -30q-63 -28 -118 -43q-54 -14 -99 -14q-154 0 -261 98q-106 97 -106 242t106 248q108 102 259 102q140 0 233 -84q95 -85 95 -209q0 -98 -55 -169q-55 -70 -129 -70q-36 0 -61.5 20t-29.5 52q-55 -73 -125 -73zM392 272q0 -37 15 -61t45 -24q48 0 84 75
t36 144q0 58 -44 58q-42 0 -88 -56q-48 -54 -48 -136z" />
    <glyph glyph-name="A" unicode="A" horiz-adv-x="715" 
d="M263 283h177l-94 272h-6l-102 -259q-1 -1 -1 -4q0 -9 26 -9zM172 119q-1 -2 -6 -15t-9.5 -25.5t-4.5 -14.5q0 -29 72 -33q4 -4 4 -17q0 -10 -4 -14h-41h-87h-61h-28q-7 7 -7 14q0 10 7 17q26 2 40.5 6t31 19.5t28.5 45.5l227 536q22 0 55 20l206 -572q8 -23 23.5 -35
t28.5 -15t38 -5q5 -5 5 -17q0 -9 -5 -14h-36h-78h-89h-42q-4 4 -4 14q0 13 4 17q20 1 30.5 2.5t22.5 4.5t17.5 8.5t5.5 14.5q0 3 -2 11l-58 169h-211q-18 0 -24.5 -3.5t-10.5 -13.5z" />
    <glyph glyph-name="B" unicode="B" horiz-adv-x="562" 
d="M191 550v-184h74q142 0 142 115q0 69 -39 100.5t-90 31.5q-44 0 -61.5 -5.5t-21.5 -16t-4 -41.5zM191 332v-214q0 -48 16.5 -67.5t66.5 -19.5q105 0 142.5 35.5t37.5 98.5q0 73 -48.5 120t-145.5 47h-69zM144 645q18 0 65 1t64 1q215 0 215 -154q0 -39 -27.5 -75
t-67.5 -56v-2q70 -20 112 -64t42 -112q0 -35 -12 -65.5t-39 -58.5t-78.5 -44t-122.5 -16h-146h-87h-43q-5 5 -5 14q0 12 5 17q56 2 71.5 16.5t15.5 74.5v401q0 60 -15.5 74.5t-71.5 16.5q-5 5 -5 16q0 12 5 17q78 -2 125 -2z" />
    <glyph glyph-name="C" unicode="C" horiz-adv-x="636" 
d="M37 310q0 145 90.5 246.5t230.5 101.5q70 0 136 -22.5t83 -22.5q15 -83 22 -155q-14 -7 -22 -7q-3 0 -11 2q-51 168 -219 168q-87 0 -160 -89q-59 -74 -59 -203q0 -115 65.5 -206.5t162.5 -91.5q70 0 124.5 25.5t107.5 83.5q15 0 23 -15q-103 -135 -254 -135
q-154 0 -237 91t-83 229z" />
    <glyph glyph-name="D" unicode="D" horiz-adv-x="676" 
d="M191 84q0 -27 20.5 -39.5t88.5 -12.5q57 0 101 11.5t82 38.5t58.5 78t20.5 124q0 61 -15 117t-47 105t-90 78t-135 29q-84 0 -84 -49v-480zM148 645q16 0 71 1t94 1q144 0 244.5 -99.5t100.5 -239.5q0 -71 -21 -126.5t-53.5 -88.5t-77 -55t-87 -30t-88.5 -8h-182
q-52 0 -130 -2q-5 5 -5 16q0 12 5 17q56 2 71.5 16.5t15.5 74.5v401q0 60 -15.5 74.5t-71.5 16.5q-5 5 -5 16q0 12 5 17q80 -2 129 -2z" />
    <glyph glyph-name="E" unicode="E" horiz-adv-x="542" 
d="M312 361q58 0 58 47v4l-1 3q0 3 1 3q2 0 2 11q5 5 16 5q12 0 17 -5q-2 -48 -2 -86q0 -36 2 -88q-5 -5 -17 -5q-11 0 -16 5q-2 27 -6 38.5t-24 20.5t-61 9h-91v-221q0 -35 12.5 -49t43.5 -14h116q95 0 131 131q4 1 12 1q13 0 23 -6q-12 -75 -37 -165h-473q-4 4 -4 14
q0 13 4 17q56 2 71.5 16.5t15.5 74.5v401q0 60 -15.5 74.5t-71.5 16.5q-4 4 -4 16q0 13 4 17q80 -2 129 -2h255q26 0 49 4q4 0 4 -3q8 -34 22 -145q-11 -6 -24 -6q-1 0 -4 0.5t-5 0.5q-19 60 -40 84.5t-73 24.5h-75q-39 0 -52.5 -14.5t-13.5 -49.5v-180h122z" />
    <glyph glyph-name="F" unicode="F" horiz-adv-x="489" 
d="M305 323h-115v-201q0 -60 15.5 -74.5t71.5 -16.5q5 -5 5 -17q0 -9 -5 -14h-39h-90q-60 0 -130 -2q-4 4 -4 16q0 13 4 17q56 2 71.5 16.5t15.5 74.5v401q0 60 -15.5 74.5t-71.5 16.5q-4 4 -4 16q0 13 4 17q80 -2 129 -2h255q24 0 47 4q4 0 4 -3q8 -34 22 -145
q-13 -5 -31 -5q-12 39 -26 60t-45 35t-82 14h-45q-34 0 -45 -12t-11 -52v-180h93q61 0 75 12t16 56q5 5 16 5q12 0 17 -5q-2 -52 -2 -86q0 -38 2 -88q-5 -5 -17 -5q-11 0 -16 5q0 5 -1 5v6q0 7 -2.5 16.5t-8 18.5t-20.5 15.5t-37 6.5z" />
    <glyph glyph-name="G" unicode="G" horiz-adv-x="690" 
d="M377 658q49 0 86.5 -9t69 -21t52.5 -15q23 -104 23 -154q-15 -6 -29 -6h-4q-11 38 -24 64t-36.5 52t-61.5 39.5t-90 13.5q-91 0 -160.5 -84t-69.5 -211q0 -69 26.5 -136.5t83.5 -116t132 -48.5q115 0 155 38v153q0 28 -17.5 36.5t-64.5 11.5q-4 4 -4 18t4 18
q88 -2 124 -2q41 0 89 2q5 -5 5 -18t-5 -18q-23 -2 -34.5 -12.5t-11.5 -35.5v-116q0 -15 16 -28q-97 -83 -279 -83q-141 0 -228 90t-87 227q0 105 50.5 187t127.5 123t162 41z" />
    <glyph glyph-name="H" unicode="H" horiz-adv-x="728" 
d="M618 122q0 -60 15.5 -74.5t71.5 -16.5q5 -5 5 -17q0 -11 -5 -16q-88 2 -129 2q-40 0 -130 -2q-4 4 -4 16q0 13 4 17q56 2 71.5 16.5t15.5 74.5v199h-342v-199q0 -60 15.5 -74.5t71.5 -16.5q4 -4 4 -17q0 -12 -4 -16q-88 2 -129 2q-42 0 -130 -2q-5 5 -5 16q0 12 5 17
q56 2 71.5 16.5t15.5 74.5v401q0 60 -15.5 74.5t-71.5 16.5q-5 5 -5 16q0 12 5 17q76 -2 129 -2q54 0 130 2q4 -4 4 -17q0 -12 -4 -16q-56 -2 -71.5 -16.5t-15.5 -74.5v-160h342v160q0 60 -15.5 74.5t-71.5 16.5q-4 4 -4 16q0 13 4 17q88 -2 129 -2q48 0 130 2q5 -5 5 -17
q0 -11 -5 -16q-56 -2 -71.5 -16.5t-15.5 -74.5v-401z" />
    <glyph glyph-name="I" unicode="I" horiz-adv-x="296" 
d="M191 122q0 -60 15.5 -74.5t71.5 -16.5q4 -4 4 -17q0 -12 -4 -16q-90 2 -129 2q-40 0 -130 -2q-5 5 -5 16q0 12 5 17q56 2 71.5 16.5t15.5 74.5v401q0 60 -15.5 74.5t-71.5 16.5q-5 5 -5 16q0 12 5 17q94 -2 129 -2q42 0 130 2q4 -4 4 -17q0 -12 -4 -16
q-56 -2 -71.5 -16.5t-15.5 -74.5v-401z" />
    <glyph glyph-name="J" unicode="J" horiz-adv-x="332" 
d="M226 523v-420q0 -51 -9 -90.5t-26.5 -66.5t-31 -42t-35.5 -33q-50 -43 -117 -43q-22 0 -48.5 15t-26.5 39q0 15 16 29t28 14q28 0 40 -25q13 -27 40 -27q20 0 37 13t32.5 62.5t15.5 132.5v442q0 60 -17 74.5t-80 16.5q-4 4 -4 16q0 13 4 17q100 -2 139 -2q44 0 120 2
q5 -5 5 -17q0 -11 -5 -16q-48 -2 -62.5 -17t-14.5 -74z" />
    <glyph glyph-name="K" unicode="K" horiz-adv-x="646" 
d="M191 122q0 -60 15.5 -74.5t71.5 -16.5q4 -4 4 -17q0 -10 -4 -14h-45h-84q-40 0 -130 -2q-5 5 -5 16q0 12 5 17q56 2 71.5 16.5t15.5 74.5v401q0 60 -15.5 74.5t-71.5 16.5q-5 5 -5 16q0 12 5 17q90 -2 129 -2q38 0 130 2q4 -4 4 -17q0 -12 -4 -16q-56 -2 -71.5 -16.5
t-15.5 -74.5v-176q47 4 79 39l165 176q19 20 19 32q0 16 -47 20q-5 5 -5 16q0 12 5 17q74 -2 113 -2q33 0 95 2q5 -5 5 -17q0 -11 -5 -16q-26 -2 -41.5 -5t-39 -15.5t-45.5 -35.5l-147 -151q-35 -36 -35 -49q0 -10 13 -25l219 -260q14 -17 31 -26.5t27.5 -11.5t29.5 -4
q5 -5 5 -17q0 -11 -5 -16q-66 2 -101 2q-14 0 -54 -2q-5 0 -5 6q-3 27 -36 69l-157 198q-28 36 -83 38v-187z" />
    <glyph glyph-name="L" unicode="L" horiz-adv-x="521" 
d="M149 0q-52 0 -130 -2q-5 5 -5 16q0 12 5 17q56 2 71.5 16.5t15.5 74.5v401q0 60 -15.5 74.5t-71.5 16.5q-5 5 -5 16q0 12 5 17q92 -2 129 -2q40 0 130 2q4 -4 4 -17q0 -12 -4 -16q-56 -2 -71.5 -16.5t-15.5 -74.5v-414q0 -38 13.5 -54t43.5 -16h63q73 0 109.5 34.5
t53.5 96.5q2 0 5 0.5t4 0.5q13 0 24 -6q-10 -87 -26 -167q-92 2 -119 2h-213z" />
    <glyph glyph-name="M" unicode="M" horiz-adv-x="836" 
d="M660 198l-23 336h-2l-225 -529q-8 -15 -14 -15q-9 0 -15 15l-207 519h-2l-38 -401q-2 -20 -2 -28q0 -30 14.5 -45.5t53.5 -18.5q4 -4 4 -17q0 -10 -4 -14h-32h-62q-26 0 -86 -2q-4 4 -4 16q0 13 4 17q41 4 55.5 23t19.5 67l40 412q2 30 2 36q0 29 -12.5 36t-57.5 9
q-5 5 -5 16q0 12 5 17l145 -2l205 -508q5 -13 8 -13t9 14l212 507l131 2q5 -5 5 -17q0 -11 -5 -16q-42 -2 -56 -12t-14 -37q0 -3 0.5 -10.5t0.5 -12.5l30 -421q5 -62 15.5 -75t61.5 -15q5 -5 5 -17q0 -11 -5 -16q-66 2 -109 2q-33 0 -107 -2q-5 5 -5 16q0 12 5 17
q42 2 53.5 9t11.5 39q0 4 -2 57.5t-2 61.5z" />
    <glyph glyph-name="N" unicode="N" horiz-adv-x="708" 
d="M554 514q0 46 -8 66t-22 25t-55 9q-5 5 -5 16q0 12 5 17q88 -2 111 -2q30 0 112 2q4 -4 4 -17q0 -12 -4 -16q-56 -6 -71.5 -22t-15.5 -80v-491q0 -31 -23 -31q-22 0 -40 24l-349 441q-26 33 -34 33t-8 -49v-306q0 -35 3 -53.5t15 -29t25 -13.5t44 -6q4 -4 4 -17
q0 -10 -4 -14h-42h-69h-69h-43q-5 5 -5 14q0 12 5 17q56 6 71.5 22t15.5 80v417q-5 22 -27 42t-52 22q-5 5 -5 16q0 12 5 17l135 -2l343 -435q43 -55 48 -55q7 0 7 30z" />
    <glyph glyph-name="O" unicode="O" horiz-adv-x="694" 
d="M331 622q-82 0 -140 -74t-58 -221q0 -138 70 -219.5t167 -81.5q88 0 144 76.5t56 207.5q0 146 -68 229t-171 83zM666 329q0 -150 -87 -244.5t-229 -94.5q-132 0 -222.5 88t-90.5 232q0 150 82.5 249t224.5 99q139 0 230.5 -89t91.5 -240z" />
    <glyph glyph-name="P" unicode="P" horiz-adv-x="527" 
d="M189 554v-233q18 -5 76 -5q74 0 111.5 36.5t37.5 115.5q0 87 -38 118.5t-100 31.5q-87 0 -87 -64zM104 523q0 60 -15.5 74.5t-71.5 16.5q-5 5 -5 16q0 12 5 17q80 -2 129 -2q20 0 69 3.5t68 3.5q65 0 112 -17t70 -44.5t32.5 -53t9.5 -51.5q0 -35 -12 -68.5t-37.5 -65
t-74 -51t-113.5 -19.5q-50 0 -81 10v-170q0 -59 19 -73.5t83 -17.5q5 -5 5 -17q0 -9 -5 -14h-52h-92q-40 0 -130 -2q-5 5 -5 16q0 12 5 17q56 2 71.5 16.5t15.5 74.5v401z" />
    <glyph glyph-name="Q" unicode="Q" horiz-adv-x="703" 
d="M331 622q-82 0 -140 -74t-58 -221q0 -138 70 -219.5t167 -81.5q88 0 144 76.5t56 207.5q0 146 -68 229t-171 83zM666 329q0 -135 -70 -224.5t-187 -109.5q-65 -18 -131 -67q7 2 20 2q62 0 154 -44q82 -38 125 -38q57 0 87 37l17 -12q-57 -82 -144 -82q-74 0 -168 54
q-73 41 -118 41q-17 0 -35 -13q-19 -19 -38 -46l-39 20q8 13 18 23q60 74 152 122q-117 14 -194.5 100t-77.5 218q0 150 82.5 249t224.5 99q139 0 230.5 -89t91.5 -240z" />
    <glyph glyph-name="R" unicode="R" horiz-adv-x="607" 
d="M272 618q-83 0 -83 -64v-229h48q81 0 124.5 33t43.5 120q0 140 -133 140zM189 122q0 -60 15.5 -74.5t71.5 -16.5q4 -4 4 -17q0 -12 -4 -16q-88 2 -129 2q-40 0 -130 -2q-5 5 -5 16q0 12 5 17q56 2 71.5 16.5t15.5 74.5v401q0 60 -15.5 74.5t-71.5 16.5q-5 5 -5 16
q0 12 5 17q94 -2 129 -2q17 0 58.5 3.5t66.5 3.5q59 0 100 -9t73 -39q53 -50 53 -125q0 -69 -43.5 -112.5t-89.5 -58.5l126 -210q23 -38 44 -57.5t52 -19.5q3 -6 3 -14q0 -7 -2 -10q-14 -7 -42 -7q-77 0 -132 89l-107 174q-12 20 -35.5 29t-81.5 9v-169z" />
    <glyph glyph-name="S" unicode="S" horiz-adv-x="471" 
d="M392 633q18 -94 20 -131q-8 -7 -22 -7q-7 0 -10 1q-18 60 -50 94t-98 34q-44 0 -77 -34.5t-33 -77.5q0 -24 11.5 -45.5t26.5 -35t40.5 -27.5t41 -20.5t40.5 -15.5q74 -28 118 -70t44 -114q0 -48 -25 -91t-69 -70q-52 -33 -123 -33q-48 0 -100 11.5t-80 11.5
q-15 63 -20 152q10 5 19 5q4 0 14 -2q31 -142 175 -142q60 0 92.5 31.5t32.5 91.5q0 35 -11 60.5t-35 43t-40.5 25.5t-47.5 20q-81 31 -128 73.5t-47 113.5q0 77 55.5 125t134.5 48q57 0 97.5 -11.5t53.5 -13.5z" />
    <glyph glyph-name="T" unicode="T" horiz-adv-x="595" 
d="M352 124q0 -61 16.5 -76t78.5 -17q5 -5 5 -17q0 -9 -5 -14h-50h-89q-42 0 -140 -2q-4 4 -4 16q0 13 4 17q63 2 80 16.5t17 74.5v385q0 49 -10.5 74t-36.5 25h-49q-52 0 -85 -24t-47 -82q-21 0 -34 5q20 86 25 145q0 3 4 3q101 -8 233 -8h86q133 0 224 8q3 0 3 -3
q1 -66 13 -142q-11 -5 -34 -5q-12 56 -46 79.5t-93 23.5h-22q-26 0 -36 -25.5t-10 -76.5z" />
    <glyph glyph-name="U" unicode="U" horiz-adv-x="662" 
d="M172 523v-257q0 -42 2 -69t14 -62t35 -57q49 -47 119 -47q49 0 84 15.5t54 38t30 58t13.5 65t2.5 69.5v246q0 31 -3 47.5t-15.5 26t-26.5 12t-47 5.5q-4 4 -4 16q0 13 4 17h46h70h64h38q4 -4 4 -17q0 -12 -4 -16q-49 -6 -63 -20t-14 -71v-228q0 -71 -11 -123.5t-38.5 -95
t-78.5 -64.5t-126 -22q-34 0 -64 5.5t-62.5 21.5t-55 42t-37.5 70.5t-15 103.5v290q0 59 -14.5 74t-62.5 17q-4 4 -4 16q0 13 4 17q78 -2 119 -2t135 2q4 -4 4 -17q0 -12 -4 -16q-60 -2 -76 -16.5t-16 -74.5z" />
    <glyph glyph-name="V" unicode="V" horiz-adv-x="654" 
d="M448 614q-4 4 -4 16q0 13 4 17q82 -2 109 -2q28 0 88 2q5 -5 5 -17q0 -11 -5 -16q-30 -3 -50 -18t-28 -30t-20 -45l-207 -510q-10 -23 -24 -23t-23 23l-197 512q-22 55 -36.5 71t-53.5 20q-6 6 -6 18q0 10 5 15q66 -2 104 -2q41 0 121 2q4 -4 4 -17q0 -12 -4 -16
q-35 -4 -49 -11t-14 -23q0 -12 12 -46l159 -407h5l158 401q12 33 12 47q0 35 -65 39z" />
    <glyph glyph-name="W" unicode="W" horiz-adv-x="956" 
d="M810 565q3 9 3 17q0 10 -5 16t-17.5 9t-20 4t-26.5 3q-4 4 -4 16q0 13 4 17q80 -2 110 -2q29 0 87 2q5 -5 5 -17q0 -11 -5 -16q-38 -2 -56.5 -17t-29.5 -44l-201 -539q-9 -26 -23 -26q-13 0 -23 27l-115 332q-10 28 -14 28q-6 0 -17 -25l-149 -335q-11 -27 -26 -27
q-14 0 -22 27l-188 541q-14 39 -25 47.5t-46 10.5q-6 6 -6 16q0 11 6 17q58 -2 93 -2q50 0 116 2q5 -5 5 -17q0 -11 -5 -16q-18 -1 -27.5 -3t-17.5 -8t-8 -16q0 -6 3 -15l146 -442l5 -1l129 293q9 22 9 35q0 10 -7 31l-23 66q-20 56 -84 60q-4 4 -4 16q0 13 4 17
q64 -2 100 -2q43 0 125 2q5 -5 5 -17q0 -11 -5 -16q-18 -1 -28 -3t-19.5 -10t-9.5 -22q0 -8 5 -25l137 -422l4 -1z" />
    <glyph glyph-name="X" unicode="X" horiz-adv-x="645" 
d="M538 102q31 -43 50 -56t51 -15q5 -5 5 -18q0 -11 -4 -15q-60 2 -102 2q-40 0 -114 -2q-4 4 -4 16q0 13 4 17q44 3 44 16q0 8 -20 38l-124 176q-8 11 -14 11q-4 0 -15 -14l-132 -185q-11 -16 -11 -23q0 -16 50 -19q4 -4 4 -17q0 -12 -4 -16q-80 2 -105 2q-30 0 -90 -2
q-5 5 -5 16q0 12 5 17q36 3 61.5 16t49.5 46l148 198q10 13 10 23q0 9 -14 30l-142 203q-30 42 -49 53.5t-53 13.5q-5 5 -5 18q0 11 4 15q60 -2 102 -2q40 0 114 2q5 -5 5 -17q0 -11 -5 -16q-44 -3 -44 -16q0 -11 21 -38l110 -164q8 -11 12 -11q8 0 16 12l123 175
q10 14 10 23q0 16 -49 19q-4 4 -4 16q0 13 4 17q80 -2 105 -2q30 0 90 2q5 -5 5 -17q0 -11 -5 -16q-36 -3 -61 -16.5t-50 -45.5l-137 -177q-10 -13 -10 -30q0 -12 16 -33z" />
    <glyph glyph-name="Y" unicode="Y" horiz-adv-x="577" 
d="M337 122q0 -60 17 -74.5t80 -16.5q4 -4 4 -17q0 -12 -4 -16q-100 2 -139 2q-42 0 -140 -2q-5 5 -5 16q0 12 5 17q63 2 80 16.5t17 74.5v127q0 27 -4 40t-17 37l-131 221q-25 41 -42.5 53t-51.5 14q-6 6 -6 18q0 10 5 15q60 -2 102 -2t114 2q5 -5 5 -17q0 -11 -5 -16
q-50 -3 -50 -20q0 -10 14 -35l116 -205q8 -13 12 -13t10 11l111 209q9 18 9 29q0 21 -48 24q-5 5 -5 16q0 12 5 17q64 -2 91 -2t83 2q5 -5 5 -17q0 -11 -5 -16q-36 -3 -55.5 -15.5t-39.5 -48.5l-120 -216q-17 -32 -17 -76v-136z" />
    <glyph glyph-name="Z" unicode="Z" horiz-adv-x="590" 
d="M551 0h-127h-364q-19 0 -19 15q0 12 8 23q80 119 199.5 285.5t189.5 255.5q8 11 8 18q0 9 -10 9l-211 -4q-55 -1 -86.5 -27t-47.5 -79q-13 0 -30 5q17 89 22 152q99 -8 181 -8h221q17 0 43 1t30 1q13 0 13 -11q0 -14 -24 -45q-156 -201 -375 -519q-8 -14 -8 -20
q0 -14 23 -14h2l193 4q39 1 66.5 10t46 29.5t28 37.5t24.5 51q13 0 31 -5q-20 -87 -27 -165z" />
    <glyph glyph-name="bracketleft" unicode="[" horiz-adv-x="304" 
d="M304 -240h-248v1040h248v-40h-166v-960h166v-40z" />
    <glyph glyph-name="backslash" unicode="\" horiz-adv-x="405" 
d="M420 -281h-59l-376 1049h59z" />
    <glyph glyph-name="bracketright" unicode="]" horiz-adv-x="304" 
d="M0 800h248v-1040h-248v40h166v960h-166v40z" />
    <glyph glyph-name="asciicircum" unicode="^" horiz-adv-x="450" 
d="M224 593l-102 -247h-44l126 304h42l126 -304h-44z" />
    <glyph glyph-name="underscore" unicode="_" horiz-adv-x="465" 
d="M438 0h-411v70h411v-70z" />
    <glyph glyph-name="grave" unicode="`" horiz-adv-x="196" 
d="M147 506l-146 209v2q0 2 3 2h3h65l111 -205q1 -1 1 -3q0 -5 -4 -5h-33z" />
    <glyph glyph-name="a" unicode="a" horiz-adv-x="464" 
d="M282 244l-80 -21q-94 -24 -94 -110q0 -27 18.5 -49t53.5 -22q34 0 88 44q14 10 14 26v132zM118 375q0 -11 4 -20t4 -18q0 -11 -13.5 -22.5t-34.5 -11.5q-34 0 -34 36q0 42 51 76.5t113 34.5q152 0 152 -169v-147q0 -23 0.5 -34t3 -25t9 -20t17.5 -6q17 0 36 16
q15 -9 18 -27q-39 -37 -96 -37q-34 0 -47.5 15t-18.5 43h-2l-20 -16q-54 -42 -110 -42q-126 0 -126 108q0 50 46 88t120 57l86 21q6 3 6 12q0 130 -82 130q-33 0 -57.5 -10t-24.5 -32z" />
    <glyph glyph-name="b" unicode="b" horiz-adv-x="471" 
d="M174 373q-17 -14 -17 -42v-250q38 -47 72 -47q69 0 105 55.5t36 144.5q0 72 -32.5 121.5t-78.5 49.5q-49 0 -85 -32zM167 404q50 45 112 45q69 0 123 -55t54 -142q0 -112 -69 -182t-152 -70q-59 0 -88 25q-9 6 -13 6q-6 0 -15 -9q-4 -5 -23 -24q-14 0 -22 12q4 19 4 71
v488q0 32 -1.5 48t-12.5 23.5t-17 8t-33 2.5q-7 6 -7 23q0 5 1 7q89 7 140 27q13 0 13 -10q-4 -40 -4 -105v-184q0 -14 10 -5z" />
    <glyph glyph-name="c" unicode="c" horiz-adv-x="407" 
d="M394 101q-35 -57 -74.5 -79t-89.5 -22q-93 0 -145.5 59.5t-52.5 158.5q0 102 63 166.5t143 64.5q71 0 111.5 -26.5t40.5 -68.5q0 -21 -15 -32.5t-33 -11.5q-38 0 -38 36q0 70 -72 70q-50 0 -82 -47.5t-32 -128.5q0 -85 39 -138t95 -53q69 0 120 66q16 0 22 -14z" />
    <glyph glyph-name="d" unicode="d" horiz-adv-x="507" 
d="M337 134v190q0 23 -3 32.5t-14 21.5q-31 36 -81 36q-60 0 -93 -50q-29 -41 -29 -133q0 -88 33 -136t77 -48q39 0 94 48q16 14 16 39zM327 62q-76 -62 -126 -62q-79 0 -124.5 59t-45.5 154q0 107 69 176q63 60 150 60q15 0 33 -4.5t31 -8.5t14 -4q9 0 9 9v128
q0 57 -10 69.5t-47 12.5h-7q-7 7 -7 22q0 2 0.5 4.5t0.5 3.5q28 0 73.5 9.5t66.5 17.5q13 0 13 -10q-4 -40 -4 -105v-453q0 -40 14 -56.5t59 -16.5q5 -5 5 -14q0 -8 -5 -13q-80 -9 -118 -40q-3 -2 -9 -2t-10 2q-8 34 -11 59q0 5 -5 5.5t-9 -2.5z" />
    <glyph glyph-name="e" unicode="e" horiz-adv-x="438" 
d="M122 292l181 3q15 0 15 14q0 57 -24.5 81t-58.5 24q-13 0 -26 -3.5t-31.5 -14.5t-33.5 -38t-22 -66zM235 0q-95 0 -147.5 58t-52.5 154q0 106 63.5 170.5t136.5 64.5q169 0 169 -174q0 -17 -19 -17l-266 2q0 -84 32 -137q44 -72 109 -72q42 0 68.5 12t55.5 42
q17 -1 21 -16q-67 -87 -170 -87z" />
    <glyph glyph-name="f" unicode="f" horiz-adv-x="388" 
d="M170 122q0 -62 12.5 -75t71.5 -16q5 -5 5 -17q0 -11 -5 -16q-70 2 -123 2q-40 0 -110 -2q-4 4 -4 16q0 13 4 17q44 3 57 17.5t13 73.5v268h-69q-5 0 -5 6v13q0 20 23 20h51v40q0 109 53.5 169t123.5 60q60 0 90 -21q32 -24 32 -51q0 -15 -14 -28t-27 -13q-26 0 -40 32
q-10 26 -23.5 36.5t-36.5 10.5q-79 0 -79 -178v-57h108q8 0 8 -6v-20q0 -13 -23 -13h-93v-268z" />
    <glyph glyph-name="g" unicode="g" horiz-adv-x="503" 
d="M320 291q0 62 -25 95.5t-73 33.5q-80 0 -80 -106q0 -28 3 -48.5t12 -42t29 -33t50 -11.5q34 0 59 24.5t25 87.5zM132 2q-19 -24 -24.5 -44t-5.5 -50q0 -45 42 -71t78 -26q47 0 90.5 12t74.5 38t31 60q0 19 -11 32t-41 30t-120 17q-5 0 -30.5 -1.5t-43.5 -1.5q-20 0 -40 5
zM188 56q12 0 47.5 2.5t46.5 2.5q107 0 146 -33q44 -35 44 -81q0 -77 -86 -125t-194 -48q-67 0 -113.5 27t-46.5 87q0 72 82 121q-46 23 -46 77q0 27 12 55.5t32 45.5q-52 50 -52 112q0 67 51 109.5t121 42.5q62 0 104 -28q18 24 48 37.5t52 13.5q20 0 33 -10.5t13 -26.5
q0 -15 -11.5 -26.5t-26.5 -11.5q-7 0 -16 6t-12 12q-8 12 -20 12q-8 0 -20.5 -8t-19.5 -16q44 -44 44 -104q0 -70 -50 -111.5t-120 -41.5q-54 0 -90 21q-18 -25 -18 -58q0 -29 19.5 -42t46.5 -13z" />
    <glyph glyph-name="h" unicode="h" horiz-adv-x="532" 
d="M168 286v-164q0 -60 10 -74t50 -17q5 -5 5 -17q0 -11 -5 -16q-56 2 -99 2q-44 0 -110 -2q-4 4 -4 16q0 13 4 17q46 3 58 17t12 74v437q0 32 -1.5 48t-12.5 23.5t-17 8t-33 2.5q-7 7 -7 22q0 2 0.5 4.5t0.5 3.5q89 7 140 27q13 0 13 -10q-4 -40 -4 -105v-225q0 -12 9 0
q73 81 170 81q57 0 83 -34q27 -35 27 -134v-149q0 -59 11.5 -73t55.5 -18q4 -4 4 -17q0 -12 -4 -16q-66 2 -106 2q-46 0 -102 -2q-4 6 -4 16q0 11 4 17q41 4 51.5 18t10.5 73v152q0 53 -12 77q-16 34 -53 34q-69 0 -128 -57q-17 -19 -17 -42z" />
    <glyph glyph-name="i" unicode="i" horiz-adv-x="283" 
d="M90 599q0 18 17 33t35 15q20 0 34 -16.5t14 -35.5q0 -17 -16 -32.5t-36 -15.5q-18 0 -33 16.5t-15 35.5zM182 122q0 -60 12 -74t60 -17q4 -6 4 -17q0 -10 -4 -16q-68 2 -112 2t-112 -2q-4 6 -4 16q0 11 4 17q48 4 60 17.5t12 73.5v195q0 42 -11.5 53.5t-52.5 15.5
q-6 16 -2 27q94 12 136 29q14 0 14 -7q-4 -64 -4 -114v-199z" />
    <glyph glyph-name="j" unicode="j" horiz-adv-x="247" 
d="M92 623q0 18 17 33t35 15q19 0 33.5 -16.5t14.5 -35.5q0 -17 -16 -32.5t-36 -15.5q-18 0 -33 16.5t-15 35.5zM106 340q0 42 -11.5 53.5t-53.5 15.5q-6 17 -2 28q95 12 137 29q13 0 13 -7q-4 -64 -4 -114v-211q0 -135 -18.5 -201.5t-56.5 -97.5q-41 -34 -110 -34
q-18 0 -36.5 11.5t-18.5 31.5q0 13 11.5 25.5t20.5 12.5q5 0 10 -1.5t8.5 -3t8 -5t6.5 -5t6 -6t5 -5.5q11 -11 31 -11q34 0 44 66t10 189v240z" />
    <glyph glyph-name="k" unicode="k" horiz-adv-x="526" 
d="M88 122v437q0 57 -10 69.5t-47 12.5h-7q-7 7 -7 22q0 2 0.5 4.5t0.5 3.5q28 0 73.5 9.5t66.5 17.5q13 0 13 -10q-4 -40 -4 -105v-349q32 3 68 31q36 26 80 82q13 16 13 28q0 23 -36 23q-4 4 -4 16q0 13 4 17q10 0 43.5 -1t54.5 -1q20 0 48.5 1t38.5 1q5 -5 5 -17
q0 -11 -5 -16q-64 0 -105 -44l-88 -91q-4 -4 -4 -10q0 -7 7 -14l132 -166q18 -23 36.5 -30.5t49.5 -11.5q5 -5 5 -17q0 -11 -5 -16q-9 0 -37 1t-45 1q-10 0 -31 -1t-31 -1q-4 0 -4 5q0 12 -42 70l-73 98q-17 22 -32 32q-15 6 -43 6v-87q0 -59 9.5 -73.5t42.5 -17.5
q5 -5 5 -17q0 -11 -5 -16q-46 2 -91 2q-41 0 -107 -2q-5 5 -5 16q0 12 5 17q44 3 55.5 17t11.5 74z" />
    <glyph glyph-name="l" unicode="l" horiz-adv-x="266" 
d="M94 122v437q0 55 -10 67t-54 15q-7 6 -7 22q0 6 1 8q87 7 140 27q12 0 12 -10q-4 -40 -4 -105v-461q0 -60 12.5 -74.5t59.5 -16.5q5 -4 5 -17q0 -12 -5 -16q-64 2 -110 2q-44 0 -112 -2q-5 4 -5 16q0 13 5 17q47 2 59.5 16.5t12.5 74.5z" />
    <glyph glyph-name="m" unicode="m" horiz-adv-x="793" 
d="M163 358q0 -12 12 0q72 81 152 81q38 0 65 -21t35 -53q2 -9 11 0q70 74 165 74q61 0 82 -41t21 -118v-158q0 -61 11 -76t53 -15q3 -5 3 -17q0 -11 -3 -16q-12 0 -47 1t-56 1q-22 0 -56.5 -1t-45.5 -1q-4 4 -4 16q0 13 4 17q40 0 51 15.5t11 75.5v176q0 48 -15 67.5
t-45 19.5q-74 0 -132 -64q0 -6 0.5 -19.5t0.5 -20.5v-159q0 -60 10.5 -75.5t48.5 -15.5q3 -5 3 -17q0 -11 -3 -16q-11 0 -43.5 1t-54.5 1q-52 0 -102 -2q-4 4 -4 16q0 13 4 17q42 3 52 17t10 74v174q0 89 -66 89q-49 0 -108 -57q-17 -19 -17 -42v-164q0 -59 10.5 -73
t50.5 -18q5 -5 5 -17q0 -11 -5 -16q-60 2 -100 2q-48 0 -108 -2q-5 5 -5 16q0 12 5 17q44 3 56 17.5t12 73.5v195q0 42 -11.5 53t-53.5 15q-6 17 -2 28q74 10 123 29q8 0 12 -8q3 -9 8 -76z" />
    <glyph glyph-name="n" unicode="n" horiz-adv-x="566" 
d="M192 358q70 81 164 81q57 0 83 -34q27 -36 27 -134v-149q0 -59 11.5 -73t55.5 -18q4 -4 4 -17q0 -12 -4 -16q-60 2 -106 2q-42 0 -102 -2q-4 4 -4 16q0 13 4 17q41 4 51.5 18t10.5 73v152q0 53 -12 77q-18 34 -53 34q-63 0 -122 -57q-17 -19 -17 -42v-164q0 -59 10.5 -73
t50.5 -18q4 -4 4 -17q0 -12 -4 -16q-60 2 -100 2q-50 0 -110 -2q-4 4 -4 16q0 13 4 17q47 4 58.5 17.5t11.5 73.5v195q0 42 -11.5 53t-53.5 15q-6 17 -2 28q74 10 123 29q8 0 12 -8q6 -12 8 -76q0 -14 12 0z" />
    <glyph glyph-name="o" unicode="o" horiz-adv-x="487" 
d="M467 224q0 -95 -57.5 -159.5t-154.5 -64.5q-100 0 -155 65t-55 150q0 100 58.5 167t153.5 67q72 0 121.5 -35.5t69 -84.5t19.5 -105zM242 414q-111 0 -111 -176q0 -32 7.5 -65t22.5 -65t43 -52.5t65 -20.5q44 0 78 36t34 121q0 107 -37 164.5t-102 57.5z" />
    <glyph glyph-name="p" unicode="p" horiz-adv-x="499" 
d="M176 341q-16 -22 -16 -44v-182q0 -26 4 -36t20 -24q24 -21 71 -21q40 0 69 16.5t44 45t21.5 58.5t6.5 64q0 82 -34.5 133.5t-84.5 51.5q-21 0 -51 -18.5t-50 -43.5zM481 244q0 -106 -60.5 -175t-159.5 -69q-49 0 -87 15q-8 4 -11 3t-3 -10v-108q0 -60 13.5 -74t68.5 -17
q5 -5 5 -17q0 -11 -5 -16q-66 2 -121 2q-42 0 -112 -2q-4 4 -4 16q0 13 4 17q47 2 59.5 16.5t12.5 74.5v427q0 42 -11.5 53t-53.5 15q-6 17 -2 28q74 10 123 29q8 0 12 -8q6 -14 8 -66q2 -17 11 -4q68 75 137 75q75 0 125.5 -61.5t50.5 -143.5z" />
    <glyph glyph-name="q" unicode="q" horiz-adv-x="532" 
d="M323 378q-33 37 -79 37q-58 0 -90 -49t-32 -129q0 -54 14 -93.5t37 -60t46.5 -30t47.5 -9.5q41 0 66 13q9 5 11.5 10.5t2.5 19.5v230q0 35 -24 61zM349 -102l-2 112q0 15 -5 15q-6 0 -22 -10q-26 -15 -77 -15q-99 0 -153 68t-54 149q0 99 60.5 165.5t151.5 66.5
q68 0 113 -29q7 -5 10 -5q7 0 19 18q14 19 21 19q15 0 15 -25v-528q0 -60 12 -74t60 -16q5 -5 5 -17q0 -11 -5 -16q-66 2 -111 2q-42 0 -112 -2q-4 4 -4 16q0 13 4 17q48 2 61 15.5t13 73.5z" />
    <glyph glyph-name="r" unicode="r" horiz-adv-x="375" 
d="M177 358q0 -5 3.5 -7t7.5 5q20 34 49.5 58.5t61.5 24.5q29 0 44.5 -15.5t15.5 -32.5q0 -19 -14.5 -34.5t-32.5 -15.5q-20 0 -36 23q-10 13 -26 13q-12 0 -46 -49q-24 -36 -24 -67v-139q0 -61 14 -76t68 -15q4 -4 4 -17q0 -12 -4 -16q-17 0 -58.5 1t-62.5 1t-59 -1t-55 -1
q-5 5 -5 16q0 12 5 17q48 0 61 15t13 76v195q0 43 -12 55.5t-53 12.5q-6 17 -2 28q74 10 123 29q8 0 12 -8q8 -22 8 -76z" />
    <glyph glyph-name="s" unicode="s" horiz-adv-x="368" 
d="M39 148q5 5 17 5q8 0 14 -4q5 -23 8.5 -34t12 -30t18.5 -28t28.5 -16.5t42.5 -7.5q32 0 58.5 18t26.5 52q0 33 -20.5 53t-81.5 45q-60 25 -85 54t-25 82q0 47 42 79.5t99 32.5q23 0 47 -3.5t50.5 -9t33.5 -6.5q0 -16 -3 -52t-3 -54q-4 -5 -18 -5q-10 0 -14 4
q-5 30 -16.5 50t-27 28.5t-27 11.5t-22.5 3q-27 0 -48.5 -17.5t-21.5 -46.5q0 -37 23 -55t77 -38q117 -43 117 -133q0 -35 -16.5 -61t-42.5 -39.5t-51 -19.5t-49 -6q-49 0 -91 11q-7 2 -20 2q-10 0 -25 -3q0 20 -3.5 66.5t-3.5 71.5z" />
    <glyph glyph-name="t" unicode="t" horiz-adv-x="318" 
d="M42 439h46q0 38 -0.5 63t-1 32.5t-1 12.5t-0.5 8q0 7 22 13q20 6 34 15q14 8 22 8t8 -8q-4 -40 -4 -105v-39h120q8 0 8 -6v-20q0 -13 -24 -13h-104v-253q0 -49 7 -70.5t26 -21.5q46 0 82 28q15 0 18 -17q-58 -66 -135 -66t-77 99v301h-59q-5 0 -5 6v13q0 20 18 20z" />
    <glyph glyph-name="u" unicode="u" horiz-adv-x="543" 
d="M214 0q-69 0 -99.5 38.5t-30.5 97.5v192q0 48 -13 64t-49 16q-4 6 -4 16q0 11 4 17q17 0 51.5 -1t50.5 -1q24 0 36 2q8 0 8 -6q-4 -73 -4 -103v-182q0 -59 24.5 -81t55.5 -22q43 0 100 48q16 14 16 39v193q0 49 -12.5 65t-49.5 16q-5 4 -5 16q0 13 5 17q17 0 51.5 -1
t50.5 -1q26 0 34 2q8 0 8 -6q-4 -73 -4 -103v-192q0 -40 14.5 -56.5t59.5 -16.5q4 -6 4 -14q0 -7 -4 -13q-80 -9 -118 -40q-4 -2 -10 -2t-10 2q-10 33 -10 59q-1 5 -6 4.5t-10 -3.5q-72 -60 -134 -60z" />
    <glyph glyph-name="v" unicode="v" horiz-adv-x="522" 
d="M329 385q-5 5 -5 41q0 12 5 17q11 0 43 -1t49 -1q14 0 37.5 1t32.5 1q5 -5 5 -17q0 -11 -5 -16q-20 0 -33.5 -4.5t-24 -17t-14.5 -21t-14 -31.5l-133 -313q-9 -23 -24 -23q-17 0 -25 21l-128 316q-16 41 -29.5 54.5t-50.5 18.5q-5 5 -5 16q0 12 5 17q15 0 45.5 -1
t47.5 -1t50.5 1t50.5 1q5 -5 5 -17q0 -11 -5 -16q-24 -4 -33.5 -9.5t-9.5 -15.5q0 -9 12 -42l72 -193q12 -32 19 -32q6 0 18 29l81 196q11 27 11 42q0 8 -5 8q-2 0 -17 -4t-28 -4z" />
    <glyph glyph-name="w" unicode="w" horiz-adv-x="760" 
d="M204 410q-42 -3 -42 -26q0 -10 12 -41l80 -206q9 -24 14 -24q3 0 14 26l70 177l-6 16q-9 21 -13.5 31t-13.5 22t-21 17.5t-29 7.5q-5 5 -5 16q0 12 5 17q60 -2 88 -2q40 0 100 2q5 -5 5 -17q0 -11 -5 -16q-26 -2 -36.5 -7t-10.5 -17q0 -10 10 -37l87 -219q6 -16 10 -16
t12 20l84 208q10 26 10 35q0 29 -61 33q-4 4 -4 16q0 13 4 17q60 -2 102 -2q32 0 72 2q4 -4 4 -17q0 -12 -4 -16q-35 -2 -52.5 -19.5t-31.5 -52.5l-131 -317q-8 -21 -23 -21t-24 20l-103 248l-101 -246q-10 -22 -24 -22q-15 0 -24 20l-131 323q-16 39 -30 51t-49 16
q-4 4 -4 16q0 13 4 17q52 -2 91 -2q41 0 101 2q4 -4 4 -17q0 -12 -4 -16z" />
    <glyph glyph-name="x" unicode="x" horiz-adv-x="499" 
d="M202 336l46 -68q10 -15 19 -2l65 91q13 17 13 28q0 9 -28 12q-6 1 -9 1q-4 4 -4 16q0 13 4 17q12 0 40 -1t44 -1t40 1t33 1q5 -5 5 -17q0 -11 -5 -16q-30 0 -50.5 -10.5t-46.5 -44.5l-84 -107q-6 -7 0 -15l90 -127q29 -41 47 -52t53 -11q4 -4 4 -17q0 -12 -4 -16
q-10 0 -39 1t-50 1q-19 0 -52 -1t-47 -1q-4 4 -4 16q0 13 4 17q33 3 33 15q0 11 -20 38l-58 80q-9 12 -18 -2l-63 -91q-12 -18 -12 -26q0 -14 34 -14q4 -4 4 -17q0 -12 -4 -16q-12 0 -40.5 1t-43.5 1q-32 0 -72 -2q-4 4 -4 16q0 13 4 17q21 1 32.5 4t28.5 15.5t36 36.5
l84 108q5 5 -1 15l-87 127q-39 56 -90 61q-5 5 -5 16q0 12 5 17q52 -2 86 -2q47 0 101 2q4 -4 4 -17q0 -12 -4 -16q-38 -4 -41 -9q-1 -2 -1 -4q0 -7 28 -49z" />
    <glyph glyph-name="y" unicode="y" horiz-adv-x="533" 
d="M200 -148q-40 -72 -98 -72q-20 0 -33 10.5t-13 26.5q0 13 12 28t32 15q4 0 12 -1.5t16 -1.5q36 0 50 29q22 43 40 92q3 9 3 22q0 30 -17 72l-114 263q-19 45 -33.5 58t-44.5 17q-5 4 -5 17q0 12 5 16q8 0 34.5 -1t45.5 -1q18 0 56.5 1t57.5 1q4 -6 4 -16q0 -11 -4 -17
q-46 0 -46 -25q0 -12 13 -40l88 -208q7 -14 13 -14t11 13l99 229q5 12 5 17q0 28 -53 28q-4 6 -4 17q0 10 4 16q15 0 46 -1t46 -1t38 1t32 1q5 -4 5 -16q0 -13 -5 -17q-33 -4 -49 -17.5t-31 -46.5q-72 -151 -178 -408q-18 -45 -40 -86z" />
    <glyph glyph-name="z" unicode="z" horiz-adv-x="418" 
d="M70 441q25 -10 60 -10h182q13 0 27.5 0.5t24 1t10.5 0.5q12 0 12 -7q0 -9 -18 -37q-128 -211 -240 -353h134q37 1 57 17.5t41 58.5l14 29q16 0 30 -6q-13 -83 -32 -136h-312q-24 0 -24 15q0 7 10 20q150 201 246 363h-128q-57 -2 -82 -94q-6 -2 -11 -2q-13 0 -21 5
q14 86 14 129q0 1 2 3.5t4 2.5z" />
    <glyph glyph-name="braceleft" unicode="{" horiz-adv-x="320" 
d="M115 56q0 287 -94 287h-6v20h6q94 0 94 289q0 300 181 300v-20q-116 0 -116 -246v-40q0 -242 -81 -293q81 -61 81 -297v-39q0 -239 116 -239v-20q-181 0 -181 298z" />
    <glyph glyph-name="bar" unicode="|" horiz-adv-x="161" 
d="M110 -306l-56 -18v1356l56 19v-1357z" />
    <glyph glyph-name="braceright" unicode="}" horiz-adv-x="302" 
d="M6 -242v20q116 0 116 239v39q0 236 81 297q-81 51 -81 293v40q0 246 -116 246v20q181 0 181 -300q0 -289 94 -289h6v-20h-6q-94 0 -94 -287q0 -298 -181 -298z" />
    <glyph glyph-name="asciitilde" unicode="~" horiz-adv-x="500" 
d="M22 150q9 50 46 89t82 39q31 0 74 -32q48 -34 72 -34q26 0 55.5 17t44.5 51q11 0 16 -6q-10 -38 -27 -64t-35.5 -37t-32 -15t-25.5 -4q-33 0 -76 32q-40 32 -72 32q-28 0 -58 -20t-48 -52q-11 0 -16 4z" />
    <glyph glyph-name="uni007F" horiz-adv-x="427" 
d="M0 0v770h427v-770h-427zM398 748h-369l184 -350zM405 733l-184 -350l184 -349v699zM29 19h369l-185 350zM206 383l-184 350v-699z" />
    <glyph glyph-name="nbspace" unicode="&#xa0;" horiz-adv-x="450" 
 />
    <glyph glyph-name="exclamdown" unicode="&#xa1;" horiz-adv-x="277" 
d="M140 449q25 0 42 -17.5t17 -44.5t-17 -44.5t-43 -17.5q-27 0 -44 17.5t-17 44.5q0 28 17 45t45 17zM138 -227q-58 0 -58 33q0 7 7 77q12 92 33 353q4 7 19.5 7t18.5 -7q23 -289 31 -353t8 -77q0 -33 -59 -33z" />
    <glyph glyph-name="cent" unicode="&#xa2;" horiz-adv-x="483" 
d="M420 221l17 -24q-30 -39 -70 -65.5t-78 -32.5v-98h-36v96q-89 2 -146 62t-57 140q0 55 25.5 103t68.5 80q48 36 109 50v83h36v-79q7 1 17 1q63 0 101 -26q14 -10 14 -26t-12.5 -30t-24.5 -14q-6 0 -15 9q-38 38 -80 43v-329h2q69 0 129 57zM253 168v326q-45 -2 -81.5 -41
t-36.5 -113q0 -77 35.5 -119t82.5 -53z" />
    <glyph glyph-name="sterling" unicode="&#xa3;" horiz-adv-x="483" 
d="M380 293h-167q1 -8 1 -21q0 -89 -91 -168q50 0 105 -26q89 -38 123 -38q55 0 55 42q0 15 -8 33q-4 10 3 22q19 26 37 26q10 0 17 -12.5t7 -27.5q0 -32 -23.5 -64.5t-55.5 -53.5q-47 -32 -93 -32q-19 0 -46 10t-40 17t-49 27q-41 24 -60 24q-24 0 -40 -43q-4 -13 -13 -13
q-12 0 -18 13q-2 4 -2 10q0 11 6 25q9 17 51 64q41 47 41 130q0 28 -4 56h-89v40h84q-6 54 -6 82q0 108 85 175q55 43 107 45q31 0 58.5 -13.5t38.5 -27.5q7 -9 7 -19q0 -7 -4 -14q-6 -12 -20 -24q-15 -10 -28 3q-53 43 -95 43q-66 0 -66 -90q0 -46 22 -160h170v-40z" />
    <glyph glyph-name="currency" unicode="&#xa4;" horiz-adv-x="500" 
d="M-22 108l98 96q-41 59 -41 126q0 68 41 126l-98 98l50 48l96 -96q61 39 127 39q70 0 125 -39l98 96l48 -48l-96 -98q39 -58 39 -125q0 -65 -39 -127l96 -96l-48 -50l-98 98q-58 -41 -125 -41q-65 0 -127 41l-96 -98zM397 331q0 61 -42.5 105.5t-101.5 44.5
q-62 0 -106 -44.5t-44 -106.5q0 -61 44 -106t104 -45q61 0 103.5 44.5t42.5 107.5z" />
    <glyph glyph-name="yen" unicode="&#xa5;" horiz-adv-x="483" 
d="M470 623v-27q-38 -5 -53 -17.5t-38 -53.5q-36 -63 -98 -192h128v-37h-135v-31v-37h136v-37h-136v-79q0 -54 14 -67t76 -17v-28h-266v28q61 4 74.5 17t13.5 67v79h-131v37h131v31v37h-130v37h120q-40 98 -84 191q-20 44 -34.5 55.5t-50.5 16.5v27h212v-27l-25 -5
q-20 -4 -25 -10t1 -22q29 -75 84 -205q70 147 86 191q6 15 6 25q0 4 -1 7q-4 10 -27 14l-27 5v27h179z" />
    <glyph glyph-name="brokenbar" unicode="&#xa6;" horiz-adv-x="264" 
d="M166 325h-67v350h67v-350zM166 -175h-67v350h67v-350z" />
    <glyph glyph-name="section" unicode="&#xa7;" horiz-adv-x="500" 
d="M326 525q-20 0 -33.5 12t-13.5 31t17 36t17 19q0 15 -20 23.5t-42 8.5q-37 0 -61 -19t-24 -52q0 -43 34 -71l137 -113q89 -74 89 -155q0 -52 -32.5 -86.5t-83.5 -34.5h-18q58 -52 75 -78q19 -28 19 -67q0 -59 -40.5 -93t-103.5 -34q-54 0 -96 27.5t-42 72.5q0 22 16 38
t38 16q19 0 33.5 -12t14.5 -30t-17 -35t-17 -21q0 -16 23.5 -25.5t47.5 -9.5q38 0 62.5 20.5t24.5 56.5q0 32 -27 62q-17 19 -40 37.5t-55.5 41.5t-45.5 33q-92 71 -92 162q0 50 33 84.5t82 34.5q18 0 25 -1q-60 50 -80 80q-20 31 -20 70q0 56 39.5 89t99.5 33q52 0 90 -27
t38 -71q0 -25 -13.5 -39t-37.5 -14zM305 146q27 0 48 20t21 46q0 52 -72 112q-74 59 -111 59q-29 0 -48.5 -19.5t-19.5 -47.5q0 -50 67 -110q66 -60 115 -60z" />
    <glyph glyph-name="dieresis" unicode="&#xa8;" horiz-adv-x="400" 
d="M112 535q-21 0 -36 15.5t-15 36.5q0 22 15 37t37 15q21 0 35.5 -15t14.5 -37q0 -21 -15 -36.5t-36 -15.5zM287 535q-21 0 -36 15.5t-15 36.5q0 22 15 37t37 15q21 0 35.5 -15t14.5 -37q0 -21 -15 -36.5t-36 -15.5z" />
    <glyph glyph-name="copyright" unicode="&#xa9;" horiz-adv-x="701" 
d="M352 627q128 0 214 -88.5t86 -216.5q0 -127 -86 -215t-215 -88t-215.5 88t-86.5 215q0 128 87 216.5t216 88.5zM350 592q-109 0 -181 -77t-72 -192q0 -114 72.5 -191.5t181.5 -77.5t181 77.5t72 191.5q0 115 -72 192t-182 77zM480 263l23 -5q-25 -88 -26 -90
q-54 -19 -105 -19q-91 0 -140.5 51t-49.5 120q0 81 56.5 129t137.5 48q65 0 105 -18q1 -11 2.5 -24t4 -32t4.5 -34l-23 -4q-26 83 -99 83q-52 0 -82 -39.5t-30 -101.5q0 -65 33 -106.5t82 -41.5q71 0 107 84z" />
    <glyph glyph-name="ordfeminine" unicode="&#xaa;" horiz-adv-x="310" 
d="M299 302l-65 -33q-35 1 -47 39q-60 -39 -76 -39q-33 0 -56 23.5t-23 53.5q0 43 49 61q3 1 32 11.5t45.5 18t26.5 14.5v11q0 24 -13 38.5t-35 14.5q-31 0 -46 -53q-5 -16 -22 -16q-11 0 -22 9t-11 21q0 13 21 28q45 34 100 43q43 0 66.5 -22.5t23.5 -66.5v-108
q0 -34 21 -34q10 0 24 6zM185 332v91q-6 -4 -28 -13t-29 -13q-29 -15 -29 -39q0 -21 13 -32.5t30 -11.5q23 0 43 18z" />
    <glyph glyph-name="guillemotleft" unicode="&#xab;" horiz-adv-x="510" 
d="M497 -5h-58l-184 223l184 219h58l-113 -219zM285 -5h-56l-181 223l181 219h56l-114 -219z" />
    <glyph glyph-name="logicalnot" unicode="&#xac;" horiz-adv-x="466" 
d="M440 66h-60v100l-355 -1v70h415v-169z" />
    <glyph glyph-name="sfthyphen" unicode="&#xad;" 
 />
    <glyph glyph-name="registered" unicode="&#xae;" horiz-adv-x="320" 
d="M161 659q55 0 92.5 -38.5t37.5 -91.5q0 -52 -38 -90.5t-93 -38.5t-92 37t-37 92q0 53 38 91.5t92 38.5zM160 636q-43 0 -71.5 -31t-28.5 -76t29 -75.5t72 -30.5t72.5 30.5t29.5 75.5t-29.5 76t-73.5 31zM235 473l-3 -12q-34 0 -49 20q-5 7 -11.5 18.5t-7.5 12.5
q-4 7 -13 7h-4v-23q0 -13 3 -15.5t16 -3.5v-15h-68v15q14 1 16.5 3.5t2.5 15.5v69q0 13 -2.5 15.5t-15.5 3.5v15h68q49 0 49 -36q0 -24 -27 -34q13 -25 33 -46q4 -4 13 -10zM147 535h9q12 0 17 4q11 7 11 21q0 13 -7.5 18.5t-16.5 5.5q-13 0 -13 -12v-37z" />
    <glyph glyph-name="macron" unicode="&#xaf;" horiz-adv-x="400" 
d="M313 547h-225v58h225v-58z" />
    <glyph glyph-name="degree" unicode="&#xb0;" horiz-adv-x="400" 
d="M57 533q0 59 42 101t101 42q60 0 101.5 -42t41.5 -102t-42.5 -101t-102.5 -41q-58 0 -99.5 42.5t-41.5 100.5zM304 533q0 43 -31 76t-73 33t-73 -32.5t-31 -76.5q0 -43 30.5 -76t72.5 -33q43 0 74 32.5t31 76.5z" />
    <glyph glyph-name="plusminus" unicode="&#xb1;" horiz-adv-x="579" 
d="M529 310h-208v-202h-61v202h-209v52h209v189h61v-189h208v-52zM529 0h-478v52h478v-52z" />
    <glyph glyph-name="uni00B2" unicode="&#xb2;" horiz-adv-x="342" 
d="M286 498l23 -7q-11 -33 -25 -91h-245v23q35 27 53 43t51 48t49 62t16 58q0 35 -18 53.5t-47 18.5q-46 0 -84 -54l-19 18l33 45q37 45 98 45q47 0 79.5 -29t32.5 -79q0 -35 -23.5 -67t-82.5 -83l-51 -45v-2h92q28 0 40.5 7.5t27.5 35.5z" />
    <glyph glyph-name="uni00B3" unicode="&#xb3;" horiz-adv-x="342" 
d="M207 613l-1 -2q42 -8 65.5 -29.5t23.5 -53.5q0 -42 -34.5 -74.5t-72 -46t-63.5 -13.5q-43 0 -69 21q-16 13 -10 29q4 15 18 25q11 6 22 -2q44 -34 75 -34q27 0 44 18t17 55q0 33 -22 50t-53 17q-17 0 -41 -6l-6 25q97 31 97 77q0 19 -14 31.5t-37 12.5q-43 0 -74 -48
l-17 17l30 41q35 37 87 37h1q44 0 70.5 -22.5t26.5 -54.5q0 -26 -20 -41q-17 -15 -43 -29z" />
    <glyph glyph-name="acute" unicode="&#xb4;" horiz-adv-x="192" 
d="M5 516q-4 0 -4 5v4l118 213h66q7 0 7 -7q0 -2 -1 -3l-153 -212h-33z" />
    <glyph glyph-name="mu" unicode="&#xb5;" horiz-adv-x="517" 
d="M503 56l11 -26q-14 -17 -39 -29.5t-51 -12.5q-31 0 -53 20.5t-27 55.5h-2q-67 -76 -130 -76q-52 0 -81 42h-4v-16v-8q0 -52 12 -130q13 -85 24 -118l-13 -12q-17 1 -40.5 13.5t-36.5 25.5q-2 7 -2 261v288q0 61 -3 97l88 19q3 -24 3 -107v-171q0 -63 26.5 -91t62.5 -28
q53 0 93 49v329l88 19v-334q0 -69 40 -69q18 0 34 9z" />
    <glyph glyph-name="paragraph" unicode="&#xb6;" horiz-adv-x="614" 
d="M235 -277v550q-86 1 -139 56q-49 53 -61 118q0 3 -0.5 17t-0.5 20q0 7 1 7q1 66 54 125q52 56 146 62h80v-955h-80zM396 -277v955h81v-955h-81z" />
    <glyph glyph-name="periodcentered" unicode="&#xb7;" horiz-adv-x="159" 
d="M37 215q0 19 13 32t31 13t31 -13t13 -32t-13 -32t-31 -13t-31 13t-13 32z" />
    <glyph glyph-name="cedilla" unicode="&#xb8;" horiz-adv-x="400" 
d="M247 1l-22 -27q-9 -13 -8 -21t13 -20q39 -39 39 -69q0 -31 -31 -58t-85 -43l-12 26q60 26 60 60q0 16 -22 38q-20 18 -23 31v4q0 12 13 29l38 50h40z" />
    <glyph glyph-name="uni00B9" unicode="&#xb9;" horiz-adv-x="342" 
d="M276 401h-201v24q41 3 53 13.5t12 46.5v174q0 29 -5.5 36.5t-31.5 8.5l-29 2v24q70 8 138 29v-274q0 -36 11 -45.5t53 -14.5v-24z" />
    <glyph glyph-name="ordmasculine" unicode="&#xba;" horiz-adv-x="341" 
d="M172 547q61 0 100.5 -39.5t39.5 -95.5q-1 -66 -44 -104.5t-98 -38.5q-66 0 -105 41t-39 95q1 66 46.5 104t99.5 38zM162 519q-24 0 -42 -26t-18 -74q0 -53 21 -87t52 -34q61 0 62 99v5q0 51 -19 83q-21 34 -56 34z" />
    <glyph glyph-name="guillemotright" unicode="&#xbb;" horiz-adv-x="510" 
d="M13 437h58l184 -221l-184 -221h-58l113 221zM225 437h56l181 -221l-181 -221h-56l114 221z" />
    <glyph glyph-name="onequarter" unicode="&#xbc;" horiz-adv-x="766" 
d="M279 277h-200v24q41 3 53 13.5t12 46.5v174q0 29 -5.5 36t-31.5 9l-29 2v24q70 8 138 29l-1 -274q0 -36 11.5 -45.5t52.5 -14.5v-24zM605 630l-406 -659l-32 25l404 658zM690 99h-58v-27q0 -29 10 -37.5t44 -11.5v-23h-184v23q41 3 52.5 11.5t11.5 37.5v27h-161v24
q109 145 185 236h42v-222l58 1v-39zM566 138v144h-3q-47 -60 -105 -144h108z" />
    <glyph glyph-name="onehalf" unicode="&#xbd;" horiz-adv-x="767" 
d="M272 277h-200v24q41 3 53 13.5t12 46.5v174q0 29 -6 36t-31 9l-29 2v24q69 8 137 29v-274q0 -36 11.5 -45.5t52.5 -14.5v-24zM591 630l-406 -659l-32 25l403 658zM685 98l22 -7q-16 -54 -24 -91h-245v23q34 27 53 43.5t51 48t48 61.5t16 57q0 35 -18 53.5t-47 18.5
q-44 0 -84 -54l-18 18l33 45q35 45 98 45q46 0 78.5 -29t33.5 -79q0 -35 -23.5 -67t-82.5 -83l-51 -44l1 -2h91q29 0 41.5 7.5t26.5 35.5z" />
    <glyph glyph-name="threequarters" unicode="&#xbe;" horiz-adv-x="767" 
d="M608 630l-406 -659l-32 25l404 658zM685 99h-58v-27q0 -29 10 -37.5t44 -11.5v-23h-184v23q41 3 52.5 11.5t11.5 37.5v27h-161v24q109 145 185 236h42v-222l58 1v-39zM561 138v144h-3q-47 -60 -105 -144h108zM235 489v-2q42 -8 65 -29.5t23 -53.5q0 -42 -34.5 -74.5
t-72 -46t-63.5 -13.5q-43 0 -69 21q-16 13 -10 29q4 14 19 25q10 6 21 -2q44 -34 75 -34q27 0 44 18t17 54q0 34 -21.5 51t-52.5 17q-22 0 -41 -7l-7 26q97 31 97 77q0 19 -14 31q-13 12 -34 12h-3q-21 0 -41.5 -14.5t-32.5 -32.5l-17 16l30 42q34 36 87 36h1q43 0 70 -22.5
t27 -53.5q0 -25 -19 -41q-20 -16 -44 -29z" />
    <glyph glyph-name="questiondown" unicode="&#xbf;" horiz-adv-x="382" 
d="M195 450q24 0 40.5 -17t16.5 -44q0 -26 -16.5 -43t-41.5 -17t-42 17t-17 43q0 27 17 44t43 17zM161 220l19 24q38 -14 76 -51.5t38 -79.5q0 -27 -19.5 -53t-67.5 -61q-32 -23 -46.5 -33.5t-33.5 -33t-19 -39.5q0 -51 56 -51q28 0 54.5 14t43 28t20.5 14q13 0 28.5 -15
t15.5 -33t-21 -38q-22 -18 -50 -28t-46 -10h-1q-63 0 -113 49t-50 112q0 54 50 92q6 5 29.5 22.5t38 30t28 31t13.5 34.5q0 37 -43 75z" />
    <glyph glyph-name="Agrave" unicode="&#xc0;" horiz-adv-x="694" 
d="M676 0h-253v29q47 6 58 16q5 6 5 15q0 11 -6 26q-13 41 -52 146h-210l-43 -124q-9 -27 -9 -42q0 -12 5 -18q11 -13 67 -19v-29h-219v29q50 7 68.5 23.5t43.5 79.5l207 523l35 10l193 -533q24 -64 42 -81t68 -22v-29zM413 277l-85 248h-3l-91 -248h179zM409 710l-13 -26
l-190 63l-2 8q3 13 19 35.5t26 26.5z" />
    <glyph glyph-name="Aacute" unicode="&#xc1;" horiz-adv-x="694" 
d="M676 0h-253v29q47 6 58 16q5 6 5 15q0 11 -6 26q-13 41 -52 146h-210l-43 -124q-9 -27 -9 -42q0 -12 5 -18q11 -13 67 -19v-29h-219v29q50 7 68.5 23.5t43.5 79.5l207 523l35 10l193 -533q24 -64 42 -81t68 -22v-29zM413 277l-85 248h-3l-91 -248h179zM508 756l-2 -9
l-189 -63l-13 26l160 105q9 -2 25.5 -24t18.5 -35z" />
    <glyph glyph-name="Acircumflex" unicode="&#xc2;" horiz-adv-x="694" 
d="M676 0h-253v29q47 6 58 16q5 6 5 15q0 11 -6 26q-13 41 -52 146h-210l-43 -124q-9 -27 -9 -42q0 -12 5 -18q11 -13 67 -19v-29h-219v29q50 7 68.5 23.5t43.5 79.5l207 523l35 10l193 -533q24 -64 42 -81t68 -22v-29zM413 277l-85 248h-3l-91 -248h179zM497 709l-16 -25
q-42 17 -123 62q-84 -46 -122 -62l-16 25q90 71 127 110h23q37 -39 127 -110z" />
    <glyph glyph-name="Atilde" unicode="&#xc3;" horiz-adv-x="694" 
d="M676 0h-253v29q47 6 58 16q5 6 5 15q0 11 -6 26q-13 41 -52 146h-210l-43 -124q-9 -27 -9 -42q0 -12 5 -18q11 -13 67 -19v-29h-219v29q50 7 68.5 23.5t43.5 79.5l207 523l35 10l193 -533q24 -64 42 -81t68 -22v-29zM413 277l-85 248h-3l-91 -248h179zM305 790
q21 0 62 -19q35 -16 56 -16q26 0 47 43l26 -14q-29 -87 -85 -87q-23 0 -70 21q-28 14 -45 14q-26 0 -49 -44l-25 18q33 84 83 84z" />
    <glyph glyph-name="Adieresis" unicode="&#xc4;" horiz-adv-x="694" 
d="M676 0h-253v29q46 6 57 16q5 6 5 16t-5 25q-13 41 -52 146h-209q-24 -67 -42 -124q-9 -27 -9 -43q0 -11 4 -17q11 -13 67 -19v-29h-219v29q50 7 69 23.5t44 79.5l206 523l34 10l193 -533q24 -64 42 -81t68 -22v-29zM413 277l-85 248h-2l-91 -248h178zM452 800
q21 0 35.5 -15.5t14.5 -37.5q0 -21 -15 -36t-36 -15t-36 15.5t-15 35.5q0 22 15 37.5t37 15.5zM258 800q21 0 35.5 -15.5t14.5 -37.5q0 -21 -14.5 -36t-36.5 -15q-21 0 -36 15t-15 36q0 22 15 37.5t37 15.5z" />
    <glyph glyph-name="Aring" unicode="&#xc5;" horiz-adv-x="694" 
d="M675 0h-253v29q47 6 58 16q5 6 5 16t-5 25l-52 146h-210l-43 -124q-9 -27 -9 -42q0 -12 5 -18q11 -13 67 -19v-29h-219v29q50 7 68.5 23.5t43.5 79.5l207 523l34 10l193 -533q23 -64 42 -81t68 -22v-29zM412 277l-85 248h-2l-91 -248h178zM356 857q35 0 62 -23.5
t27 -61.5t-27 -62t-63 -24t-62.5 24t-26.5 62t27 61.5t63 23.5zM355 824q-19 0 -31.5 -14.5t-12.5 -37.5q0 -24 12.5 -39t32.5 -15q19 0 31 15t12 39q0 23 -12 37.5t-32 14.5z" />
    <glyph glyph-name="AE" unicode="&#xc6;" horiz-adv-x="871" 
d="M822 167l30 -7q-32 -146 -36 -160h-477v29q63 4 78 21.5t15 85.5v160h-176q-56 -109 -93 -191q-12 -26 -12 -41q0 -8 3 -13q11 -15 67 -22v-29h-232v29q48 6 69.5 21t49.5 65q100 177 237 448q12 23 12 34q0 3 -1 5q-4 11 -39 15l-44 6v27h519q3 -74 10 -143l-31 -4
q-15 60 -33 83q-12 15 -34 21t-71 6h-77q-23 0 -28 -5t-5 -27v-245h85q66 0 83 12t27 64h31v-196h-31q-10 55 -27 67.5t-83 12.5h-85v-164q0 -40 5 -58t19 -26q19 -11 100 -11q52 0 80 7t44 27q27 31 51 96zM432 336v272q-12 0 -27 -17l-130 -255h157z" />
    <glyph glyph-name="Ccedilla" unicode="&#xc7;" horiz-adv-x="646" 
d="M37 310q0 145 90.5 246.5t230.5 101.5q72 0 140.5 -22t78.5 -23q15 -83 22 -155q-14 -7 -22 -7q-3 0 -11 2q-51 168 -219 168q-87 0 -160 -89q-59 -74 -59 -203q0 -115 65.5 -206.5t162.5 -91.5q70 0 124.5 25.5t107.5 83.5q15 0 23 -15q-92 -121 -224 -133l-22 -59
q12 3 26 3q31 0 51 -17t20 -45q0 -32 -30.5 -53t-76.5 -21q-35 0 -74 17q0 16 10 26q38 -14 58 -14q23 0 37 10.5t14 29.5q0 35 -33 35q-26 0 -45 -6l-6 6l36 86q-102 1 -175 45.5t-106.5 115.5t-33.5 159z" />
    <glyph glyph-name="Egrave" unicode="&#xc8;" horiz-adv-x="542" 
d="M312 361q58 0 58 47v4l-1 3q0 3 1 3q2 0 2 11q5 5 16 5q12 0 17 -5q-2 -48 -2 -86q0 -36 2 -88q-5 -5 -17 -5q-11 0 -16 5q-2 27 -6 38.5t-24 20.5t-61 9h-91v-221q0 -35 12.5 -49t43.5 -14h116q95 0 131 131q4 1 12 1q13 0 23 -6q-12 -75 -37 -165h-473q-4 4 -4 14
q0 13 4 17q56 2 71.5 16.5t15.5 74.5v401q0 60 -15.5 74.5t-71.5 16.5q-4 4 -4 16q0 13 4 17q80 -2 129 -2h255q26 0 49 4q4 0 4 -3q8 -34 22 -145q-11 -6 -24 -6q-1 0 -4 0.5t-5 0.5q-19 60 -40 84.5t-73 24.5h-75q-39 0 -52.5 -14.5t-13.5 -49.5v-180h122zM245 817
l121 -84q15 -11 15 -21q0 -6 -4.5 -10.5t-10.5 -4.5q-15 0 -43 12l-154 63q28 28 76 45z" />
    <glyph glyph-name="Eacute" unicode="&#xc9;" horiz-adv-x="542" 
d="M312 361q58 0 58 47v4l-1 3q0 3 1 3q2 0 2 11q5 5 16 5q12 0 17 -5q-2 -48 -2 -86q0 -36 2 -88q-5 -5 -17 -5q-11 0 -16 5q-2 27 -6 38.5t-24 20.5t-61 9h-91v-221q0 -35 12.5 -49t43.5 -14h116q95 0 131 131q4 1 12 1q13 0 23 -6q-12 -75 -37 -165h-473q-4 4 -4 14
q0 13 4 17q56 2 71.5 16.5t15.5 74.5v401q0 60 -15.5 74.5t-71.5 16.5q-4 4 -4 16q0 13 4 17q80 -2 129 -2h255q26 0 49 4q4 0 4 -3q8 -34 22 -145q-11 -6 -24 -6q-1 0 -4 0.5t-5 0.5q-19 60 -40 84.5t-73 24.5h-75q-39 0 -52.5 -14.5t-13.5 -49.5v-180h122zM350 820
q41 -18 62 -52l-144 -58q-28 -12 -42 -12q-15 0 -15 15q0 11 15 21z" />
    <glyph glyph-name="Ecircumflex" unicode="&#xca;" horiz-adv-x="542" 
d="M312 361q58 0 58 47v4l-1 3q0 3 1 3q2 0 2 11q5 5 16 5q12 0 17 -5q-2 -48 -2 -86q0 -36 2 -88q-5 -5 -17 -5q-11 0 -16 5q-2 27 -6 38.5t-24 20.5t-61 9h-91v-221q0 -35 12.5 -49t43.5 -14h116q95 0 131 131q4 1 12 1q13 0 23 -6q-12 -75 -37 -165h-473q-4 4 -4 14
q0 13 4 17q56 2 71.5 16.5t15.5 74.5v401q0 60 -15.5 74.5t-71.5 16.5q-4 4 -4 16q0 13 4 17q80 -2 129 -2h255q26 0 49 4q4 0 4 -3q8 -34 22 -145q-11 -6 -24 -6q-1 0 -4 0.5t-5 0.5q-19 60 -40 84.5t-73 24.5h-75q-39 0 -52.5 -14.5t-13.5 -49.5v-180h122zM315 808
q44 -53 103 -97q-5 -16 -16 -21q-65 30 -106 61q-47 -34 -107 -61q-11 7 -14 21q41 31 101 97q10 6 19 6q8 0 20 -6z" />
    <glyph glyph-name="Edieresis" unicode="&#xcb;" horiz-adv-x="542" 
d="M312 361q58 0 58 47v4l-1 3q0 3 1 3q2 0 2 13q3 3 16 3q14 0 17 -3q-2 -48 -2 -88q0 -36 2 -88q-5 -5 -17 -5q-11 0 -16 5q-2 27 -6 38.5t-24 20.5t-61 9h-91v-221q0 -35 12.5 -49t43.5 -14h116q95 0 131 131q4 1 12 1q13 0 23 -6q-12 -75 -37 -165h-473q-4 4 -4 14
q0 13 4 17q56 2 71.5 16.5t15.5 74.5v401q0 60 -15.5 74.5t-71.5 16.5q-4 4 -4 16q0 13 4 17q80 -2 129 -2h255q26 0 49 4q4 0 4 -3q8 -34 22 -145q-11 -6 -24 -6q-1 0 -4 0.5t-5 0.5q-19 60 -40 84.5t-73 24.5h-75q-39 0 -52.5 -14.5t-13.5 -49.5v-180h122zM324 757
q0 19 14 33.5t34 14.5t34 -14.5t14 -33.5t-14 -33.5t-34 -14.5t-34 14.5t-14 33.5zM135 757q0 19 14.5 33.5t33.5 14.5t33.5 -14.5t14.5 -33.5t-14.5 -33.5t-33.5 -14.5t-33.5 14.5t-14.5 33.5z" />
    <glyph glyph-name="Igrave" unicode="&#xcc;" horiz-adv-x="347" 
d="M309 0h-272v29q61 5 75 19.5t14 77.5v398q0 63 -14 77.5t-75 19.5v29h272v-29q-61 -5 -75 -19.5t-14 -77.5v-398q0 -63 14 -77.5t75 -19.5v-29zM239 710l-13 -26l-190 63l-2 8q3 13 19 35.5t26 26.5z" />
    <glyph glyph-name="Iacute" unicode="&#xcd;" horiz-adv-x="347" 
d="M309 0h-272v29q61 5 75 19.5t14 77.5v398q0 63 -14 77.5t-75 19.5v29h272v-29q-61 -5 -75 -19.5t-14 -77.5v-398q0 -63 14 -77.5t75 -19.5v-29zM318 756l-2 -9l-189 -63l-13 26l160 105q9 -2 25.5 -24t18.5 -35z" />
    <glyph glyph-name="Icircumflex" unicode="&#xce;" horiz-adv-x="347" 
d="M309 0h-272v29q61 5 75 19.5t14 77.5v398q0 63 -14 77.5t-75 19.5v29h272v-29q-61 -5 -75 -19.5t-14 -77.5v-398q0 -63 14 -77.5t75 -19.5v-29zM312 709l-16 -25q-42 17 -123 62q-84 -46 -122 -62l-16 25q90 71 127 110h23q37 -39 127 -110z" />
    <glyph glyph-name="Idieresis" unicode="&#xcf;" horiz-adv-x="347" 
d="M309 0h-271v29q61 5 74.5 19.5t13.5 77.5v398q0 63 -13.5 77.5t-74.5 19.5v29h271v-29q-61 -5 -74.5 -19.5t-13.5 -77.5v-398q0 -63 13.5 -77.5t74.5 -19.5v-29zM270 801l2 -1q21 0 35.5 -15.5t14.5 -37.5q0 -21 -15 -36t-36 -15t-36 15.5t-15 35.5q0 22 14.5 37.5
t35.5 16.5zM78 800q21 0 35.5 -15.5t14.5 -37.5q0 -21 -14.5 -36t-36.5 -15q-21 0 -36 15t-15 36q0 22 15 37.5t37 15.5z" />
    <glyph glyph-name="Eth" unicode="&#xd0;" horiz-adv-x="741" 
d="M53 650h280q189 0 278 -86q86 -83 86 -214q0 -172 -125 -267q-110 -83 -293 -83h-234v29q64 5 78.5 21.5t14.5 86.5v182h-101v43h101v151q0 70 -13.5 86.5t-71.5 21.5v29zM232 319v-186q0 -54 17.5 -74t76.5 -20q127 0 194.5 83t67.5 213q0 166 -108 238q-59 42 -160 42
q-60 0 -76 -11q-12 -7 -12 -43v-199h154v-43h-154z" />
    <glyph glyph-name="Ntilde" unicode="&#xd1;" horiz-adv-x="708" 
d="M554 514q0 46 -8 66t-22 25t-55 9q-5 5 -5 16q0 12 5 17q88 -2 111 -2q30 0 112 2q4 -4 4 -17q0 -12 -4 -16q-56 -6 -71.5 -22t-15.5 -80v-491q0 -31 -23 -31q-22 0 -40 24l-349 441q-26 33 -34 33t-8 -49v-306q0 -35 3 -53.5t15 -29t25 -13.5t44 -6q4 -4 4 -17
q0 -10 -4 -14h-223q-5 5 -5 14q0 12 5 17q56 6 71.5 22t15.5 80v417q-5 22 -27 42t-52 22q-5 5 -5 16q0 12 5 17l135 -2l343 -435q43 -55 48 -55q7 0 7 30zM293 798q25 0 61.5 -26.5t62.5 -26.5q17 0 27 10.5t20 41.5q16 1 27 -6q-20 -99 -87 -99q-6 0 -12.5 1.5t-14 5.5
t-12 7t-13 9.5t-12.5 8.5q-31 19 -54 19q-19 0 -28.5 -11t-17.5 -37q-19 -3 -27 5q23 98 80 98z" />
    <glyph glyph-name="Ograve" unicode="&#xd2;" horiz-adv-x="750" 
d="M383 665q133 0 228.5 -93t95.5 -239q0 -158 -97 -253t-239 -95q-139 0 -233.5 95.5t-94.5 238.5q0 141 93 243.5t247 102.5zM361 628q-86 0 -146 -75t-60 -208q0 -139 66.5 -231t170.5 -92q86 0 144.5 74t58.5 210q0 152 -66 237t-168 85zM447 718l-13 -26l-190 63l-2 8
q3 13 19 35.5t26 26.5z" />
    <glyph glyph-name="Oacute" unicode="&#xd3;" horiz-adv-x="750" 
d="M383 665q133 0 228.5 -93t95.5 -239q0 -158 -97 -253t-239 -95q-139 0 -233.5 95.5t-94.5 238.5q0 141 93 243.5t247 102.5zM361 628q-86 0 -146 -75t-60 -208q0 -139 66.5 -231t170.5 -92q86 0 144.5 74t58.5 210q0 152 -66 237t-168 85zM509 763l-2 -9l-189 -63l-13 26
l160 105q9 -2 25.5 -24t18.5 -35z" />
    <glyph glyph-name="Ocircumflex" unicode="&#xd4;" horiz-adv-x="750" 
d="M383 665q133 0 228.5 -93t95.5 -239q0 -158 -97 -253t-239 -95q-139 0 -233.5 95.5t-94.5 238.5q0 141 93 243.5t247 102.5zM361 628q-86 0 -146 -75t-60 -208q0 -139 66.5 -231t170.5 -92q86 0 144.5 74t58.5 210q0 152 -66 237t-168 85zM513 717l-16 -25
q-42 17 -123 62q-84 -46 -122 -62l-16 25q90 71 127 110h23q37 -39 127 -110z" />
    <glyph glyph-name="Otilde" unicode="&#xd5;" horiz-adv-x="750" 
d="M383 665q133 0 228.5 -93t95.5 -239q0 -158 -97 -253t-239 -95q-139 0 -233.5 95.5t-94.5 238.5q0 141 93 243.5t247 102.5zM361 628q-86 0 -146 -75t-60 -208q0 -139 66.5 -231t170.5 -92q86 0 144.5 74t58.5 210q0 152 -66 237t-168 85zM324 799q21 0 62 -19
q35 -16 56 -16q26 0 46 43l26 -14q-28 -87 -84 -87q-23 0 -70 21q-30 14 -45 14q-26 0 -49 -44l-25 18q33 84 83 84z" />
    <glyph glyph-name="Odieresis" unicode="&#xd6;" horiz-adv-x="750" 
d="M383 665q133 0 228.5 -93t95.5 -239q0 -158 -97 -253t-239 -95q-139 0 -233.5 95.5t-94.5 238.5q0 141 93 243.5t247 102.5zM361 628q-86 0 -146 -75t-60 -208q0 -139 66.5 -231t170.5 -92q86 0 145 74t59 210q0 151 -66.5 236.5t-168.5 85.5zM471 805h2q21 0 35.5 -15.5
t14.5 -37.5q0 -21 -15 -36t-36 -15t-36 15.5t-15 35.5q0 22 15 37.5t35 15.5zM279 805q21 0 35.5 -15.5t14.5 -37.5q0 -21 -14.5 -36t-36.5 -15q-21 0 -36 15t-15 36q0 22 15 37.5t37 15.5z" />
    <glyph glyph-name="multiply" unicode="&#xd7;" horiz-adv-x="579" 
d="M521 49l-39 -40l-193 197l-192 -197l-38 40l191 197l-191 196l38 40l192 -196l193 197l39 -39l-193 -198z" />
    <glyph glyph-name="Oslash" unicode="&#xd8;" horiz-adv-x="753" 
d="M636 674l-49 -75q57 -47 91.5 -115.5t34.5 -148.5q0 -157 -97 -253.5t-242 -96.5q-95 0 -172 49l-56 -80l-28 24l53 77q-57 47 -89.5 115t-32.5 150q0 139 94 242t248 103q93 0 164 -45l51 75zM220 126l296 437q-56 65 -147 65q-89 0 -150.5 -75t-61.5 -210
q0 -129 63 -217zM540 532l-296 -438q55 -72 147 -72q103 0 158 78.5t55 205.5q0 133 -64 226z" />
    <glyph glyph-name="Ugrave" unicode="&#xd9;" horiz-adv-x="735" 
d="M717 650v-29q-45 -3 -64.5 -16t-22.5 -43q-6 -56 -6 -158v-87q0 -182 -75 -261q-67 -70 -180 -70q-99 0 -163 48q-87 68 -87 238v247q0 66 -13.5 81.5t-73.5 20.5v29h267v-29q-59 -4 -72.5 -19.5t-13.5 -82.5v-225q0 -121 46.5 -186t136.5 -65q185 0 185 281v80
q0 111 -8 161q-4 29 -24 40.5t-72 15.5v29h240zM441 710l-13 -26l-190 63l-2 8q3 13 19 35.5t26 26.5z" />
    <glyph glyph-name="Uacute" unicode="&#xda;" horiz-adv-x="735" 
d="M717 650v-29q-45 -3 -64.5 -16t-22.5 -43q-6 -56 -6 -158v-87q0 -182 -75 -261q-67 -70 -180 -70q-99 0 -163 48q-87 68 -87 238v247q0 66 -13.5 81.5t-73.5 20.5v29h267v-29q-59 -4 -72.5 -19.5t-13.5 -82.5v-225q0 -121 46.5 -186t136.5 -65q185 0 185 281v80
q0 111 -8 161q-4 29 -24 40.5t-72 15.5v29h240zM523 756l-2 -9l-189 -63l-13 26l160 105q9 -2 25.5 -24t18.5 -35z" />
    <glyph glyph-name="Ucircumflex" unicode="&#xdb;" horiz-adv-x="735" 
d="M717 650v-29q-45 -3 -64.5 -16t-22.5 -43q-6 -56 -6 -158v-87q0 -182 -75 -261q-67 -70 -180 -70q-99 0 -163 48q-87 68 -87 238v247q0 66 -13.5 81.5t-73.5 20.5v29h267v-29q-59 -4 -72.5 -19.5t-13.5 -82.5v-225q0 -121 46.5 -186t136.5 -65q185 0 185 281v80
q0 111 -8 161q-4 29 -24 40.5t-72 15.5v29h240zM520 709l-16 -25q-42 17 -123 62q-84 -46 -122 -62l-16 25q90 71 127 110h23q37 -39 127 -110z" />
    <glyph glyph-name="Udieresis" unicode="&#xdc;" horiz-adv-x="735" 
d="M716 650v-29q-44 -3 -63.5 -16t-22.5 -43q-6 -56 -6 -158v-87q0 -182 -75 -261q-67 -70 -181 -70q-98 0 -162 48q-87 68 -87 238v247q0 66 -13.5 81.5t-73.5 20.5v29h266v-29q-59 -4 -72 -19.5t-13 -82.5v-225q0 -121 46.5 -186t136.5 -65q185 0 185 281v80q0 111 -8 161
q-4 29 -24 40.5t-72 15.5v29h239zM474 801l2 -1q21 0 35.5 -15.5t14.5 -37.5q0 -21 -15 -36t-36 -15t-36 15.5t-15 35.5q0 22 14.5 37.5t35.5 16.5zM282 800q21 0 35.5 -15.5t14.5 -37.5q0 -21 -14.5 -36t-36.5 -15q-21 0 -36 15t-15 36q0 22 15 37.5t37 15.5z" />
    <glyph glyph-name="Yacute" unicode="&#xdd;" horiz-adv-x="638" 
d="M625 650v-29q-50 -6 -70 -20t-49 -60q-64 -101 -125 -215q-16 -32 -16 -64v-135q0 -64 15.5 -78.5t83.5 -19.5v-29h-290v29q67 5 82 20t15 78v129q0 24 -19 59l-126 221q-30 52 -48 66.5t-62 18.5v29h247v-29q-50 -6 -58 -18q-3 -4 -3 -9q0 -11 11 -28q1 -1 131 -234
q86 156 116 224q11 23 11 36q0 7 -3 12q-10 11 -66 17v29h223zM477 756l-2 -9l-188 -63l-13 25l159 106q9 -2 25.5 -24t18.5 -35z" />
    <glyph glyph-name="Thorn" unicode="&#xde;" horiz-adv-x="538" 
d="M273 316q141 0 141 156q0 84 -38 114q-36 32 -100 32q-87 0 -87 -64v-233q20 -5 84 -5zM104 523q0 175 -16 191q-15 15 -71 15q-5 5 -5 17q0 11 5 16q27 6 59 6q43 0 80 -15q24 -9 24 -40q0 -14 -4 -26v-4q0 -31 107 -31q129 0 182 -62q42 -50 42 -104q0 -73 -49 -134
q-26 -31 -75 -50.5t-105 -19.5q-59 0 -89 10v-170q0 -161 19 -177t83 -16q5 -5 5 -15q0 -11 -5 -16h-144h-130q-5 5 -5 14q0 12 5 17q56 0 71 15q16 16 16 178v401z" />
    <glyph glyph-name="germandbls" unicode="&#xdf;" horiz-adv-x="550" 
d="M101 438v12q0 49 13 86q20 70 85 123q57 46 127 52q72 -2 116 -42t45 -109q0 -24 -11 -40q-100 -75 -100 -133q0 -17 11.5 -35.5t21 -28t35.5 -33.5q79 -68 79 -133q0 -68 -62.5 -119t-123.5 -51q-33 0 -55 13q-21 14 -21 30q0 2 1 5q3 15 19 27q12 9 21 1q38 -30 74 -30
q25 0 45.5 19t20.5 58q0 30 -16 54.5t-49 54.5q-83 72 -83 126q0 27 15.5 51t53.5 65q38 38 41 43q7 9 7 34v3q0 49 -33 88t-83 39q-34 0 -56.5 -21t-32.5 -61.5t-13.5 -82t-3.5 -100.5v-299q0 -46 8.5 -59t42.5 -17v-28h-209v28q47 4 58.5 16.5t11.5 58.5v290h-69l-4 12
l27 33h46z" />
    <glyph glyph-name="agrave" unicode="&#xe0;" horiz-adv-x="444" 
d="M438 40l-89 -52q-29 0 -49 20q-17 17 -25 43q-3 -2 -16.5 -11.5t-19 -13t-17 -11.5t-18 -11t-15.5 -7.5t-16 -6.5t-13 -2q-53 0 -88 37.5t-35 85.5q0 70 80 98q132 46 156 66v19q0 52 -21.5 81.5t-58.5 29.5q-27 0 -43 -19q-17 -20 -29 -67q-7 -25 -32 -25
q-16 0 -31.5 13.5t-15.5 30.5q0 18 33 42q26 19 70 40.5t82 29.5q51 0 85 -27q46 -38 46 -125v-182q0 -59 35 -59q18 0 35 10zM273 83v157q-9 -5 -24.5 -12.5t-34.5 -16t-25 -11.5q-30 -15 -44 -31t-14 -42q0 -36 21.5 -56t47.5 -20q39 0 73 32zM255 503l-28 -13l-119 159
l3 9q8 5 39 10q26 5 39 5h4z" />
    <glyph glyph-name="aacute" unicode="&#xe1;" horiz-adv-x="444" 
d="M438 40l-89 -52q-29 0 -49 20q-17 17 -25 43q-3 -2 -16.5 -11.5t-19 -13t-17 -11.5t-18 -11t-15.5 -7.5t-16 -6.5t-13 -2q-53 0 -88 37.5t-35 85.5q0 70 80 98q132 46 156 66v19q0 52 -21.5 81.5t-58.5 29.5q-27 0 -43 -19q-17 -20 -29 -67q-7 -25 -32 -25
q-16 0 -31.5 13.5t-15.5 30.5q0 18 33 42q26 19 70 40.5t82 29.5q51 0 85 -27q46 -38 46 -125v-182q0 -59 35 -59q18 0 35 10zM273 83v157q-9 -5 -24.5 -12.5t-34.5 -16t-25 -11.5q-30 -15 -44 -31t-14 -42q0 -36 21.5 -56t47.5 -20q39 0 73 32zM205 492l-27 14
q8 18 22 53.5t27 67.5l15 38q8 4 42 8q23 3 35 3q6 0 9 -1l4 -10z" />
    <glyph glyph-name="acircumflex" unicode="&#xe2;" horiz-adv-x="444" 
d="M438 40l-89 -52q-29 0 -49 20q-17 17 -25 43q-3 -2 -16.5 -11.5t-19 -13t-17 -11.5t-18 -11t-15.5 -7.5t-16 -6.5t-13 -2q-53 0 -88 37.5t-35 85.5q0 70 80 98q132 46 156 66v19q0 52 -21.5 81.5t-58.5 29.5q-27 0 -43 -19q-17 -20 -29 -67q-7 -25 -32 -25
q-16 0 -31.5 13.5t-15.5 30.5q0 18 33 42q26 19 70 40.5t82 29.5q51 0 85 -27q46 -38 46 -125v-182q0 -59 35 -59q18 0 35 10zM273 83v157q-9 -5 -24.5 -12.5t-34.5 -16t-25 -11.5q-30 -15 -44 -31t-14 -42q0 -36 21.5 -56t47.5 -20q39 0 73 32zM326 508l-25 -18
q-35 31 -90 96q-55 -65 -90 -96l-25 18q53 74 102 165h27q46 -88 101 -165z" />
    <glyph glyph-name="atilde" unicode="&#xe3;" horiz-adv-x="444" 
d="M438 40l-89 -52q-29 0 -49 20q-17 17 -25 43q-3 -2 -16.5 -11.5t-19 -13t-17 -11.5t-18 -11t-15.5 -7.5t-16 -6.5t-13 -2q-53 0 -88 37.5t-35 85.5q0 70 80 98q132 46 156 66v19q0 52 -21.5 81.5t-58.5 29.5q-27 0 -43 -19q-17 -20 -29 -67q-7 -25 -32 -25
q-16 0 -31.5 13.5t-15.5 30.5q0 18 33 42q26 19 70 40.5t82 29.5q51 0 85 -27q46 -38 46 -125v-182q0 -59 35 -59q18 0 35 10zM273 83v157q-9 -5 -24.5 -12.5t-34.5 -16t-25 -11.5q-30 -15 -44 -31t-14 -42q0 -36 21.5 -56t47.5 -20q39 0 73 32zM108 519l-27 17q30 93 83 93
q20 0 59 -20q38 -19 54 -19q23 0 44 46l26 -14q-28 -94 -81 -94q-22 0 -66 23q-26 16 -47 16q-25 0 -45 -48z" />
    <glyph glyph-name="adieresis" unicode="&#xe4;" horiz-adv-x="444" 
d="M439 40l-89 -52q-30 0 -50 20q-15 15 -24 43q-91 -63 -116 -63q-53 0 -87.5 37t-34.5 86q0 70 80 98q134 48 156 66v19q0 53 -22 82t-59 29q-26 0 -43 -19q-17 -20 -29 -67q-7 -25 -31 -25q-16 0 -31.5 13.5t-15.5 30.5q0 18 32 42q77 54 153 70q50 0 85 -27
q46 -38 46 -125v-182q0 -59 34 -59q19 0 36 10zM274 83v157q-9 -5 -24.5 -12.5t-34.5 -16t-25 -11.5q-31 -15 -45 -31t-14 -42q0 -36 22 -56t48 -20q39 0 73 32zM124 534q-20 0 -35.5 15.5t-15.5 36.5q0 22 15.5 37t36.5 15t36 -15t15 -37q0 -21 -15 -36.5t-37 -15.5z
M299 534q-20 0 -35.5 15.5t-15.5 36.5q0 22 15.5 37t36.5 15t35.5 -15t14.5 -37q0 -21 -15 -36.5t-36 -15.5z" />
    <glyph glyph-name="aring" unicode="&#xe5;" horiz-adv-x="444" 
d="M438 40l-89 -52q-29 0 -49 20q-17 17 -25 43q-3 -2 -16.5 -11.5t-19 -13t-17 -11.5t-18 -11t-15.5 -7.5t-16 -6.5t-13 -2q-53 0 -88 37.5t-35 85.5q0 70 80 98q132 46 156 66v19q0 52 -21.5 81.5t-58.5 29.5q-27 0 -43 -19q-17 -20 -29 -67q-7 -25 -32 -25
q-16 0 -31.5 13.5t-15.5 30.5q0 18 33 42q26 19 70 40.5t82 29.5q51 0 85 -27q46 -38 46 -125v-182q0 -59 35 -59q18 0 35 10zM273 83v157q-9 -5 -24.5 -12.5t-34.5 -16t-25 -11.5q-30 -15 -44 -31t-14 -42q0 -36 21.5 -56t47.5 -20q39 0 73 32zM213 499q-36 0 -63 24
t-27 62t27.5 61.5t63.5 23.5q35 0 62 -23.5t27 -61.5t-27.5 -62t-62.5 -24zM214 531q20 0 32 15t12 39q0 23 -12 37.5t-33 14.5q-19 0 -31.5 -15t-12.5 -37q0 -23 13 -38.5t32 -15.5z" />
    <glyph glyph-name="ae" unicode="&#xe6;" horiz-adv-x="671" 
d="M282 276v24q0 46 -24.5 75.5t-59.5 29.5q-29 0 -46 -22q-14 -16 -27 -64q-7 -26 -30 -26q-14 0 -31.5 14t-17.5 29q0 21 32 44q76 52 154 70q45 0 75 -22q28 -18 40 -51q65 71 145 73q64 0 109.5 -46.5t46.5 -106.5q0 -17 -5 -24.5t-19 -10.5q-36 -10 -262 -17v-4
q0 -88 44 -135q45 -47 109 -47q57 0 110 49l18 -22q-39 -53 -86 -75.5t-80 -22.5q-108 0 -161 88l-34 -27q-82 -61 -121 -61q-54 0 -88.5 37t-34.5 84q0 71 78 100q139 48 166 67zM468 412q-35 0 -64.5 -33.5t-35.5 -92.5l165 3q22 0 22 23q0 41 -23.5 70.5t-63.5 29.5z
M204 54q57 0 97 52q-20 42 -20 134q-9 -4 -24.5 -11t-35.5 -15.5t-32 -13.5q-31 -13 -44.5 -28.5t-13.5 -41.5q0 -36 22 -56t51 -20z" />
    <glyph glyph-name="ccedilla" unicode="&#xe7;" horiz-adv-x="428" 
d="M228 -96q-26 0 -45 -6l-6 6l36 87q-83 7 -129.5 66t-46.5 151q0 101 63 166t142 65q71 0 112 -26.5t41 -68.5q0 -21 -15.5 -32.5t-33.5 -11.5q-34 0 -38 36q-2 22 -6.5 34.5t-20.5 24t-44 11.5q-50 0 -82 -47.5t-32 -128.5q0 -86 39 -138.5t95 -52.5q69 0 120 66
q16 -2 21 -14q-58 -96 -151 -101l-21 -57q12 3 26 3q31 0 51 -17t20 -45q0 -32 -30.5 -53t-76.5 -21q-35 0 -74 17q0 16 10 26q38 -14 58 -14q23 0 37 10.5t14 29.5q0 35 -33 35z" />
    <glyph glyph-name="egrave" unicode="&#xe8;" horiz-adv-x="438" 
d="M122 292l181 3q15 0 15 14q0 57 -24.5 81t-58.5 24q-13 0 -26 -3.5t-31.5 -14.5t-33.5 -38t-22 -66zM235 0q-95 0 -147.5 58t-52.5 154q0 106 63.5 170.5t136.5 64.5q169 0 169 -174q0 -17 -19 -17l-266 2q0 -84 32 -137q44 -72 109 -72q42 0 68.5 12t55.5 42
q17 -1 21 -16q-67 -87 -170 -87zM210 671l70 -126q6 -12 6 -24q0 -4 -4.5 -7.5t-10.5 -3.5q-8 0 -29 20l-114 109l2 11q31 23 65 23q7 0 15 -2z" />
    <glyph glyph-name="eacute" unicode="&#xe9;" horiz-adv-x="438" 
d="M122 292l181 3q15 0 15 14q0 57 -24.5 81t-58.5 24q-13 0 -26 -3.5t-31.5 -14.5t-33.5 -38t-22 -66zM235 0q-95 0 -147.5 58t-52.5 154q0 106 63.5 170.5t136.5 64.5q169 0 169 -174q0 -17 -19 -17l-266 2q0 -84 32 -137q44 -72 109 -72q42 0 68.5 12t55.5 42
q17 -1 21 -16q-67 -87 -170 -87zM270 671q6 2 14 2q31 0 55 -23l3 -11l-115 -109q-19 -19 -30 -19q-5 0 -9.5 4t-4.5 9q0 10 11 28z" />
    <glyph glyph-name="ecircumflex" unicode="&#xea;" horiz-adv-x="438" 
d="M122 292l181 3q15 0 15 14q0 57 -24.5 81t-58.5 24q-13 0 -26 -3.5t-31.5 -14.5t-33.5 -38t-22 -66zM235 0q-95 0 -147.5 58t-52.5 154q0 106 63.5 170.5t136.5 64.5q169 0 169 -174q0 -17 -19 -17l-266 2q0 -84 32 -137q44 -72 109 -72q42 0 68.5 12t55.5 42
q17 -1 21 -16q-67 -87 -170 -87zM249 660q37 -60 109 -140q-10 -14 -23 -17q-58 37 -103 83q-56 -56 -104 -83q-13 3 -22 17q76 84 111 140q12 2 17 2t15 -2z" />
    <glyph glyph-name="edieresis" unicode="&#xeb;" horiz-adv-x="438" 
d="M122 292l181 3q15 0 15 14q0 57 -24.5 81t-58.5 24q-13 0 -26 -3.5t-31.5 -14.5t-33.5 -38t-22 -66zM235 0q-95 0 -147.5 58t-52.5 154q0 106 63.5 170.5t136.5 64.5q169 0 169 -174q0 -17 -19 -17l-266 2q0 -84 32 -137q44 -72 109 -72q42 0 68.5 12t55.5 42
q17 -1 21 -16q-67 -87 -170 -87zM99 575q0 20 14 34t33 14t33 -14t14 -34q0 -19 -13.5 -33t-33.5 -14t-33.5 14t-13.5 33zM268 575q0 20 14 34t33 14t33 -14t14 -34q0 -19 -14 -33t-33 -14t-33 14t-14 33z" />
    <glyph glyph-name="igrave" unicode="&#xec;" horiz-adv-x="273" 
d="M258 0h-226v27q47 5 58 18t11 65v198q0 49 -9 61t-52 19v24q88 15 149 39v-341q0 -52 10.5 -65t58.5 -18v-27zM172 503l-28 -13l-119 159l3 9q8 5 39 10q26 5 39 5h4z" />
    <glyph glyph-name="iacute" unicode="&#xed;" horiz-adv-x="273" 
d="M258 0h-226v27q47 5 58 18t11 65v198q0 49 -9 61t-52 19v24q88 15 149 39v-341q0 -52 10.5 -65t58.5 -18v-27zM128 492l-27 14q8 18 22 53.5t27 68.5l15 37q8 4 43 8q23 3 34 3q6 0 9 -1l4 -10z" />
    <glyph glyph-name="icircumflex" unicode="&#xee;" horiz-adv-x="273" 
d="M258 0h-226v27q47 5 58 18t11 65v198q0 49 -9 61t-52 19v24q88 15 149 39v-341q0 -52 10.5 -65t58.5 -18v-27zM250 508l-25 -18q-35 31 -90 96q-55 -65 -90 -96l-25 18q53 74 102 165h27q46 -88 101 -165z" />
    <glyph glyph-name="idieresis" unicode="&#xef;" horiz-adv-x="273" 
d="M258 0h-226v27q47 5 58 18t11 65v198q0 49 -9.5 61t-52.5 19v24q90 16 150 39v-341q0 -52 10.5 -65t58.5 -18v-27zM46 534q-20 0 -35.5 15.5t-15.5 35.5q0 22 15.5 37.5t36.5 15.5q22 0 36.5 -15t14.5 -38q0 -21 -15 -36t-37 -15zM222 534q-21 0 -36 15.5t-15 35.5
q0 22 15 37.5t37 15.5q21 0 35.5 -15.5t14.5 -37.5q0 -21 -15 -36t-36 -15z" />
    <glyph glyph-name="eth" unicode="&#xf0;" horiz-adv-x="508" 
d="M453 660l-116 -61q133 -138 133 -331q0 -138 -64.5 -209t-157.5 -71q-95 0 -154 68q-58 67 -58 151v3q1 112 71 176t153 64h1q46 0 87 -22q-18 78 -69 139l-145 -78l-16 33l135 71q-78 74 -172 86q-5 6 -2.5 16.5t9.5 14.5q119 -7 219 -85l128 67zM255 416
q-52 0 -84.5 -48.5t-32.5 -129.5q0 -96 34.5 -155.5t92.5 -59.5q107 0 108 211v7q0 107 -29 136q-36 39 -89 39z" />
    <glyph glyph-name="ntilde" unicode="&#xf1;" horiz-adv-x="566" 
d="M192 358q70 81 164 81q57 0 83 -34q27 -36 27 -134v-149q0 -59 11.5 -73t55.5 -18q4 -4 4 -17q0 -12 -4 -16q-60 2 -106 2q-42 0 -102 -2q-4 4 -4 16q0 13 4 17q41 4 51.5 18t10.5 73v152q0 53 -12 77q-18 34 -53 34q-63 0 -122 -57q-17 -19 -17 -42v-164q0 -59 10.5 -73
t50.5 -18q4 -4 4 -17q0 -12 -4 -16q-60 2 -100 2q-50 0 -110 -2q-4 4 -4 16q0 13 4 17q47 4 58.5 17.5t11.5 73.5v195q0 42 -11.5 53t-53.5 15q-6 17 -2 28q74 10 123 29q8 0 12 -8q6 -12 8 -76q0 -14 12 0zM222 626q26 0 62 -26.5t62 -26.5q17 0 27 10.5t20 41.5
q16 1 27 -6q-20 -99 -87 -99q-6 0 -12.5 1.5t-14 5.5t-12 7t-13 9.5t-12.5 8.5q-31 19 -54 19q-19 0 -28.5 -11t-17.5 -37q-19 -3 -27 5q23 98 80 98z" />
    <glyph glyph-name="ograve" unicode="&#xf2;" horiz-adv-x="513" 
d="M260 450q93 0 155 -65.5t62 -158.5q0 -113 -67 -175.5t-152 -62.5q-101 0 -161.5 66t-60.5 155q0 78 37 135t86.5 81.5t100.5 24.5zM246 416q-45 0 -76.5 -46t-31.5 -128q0 -96 36 -158t95 -62q106 0 106 181q0 94 -34 153.5t-95 59.5zM295 503l-28 -13l-119 159l3 9
q8 5 39 10q26 5 39 5h4z" />
    <glyph glyph-name="oacute" unicode="&#xf3;" horiz-adv-x="513" 
d="M260 450q93 0 155 -65.5t62 -158.5q0 -113 -67 -175.5t-152 -62.5q-101 0 -161.5 66t-60.5 155q0 78 37 135t86.5 81.5t100.5 24.5zM246 416q-45 0 -76.5 -46t-31.5 -128q0 -96 36 -158t95 -62q106 0 106 181q0 94 -34 153.5t-95 59.5zM248 492l-27 14q8 18 22 53.5
t27 68.5l15 37q8 4 43 8q22 3 34 3q6 0 9 -1l4 -10z" />
    <glyph glyph-name="ocircumflex" unicode="&#xf4;" horiz-adv-x="513" 
d="M260 450q93 0 155 -65.5t62 -158.5q0 -113 -67 -175.5t-152 -62.5q-101 0 -161.5 66t-60.5 155q0 78 37 135t86.5 81.5t100.5 24.5zM246 416q-45 0 -76.5 -46t-31.5 -128q0 -96 36 -158t95 -62q106 0 106 181q0 94 -34 153.5t-95 59.5zM371 508l-25 -18q-35 31 -90 96
q-55 -65 -90 -96l-25 18q53 74 102 165h27q46 -88 101 -165z" />
    <glyph glyph-name="otilde" unicode="&#xf5;" horiz-adv-x="513" 
d="M260 450q93 0 155 -65.5t62 -158.5q0 -113 -67 -175.5t-152 -62.5q-101 0 -161.5 66t-60.5 155q0 78 37 135t86.5 81.5t100.5 24.5zM246 416q-45 0 -76.5 -46t-31.5 -128q0 -96 36 -158t95 -62q106 0 106 181q0 94 -34 153.5t-95 59.5zM149 519l-26 17q30 93 83 93
q20 0 59 -20q38 -19 54 -19q23 0 44 46l26 -14q-28 -94 -81 -94q-24 0 -66 23q-28 16 -47 16q-26 0 -46 -48z" />
    <glyph glyph-name="odieresis" unicode="&#xf6;" horiz-adv-x="513" 
d="M259 450q93 0 155.5 -65.5t62.5 -158.5q0 -112 -67 -175t-152 -63q-101 0 -161.5 66t-60.5 155q0 78 37 135t86 81.5t100 24.5zM246 416q-45 0 -76.5 -46t-31.5 -128q0 -96 36 -158t95 -62q106 0 106 181q0 94 -34 153.5t-95 59.5zM168 534q-20 0 -35 15.5t-15 36.5
q0 22 15 37t36 15q22 0 36.5 -15t14.5 -37q0 -21 -15 -36.5t-37 -15.5zM343 534q-20 0 -35 15.5t-15 36.5q0 22 15 37t36 15q22 0 36.5 -15t14.5 -37q0 -21 -15 -36.5t-37 -15.5z" />
    <glyph glyph-name="divide" unicode="&#xf7;" horiz-adv-x="579" 
d="M291 353q-19 0 -34.5 15t-15.5 36q0 20 15.5 35.5t35.5 15.5q21 0 36.5 -15.5t15.5 -35.5q0 -22 -15.5 -36.5t-37.5 -14.5zM530 228h-479v52h479v-52zM292 155q19 0 34.5 -15t15.5 -36q0 -20 -16 -35.5t-35 -15.5q-21 0 -36.5 15.5t-15.5 35.5q0 22 15 36.5t38 14.5z" />
    <glyph glyph-name="oslash" unicode="&#xf8;" horiz-adv-x="516" 
d="M434 455l-35 -52q81 -67 81 -176q0 -112 -67 -175.5t-153 -63.5q-62 0 -116 30l-38 -54l-26 22l37 52q-39 32 -60 77.5t-21 94.5q0 58 21.5 105.5t55.5 76t73 43.5t76 15q59 0 109 -29l36 53zM161 104l175 266q-31 46 -85 46q-49 0 -83.5 -48t-34.5 -134q0 -77 28 -130z
M356 338l-174 -266q31 -51 88 -51q49 0 81.5 46.5t32.5 145.5q0 72 -28 125z" />
    <glyph glyph-name="ugrave" unicode="&#xf9;" horiz-adv-x="535" 
d="M522 51v-27q-31 -4 -79 -16q-54 -14 -74 -20l-7 6v69q-45 -35 -70 -49q-44 -26 -79 -26q-56 0 -90.5 36.5t-34.5 111.5v198q0 36 -6.5 47t-26.5 16l-27 6v24q19 1 76 7q25 3 75 11q-3 -33 -3 -146v-137q0 -109 85 -109q55 0 101 45v235q0 38 -7.5 48.5t-32.5 15.5l-35 6
v24q44 2 92 8q24 2 71 10v-332q0 -37 8.5 -48t37.5 -13zM296 504l-27 -14l-120 160l3 9q8 5 39 10q24 5 36 5q4 0 7 -1q3 -6 62 -169z" />
    <glyph glyph-name="uacute" unicode="&#xfa;" horiz-adv-x="535" 
d="M522 51v-27q-31 -4 -79 -16q-54 -14 -74 -20l-7 6v69q-45 -35 -70 -49q-44 -26 -79 -26q-56 0 -90.5 36.5t-34.5 111.5v198q0 36 -6.5 47t-26.5 16l-27 6v24q19 1 76 7q25 3 75 11q-3 -33 -3 -146v-137q0 -109 85 -109q55 0 101 45v235q0 38 -7.5 48.5t-32.5 15.5l-35 6
v24q44 2 92 8q24 2 71 10v-332q0 -37 8.5 -48t37.5 -13zM254 492l-26 14l64 159q7 4 41 8q24 3 36 3q6 0 9 -1l3 -10z" />
    <glyph glyph-name="ucircumflex" unicode="&#xfb;" horiz-adv-x="535" 
d="M522 51v-27q-31 -4 -79 -16q-54 -14 -74 -20l-7 6v69q-45 -35 -70 -49q-44 -26 -79 -26q-56 0 -90.5 36.5t-34.5 111.5v198q0 36 -6.5 47t-26.5 16l-27 6v24q19 1 76 7q25 3 75 11q-3 -33 -3 -146v-137q0 -109 85 -109q55 0 101 45v235q0 38 -7.5 48.5t-32.5 15.5l-35 6
v24q44 2 92 8q24 2 71 10v-332q0 -37 8.5 -48t37.5 -13zM378 508l-25 -18q-39 35 -90 96q-55 -65 -90 -96l-25 18q53 74 102 165h27q53 -97 101 -165z" />
    <glyph glyph-name="udieresis" unicode="&#xfc;" horiz-adv-x="535" 
d="M522 51v-27q-31 -4 -79 -16q-54 -14 -74 -20l-7 6v69q-45 -35 -70 -49q-44 -26 -79 -26q-56 0 -90.5 36.5t-34.5 111.5v198q0 37 -6.5 47.5t-26.5 15.5l-27 6v25q35 2 76 6q25 3 75 11q-3 -33 -3 -146v-137q0 -109 85 -109q55 0 101 45v236q0 37 -7.5 48t-32.5 15l-35 6
v25q35 1 92 7q24 2 71 10v-332q0 -37 8.5 -48t37.5 -13zM171 535q-20 0 -35 15.5t-15 36.5q0 22 15 37t36 15q22 0 36.5 -15t14.5 -37q0 -21 -15 -36.5t-37 -15.5zM347 535q-21 0 -36 15t-15 36q0 22 15 37.5t37 15.5q21 0 35.5 -15.5t14.5 -37.5q0 -21 -14.5 -36t-36.5 -15
z" />
    <glyph glyph-name="yacute" unicode="&#xfd;" horiz-adv-x="460" 
d="M479 438v-27q-39 -6 -53.5 -18t-34.5 -54q-11 -23 -26.5 -60t-43 -104.5t-54.5 -132.5q-82 -195 -103 -272q-8 -25 -33 -25q-21 0 -40 16t-19 35q0 20 26 37q45 27 75 86q20 35 29 63q3 9 3 19q0 13 -5 27q-77 218 -116 310q-16 41 -30.5 54.5t-53.5 18.5v27h210l1 -27
q-34 -6 -41 -16q-4 -4 -4 -12q0 -10 6 -25l88 -246q47 111 89 243q4 14 4 23q0 10 -5 16q-9 11 -50 17v27h181zM245 492l-27 14q8 18 22 53.5t27 68.5l15 37q8 4 42 8q23 3 35 3q6 0 9 -1l4 -10z" />
    <glyph glyph-name="thorn" unicode="&#xfe;" horiz-adv-x="533" 
d="M396 218q0 73 -31.5 129t-87.5 56q-25 0 -54 -20t-47 -42q-16 -22 -16 -44v-182q0 -27 4 -36.5t20 -23.5q24 -21 71 -21q73 0 107 51t34 133zM481 244q0 -105 -60.5 -174.5t-159.5 -69.5q-57 0 -87 15q-8 4 -11 3t-3 -10v-108q0 -61 14 -74q15 -17 68 -17q5 -5 5 -17
q0 -11 -5 -16h-233q-4 4 -4 16q0 13 4 17q45 0 59 17q13 13 13 74v427q0 256 -11 267q-12 10 -54 15q-6 18 -2 28q77 11 123 29q12 -7 12 -8q4 -15 6 -62q2 -45 2 -136v-41.5v-40.5q0 -8 3.5 -9.5t7.5 5.5q68 75 137 75q75 0 125 -61q51 -63 51 -144z" />
    <glyph glyph-name="ydieresis" unicode="&#xff;" horiz-adv-x="460" 
d="M479 438v-27q-39 -6 -53.5 -18t-34.5 -54q-11 -23 -26.5 -60t-43 -104.5t-54.5 -132.5q-82 -195 -103 -272q-8 -25 -33 -25q-21 0 -40 16t-19 35q0 20 26 37q45 27 75 86q20 35 29 63q3 9 3 19q0 13 -5 27q-77 218 -116 310q-16 41 -30.5 54.5t-53.5 18.5v27h210l1 -27
q-34 -6 -41 -16q-4 -4 -4 -12q0 -10 6 -25l88 -246q47 111 89 243q4 14 4 23q0 10 -5 16q-9 11 -50 17v27h181zM153 535q-20 0 -35.5 15.5t-15.5 36.5q0 22 15.5 37t36.5 15t35.5 -15t14.5 -37q0 -21 -15 -36.5t-36 -15.5zM328 535q-20 0 -35.5 15.5t-15.5 36.5
q0 22 15.5 37t36.5 15t35.5 -15t14.5 -37q0 -21 -15 -36.5t-36 -15.5z" />
    <glyph glyph-name="dotlessi" unicode="&#x131;" horiz-adv-x="273" 
d="M258 0h-226v27q47 5 58 18t11 65v198q0 49 -9 61t-52 19v24q88 15 149 39v-341q0 -52 10.5 -65t58.5 -18v-27z" />
    <glyph glyph-name="OE" unicode="&#x152;" horiz-adv-x="976" 
d="M925 164l31 -5q-16 -86 -35 -159h-309q-58 0 -103 -4q-73 -7 -101 -7q-176 0 -269.5 95t-93.5 233q0 154 108.5 248.5t274.5 95.5q16 0 32.5 -1t35 -2.5t29.5 -2.5q55 -5 92 -5h280q0 -28 9 -143l-31 -4q-14 59 -33 84q-10 15 -34 20.5t-77 5.5h-72q-23 0 -28 -4.5
t-5 -26.5v-225h94q62 0 78 12t25 61h31v-192h-31q-10 53 -25.5 65t-77.5 12h-94v-180q0 -71 24 -86q19 -13 101 -13q54 0 80.5 6.5t43.5 25.5q26 30 50 96zM533 108v440q0 46 -20 58q-35 19 -95 19q-122 0 -192 -79.5t-70 -216.5q0 -61 15 -114t45.5 -96.5t82.5 -68.5
t120 -25q52 0 79 14q20 9 27.5 23.5t7.5 45.5z" />
    <glyph glyph-name="oe" unicode="&#x153;" horiz-adv-x="770" 
d="M255 450q53 0 97 -26t70 -71q28 42 74 69.5t93 27.5q65 0 110.5 -46t45.5 -107q0 -18 -4.5 -24.5t-17.5 -9.5q-49 -10 -266 -17v-4q0 -89 44 -136t110 -47q55 0 111 49l16 -22q-38 -53 -83.5 -75.5t-79.5 -22.5q-108 0 -162 85q-30 -42 -73.5 -63.5t-87.5 -21.5
q-98 0 -157.5 67.5t-59.5 154.5q0 58 21.5 106t55 76t71 43t72.5 15zM564 412q-35 0 -65 -33.5t-37 -92.5q19 0 53 0.5t62.5 1t54.5 1.5q21 0 21 23q0 42 -24.5 71t-64.5 29zM244 415q-44 0 -75 -46.5t-31 -126.5q0 -97 35 -158t94 -61q45 0 75 44.5t30 139.5
q0 94 -33.5 151t-94.5 57z" />
    <glyph glyph-name="longs" unicode="&#x17f;" horiz-adv-x="304" 
d="M170 486v-364q0 -63 13 -77t71 -14q5 -5 5 -17q0 -9 -5 -14h-123h-110q-4 4 -4 14q0 13 4 17q43 0 56.5 15.5t13.5 75.5v268h-69q-5 0 -5 6v13q0 8 5.5 15t17.5 7h51v38q0 109 53.5 169t123.5 60q60 0 90 -21q32 -24 32 -51q0 -15 -14 -28t-27 -13q-26 0 -40 32
q-10 26 -23.5 36.5t-36.5 10.5q-79 0 -79 -178z" />
    <glyph glyph-name="circumflex" unicode="&#x2c6;" horiz-adv-x="300" 
d="M168 724q44 -53 104 -97q-6 -16 -16 -21q-66 30 -106 61q-47 -34 -108 -61q-10 7 -14 21q41 31 102 97q10 6 18 6t20 -6z" />
    <glyph glyph-name="ring" unicode="&#x2da;" horiz-adv-x="277" 
d="M24 667q0 39 38 77t77 38t77 -38t38 -77t-38 -77t-77 -38t-77 38t-38 77zM72 667q0 -25 20.5 -46t46 -21t46.5 21t21 46t-21 46t-46.5 21t-46 -21t-20.5 -46z" />
    <glyph glyph-name="tilde" unicode="&#x2dc;" horiz-adv-x="330" 
d="M106 685q26 0 62 -26.5t62 -26.5q17 0 27 10.5t20 41.5q16 1 27 -6q-20 -99 -87 -99q-6 0 -12.5 1.5t-14 5.5t-12 7t-13 9.5t-12.5 8.5q-31 19 -54 19q-19 0 -28.5 -11t-17.5 -37q-19 -3 -27 5q23 98 80 98z" />
    <glyph glyph-name="gravecomb" unicode="&#x300;" horiz-adv-x="1" 
d="M-120 544q2 -4 2 -10q0 -8 -4.5 -15.5t-11.5 -9.5q-4 -1 -9 -1q-19 0 -28 13l-137 214q-3 5 2 11t11 6h57q15 0 22 -14z" />
    <glyph glyph-name="acutecomb" unicode="&#x301;" horiz-adv-x="1" 
d="M-209 534q-9 -15 -26 -15q-4 0 -7 1q-13 4 -13 23q0 7 2 12l87 196q7 14 22 14h57q6 0 11 -6t2 -11z" />
    <glyph glyph-name="uni0306" unicode="&#x306;" horiz-adv-x="1" 
d="M-158 698q0 3 -0.5 8.5t-0.5 8.5q0 14 6.5 21t16.5 7q11 0 20.5 -8.5t10.5 -23.5q1 -16 1 -31q0 -72 -32.5 -115.5t-95.5 -43.5q-45 0 -68 30t-23 75q0 57 30 103q10 15 27 15q9 0 15.5 -5t6.5 -15q0 -8 -5 -18q-10 -21 -10 -45t10.5 -39.5t29.5 -15.5q29 0 45 29.5
t16 62.5z" />
    <glyph glyph-name="uni0307" unicode="&#x307;" horiz-adv-x="1" 
d="M-204 643q-2 5 1 9t8 4h46q8 0 11 -13l29 -109q1 -4 -2.5 -8.5t-8.5 -4.5h-42q-4 0 -8 4.5t-5 8.5z" />
    <glyph glyph-name="uni0308" unicode="&#x308;" horiz-adv-x="1" 
d="M-204 643q-2 5 1 9t8 4h46q8 0 11 -13l29 -109q1 -4 -2.5 -8.5t-8.5 -4.5h-42q-4 0 -8 4.5t-5 8.5zM-330 643q-2 5 1 9t8 4h44q4 0 8 -4.5t5 -8.5l29 -109q1 -4 -2.5 -8.5t-8.5 -4.5h-42q-4 0 -8 4.5t-5 8.5z" />
    <glyph glyph-name="uni030F" unicode="&#x30f;" horiz-adv-x="1" 
d="M-234 643q-2 5 1 9t8 4h49q4 0 8 -4.5t5 -8.5l29 -109q1 -4 -2.5 -8.5t-8.5 -4.5h-47q-4 0 -8 4.5t-5 8.5zM-360 643q-2 5 1 9t8 4h49q4 0 8 -4.5t5 -8.5l29 -109q1 -4 -2.5 -8.5t-8.5 -4.5h-47q-4 0 -8 4.5t-5 8.5z" />
    <glyph glyph-name="uni0311" unicode="&#x311;" horiz-adv-x="1" 
d="M-58 536h-60q-1 58 -28.5 98t-75.5 40q-18 0 -34.5 -7t-29 -19t-21.5 -29t-14 -37.5t-5 -42.5v-3h-60v2q0 85 47 140.5t117 55.5q72 0 117.5 -57t46.5 -141z" />
    <glyph glyph-name="uni033E" unicode="&#x33e;" horiz-adv-x="1" 
d="M-90 739q4 2 8 2q6 0 10 -4.5t4 -12.5q0 -10 -7 -18q-20 -24 -40 -41q-2 -3 3 -8q10 -11 34 -37q7 -7 7 -17q0 -11 -9 -17q-19 -14 -89 -55q-3 -2 -7 -2q-8 0 -15.5 5.5t-7.5 11.5q0 4 3 7q1 1 35 38q5 5 -1 10q0 1 -14 17t-19 22q-6 7 -6 17q0 14 9 20q59 40 102 62z
" />
    <glyph glyph-name="uni034F" unicode="&#x34f;" horiz-adv-x="1" 
 />
    <glyph glyph-name="uni0360" unicode="&#x360;" horiz-adv-x="1" 
d="M-427 546q0 -11 -12 -11h-79q-13 0 -13 13v84q-1 0 -3 0.5t-3 0.5q-18 2 -18 23q0 10 5.5 17.5t14.5 7.5h3q53 -9 194 -17q38 -2 165 -2v89q0 13 13 13h79q12 0 12 -11v-92q3 0 8 0.5t7 0.5q10 0 15 -6t5 -14t-5 -14t-15 -6h-48q-198 0 -325 4v-80z" />
    <glyph glyph-name="uni0400" unicode="&#x400;" horiz-adv-x="540" 
d="M328 764q0 -11 -6.5 -18.5t-18.5 -7.5q-20 0 -28 13l-137 214q-3 5 2 11t11 6h57q15 0 22 -14l96 -194q2 -6 2 -10zM97 184q-31 66 -44 109t-13 104q0 78 29 142.5t85.5 104.5t129.5 40q98 0 151.5 -46t53.5 -107h24v-40h-167v40h34q0 19 -4 36.5t-14 36t-30.5 30
t-48.5 11.5q-36 0 -62.5 -19t-41 -51.5t-21 -68.5t-6.5 -76q0 -45 16 -97q25 49 66.5 76.5t95.5 27.5q82 0 122.5 -47t40.5 -126h-115v4q0 50 -20 83t-61 33q-32 0 -62 -33t-50 -80q21 -90 21 -203v-23q65 0 113 41t55 89h114q-12 -84 -97 -130.5t-241 -46.5v4q0 33 -9 67.5
t-17 54.5t-27 60z" />
    <glyph glyph-name="uni0401" unicode="&#x401;" horiz-adv-x="540" 
d="M283 863q-2 5 1 9t8 4h46q8 0 11 -13l29 -109q1 -4 -2.5 -8.5t-8.5 -4.5h-42q-4 0 -8 4.5t-5 8.5zM157 863q-2 5 1 9t8 4h44q4 0 8 -4.5t5 -8.5l29 -109q1 -4 -2.5 -8.5t-8.5 -4.5h-42q-4 0 -8 4.5t-5 8.5zM97 184q-31 66 -44 109t-13 104q0 78 29 142.5t85.5 104.5
t129.5 40q98 0 151.5 -46t53.5 -107h24v-40h-167v40h34q0 19 -4 36.5t-14 36t-30.5 30t-48.5 11.5q-36 0 -62.5 -19t-41 -51.5t-21 -68.5t-6.5 -76q0 -45 16 -97q25 49 66.5 76.5t95.5 27.5q82 0 122.5 -47t40.5 -126h-115v4q0 50 -20 83t-61 33q-32 0 -62 -33t-50 -80
q21 -90 21 -203v-23q65 0 113 41t55 89h114q-12 -84 -97 -130.5t-241 -46.5v4q0 33 -9 67.5t-17 54.5t-27 60z" />
    <glyph glyph-name="uni0402" unicode="&#x402;" horiz-adv-x="750" 
d="M20 676h635q14 0 14 -16t-10 -24q-31 -19 -65 -91q0 -3 -7 -3t-7 3q-26 68 -64 91h-102v-260h57q26 0 70 -7q61 -9 99 -26.5t57.5 -48t26 -66t6.5 -92.5q0 -33 -3.5 -59t-8 -45t-15.5 -35.5t-19.5 -27t-27.5 -23.5t-31 -20t-39 -21q-6 -4 -9.5 -6t-12.5 -6.5l-18 -9
t-13 -7.5q-15 -7 -23 -7q-5 0 -5 4t10 16q48 53 66 80.5t25 66.5q0 2 1.5 14t1.5 21v48q0 35 -0.5 54.5t-3.5 46.5t-9.5 41t-18 31t-28.5 25t-42 13.5t-58 5.5q-6 0 -18 -0.5t-17 -0.5v-295h52v-40h-223v40h54v596h-117v-220h-106v220h-54v40z" />
    <glyph glyph-name="uni0403" unicode="&#x403;" horiz-adv-x="490" 
d="M182 739q-20 0 -20 24q0 7 2 12l87 196q7 14 22 14h57q6 0 11 -6t2 -11l-135 -214q-9 -15 -26 -15zM304 636h-110v-596h54v-40h-226v40h54v596h-54v40h442q12 0 12 -14q0 -15 -11 -21q-6 -3 -14 -26q-11 -42 -15 -98q-1 -9 -11 -9q-11 0 -15 9q-21 45 -71 103
q-14 16 -35 16z" />
    <glyph glyph-name="afii10053" unicode="&#x404;" horiz-adv-x="540" 
d="M97 184q-31 66 -44 109t-13 104q0 78 29 142.5t85.5 104.5t129.5 40q98 0 151.5 -46t53.5 -107h24v-40h-167v40h34q0 19 -4 36.5t-14 36t-30.5 30t-48.5 11.5q-36 0 -62.5 -19t-41 -51.5t-21 -68.5t-6.5 -76q0 -45 16 -97q25 49 66.5 76.5t95.5 27.5q82 0 122.5 -47
t40.5 -126h-115v4q0 50 -20 83t-61 33q-32 0 -62 -33t-50 -80q21 -90 21 -203v-23q65 0 113 41t55 89h114q-12 -84 -97 -130.5t-241 -46.5v4q0 33 -9 67.5t-17 54.5t-27 60z" />
    <glyph glyph-name="afii10054" unicode="&#x405;" horiz-adv-x="560" 
d="M399 433l-125 -117q12 5 22 5q96 0 159 -41t63 -123q0 -81 -45 -123t-117 -42q-89 0 -196 42q-6 2 -11 2q-18 0 -27 -19q-15 -34 -46 -34q-14 0 -25.5 5.5t-18.5 17t-7 26.5q0 25 16.5 41t40.5 16q35 0 85 -20q66 -26 112 -26q54 0 81.5 28.5t27.5 77.5q0 42 -11 71.5
t-34 45.5t-57 16q-11 0 -24 -4.5t-22 -8.5t-24.5 -15t-20 -14.5t-20.5 -15.5l-9 -8q-6 -6 -14 -6t-14.5 6.5t-6.5 14.5t7 15l150 139q-16 -3 -54 -3q-64 0 -111 39t-47 102q0 48 28.5 85t72.5 55.5t94 18.5q33 0 68.5 -15.5t49.5 -30.5v17q0 9 7.5 14.5t18 5.5t18 -5.5
t7.5 -14.5v-97q0 -10 -7.5 -16t-17.5 -6t-18 6t-8 16q-8 37 -31.5 63.5t-59.5 26.5q-49 0 -77.5 -31t-28.5 -85q0 -48 24.5 -78t66.5 -30q19 0 37.5 7.5t34.5 18.5l16 15q6 6 14 6t14.5 -6.5t6.5 -14.5t-7 -15z" />
    <glyph glyph-name="afii10055" unicode="&#x406;" horiz-adv-x="270" 
d="M248 0h-226v40h54v596h-54v40h226v-40h-54v-596h54v-40z" />
    <glyph glyph-name="afii10056" unicode="&#x407;" horiz-adv-x="270" 
d="M248 0h-226v40h54v596h-54v40h226v-40h-54v-596h54v-40zM135 863q-2 5 1 9t8 4h46q8 0 11 -13l29 -109q1 -4 -2.5 -8.5t-8.5 -4.5h-42q-4 0 -8 4.5t-5 8.5zM9 863q-2 5 1 9t8 4h44q4 0 8 -4.5t5 -8.5l29 -109q1 -4 -2.5 -8.5t-8.5 -4.5h-42q-4 0 -8 4.5t-5 8.5z" />
    <glyph glyph-name="afii10057" unicode="&#x408;" horiz-adv-x="485" 
d="M290 636h-53v40h218v-40h-50v-410q0 -57 -5 -92q-6 -34 -33 -68q-49 -66 -176 -66q-78 0 -121.5 27t-43.5 80q0 32 23 64q22 31 69 31q24 0 48 -11.5t35 -30.5q-12 5 -35 5q-56 0 -56 -63q0 -33 24 -56t65 -23q59 0 76 41q15 40 15 108v156v308z" />
    <glyph glyph-name="uni0409" unicode="&#x409;" horiz-adv-x="803" 
d="M621 40v261q-20 1 -47 8q-80 16 -115 26v-295h162zM286 0v40h55v380q-6 -11 -20.5 -32t-21.5 -34q-45 -81 -64 -128q-23 -57 -32 -91.5t-9 -85.5v-9h45v-40h-219v40h44q0 111 71 216q18 25 36.5 46t42.5 45t40 42q72 81 87 140v107h-55v40h228v-40h-55v-260
q25 -8 121 -27q79 -15 184 -15v-40h-25v-254h44v-40h-497z" />
    <glyph glyph-name="uni040A" unicode="&#x40a;" horiz-adv-x="810" 
d="M465 343v-303h164v261q-10 3 -24.5 7.5t-25.5 7.5q-22 6 -31 8t-29.5 6.5t-53.5 12.5zM464 379q45 -14 125 -30q79 -15 182 -15v-40h-25v-254h44v-40h-499v40h55v236l-155 74v-310h55v-40h-226v40h54v596h-54v40h226v-40h-55v-240l155 -76v316h-55v40h228v-40h-55v-257z
" />
    <glyph glyph-name="uni040B" unicode="&#x40b;" horiz-adv-x="760" 
d="M531 40h45v157q0 27 -4 45.5t-18 42.5t-49.5 37t-90.5 13v-295h56v-40h-229v40h56v596h-117v-220h-107v220h-53v40h636q13 0 13 -16q0 -13 -13 -24q-27 -17 -62 -91q0 -3 -7 -3t-7 3q-26 68 -64 91h-102v-260q140 -3 210 -46t70 -101v-189h45v-40h-208v40z" />
    <glyph glyph-name="uni040C" unicode="&#x40c;" horiz-adv-x="556" 
d="M222 739q-20 0 -20 24q0 7 2 12l87 196q7 14 22 14h57q6 0 11 -6t2 -11l-135 -214q-9 -15 -26 -15zM460 230q29 -72 29 -162v-28h44v-40h-215v40h44v42q0 55 -6 93.5t-26 81.5q-37 77 -113 78h-33v-295h44v-40h-206v40h44v596h-44v40h206v-40h-44v-262h32q37 0 55.5 20.5
t34.5 64.5q26 70 26 144v33h-44v40h206v-40h-44v-24q0 -91 -48 -164q-41 -60 -92 -88q110 -32 150 -130z" />
    <glyph glyph-name="uni040D" unicode="&#x40d;" horiz-adv-x="542" 
d="M328 764q0 -11 -7 -18.5t-18 -7.5q-19 0 -28 13l-137 214q-3 5 2 11t11 6h57q15 0 22 -14l96 -194q2 -4 2 -10zM248 0h-226v40h54v596h-54v40h226v-40h-54v-296l154 76v220h-54v40h226v-40h-54v-596h54v-40h-226v40h54v331l-154 -76v-255h54v-40z" />
    <glyph glyph-name="uni040E" unicode="&#x40e;" horiz-adv-x="552" 
d="M339 154l-6 -113h80v-40h-210v40h89l6 114l5 77h-189v40h54q-5 67 -34.5 190.5t-54.5 173.5h-54v40h241v-40h-54q20 -52 43 -171.5t26 -192.5h24l1 11q2 35 13 117.5t20 106.5q24 67 52 105q50 66 118 66q14 0 28 -2q8 -2 11 -8.5t-1 -14.5q-18 -33 -24 -54
q-7 -28 -7 -51v-10q0 -7 -4 -11t-10 -1q-25 11 -56 11q-38 0 -61 -46q-12 -23 -24 -85t-15 -125zM210 765q-8 23 -8 48q0 28 9 50q22 51 56 77q5 3 13 0t7 -7q-3 -7 -8 -19l-10 -24t-9 -26q-4 -12 -4 -24q0 -23 13 -38t37 -15q47 0 80 62q8 15 18 40.5t15 35.5q3 5 12 3
t10 -7q1 -9 1 -18q0 -36 -13 -75q-16 -49 -57 -82t-85 -33q-29 0 -49 15t-28 37z" />
    <glyph glyph-name="uni040F" unicode="&#x40f;" horiz-adv-x="540" 
d="M210 0h-190v40h54v596h-54v40h226v-40h-55v-596h155v596h-55v40h229v-40h-55v-596h55v-40h-192v-30q0 -26 19 -56.5t44 -43.5q3 -1 3 -8t-3 -8q-30 -19 -65 -52.5t-50 -64.5q-1 -4 -7.5 -4t-7.5 4q-15 31 -50 64.5t-65 52.5q-3 1 -3 8t3 8q25 13 44.5 43.5t19.5 56.5v30z
" />
    <glyph glyph-name="afii10017" unicode="&#x410;" horiz-adv-x="521" 
d="M223 239q0 -35 -22 -56.5t-55 -24.5v-38q0 -20 15.5 -41.5t43.5 -36.5q11 -6 11 -24t-16 -18h-164q-16 0 -16 17q0 16 11 23q60 39 60 80v48q-16 7 -28 17.5t-18.5 24.5t-6.5 30q0 52 47 74q-7 12 -7 32q0 21 9 41.5t25 31.5q63 42 108 78q27 22 43.5 38t32.5 38t31 51
v12h-54v40h227v-40h-54v-596h54v-40h-227v40h54v407q-21 -39 -41 -64q-35 -44 -82 -73q-10 -6 -16 -8q35 -24 35 -63zM265 428q33 43 50 82q-16 -21 -57 -58q-45 -41 -84 -70q-17 -12 -17 -21t13 -9q9 0 15 3q17 9 41 31t39 42z" />
    <glyph glyph-name="afii10018" unicode="&#x411;" horiz-adv-x="547" 
d="M241 636h-47v-198l181 -72q36 -14 79 -14h51v-40h-24v-272h44v-40h-503v40h54v596h-54v40h397q21 0 21 -15q0 -14 -15 -22q-7 -3 -19 -26t-23 -54.5t-15 -57.5q-1 -9 -13 -9q-13 0 -15 10q-10 62 -47 113q-16 21 -52 21zM360 328q-103 42 -166 67v-355h169v287q-2 0 -3 1
z" />
    <glyph glyph-name="afii10019" unicode="&#x412;" horiz-adv-x="539" 
d="M495 276h-25v-236h44v-40h-492v40h54v467q0 71 63 122t143 51q181 0 181 -152q0 -120 -109 -120q-58 0 -82 30l-52 -88q49 -13 92 -19q79 -15 183 -15v-40zM352 284q-75 9 -153 31l-5 -9v-266h158v244zM363 521q0 51 -19.5 83t-61.5 32q-41 0 -64.5 -27t-23.5 -73v-151
l57 96q6 10 17.5 10t18.5 -11q6 -9 9.5 -13t11 -8.5t15.5 -4.5q40 0 40 67z" />
    <glyph glyph-name="afii10020" unicode="&#x413;" horiz-adv-x="490" 
d="M304 636h-110v-596h54v-40h-226v40h54v596h-54v40h442q12 0 12 -14q0 -15 -11 -21q-6 -3 -14 -26q-11 -42 -15 -98q-1 -9 -11 -9q-11 0 -15 9q-21 45 -71 103q-14 16 -35 16z" />
    <glyph glyph-name="afii10021" unicode="&#x414;" horiz-adv-x="570" 
d="M353 487q-7 -21 -25.5 -34.5t-40.5 -13.5q-28 0 -48 20t-20 48t20 48t48 20q16 0 27 -5q32 -15 54 -37v103h-54v40h226v-40h-54v-596h48q22 0 22 -23q0 -12 -7 -22q-17 -22 -21.5 -47t-5.5 -49.5t-7 -38.5q-5 -11 -15 -11q-13 0 -16 12q-2 7 -12 50.5t-20 66t-25 22.5
h-278q-15 0 -24 -23.5t-15.5 -64t-10.5 -51.5q-3 -12 -16 -12q-10 0 -15 11q-6 14 -9 39t-10 49.5t-25 46.5q-8 10 -8 22q0 23 23 23h71q-5 27 -5 55q0 47 13.5 86.5t42 75t54.5 59.5t69 59q2 1 11.5 9t11.5 9.5t10.5 8.5t10.5 10t8 9.5t8 11t5.5 11t4.5 12.5t1 13
q0 8 -2 18zM214 40h154v353q-9 -10 -28.5 -28t-24.5 -24q-53 -52 -80.5 -109.5t-27.5 -131.5q0 -35 7 -60z" />
    <glyph glyph-name="afii10022" unicode="&#x415;" horiz-adv-x="540" 
d="M97 184q-31 66 -44 109t-13 104q0 78 29 142.5t85.5 104.5t129.5 40q98 0 151.5 -46t53.5 -107h24v-40h-167v40h34q0 19 -4 36.5t-14 36t-30.5 30t-48.5 11.5q-36 0 -62.5 -19t-41 -51.5t-21 -68.5t-6.5 -76q0 -45 16 -97q25 49 66.5 76.5t95.5 27.5q82 0 122.5 -47
t40.5 -126h-115v4q0 50 -20 83t-61 33q-32 0 -62 -33t-50 -80q21 -90 21 -203v-23q65 0 113 41t55 89h114q-12 -84 -97 -130.5t-241 -46.5v4q0 33 -9 67.5t-17 54.5t-27 60z" />
    <glyph glyph-name="afii10024" unicode="&#x416;" horiz-adv-x="826" 
d="M90 520q-7 -1 -13.5 4t-6.5 13v18q0 53 -21 91q-1 2 -1 6q0 7 5.5 14t12.5 8q12 2 25 2q59 0 107 -32q41 -27 71 -86q4 -8 11.5 -23.5t13.5 -27t13 -25t13 -23t11 -15.5q13 -15 23 -21v213h-54v40h226v-40h-54v-213q10 6 23 21q6 7 14.5 22t15.5 28t17.5 34t14.5 30
q30 59 71 86q48 32 107 32q13 0 25 -2q7 -1 12.5 -8t5.5 -14q0 -4 -1 -6q-21 -38 -21 -91v-18q0 -8 -6.5 -13t-13.5 -4q-8 2 -15.5 4.5t-13 4.5t-12.5 5.5l-10 5t-10.5 7t-9.5 6.5t-11 8t-11 9q-11 8 -20 2q-13 -7 -16.5 -11t-17.5 -27q-11 -17 -32.5 -61t-30.5 -55
q-8 -10 -18 -18q102 -33 172 -143t70 -217h54v-40h-238v40h54q0 110 -42 214t-106 119v-333h54v-40h-226v40h54v333q-64 -15 -106 -118.5t-42 -214.5h54v-40h-238v40h54q0 107 69.5 217t171.5 143q-14 15 -17 18q-9 11 -30.5 55t-32.5 61q-14 23 -17.5 27t-16.5 11
q-9 6 -20 -2q-2 -2 -11 -9t-11 -8t-9.5 -6.5t-10.5 -7l-10 -5t-12.5 -5.5t-13 -4.5t-15.5 -4.5z" />
    <glyph glyph-name="afii10025" unicode="&#x417;" horiz-adv-x="667" 
d="M172 339q15 25 43 54.5t47 41.5q6 4 23 0q29 -6 108 -43q30 11 53 12q34 41 50 78q8 19 8 49q0 54 -44.5 85t-109.5 31q-62 0 -125 -45q-7 -8 -8 -9q-15 -31 -30 -97q-23 -3 -59 -3q-37 0 -67 3q7 27 9.5 37t9 30t15 34.5t19.5 28.5q10 12 23 19q89 41 203 41
q47 0 88.5 -6t82 -19.5t64.5 -41.5t24 -67q0 -45 -29 -91q-32 -51 -70 -93q18 -13 47.5 -41.5t53.5 -59.5q29 -38 29 -93q0 -95 -49 -139.5t-150 -44.5q-72 0 -136 17q-81 22 -137 22q-44 0 -83 -32q-4 -4 -11 -4q-11 0 -20.5 8t-9.5 17q0 14 7.5 31.5t14 27t20.5 27.5
q4 6 8 7q85 25 130 25h8q1 0 11 -5q23 -13 49.5 -41t52.5 -44t64 -16q115 0 115 114q0 50 -28 82q-66 74 -90 91q-57 -42 -104 -64q-11 -5 -22 0q-50 24 -98 68q-7 7 0 18z" />
    <glyph glyph-name="afii10026" unicode="&#x418;" horiz-adv-x="542" 
d="M248 0h-226v40h54v596h-54v40h226v-40h-54v-296l154 76v220h-54v40h226v-40h-54v-596h54v-40h-226v40h54v331l-154 -76v-255h54v-40z" />
    <glyph glyph-name="afii10027" unicode="&#x419;" horiz-adv-x="542" 
d="M248 0h-226v40h54v596h-54v40h226v-40h-54v-296l154 76v220h-54v40h226v-40h-54v-596h54v-40h-226v40h54v331l-154 -76v-255h54v-40zM199 765q-8 23 -8 48q0 28 9 50q22 51 56 77q5 3 13 0t7 -7q-3 -7 -8 -19l-10 -24t-9 -26q-4 -12 -4 -24q0 -11 3.5 -20.5t9.5 -17
t15.5 -11.5t21.5 -4q47 0 80 62q8 15 18 40.5t15 35.5q3 5 12 3t10 -7q1 -9 1 -18q0 -36 -13 -75q-16 -49 -57 -82t-85 -33q-58 0 -77 52z" />
    <glyph glyph-name="afii10028" unicode="&#x41a;" horiz-adv-x="556" 
d="M460 230q29 -72 29 -162v-28h44v-40h-215v40h44v42q0 108 -32 175q-37 77 -113 78h-2h-31v-295h44v-40h-206v40h44v596h-44v40h206v-40h-44v-262h28h4q37 0 55.5 20.5t34.5 64.5q26 70 26 144v33h-44v40h206v-40h-44v-24q0 -91 -48 -164q-41 -60 -92 -88
q110 -32 150 -130z" />
    <glyph glyph-name="afii10029" unicode="&#x41b;" horiz-adv-x="537" 
d="M196 40h44v-40h-218v40h44q0 111 71 216q17 25 36 46t43 45t40 42q72 81 87 140v107h-54v40h226v-40h-54v-596h54v-40h-226v40h54v381q-6 -11 -21 -32.5t-22 -34.5q-42 -74 -63 -127q-23 -56 -32 -92t-9 -87v-8z" />
    <glyph glyph-name="afii10030" unicode="&#x41c;" horiz-adv-x="838" 
d="M196 40h44v-40h-218v40h44q0 115 60 206q21 32 47 60.5t41 41.5t56 47q77 65 91 78v163h-54v40h226v-40h-54v-371l165 165v206h-54v40h226v-40h-54v-596h54v-40h-226v40h54v334l-165 -165v-169h54v-40h-226v40h54v373q-45 -43 -57 -55q-34 -35 -53 -64t-32 -71
q-23 -76 -23 -183z" />
    <glyph glyph-name="afii10031" unicode="&#x41d;" horiz-adv-x="542" 
d="M248 0h-226v40h54v596h-54v40h226v-40h-54v-240l154 -76v316h-54v40h226v-40h-54v-596h54v-40h-226v40h54v235l-154 76v-311h54v-40z" />
    <glyph glyph-name="afii10032" unicode="&#x41e;" horiz-adv-x="590" 
d="M375 682q10 -59 37 -90l25 -28q25 -29 32.5 -39t28 -39.5t28.5 -50.5t16 -53t8 -64q0 -57 -22 -109t-57 -90t-78 -66.5t-86 -43t-79 -14.5q-10 40 -41 76q-73 82 -107 144.5t-34 142.5q0 78 50 154.5t127 123t152 46.5zM259 41q45 0 79.5 24t55 63.5t30.5 85.5t10 95
q0 51 -12 100t-23.5 76t-37.5 78q-19 38 -25 73q-79 0 -123.5 -76t-44.5 -190q0 -27 2.5 -49.5t10 -46.5t13 -39t19 -47t20.5 -50q20 -53 26 -97z" />
    <glyph glyph-name="afii10033" unicode="&#x41f;" horiz-adv-x="542" 
d="M520 676v-40h-54v-596h54v-40h-226v40h54v596h-154v-596h54v-40h-226v40h54v596h-54v40h498z" />
    <glyph glyph-name="afii10034" unicode="&#x420;" horiz-adv-x="566" 
d="M248 40v-40h-226v40h54v447q0 85 68 139t172 54q217 0 217 -176q0 -82 -31.5 -129.5t-94.5 -47.5q-28 0 -50 10.5t-28.5 18t-18.5 23.5l-116 -165v-174h54zM194 536v-253l98 139q6 10 17.5 10t18.5 -11l4 -6l5 -7.5t5 -7t6.5 -8t7 -6t8 -5.5t8.5 -3.5t10 -1.5
q48 0 48 108v32q0 61 -34.5 90.5t-79.5 29.5q-50 0 -86 -28t-36 -72z" />
    <glyph glyph-name="afii10035" unicode="&#x421;" horiz-adv-x="573" 
d="M269 640q-46 0 -81 -64.5t-35 -158.5q0 -29 5 -63t10.5 -57.5t14.5 -60t13 -52.5q17 -77 17 -144q42 0 76 14.5t54.5 37t34 52.5t18.5 58t5 56h-51v40h191v-40h-30q-8 -49 -20 -84.5t-37 -70.5t-61.5 -56.5t-95.5 -35t-137 -13.5l-2 26q-2 25 -7 46t-15 40
q-12 23 -35.5 61.5t-34.5 60t-21 59.5t-10 82q0 118 78 215t180 97q72 0 132.5 -58t68.5 -119h48v-40h-202v40h40q-3 45 -39 88.5t-72 43.5z" />
    <glyph glyph-name="afii10036" unicode="&#x422;" horiz-adv-x="626" 
d="M135 611q-38 -83 -41 -91q-3 -9 -15 -9t-15 9q-16 54 -49 112q-6 11 -6 23q0 21 18 21h571q25 0 25 -22q0 -10 -6 -19q-40 -57 -60 -132q-3 -11 -14.5 -11t-14.5 11q-6 20 -20 57t-19 52q-10 24 -24 24h-97v-596h54v-40h-226v40h54v596h-87q-16 0 -28 -25z" />
    <glyph glyph-name="uni0423" unicode="&#x423;" horiz-adv-x="552" 
d="M339 154l-6 -113h80v-40h-210v40h89l6 114l5 77h-189v40h54q-5 67 -34.5 190.5t-54.5 173.5h-54v40h241v-40h-54q20 -52 43 -171.5t26 -192.5h24l1 11q2 35 13 117.5t20 106.5q24 67 52 105q50 66 118 66q14 0 28 -2q8 -2 11 -8.5t-1 -14.5q-18 -33 -24 -54
q-7 -28 -7 -51v-10q0 -7 -4 -11t-10 -1q-25 11 -56 11q-38 0 -61 -46q-12 -23 -24 -85t-15 -125z" />
    <glyph glyph-name="afii10038" unicode="&#x424;" horiz-adv-x="728" 
d="M478 0h-226v40h54v92q-42 -30 -85 -30q-83 0 -139.5 46t-56.5 149q0 27 10.5 52t21.5 41.5t38 38t39.5 29.5t48.5 29.5t43 25.5q60 35 80 57v66h-44v40h206v-40h-44v-66q20 -22 80 -57q7 -4 43 -25.5t48.5 -29.5t39.5 -29.5t38 -38t21.5 -41.5t10.5 -52
q0 -103 -56.5 -149t-139.5 -46q-45 0 -85 30v-92h54v-40zM477 469q-39 35 -53 55v-352q37 -26 80 -26q42 0 61 29t19 98q0 61 -25.5 101.5t-81.5 94.5zM226 146q43 0 80 26v352q-13 -17 -53 -55q-56 -54 -81.5 -94.5t-25.5 -101.5q0 -69 19 -98t61 -29z" />
    <glyph glyph-name="afii10039" unicode="&#x425;" horiz-adv-x="522" 
d="M359 548l-64 -134l151 -374h54v-40h-226v40h54l-97 239l-113 -239h54v-40h-153v40h54l138 290l-123 306h-54v40h226v-40h-54l69 -171l72 151q7 15 24.5 31t34.5 20q40 10 88 13q8 1 14 -5.5t4 -13.5q-18 -54 -18 -132q0 -9 -6 -14t-13 -1q-12 6 -22 12.5t-25 19t-23 18.5
q-7 5 -15 5q-20 0 -31 -21z" />
    <glyph glyph-name="afii10040" unicode="&#x426;" horiz-adv-x="549" 
d="M422 0h-400v40h58v596h-54v40h226v-40h-54v-596h154v596h-54v40h226v-40h-54v-596h57v-165l-193 -136h-47l-165 88l-56 -48q-6 -5 -14 -5q-10 0 -18.5 8t-8.5 17q0 6 5 11l111 110h65l179 -96l37 26v150z" />
    <glyph glyph-name="afii10041" unicode="&#x427;" horiz-adv-x="532" 
d="M228 636h-44v-280q15 -2 61 -11q39 -9 93 -28v319h-44v40h206v-40h-44v-596h54v-40h-226v40h54v233q-56 22 -102 33q-73 17 -170 17v313h-44v40h206v-40z" />
    <glyph glyph-name="afii10042" unicode="&#x428;" horiz-adv-x="870" 
d="M676 40v596h-54v40h226v-40h-54v-596h54v-40h-826v40h54v596h-54v40h226v-40h-54v-596h182v596h-54v40h226v-40h-54v-596h182z" />
    <glyph glyph-name="afii10043" unicode="&#x429;" horiz-adv-x="870" 
d="M494 -30q0 -26 19 -56.5t44 -43.5q3 -2 2.5 -8t-2.5 -8q-30 -19 -65 -52.5t-50 -64.5q-2 -4 -8 -4t-7 4q-15 31 -49.5 64.5t-64.5 52.5q-2 2 -2.5 8t2.5 8q25 13 44 43.5t19 56.5v30h-354v40h54v596h-54v40h226v-40h-54v-596h182v596h-54v40h226v-40h-54v-596h182v596
h-54v40h226v-40h-54v-596h54v-40h-354v-30z" />
    <glyph glyph-name="afii10044" unicode="&#x42a;" horiz-adv-x="547" 
d="M40 638q-10 18 -10 29q0 9 8 9h434v-40h-44l-135 -324h140v-40h-32l100 -232v-40h-449v40l247 596h-104q-55 -77 -78 -163q-2 -7 -8.5 -7t-8.5 7q-23 105 -60 165zM372 40l-97 226l-94 -226h191z" />
    <glyph glyph-name="afii10045" unicode="&#x42b;" horiz-adv-x="784" 
d="M194 636v-270q35 -9 84 -17q79 -15 183 -15v-40h-25v-254h44v-40h-458v40h54v596h-54v40h226v-40h-54zM762 0h-226v40h54v596h-44v40h206v-40h-44v-596h54v-40zM271 309q-42 7 -77 16v-285h124v262q-29 4 -47 7z" />
    <glyph glyph-name="afii10046" unicode="&#x42c;" horiz-adv-x="540" 
d="M194 636v-259q58 -18 122 -28q79 -15 183 -15v-40h-25v-254h44v-40h-496v40h54v596h-54v40h226v-40h-54zM309 309q-72 13 -115 26v-295h162v262q-29 4 -47 7z" />
    <glyph glyph-name="uni042D" unicode="&#x42d;" horiz-adv-x="540" 
d="M456 184q-19 -40 -27 -60t-17 -54.5t-9 -67.5v-4q-156 0 -241 46.5t-97 130.5h114q7 -48 55 -89t113 -41v23q0 114 21 203q-20 47 -50 80t-62 33q-41 0 -61 -33t-20 -83v-4h-115q0 79 40.5 126t122.5 47q108 0 162 -104q16 52 16 97q0 55 -11 101t-42 80t-78 34
q-53 0 -75 -35.5t-22 -78.5h34v-40h-167v40h24q0 61 53.5 107t151.5 46q109 0 176.5 -83.5t67.5 -203.5q0 -61 -13 -104t-44 -109z" />
    <glyph glyph-name="afii10048" unicode="&#x42e;" horiz-adv-x="791" 
d="M248 0h-226v40h54v596h-54v40h226v-40h-54v-295l97 49q18 100 89.5 188.5t139.5 100.5q14 -32 63 -74q23 -20 46 -42.5t53 -56t51 -71t26 -70.5q3 -20 3 -41q0 -46 -15.5 -91t-41 -82.5t-59 -70t-69.5 -55t-71 -34.5q-13 26 -62 66q-71 55 -114 130t-43 155l-93 -46v-256
h54v-40zM658 300q0 37 -8.5 71t-27.5 67t-32.5 52.5t-39.5 52.5q-7 8 -10 12q-29 35 -41 74q-56 -47 -78.5 -95.5t-22.5 -143.5q0 -126 91 -257q35 -51 43 -84q56 34 91 102t35 149z" />
    <glyph glyph-name="uni042F" unicode="&#x42f;" horiz-adv-x="513" 
d="M296 40h45v266l-5 10q-79 -22 -106 -26q-17 -4 -46 -6v-244h40v-40h-204v40h44v236h-25v40q111 0 185 14q43 6 90 20l-58 89q-24 -30 -82 -30q-110 0 -110 120q0 74 37 110.5t133 36.5h249v-40h-25v-596h35v-40h-197v40zM341 536q0 44 -32 72t-75 28q-68 0 -70 -102v-13
q0 -67 40 -67q18 0 36 26q9 11 19 11t17 -10l65 -96v151z" />
    <glyph glyph-name="afii10065" unicode="&#x430;" horiz-adv-x="407" 
d="M297 437q13 0 13 -18q0 -111 14 -220q13 -106 37 -163q2 -4 2 -10q0 -9 -4.5 -17.5t-11.5 -8.5h-74q-12 0 -18 17q-5 14 -21 100q-54 -78 -101 -103q-25 -14 -58 -14q-20 0 -32 7q-9 6 -9 30q0 12 2 21q7 23 15 41.5t12 26.5t17.5 29.5t18.5 30.5q11 19 34 48t35 49
q22 39 33 84q-1 15 -1 28t1 24q0 6 4.5 12t10.5 6h81zM114 97q0 -10 10 -10q17 0 55 46q28 34 43 68q-7 59 -10 72q-11 -22 -64 -103q-34 -52 -34 -73z" />
    <glyph glyph-name="afii10066" unicode="&#x431;" horiz-adv-x="442" 
d="M340 444h6h6q23 0 23 -10q0 -15 -7 -27q-25 -43 -39 -90q-6 -19 -16 -19q-5 0 -17 22q-36 70 -46 82l-77 -2q-1 -6 -5 -168q65 22 81 24q16 3 26 -10q29 -36 62 -96q41 -74 53 -105q2 -8 2 -12q0 -13 -7.5 -23t-19.5 -10h-281q-11 0 -18 10t-7 23l11 386q0 7 5.5 12.5
t13.5 5.5l194 5q6 0 26.5 1t30.5 1zM167 194l-3 -143q0 -11 13 -11h95q3 0 4.5 2.5t0.5 4.5q-16 40 -30 63q-35 59 -57 71q-12 7 -23 13z" />
    <glyph glyph-name="afii10067" unicode="&#x432;" horiz-adv-x="416" 
d="M381 19q2 -6 -1 -12.5t-12 -6.5h-287q-17 0 -17 16l16 403q1 18 18 18h194q8 0 10.5 -6.5t-1.5 -13.5l-89 -172h69q12 0 17 -11zM265 49l-61 157h-12l-24 -45l-5 -121h97q3 0 4.5 3t0.5 6zM247 397h-58q-12 0 -12 -12l-5 -133z" />
    <glyph glyph-name="afii10068" unicode="&#x433;" horiz-adv-x="379" 
d="M341 407q-26 -35 -40 -84q-7 -21 -19 -21t-22 23q-26 54 -40 72h-46q-10 0 -10 -13v-368q0 -16 -11 -16h-77q-12 0 -12 16v402q0 19 11 19h258q7 0 10 -5t2.5 -12.5t-4.5 -12.5z" />
    <glyph glyph-name="afii10069" unicode="&#x434;" horiz-adv-x="501" 
d="M320 352q0 -80 20.5 -171t49.5 -141h66q15 0 15 -20q0 -13 -7 -23q-23 -30 -39 -75q-18 -49 -25 -74q-5 -16 -16 -16q-13 0 -15 20q-3 27 -4 74t-6 74h-229q-16 -94 -16 -144q0 -9 -5 -15.5t-11 -6.5q-11 0 -16 16q-3 9 -8.5 34.5t-8.5 37.5t-29 68q-6 14 -6 25
q0 25 26 25h81q9 38 44 112t44 101q-6 44 -12 139q-5 12 -5 25q0 7 5 13.5t12 5.5q22 -3 38 -3t44 4q4 0 7.5 -2.5t6 -7.5t3.5 -10q1 -17 -3 -29q-1 -17 -1 -36zM286 40q-28 62 -46 133q-16 -23 -31 -62t-19 -71h96z" />
    <glyph glyph-name="afii10070" unicode="&#x435;" horiz-adv-x="294" 
d="M229 441q8 1 10 -2t3 -10q2 -20 2 -37q0 -20 -2 -29q-1 -10 -12 -11q-26 -3 -46 -13.5t-32 -26t-12 -34.5v-1v-19q8 3 24.5 9t30 10t25.5 5q10 1 13 -2.5t4 -10.5v-2q1 -6 1 -26q0 -30 -1 -39q-1 -7 -1.5 -9.5t-3 -5t-8.5 -3.5q-50 -11 -83 -32q2 -46 3 -57q12 3 35.5 13
t32.5 13q3 1 7 1q9 0 9 -18v-10q0 -35 -36.5 -65.5t-116.5 -30.5q-21 0 -21 15q2 58 2 78q0 30 -6 178v8q0 75 49.5 116.5t129.5 47.5z" />
    <glyph glyph-name="afii10072" unicode="&#x436;" horiz-adv-x="636" 
d="M377 31q0 -31 -14 -31h-83q-19 0 -19 46q0 12 1.5 28t3 30t1.5 20q1 41 1 115q-58 -48 -102 -99q-20 -24 -20 -53q0 -12 10.5 -37t10.5 -38q0 -12 -14 -12h-102q-8 0 -10 4t-2 14q0 45 16 70q74 119 213 214v6q-53 53 -90 73q-3 1 -20 1v-14q0 -16 2 -53t2 -51v-7
q0 -4 -3.5 -7.5t-7.5 -3.5h-62q-6 0 -12 5t-6 10v20q0 20 -4.5 62t-4.5 61q0 6 3 12t8.5 10.5t12.5 7.5t13 3h66q21 0 24 -1q34 -17 79 -60l3 48q0 5 3 9t8 4h95q5 0 9 -4.5t4 -9.5q1 -13 1 -25.5t-1 -24.5q42 20 63 29q10 5 25.5 12.5t25 12t22.5 8t26 3.5q8 0 17 -2t16 -8
t7 -14q0 -4 -3 -10q-11 -20 -15 -40q-1 -4 -1.5 -21t-4.5 -26t-13 -9q-1 0 -4.5 0.5t-5.5 0.5q-5 0 -12.5 5t-16 12.5t-13.5 10.5q-15 9 -37 9q-15 0 -24 -4q-33 -13 -55 -25q-1 -4 -1 -11q133 -79 186 -179q28 -53 28 -111q0 -16 -10 -16h-108q-7 0 -9.5 3t-2.5 11
q0 26 6 45q2 6 2 17q0 27 -10 53q-22 58 -90 106q-6 -78 -6 -107v-14q0 -17 2.5 -42.5t2.5 -40.5z" />
    <glyph glyph-name="afii10073" unicode="&#x437;" horiz-adv-x="450" 
d="M268 -84q19 0 32 3.5t22 15.5t9 33q0 5 -1.5 10.5t-2.5 10t-3.5 10.5t-3.5 11q-2 6 -3 18.5t-4 19.5q-11 31 -48 61q-35 -22 -76 -47q-5 -4 -14 0q-46 22 -73 58q-5 8 -5 16q0 7 4 14q16 28 34 44t47 33q5 3 13 0q35 -12 71 -32q30 21 45.5 43t15.5 57q0 33 -29 59.5
t-65 26.5q-25 0 -46.5 -11.5t-32.5 -32.5q-3 -5 -3 -11q0 -2 0.5 -6.5t0.5 -6.5q0 -28 -26 -28q-33 0 -76 18q-12 5 -12 21q0 7 3 13q11 30 28.5 50t41 31.5t49 16t57.5 4.5q35 0 65 -6.5t58 -21t44 -43.5t16 -70q0 -78 -74 -143q84 -72 84 -155q0 -57 -53.5 -97t-122.5 -40
q-28 0 -45 5t-42 19q-6 3 -16 12t-19 14.5t-18 5.5q-10 0 -25 -9t-23 -12h-2q-5 0 -10.5 6.5t-5.5 13.5q0 5 3 8q50 48 111 55h5q18 0 38.5 -16t41.5 -32.5t41 -16.5z" />
    <glyph glyph-name="afii10074" unicode="&#x438;" horiz-adv-x="453" 
d="M160 107q0 -17 1.5 -42t1.5 -39q0 -26 -13 -26h-75q-6 0 -10.5 5t-4.5 11q-2 31 -2 77q0 142 12 330q0 2 0.5 4t1.5 3.5t2.5 3t3.5 2.5t4 1h76q6 0 11.5 -6.5t5.5 -14.5q0 -29 -5 -91t-6 -83l119 56q1 59 5 126q0 5 3.5 9t8.5 4h76q6 0 11.5 -6.5t5.5 -14.5v-2
q-6 -82 -6 -188q0 -114 7 -176q0 -2 0.5 -5.5t1 -6t1 -6t0.5 -6.5q0 -8 -5 -17t-12 -9h-79q-6 0 -10.5 5t-4.5 11q-3 65 -3 171v66l-121 -57q-2 -55 -2 -89z" />
    <glyph glyph-name="afii10075" unicode="&#x439;" horiz-adv-x="453" 
d="M160 107q0 -17 1.5 -42t1.5 -39q0 -26 -13 -26h-75q-6 0 -10.5 5t-4.5 11q-2 31 -2 77q0 142 12 330q0 2 0.5 4t1.5 3.5t2.5 3t3.5 2.5t4 1h76q6 0 11.5 -6.5t5.5 -14.5q0 -29 -5 -91t-6 -83l119 56q1 59 5 126q0 5 3.5 9t8.5 4h76q6 0 11.5 -6.5t5.5 -14.5v-2
q-6 -82 -6 -188q0 -114 7 -176q0 -2 0.5 -5.5t1 -6t1 -6t0.5 -6.5q0 -8 -5 -17t-12 -9h-79q-6 0 -10.5 5t-4.5 11q-3 65 -3 171v66l-121 -57q-2 -55 -2 -89zM294 653q0 3 -0.5 8.5t-0.5 8.5q0 7 1.5 12.5t5 9t7.5 5t9 1.5q7 0 13.5 -3.5t11.5 -11t6 -17.5q1 -16 1 -31
q0 -47 -13.5 -82t-42.5 -56t-72 -21q-45 0 -68 30t-23 75q0 57 30 103q10 15 27 15q9 0 15.5 -5t6.5 -15q0 -8 -5 -18q-10 -21 -10 -45t10.5 -39.5t29.5 -15.5q29 0 45 29.5t16 62.5z" />
    <glyph glyph-name="afii10076" unicode="&#x43a;" horiz-adv-x="442" 
d="M172 26q0 -8 -5 -17t-12 -9h-78q-6 0 -10.5 5t-4.5 11q-2 34 -2 86q0 138 10 322q0 5 3.5 9t8.5 4h82q6 0 11.5 -6.5t5.5 -14.5q0 -43 -7.5 -146.5t-7.5 -147.5q0 -45 3 -72q0 -3 1 -7.5t1.5 -8.5t0.5 -8zM225 256l50 135q6 14 32.5 32t62.5 18q32 0 37 -21q2 -11 2 -20
q0 -14 -3.5 -24.5t-12 -17t-20.5 -6.5q-8 0 -25 4t-27 4q-15 0 -21 -18l-29 -76q-3 -9 -3 -23q0 -28 10 -28h54q10 0 16 -17l49 -176q2 -8 -1.5 -15t-10.5 -7h-76q-14 0 -20 23l-30 141q-1 5 -4 10t-4.5 6.5l-7 7l-6.5 6.5q-17 17 -17 37q0 11 5 25z" />
    <glyph glyph-name="afii10077" unicode="&#x43b;" horiz-adv-x="418" 
d="M286 437q7 0 13 -5t7 -12q30 -237 74 -391q1 -5 1 -11q0 -18 -10 -18h-83q-17 0 -22 30q-13 101 -39 233q-10 -24 -24.5 -49t-30 -49.5t-24.5 -44.5q-8 -18 -8 -45q0 -8 1 -24q0 -5 4 -14t4 -15q0 -9 -4.5 -15.5t-12.5 -6.5h-87q-8 0 -13.5 6.5t-5.5 14.5q1 40 64 120
q11 14 34.5 41.5t37 45t28.5 45.5t22 57l-9 36q-1 3 -7 15t-6 21q0 35 24 35h72z" />
    <glyph glyph-name="afii10078" unicode="&#x43c;" horiz-adv-x="685" 
d="M397 29q1 -5 1 -11q0 -18 -10 -18h-85q-17 0 -22 30q-17 136 -52 263q-4 -15 -18 -46q-6 -12 -16 -34l-15 -33t-11.5 -28.5t-11.5 -34.5q-6 -19 -6 -39q0 -18 5 -34q1 -4 4 -8t5.5 -7t2.5 -8t-2.5 -10t-7 -8t-9.5 -3h-99q-15 0 -15 26q0 56 38 104q12 15 29 35t26 31
t21.5 29.5t24.5 40.5q22 41 33 98q-9 29 -9 38q0 35 24 35h76q5 0 9.5 -2.5t7.5 -6.5t3 -8q15 -128 48 -270l92 236q-2 12 -2 19v5q0 27 20 27h62q7 0 13 -5t7 -12q9 -89 32.5 -197t55.5 -194q1 -4 1 -10q0 -19 -10 -19h-86q-14 0 -21 26q-36 134 -59 274l-87 -222
q7 -30 13 -49z" />
    <glyph glyph-name="afii10079" unicode="&#x43d;" horiz-adv-x="458" 
d="M396 26q0 -8 -5 -17t-12 -9h-72q-6 0 -10 5t-5 11q-5 54 -5 167l-121 56q-1 -36 -1 -71q0 -73 4 -118q2 -18 2 -23q0 -27 -16 -27h-74q-6 0 -10.5 5t-4.5 11q-2 50 -2 128q0 157 7 280q0 5 3.5 9t8.5 4h75q7 0 12 -6.5t5 -14.5q0 -21 -3.5 -65.5t-3.5 -66.5l119 -56
q2 125 7 196q0 5 3.5 9t8.5 4h72q7 0 12 -6.5t5 -14.5v-2q-6 -95 -6 -216q0 -95 4 -148q0 -3 1.5 -11t1.5 -13z" />
    <glyph glyph-name="afii10080" unicode="&#x43e;" horiz-adv-x="442" 
d="M194 442q56 -6 104.5 -31.5t81.5 -74.5t33 -112q0 -60 -29 -103q-62 -93 -136 -128q-118 21 -179 100q-42 55 -42 117q0 54 33 109q43 73 134 123zM271 93q31 0 51 24t20 55q0 59 -53 114q-16 17 -35 30.5t-40.5 22t-41.5 8.5q-32 0 -53 -23t-21 -54q0 -55 56 -114
q26 -27 57.5 -45t59.5 -18z" />
    <glyph glyph-name="afii10081" unicode="&#x43f;" horiz-adv-x="461" 
d="M404 26q0 -8 -5 -17t-12 -9h-72q-6 0 -10 5t-5 11q-6 79 -6 206q0 99 4 175h-126q-8 -123 -8 -235q0 -71 4 -112q2 -18 2 -23q0 -27 -16 -27h-74q-6 0 -10.5 5t-4.5 11q-2 37 -2 93q0 153 10 315q0 13 12 13h299q6 0 11.5 -6.5t5.5 -14.5q0 -26 -2.5 -90t-2.5 -98
q0 -112 5 -178q0 -2 0.5 -5.5t1 -6t1 -6t0.5 -6.5z" />
    <glyph glyph-name="afii10082" unicode="&#x440;" horiz-adv-x="372" 
d="M137 -4q26 -146 26 -244q0 -123 -68 -178q-6 -4 -13 -4q-10 0 -17 5.5t-7 14.5q0 28 8 85.5t8 94.5q0 82 -12 209t-12 209q0 113 49.5 182.5t137.5 69.5q56 0 62 -26q16 -72 23 -197q1 -8 1 -17q0 -49 -14 -98.5t-38 -68.5q-46 -37 -134 -37zM123 74q47 6 76 19t42 37
t16.5 46t3.5 60q0 62 -13 108h-10q-63 0 -93.5 -36t-30.5 -124q0 -49 9 -110z" />
    <glyph glyph-name="afii10083" unicode="&#x441;" horiz-adv-x="293" 
d="M225 441q15 1 16 -11q2 -18 2 -41v-16q0 -27 -11 -29q-21 -5 -37.5 -14.5t-28 -21t-17.5 -25t-6 -28.5v-2q0 -107 3 -136q12 3 43 14.5t38 13.5q1 0 2 0.5t2 0.5q11 0 11 -40q0 -34 -42 -71t-116 -37q-10 0 -20.5 8t-10.5 17v46q0 32 -1.5 93t-1.5 107q1 158 175 172z
" />
    <glyph glyph-name="afii10084" unicode="&#x442;" horiz-adv-x="632" 
d="M42 407q-3 7 -3 15q0 15 12 15h544q11 0 11 -14q0 -8 -3 -16q-5 -11 -30 -84q-7 -21 -22 -21q-12 0 -22 23q-26 54 -40 72h-82q-10 0 -10 -13v-368q0 -16 -12 -16h-89q-6 0 -10 5t-4 11v368q0 13 -10 13h-115q-9 0 -9 -10v-177q0 -12 -6 -13q-21 -6 -79 -37q-4 -2 -7.5 2
t-3.5 9v197q0 13 -10 39z" />
    <glyph glyph-name="uni0443" unicode="&#x443;" horiz-adv-x="484" 
d="M122 437q13 0 20 -14q42 -90 72 -322q4 0 12 0.5t12 1.5q2 14 7 54t11.5 80.5t15.5 76.5t30.5 65t51 46t62.5 19h11q38 0 38 -20q0 -3 -1 -6q-1 -5 -10.5 -19t-12.5 -23q-2 -7 -2 -15q0 -3 0.5 -9t0.5 -8q0 -4 -1 -6q-7 -13 -25 -13q-11 0 -23 9.5t-20 9.5h-1
q-17 -1 -32.5 -14t-18.5 -29q-14 -68 -23 -180.5t-12.5 -188t-7.5 -203.5q-1 -19 -1 -29q-3 -79 -45 -115q-17 -15 -30 -15q-6 0 -10.5 3t-7 7.5t-2.5 10.5t3 11q26 51 30 104q6 123 12 326q-33 -4 -84 -22q-7 -2 -12 2.5t-6 12.5q-27 260 -90 394q-2 5 2 11.5t10 6.5h77z
" />
    <glyph glyph-name="afii10086" unicode="&#x444;" horiz-adv-x="611" 
d="M375 622q-5 -55 -11 -165q13 -30 27.5 -50t43.5 -46q12 -11 36.5 -32.5t36 -32.5t29 -30.5t25.5 -35t14.5 -38t6.5 -46.5q0 -62 -41 -105.5t-107 -43.5q-47 0 -90 17q-7 -179 -16 -336q0 -9 -4.5 -16t-11 -10.5t-13.5 -3.5q-11 0 -19 7.5t-8 21.5q-5 181 -6 335
q-35 -15 -97 -15q-60 0 -101 46t-41 109q0 35 15.5 65t31.5 46t53.5 46.5t52.5 44.5q2 2 12.5 11.5t12.5 11.5t10.5 10t11 11t9 10t10 11.5t7.5 11t8 13.5q-1 50 -5 148q-2 23 -22 28q-3 1 -6 3.5t-5 6t-3 8t-1 8.5q0 17 11 18q100 9 168 32h3q4 0 8 -4t6 -10t2 -11
q0 -9 -5 -13q-3 -2 -11.5 -7t-13 -8t-8.5 -8.5t-5 -12.5zM267 56q-3 298 -3 311q-17 -21 -41 -40q-51 -42 -72.5 -76.5t-21.5 -86.5q0 -45 30 -78t74 -33q19 0 34 3zM359 375q-1 -29 -12 -315q15 -2 31 1q25 3 45 12t34.5 22.5t22.5 32t8 41.5q0 51 -19.5 84.5t-64.5 73.5
q-30 27 -45 48z" />
    <glyph glyph-name="afii10087" unicode="&#x445;" horiz-adv-x="480" 
d="M415 331q0 -11 -3.5 -13.5t-13.5 -2.5h-2.5h-3.5q-6 0 -23.5 12t-31.5 12q-10 0 -18.5 -7t-14 -16t-8.5 -20l-44 -140l165 -458q1 -2 1 -4q0 -7 -6 -12t-13 -5h-68q-14 0 -22 20l-108 299l-126 -403q-7 -23 -22 -23q-8 0 -13 6.5t-5 18.5q0 8 3 18l140 447l-128 357
q-2 7 3.5 13.5t13.5 6.5h67q18 0 24 -18l70 -197l28 87q18 57 53.5 95t92.5 38q17 0 30.5 -7.5t13.5 -20.5q0 -4 -5 -10.5t-12 -16t-10 -17.5q-4 -11 -4 -29v-5.5v-4.5z" />
    <glyph glyph-name="afii10088" unicode="&#x446;" horiz-adv-x="499" 
d="M356 0h-276q-6 0 -10.5 5t-4.5 11q-2 31 -2 77q0 142 12 330q0 2 0.5 4t1.5 3.5t2.5 3t3.5 2.5t4 1h74q6 0 11.5 -6.5t5.5 -14.5q0 -45 -7.5 -154t-7.5 -154q0 -35 2 -59q0 -1 0.5 -4t0.5 -5h120q-1 36 -1 83q0 161 8 301q0 5 3.5 9t8.5 4h74q6 0 11.5 -6.5t5.5 -14.5
q0 -31 -4 -108t-4 -116q0 -92 6 -142q0 -4 2 -10h62q21 0 21 -26q0 -7 -1 -13q-48 -224 -61 -357q-1 -9 -7.5 -15t-14.5 -6q-17 0 -17 22v312q0 15 -6.5 29t-15.5 14z" />
    <glyph glyph-name="afii10089" unicode="&#x447;" horiz-adv-x="401" 
d="M346 26q0 -8 -5 -17t-12 -9h-78q-6 0 -10.5 5t-4.5 11q-3 50 -3 142q0 43 1 96q-9 -1 -20 -1q-35 0 -66 6q-48 8 -80.5 49.5t-32.5 101.5v14q0 13 12 13h84q10 0 10 -11q0 -49 24.5 -86t69.5 -37q1 55 5 121q0 5 3.5 9t8.5 4h74q6 0 11.5 -6.5t5.5 -14.5q0 -28 -3 -96.5
t-3 -105.5q0 -107 6 -164q0 -3 1.5 -11t1.5 -13z" />
    <glyph glyph-name="afii10090" unicode="&#x448;" horiz-adv-x="668" 
d="M612 26q0 -8 -5 -17t-12 -9h-514q-6 0 -10 5t-5 11q-3 41 -3 109q0 126 9 299q0 5 3.5 9t8.5 4h74q6 0 11.5 -6.5t5.5 -14.5q0 -31 -4 -108t-4 -116q0 -92 6 -142q0 -4 2 -10h108q-2 62 -2 149q0 139 5 235q0 5 3.5 9t8.5 4h74q6 0 11.5 -6.5t5.5 -14.5q0 -31 -4 -108
t-4 -116q0 -92 6 -142q0 -7 1 -10h113q-2 39 -2 93q0 133 9 291q0 3 1.5 6t4.5 5t6 2h74q6 0 11.5 -6.5t5.5 -14.5q0 -31 -4 -108t-4 -116q0 -92 6 -142q0 -3 1.5 -11t1.5 -13z" />
    <glyph glyph-name="afii10091" unicode="&#x449;" horiz-adv-x="668" 
d="M612 26q0 -8 -5 -17t-12 -9h-206q1 -40 1 -72q0 -147 -20 -270q-10 -55 -53 -67q-3 -1 -6 -1q-11 0 -19.5 8t-8.5 20q0 8 4 17q2 3 5.5 10t5 11t4 11.5t4.5 16.5q4 21 4 46q0 19 -3 53q-3 28 -6 62.5t-5.5 58t-5 50t-3.5 46.5h-206q-6 0 -10 5t-5 11q-3 41 -3 109
q0 126 9 299q0 5 3.5 9t8.5 4h74q6 0 11.5 -6.5t5.5 -14.5q0 -31 -4 -108t-4 -116q0 -92 6 -142q0 -4 2 -10h108q-2 81 -2 163q0 140 5 221q0 5 3.5 9t8.5 4h74q6 0 11.5 -6.5t5.5 -14.5q0 -24 -2.5 -81t-2.5 -87q0 -109 5 -208h112q-2 39 -2 93q0 133 9 291q0 3 1.5 6
t4.5 5t6 2h74q6 0 11.5 -6.5t5.5 -14.5q0 -31 -4 -108t-4 -116q0 -92 6 -142q0 -3 1.5 -11t1.5 -13z" />
    <glyph glyph-name="afii10092" unicode="&#x44a;" horiz-adv-x="446" 
d="M270 201h44q11 0 16 -16l56 -164v-3q0 -7 -6 -12.5t-13 -5.5h-309q-10 0 -10 13q0 12 7 22l227 362h-125v-138q0 -7 -5.5 -11.5t-12.5 -4.5h-66q-7 0 -12.5 6.5t-5.5 13.5q1 26 3.5 64.5t2.5 54.5q0 9 -15 18t-15 17q0 20 19 20h344q7 0 11.5 -6.5t0.5 -12.5zM242 156
l-73 -116h113z" />
    <glyph glyph-name="afii10093" unicode="&#x44b;" horiz-adv-x="574" 
d="M163 241q2 1 55 19q23 8 29 8q10 0 15 -8q74 -109 128 -237q1 -4 1 -7q0 -5 -2 -8.5t-6.5 -5.5t-9.5 -2h-304q-17 0 -17 15l16 366q2 19 11 28q18 17 30 23t42 10h6q11 0 21 -4.5t10 -13.5q0 -25 -11 -89.5t-14 -93.5zM526 27q0 -5 -2.5 -11.5t-7 -11t-8.5 -4.5h-78
q-6 0 -10 5t-5 11q-12 115 -12 290q0 69 3 118q0 5 3.5 9t8.5 4h74q6 0 11.5 -6.5t5.5 -14.5q0 -13 -1 -43t-1 -47q0 -165 15 -276q4 -22 4 -23zM159 192q-6 -66 -10 -152h113q4 0 2 10q-8 32 -38 75t-67 67z" />
    <glyph glyph-name="afii10094" unicode="&#x44c;" horiz-adv-x="402" 
d="M161 218q26 6 43 12q23 8 32 8q12 0 17 -8q63 -92 112 -209q1 -4 1 -7q0 -14 -18 -14h-272q-26 0 -26 13q5 179 32 404q2 20 24 20h71q18 0 14 -19q-17 -76 -30 -200zM156 174q-8 -80 -11 -134h95q4 0 2 10q-6 20 -16.5 40.5t-29 44t-40.5 39.5z" />
    <glyph glyph-name="uni044D" unicode="&#x44d;" horiz-adv-x="464" 
d="M409 92q-7 -85 -49 -154t-113 -100q-3 -1 -13 0q-30 6 -79.5 41t-69.5 71q-3 5 -1 10t7 8.5t10 3.5q59 2 102 6q23 -20 66 -29q17 34 24.5 72.5t11.5 96.5q-5 2 -11 5.5t-11.5 6.5l-11 6t-11 5.5t-9.5 4.5q-11 6 -20 -3q-5 -6 -27 -26t-35 -33q-12 -12 -27 -3
q-14 9 -70 29q-6 3 -5.5 10t5.5 12q20 20 48.5 57t42.5 52q11 11 26 0q40 -30 62 -42q41 -21 58 -27q2 33 2 60q0 42 -5 78q-17 39 -36 58q-16 -3 -49 -19.5t-51 -22.5q-8 -3 -15 -3q-8 0 -19 3q-4 1 -12.5 3t-12 3t-10.5 3.5t-11 5t-10 6.5t-11 9t-10 12q-3 3 -3 8t3 10
t8 9t11 5q76 14 130 40q6 3 20 0q46 -11 78.5 -36t76.5 -73q30 -88 30 -164q0 -32 -4 -75z" />
    <glyph glyph-name="afii10096" unicode="&#x44e;" horiz-adv-x="506" 
d="M169 26q0 -8 -5 -17t-12 -9h-78q-6 0 -10.5 5t-4.5 11q-2 34 -2 86q0 138 10 322q0 5 3.5 9t8.5 4h75q6 0 11.5 -6.5t5.5 -14.5q0 -24 -3.5 -78.5t-3.5 -81.5h79q6 57 35 107t65 75q5 3 15 3t16 -3q42 -24 64 -84t22 -134q0 -75 -24.5 -135t-71.5 -89q-7 -4 -18 -4t-15 4
q-86 82 -90 217h-78q0 -125 3 -163q0 -3 1 -7.5t1.5 -8.5t0.5 -8zM353 304q-39 -30 -39 -96q0 -63 42 -91q40 22 40 90q0 66 -43 97z" />
    <glyph glyph-name="uni044F" unicode="&#x44f;" horiz-adv-x="410" 
d="M114 0h-71q-16 0 -13 19l84 215q7 11 16 11h72l-123 171q-4 8 -1.5 14t10.5 6h226q16 0 16 -16l19 -404q0 -16 -19 -16h-61q-11 0 -14 4t-4 17l-8 155l-19 30h-16l-70 -188q-7 -14 -12 -16q-4 -2 -12 -2zM135 397l105 -146l-5 134q0 12 -12 12h-88z" />
    <glyph glyph-name="uni0450" unicode="&#x450;" horiz-adv-x="372" 
d="M307 441q8 1 10 -2t3 -10q2 -20 2 -36.5t-2 -29.5q-1 -6 -3 -8t-9 -3q-39 -5 -64.5 -25.5t-25.5 -48.5v-1v-19q12 3 29 10q36 13 51 14t16 -10q1 -1 1 -3v-2q1 -9 1 -26q0 -21 -1 -39q-1 -7 -1.5 -9.5t-3 -5t-8.5 -3.5q-50 -11 -83 -32q2 -46 3 -57q12 3 35.5 13t32.5 13
q4 1 7 1q9 0 9 -18v-4.5v-5.5q0 -15 -7.5 -30.5t-23.5 -31t-48 -25t-74 -9.5q-21 0 -21 15q2 41 2 78q0 30 -6 178v8q0 75 49.5 116.5t129.5 47.5zM239 544q2 -4 2 -9.5t-2 -11t-5.5 -9.5t-8.5 -5q-4 -1 -9 -1q-20 0 -28 13l-137 214q-2 3 -1 6t3 5.5t5 4t6 1.5h57
q15 0 22 -14z" />
    <glyph glyph-name="uni0451" unicode="&#x451;" horiz-adv-x="321" 
d="M177 623q-2 5 0.5 9t8.5 4h46q3 0 6.5 -4.5t4.5 -8.5l29 -109q1 -4 -2.5 -8.5t-8.5 -4.5h-42q-3 0 -6 2t-5 5.5t-2 5.5zM51 623q-2 5 0.5 9t8.5 4h44q3 0 7.5 -4.5t5.5 -8.5l29 -109q0 -2 -0.5 -4.5t-2 -4.5t-4 -3t-4.5 -1h-42q-4 0 -8.5 4.5t-4.5 8.5zM254 441
q7 1 9.5 -2t3.5 -10q2 -20 2 -37q0 -20 -2 -29q-1 -6 -3 -8t-9 -3q-40 -5 -65.5 -25.5t-25.5 -48.5l1 -1v-19q7 2 18.5 6.5t20 8t20 6t21.5 3.5q15 1 16 -10v-3l1 -2q1 -6 1 -26q0 -30 -1 -39q-1 -7 -1.5 -9.5t-3.5 -5t-8 -3.5q-51 -11 -83 -32q1 -46 3 -57q12 3 35.5 13
t32.5 13q3 1 7 1q9 0 9 -18v-10q0 -15 -7.5 -30.5t-24 -31t-48 -25t-73.5 -9.5q-21 0 -21 15q2 58 2 78q0 30 -6 178v8q0 75 49.5 116.5t129.5 47.5z" />
    <glyph glyph-name="uni0452" unicode="&#x452;" horiz-adv-x="568" 
d="M414 -4q-1 38 -22.5 90t-61.5 70v-142q0 -14 -26 -14h-45q-26 0 -26 13q-3 135 -3 216v168h-86q-5 0 -9.5 -3.5t-4.5 -7.5v-185q0 -12 -9 -12h-83q-8 0 -8 10v217q0 20 15 20h185q1 182 18 330q0 12 22 20q40 14 64 14h10q19 0 14 -19q-19 -83 -27 -345h184q12 0 12 -15
q0 -7 -3 -14q-8 -18 -20 -58.5t-14 -45.5q-10 -22 -21 -22t-22 24q-6 12 -14 33t-15 36.5t-13 22.5h-75q0 -33 -1 -101t-1 -100q4 1 25 8t36 11q22 8 30 8q10 0 15 -8q28 -41 58.5 -100t40.5 -84q5 -20 5 -31q0 -9 -10 -27q-146 -269 -171 -269q-4 0 -4 12q0 25 30.5 139.5
t30.5 139.5v1z" />
    <glyph glyph-name="uni0453" unicode="&#x453;" horiz-adv-x="379" 
d="M156 517q-20 0 -20 24q0 7 2 12l87 196q7 14 22 14h57q6 0 11 -6t2 -11l-135 -214q-9 -15 -26 -15zM341 407q-26 -35 -40 -84q-7 -21 -19 -21t-22 23q-26 54 -40 72h-46q-10 0 -10 -13v-368q0 -16 -11 -16h-77q-12 0 -12 16v402q0 19 11 19h258q13 0 13 -15q0 -9 -5 -15z
" />
    <glyph glyph-name="afii10101" unicode="&#x454;" horiz-adv-x="464" 
d="M59 92q-4 43 -4 75q0 76 30 164q29 32 48 50t47 34.5t60 24.5q14 3 20 0q54 -26 130 -40q9 -2 15.5 -9t6.5 -15q0 -5 -3 -8q-6 -8 -12.5 -14t-11 -9.5t-13.5 -7t-12 -4.5t-14.5 -3.5t-13.5 -3.5q-11 -3 -19 -3q-7 0 -15 3q-18 6 -51 22.5t-49 19.5q-19 -20 -36 -58
q-5 -36 -5 -78q0 -27 2 -60q17 6 58 27q22 12 62 42q15 11 26 0q14 -15 42.5 -52t48.5 -57q5 -5 5.5 -12t-5.5 -10q-56 -20 -70 -29q-15 -9 -27 3q-13 13 -35 33t-27 26q-9 9 -20 3q-8 -4 -27 -14t-27 -14q9 -115 36 -169q43 9 66 29q43 -4 102 -6q9 0 14.5 -7.5t1.5 -14.5
q-20 -36 -69.5 -71t-79.5 -41q-10 -1 -13 0q-71 31 -113 100t-49 154z" />
    <glyph glyph-name="afii10102" unicode="&#x455;" horiz-adv-x="566" 
d="M314 37q42 0 71.5 30.5t29.5 71.5q0 33 -26 55t-62 28q-6 2 -9 0q-11 -4 -26 -11t-28 -13t-28 -12.5t-31.5 -12t-33.5 -9.5q-7 -1 -14 0q-50 13 -79 53t-29 86q0 60 46.5 100.5t108.5 40.5q48 0 96 -25q8 -3 14 -1q22 10 72 26q10 3 20 -3q24 -14 24 -19q0 -1 -1 -2
q-31 -42 -82 -75q-7 -6 -13 0q-10 8 -23 20.5t-20 19t-19.5 11.5t-28.5 5q-31 0 -57 -27t-26 -56q0 -52 53 -78h9q31 3 77 26t67 29q5 2 15 0q62 -15 101 -57.5t39 -101.5q0 -34 -11.5 -60t-30 -41t-45.5 -24t-53 -12t-58 -3q-38 0 -83 12.5t-77 12.5q-11 0 -20.5 -1
t-20.5 -4.5t-17 -6t-20 -8.5l-21 -9h-2q-6 0 -12.5 6.5t-6.5 12.5q0 9 4.5 18t12 19t8.5 12q2 4 6 6q39 28 85 40h9q29 -4 63 -28q5 -3 19 -13.5t20.5 -14.5t19 -8.5t24.5 -4.5z" />
    <glyph glyph-name="afii10103" unicode="&#x456;" horiz-adv-x="230" 
d="M172 414q-5 -97 -5 -208q0 -104 5 -156q0 -3 1 -7.5t1.5 -8.5t0.5 -8q0 -7 -3 -13q-9 -13 -14 -13h-76q-6 0 -10.5 5t-4.5 11q-3 64 -3 168q0 141 5 240q0 13 12 13h74q7 0 12.5 -7t4.5 -16z" />
    <glyph glyph-name="afii10104" unicode="&#x457;" horiz-adv-x="230" 
d="M175 26q0 -8 -5 -17t-12 -9h-76q-6 0 -10.5 5t-4.5 11q-3 64 -3 168q0 141 5 240q0 5 3.5 9t8.5 4h74q6 0 11.5 -6.5t5.5 -14.5q0 -28 -2.5 -100t-2.5 -110q0 -104 5 -156q0 -3 1 -7.5t1.5 -8.5t0.5 -8zM126 623q-2 5 1 9t8 4h46q3 0 6.5 -4.5t4.5 -8.5l29 -109
q1 -4 -2.5 -8.5t-8.5 -4.5h-42q-2 0 -5 2t-5 5.5t-3 5.5zM0 623q-2 5 1 9t8 4h44q4 0 8 -4.5t5 -8.5l29 -109q1 -4 -2.5 -8.5t-8.5 -4.5h-42q-4 0 -8 4.5t-5 8.5z" />
    <glyph glyph-name="uni0458" unicode="&#x458;" horiz-adv-x="278" 
d="M192 202q0 -30 2 -74t3.5 -87t1.5 -70v-15q-3 -75 -42 -133q-45 -67 -153 -67q-36 0 -77 20.5t-79 63.5l17 23q65 -56 115 -57h3q50 0 76.5 50.5t26.5 116.5q0 19 -3 101t-3 105q0 126 12 258h111q-11 -112 -11 -235zM91 526l-18 111h107l20 -111h-109z" />
    <glyph glyph-name="uni0459" unicode="&#x459;" horiz-adv-x="628" 
d="M350 175q6 -51 25 -135h95q3 0 3 10q-12 40 -46 82.5t-77 42.5zM578 0h-283q-10 0 -17 9.5t-8 20.5q-16 126 -37 233q-13 -29 -41.5 -75.5t-38.5 -67.5q-8 -19 -8 -45q0 -5 0.5 -13t0.5 -11q0 -5 4 -14t4 -15q0 -22 -16 -22h-89q-8 0 -13.5 6.5t-5.5 14.5q0 36 65 120
q11 14 41 51t48 62q24 35 33 76l-9 36q0 4 -6.5 16t-6.5 20q0 34 24 34h71q2 0 5.5 0.5t5.5 0.5t3.5 -0.5t2.5 -1t1 -2.5q1 -4 14.5 -90.5t22.5 -133.5q80 17 89 21q25 9 31 9q12 0 18 -9q62 -92 112 -209q1 -3 1 -7q0 -6 -5 -10t-13 -4z" />
    <glyph glyph-name="uni045A" unicode="&#x45a;" horiz-adv-x="623" 
d="M303 0q-4 0 -7.5 3t-5.5 6.5t-2 6.5q0 19 -3 75.5t-3 91.5l-121 56q0 -41 1.5 -105.5t1.5 -83.5q0 -4 1 -12t1 -12q0 -2 -1 -6.5t-1 -6.5q-1 -5 -5.5 -9t-8.5 -4h-75q-6 0 -10.5 5.5t-4.5 10.5q0 48 2.5 198.5t2.5 209.5q0 4 4 8t9 4h72q6 0 10.5 -6.5t4.5 -15.5
q0 -19 -2 -64t-2 -69l121 -53q0 38 4 104.5t4 91.5q0 12 10 12h73q7 0 12 -7t5 -15q0 -26 -1 -93.5t-1 -101.5q5 1 19 4.5t23 6.5q22 9 33 9q10 0 16 -9q62 -92 112 -209q1 -3 1 -7q0 -6 -5 -10t-13 -4h-271zM384 174q0 -27 3 -71.5t3 -62.5h80q4 0 4 10q-6 19 -18 40.5
t-31 44.5t-41 39z" />
    <glyph glyph-name="uni045B" unicode="&#x45b;" horiz-adv-x="568" 
d="M327 159q0 -26 -0.5 -57.5t-0.5 -50.5q0 -6 -0.5 -16t-0.5 -17q0 -18 -16 -18h-2.5h-1.5h-50q-24 0 -24 13v384h-89q-5 0 -8.5 -3.5t-3.5 -7.5v-185q0 -12 -10 -12h-83q-7 0 -7 10v221q0 16 15 16h186q0 88 7.5 204.5t7.5 125.5q0 11 25 20q47 14 71 14q20 0 15 -19
q-9 -41 -18 -140.5t-9 -204.5h185q11 0 11 -13q0 -8 -4 -16q-6 -13 -12 -33t-11.5 -40.5t-8.5 -30.5q-10 -22 -22 -22q-11 0 -22 24q-6 12 -14 33t-15 36.5t-13 22.5h-75q0 -33 -1 -101t-1 -100q4 1 25 8t36 11q22 8 29 8q10 0 15 -8q55 -83 104 -194q2 -4 2 -7
q0 -14 -18 -14h-45q-25 0 -34 5q-13 9 -24 35.5t-32 59.5t-58 59z" />
    <glyph glyph-name="uni045C" unicode="&#x45c;" horiz-adv-x="442" 
d="M206 517q-20 0 -20 24q0 7 2 12l87 196q7 14 22 14h57q6 0 11 -6t2 -11l-135 -214q-9 -15 -26 -15zM172 26q0 -8 -5 -17t-12 -9h-78q-6 0 -10.5 5t-4.5 11q-2 34 -2 86q0 138 10 322q0 5 3.5 9t8.5 4h82q6 0 11.5 -6.5t5.5 -14.5q0 -43 -7.5 -146.5t-7.5 -147.5
q0 -45 3 -72q0 -3 1.5 -11t1.5 -13zM225 256l50 135q6 14 32.5 32t62.5 18q32 0 37 -21q2 -11 2 -20q0 -14 -3.5 -24.5t-12 -17t-20.5 -6.5q-8 0 -25 4t-27 4q-15 0 -21 -18l-29 -76q-3 -9 -3 -23q0 -28 10 -28h54q10 0 16 -17l49 -176q2 -8 -1.5 -15t-10.5 -7h-76
q-14 0 -20 23l-30 141q-1 5 -4 9.5t-4.5 6.5t-7 7.5l-6.5 6.5q-17 17 -17 37q0 11 5 25z" />
    <glyph glyph-name="uni045D" unicode="&#x45d;" horiz-adv-x="453" 
d="M250 534q0 -11 -7 -18.5t-18 -7.5q-19 0 -28 13l-137 214q-3 5 2 11t11 6h57q15 0 22 -14l96 -194q2 -4 2 -10zM160 107q0 -17 1.5 -42t1.5 -39q0 -26 -13 -26h-75q-6 0 -10.5 5t-4.5 11q-2 31 -2 77q0 142 12 330q0 2 0.5 4t1.5 3.5t2.5 3t3.5 2.5t4 1h76q6 0 11.5 -6.5
t5.5 -14.5q0 -22 -2 -51.5t-5 -64.5t-4 -58l119 56q1 59 5 126q0 5 3.5 9t8.5 4h76q6 0 11.5 -6.5t5.5 -14.5v-2q-6 -82 -6 -188q0 -114 7 -176q0 -2 0.5 -5.5t1 -6t1 -6t0.5 -6.5q0 -8 -5 -17t-12 -9h-79q-6 0 -10.5 5t-4.5 11q-3 65 -3 171v66l-121 -57q-2 -55 -2 -89z
" />
    <glyph glyph-name="uni045E" unicode="&#x45e;" horiz-adv-x="484" 
d="M313 653q0 3 -0.5 8.5t-0.5 8.5q0 7 1.5 12.5t5 9t7.5 5t9 1.5q7 0 13.5 -3.5t11.5 -11t6 -17.5q1 -16 1 -31q0 -47 -13.5 -82t-42.5 -56t-72 -21q-45 0 -68 30t-23 75q0 57 30 103q10 15 27 15q9 0 15.5 -5t6.5 -15q0 -8 -5 -18q-10 -21 -10 -45t10.5 -39.5t29.5 -15.5
q29 0 45 29.5t16 62.5zM440 344q0 -19 -26 -19q-11 0 -23 9.5t-20 9.5q-18 0 -33.5 -13.5t-18.5 -29.5q-14 -71 -24 -195.5t-12.5 -191t-7.5 -214.5q-3 -79 -45 -115q-17 -15 -30 -15q-6 0 -10.5 3t-7 7.5t-2.5 10.5t3 11q26 51 30 104q6 123 12 326q-33 -4 -84 -22
q-7 -2 -12 2.5t-6 12.5q-27 260 -90 394q-2 5 2 11.5t10 6.5h77q13 0 20 -14q42 -90 72 -322q4 0 12 0.5t12 1.5q2 14 7 54t11.5 80.5t15.5 76.5q14 58 57 94t98 36q38 0 38 -20q0 -9 -13 -28t-13 -35q0 -3 0.5 -9t0.5 -8z" />
    <glyph glyph-name="uni045F" unicode="&#x45f;" horiz-adv-x="454" 
d="M276 0q0 -7 1.5 -20t1.5 -21q0 -135 -20 -203q-15 -55 -55 -67h-5q-11 0 -19.5 7.5t-8.5 19.5q0 10 4 16q2 5 6 13t7.5 16t5.5 20q0 5 2.5 18.5t2.5 20.5v9q-3 29 -9 71t-11 70.5t-5 29.5h-95q-6 0 -10.5 5.5t-4.5 10.5q0 10 -1.5 36t-1.5 41q0 99 13 330q0 5 4 9t8 4h74
q7 0 12 -7t5 -15q-16 -240 -16 -305q0 -13 1.5 -33t1.5 -27v-9h121q0 12 -0.5 40t-0.5 44q0 172 8 300q0 4 4 8t8 4h75q7 0 11.5 -7t4.5 -15q-9 -119 -9 -260q0 -20 1.5 -60.5t1.5 -62.5q0 -31 -34 -31h-79z" />
    <glyph glyph-name="uni0460" unicode="&#x460;" horiz-adv-x="972" 
d="M82 662q51 17 105 20q4 0 8.5 -3.5t3.5 -6.5q-38 -116 -38 -222q0 -115 45 -215t116 -145q42 34 116 112q-42 93 -42 194q0 145 42 264q5 13 18 16q71 20 148 26q6 1 11 -6.5t1 -13.5q-36 -55 -62 -137.5t-26 -164.5q0 -99 42 -174t116 -116q55 41 96 125.5t41 174.5
q0 138 -52 233q-5 9 4 16q62 40 120 54q2 0 3.5 -0.5t2.5 -2t2 -3.5l2 -4q34 -102 34 -171q0 -171 -78.5 -313t-206.5 -203q-11 -6 -22 0q-105 47 -172 162q-111 -118 -165 -162q-7 -6 -16 0q-241 142 -241 486q0 93 32 170q3 7 12 10z" />
    <glyph glyph-name="uni0461" unicode="&#x461;" horiz-adv-x="699" 
d="M49 389q3 23 23 29q57 17 110 21q8 1 12.5 -9t-0.5 -17q-5 -8 -12.5 -15t-19 -16.5t-15.5 -12.5q-6 -6 -6 -10q-2 -23 -2 -46q0 -72 21.5 -132.5t60.5 -96.5q44 17 83 79q-24 66 -24 171q0 25 1 50q0 9 5 20.5t13 12.5q76 11 131 30q7 2 13 -4.5t2 -13.5
q-61 -108 -61 -207q0 -51 29 -92.5t75 -58.5q33 11 54 53t21 87v3q-2 109 -56 156q-5 4 -5 13t5 11q45 12 107 49q2 1 5 1q7 0 14 -4.5t9 -10.5q7 -19 12 -55t5 -65q0 -37 -9.5 -79.5t-29 -87.5t-53.5 -84.5t-78 -61.5q-6 -3 -17 0q-80 29 -137 109q-54 -70 -131 -109
q-5 -3 -15 0q-44 17 -91 93q-54 87 -54 224q0 39 5 76z" />
    <glyph glyph-name="uni0462" unicode="&#x462;" horiz-adv-x="744" 
d="M398 636v-61h243q11 0 11 -16q0 -17 -11 -24q-32 -20 -65 -91q-1 -2 -6 -2t-6 2q-29 70 -64 91h-102v-158q58 -18 122 -28q79 -15 183 -15v-40h-25v-254h44v-40h-496v40h54v495h-117v-220h-106v220h-54v40h277v61h-54v40h226v-40h-54zM560 302q-89 11 -162 33v-295h162
v262z" />
    <glyph glyph-name="uni0463" unicode="&#x463;" horiz-adv-x="597" 
d="M56 437h186q3 215 16 330q1 14 24 20q45 13 63 13h2h2q21 0 21 -12q0 -3 -1 -7q-18 -83 -27 -344h185q11 0 11 -14q0 -8 -3 -16q-8 -17 -19.5 -57t-13.5 -47q-7 -21 -22 -21q-12 0 -22 23q-6 12 -14 32.5t-15 36.5t-13 23h-75q-2 -132 -2 -201q7 2 27 8.5t34 10.5
q29 8 30 8q9 0 14 -8q60 -90 104 -194q1 -4 1 -7q0 -14 -18 -14h-261q-26 0 -26 13q-3 61 -3 216q0 74 1 168h-88q-13 0 -13 -10v-185q0 -14 -9 -14h-83q-8 0 -8 11v217q0 21 15 21zM425 50q-22 68 -87 108v-118h85q4 0 2 10z" />
    <glyph glyph-name="uni0464" unicode="&#x464;" horiz-adv-x="786" 
d="M248 0h-226v40h54v596h-54v40h226v-40h-54v-295l92 47v9q0 78 29 142.5t85.5 104.5t129.5 40q98 0 151.5 -46t53.5 -107h24v-40h-167v40h34q0 19 -4 36.5t-14 36t-30.5 30t-48.5 11.5q-36 0 -62.5 -19t-41 -51.5t-21 -68.5t-6.5 -76q0 -45 16 -97q12 24 29 43t37 33
t44.5 21t51.5 7q82 0 122.5 -47t40.5 -126h-115v4q0 50 -20 83t-61 33q-32 0 -62 -33t-50 -80q21 -90 21 -203v-23q65 0 113 41t55 89h114q-12 -84 -97 -130.5t-241 -46.5v4q0 33 -9 67.5t-17 54.5t-27 60q-24 52 -36.5 85.5t-17.5 72.5h-2l-93 -46v-256h54v-40z" />
    <glyph glyph-name="uni0465" unicode="&#x465;" horiz-adv-x="482" 
d="M169 26q0 -5 -2 -11t-6.5 -10.5t-8.5 -4.5h-78q-6 0 -10.5 5t-4.5 11q-2 34 -2 86q0 138 10 322q0 5 3.5 9t8.5 4h75q6 0 11.5 -6.5t5.5 -14.5q0 -24 -3.5 -78.5t-3.5 -81.5h75q-1 7 -1 13v8q0 75 49.5 116.5t129.5 47.5q8 1 10 -2t3 -10q2 -20 2 -37q0 -20 -2 -29
q-1 -6 -3 -8t-9 -3q-39 -5 -64.5 -25.5t-25.5 -48.5v-1v-19q8 3 24.5 9t30 10t25.5 5q15 1 16 -10q1 -1 1 -3v-2q1 -6 1 -26q0 -30 -1 -39q-1 -7 -1.5 -9.5t-3 -5t-8.5 -3.5q-50 -11 -83 -32q2 -46 3 -57q9 2 21.5 7t25 10.5t21.5 8.5q3 1 7 1q9 0 9 -18v-10q0 -12 -4 -24
t-15.5 -25.5t-28 -23.5t-44 -16.5t-61.5 -6.5q-21 0 -21 15q2 58 2 78q0 42 -4 122h-77q0 -125 3 -163q0 -3 1 -7.5t1.5 -8.5t0.5 -8z" />
    <glyph glyph-name="uni0466" unicode="&#x466;" horiz-adv-x="859" 
d="M837 0h-232v40h54q4 16 4 41v8.5v9.5q0 85 -27 150t-84 141h-66v-350h54v-40h-226v40h54v350h-71q-6 -7 -20.5 -26t-22.5 -30q-28 -36 -44.5 -67.5t-25 -68t-8.5 -79.5q0 -49 17 -79h54v-40h-225v40h54q-4 40 -4 74q0 77 30.5 138.5t90.5 126.5q13 15 37.5 39.5t37 38.5
t28.5 35.5t24.5 44.5t11.5 51q2 19 2 30q0 9 -1 18h-61v40h287v-40h-54q3 -21 15 -39q19 -26 62.5 -76t63.5 -75q71 -89 109 -161.5t38 -157.5q0 -32 -10 -87h54v-40zM414 566q-14 18 -19 27q-14 -85 -68 -163h194q-23 31 -57 73t-50 63z" />
    <glyph glyph-name="uni0467" unicode="&#x467;" horiz-adv-x="665" 
d="M614 25q-4 -25 -19 -25h-87q-20 0 -22 22q-1 16 12 25q-1 11 -11 27q-7 11 -68 80l-29 -2q-12 0 -12 -17v-116q0 -7 -4.5 -13t-10.5 -6h-78q-16 0 -16 21v121q0 16 -12 16q-11 2 -23 2l-38 -38q-58 -56 -63 -84q12 -5 12 -19q0 -19 -14 -19l-74 -1q-14 0 -14 21q0 7 2 14
q23 65 102 132q7 6 24.5 20.5t24.5 21t19.5 19t22 25t18.5 27.5q14 25 16 60q-15 24 -27 51q-8 18 -8 27q0 20 14 20h148q15 0 15 -23q0 -16 -13 -21v-12q0 -13 1 -21q10 -59 59 -120q12 -15 61.5 -66t71.5 -93q13 -24 15 -30q6 -20 5 -26zM380 198q-50 59 -71 88
q-3 -14 -9 -26q-17 -36 -35 -61q34 -6 60 -6q25 0 55 5z" />
    <glyph glyph-name="uni046A" unicode="&#x46a;" horiz-adv-x="928" 
d="M906 0h-259v23h6q28 0 36 8t8 39q0 141 -27 209q-38 96 -140 129v-335q0 -42 7 -46t49 -4v-23h-244v23l42 1q12 2 12 53v332q-80 -15 -123 -101q-41 -81 -44 -224v-9q0 -36 7 -44t45 -8v-23h-259v23q31 0 40 6t11 33q6 68 27 131t66 117q86 103 238 133l-150 181l-9 9
q-18 24 -18 30q1 13 27 15h43h312q53 0 63 -2t10 -13q0 -9 -23 -38l-152 -179q152 -30 239 -124q93 -101 104 -254q2 -27 14 -37q10 -8 42 -8v-23zM608 634q0 14 -53 14h-178q-61 0 -61 -14q0 -6 10 -20q40 -57 135 -164l127 152q20 16 20 32z" />
    <glyph glyph-name="uni046B" unicode="&#x46b;" horiz-adv-x="724" 
d="M441 407q0 9 -26 9h-133q-25 0 -25 -10q0 -5 10 -14l87 -87l75 83q12 13 12 19zM695 0h-123q-16 102 -59.5 157.5t-107.5 69.5q0 -147 8 -227h-112q4 24 4 85v156q-162 -45 -174 -241h-101q52 233 286 293l-110 110q-18 19 -18 26q0 10 30 10h243q39 0 39 -9
q0 -7 -17 -24l-95 -102q79 -13 131.5 -43.5t94.5 -86.5q60 -79 81 -174z" />
    <glyph glyph-name="uni046E" unicode="&#x46e;" horiz-adv-x="597" 
d="M189 465h34v-40h-182v40h34q0 82 53.5 143.5t142.5 70.5l-93 192q-1 4 0.5 7t4.5 3h77q6 0 9 -7l70 -144l27 86q14 43 45 60q12 6 14 6h100q6 0 11 -7t5 -16q0 -12 -10 -19l-54 -37q-2 -1 -10 -3l-49 -12q-4 -1 -8 -9l-46 -100l2 -4q86 -12 138 -54.5t52 -116.5
q0 -56 -38 -95t-81 -51q39 -14 68 -38.5t46.5 -61.5t17.5 -83q0 -89 -69.5 -135t-177.5 -46h-19h-22q-43 0 -61 -6q-3 -1 -6 -4q-60 -51 -60 -135q0 -48 19.5 -72.5t70.5 -24.5q25 0 44.5 4.5t39.5 19t29 22t33 30.5q5 5 9 6q36 5 49 5h9q11 -12 20 -21t19.5 -18t16.5 -14.5
t20 -17t22 -17.5q10 -8 1 -17q-14 -13 -36.5 -22t-39.5 -9h-4q-4 0 -10 6q-32 28 -66 73q-23 -21 -38 -32.5t-41 -28t-55 -24t-61 -7.5q-68 0 -111 44t-43 109q0 36 17 70.5t45 61.5t49.5 43.5t43.5 30.5q1 0 3.5 2t4.5 3q30 13 67 13q11 0 36.5 -1.5t40.5 -1.5
q49 0 72.5 35.5t24.5 88.5v3q0 31 -7.5 56t-23.5 44t-41.5 29.5t-59.5 10.5q-70 0 -103 -54t-33 -132h34v-40h-188v40h34q0 107 73.5 170t182.5 63q5 0 13 -0.5t13 -0.5q92 42 92 136q0 52 -36 87t-92 35q-124 0 -124 -165v-5z" />
    <glyph glyph-name="uni046F" unicode="&#x46f;" horiz-adv-x="547" 
d="M214 611l70 -102q17 48 41 98q9 19 29.5 31.5t42.5 12.5q21 0 37 -9t17 -25v-3q0 -26 -18 -37q-70 -38 -115 -117l5 -7q42 -5 77.5 -22t60 -47t24.5 -67q0 -73 -75 -126q89 -47 89 -145q0 -65 -41.5 -102.5t-109.5 -37.5q-30 0 -78 3.5t-73 3.5h-10q-32 -1 -59 -28.5
t-27 -64.5q0 -10 9 -20t21.5 -16t23.5 -6q38 0 104 22t107 22q53 0 90 -20t46 -64q1 -4 1 -8q0 -14 -8 -24.5t-20 -11.5h-1q-9 0 -15.5 7t-12.5 19.5t-11 18.5q-22 27 -68 27q-47 0 -115 -26.5t-111 -26.5q-34 0 -61 8t-45.5 28.5t-18.5 52.5q0 59 45 101t117 57q7 1 34 1
q16 0 53 -0.5t51 -0.5q20 0 27 1q29 3 44 28t15 59v3q-1 29 -11 55t-31 43.5t-48 17.5h-3q-51 0 -83.5 -28.5t-34.5 -85.5q0 -18 -14 -18h-98q-6 0 -9 6t-1 12q19 76 78.5 121t137.5 45q33 0 68 -8q39 30 39 99q0 42 -30 71.5t-73 29.5q-36 0 -63.5 -23t-39.5 -53t-12 -58
v-4q0 -18 -14 -18h-84q-11 0 -11 18q4 73 46 118t116 58l-111 162q-3 3 -0.5 10t9.5 7h65q13 0 24 -17z" />
    <glyph glyph-name="uni0470" unicode="&#x470;" horiz-adv-x="850" 
d="M474 -100q21 -39 63 -70q4 -3 4 -9t-4 -7q-63 -34 -102 -67q-8 -6 -16 0q-39 33 -102 67q-4 1 -4 7t4 9q42 31 63 70v100h-175q2 44 2 87q0 123 -16 223q-12 75 -39.5 147.5t-61.5 127.5t-73 95h120q104 -112 148 -344q16 -84 16 -202q0 -51 -3 -94h82l-1 742
q-1 125 -5 183t-18 84q-12 24 -12 29q0 8 8 10l158 38h3q10 0 10 -12q0 -13 -7 -22q-9 -13 -14.5 -34t-7.5 -54.5t-2.5 -61.5t-0.5 -79t-1 -82l-14 -741h72q-2 32 -2 89q0 69 3 135q6 161 66 275q26 50 68.5 87t85.5 50q21 6 74 14.5t75 14.5q5 2 10.5 -3.5t1.5 -9.5
q-17 -20 -35.5 -65.5t-25.5 -81.5q-1 -6 -8.5 -7.5t-11.5 2.5q-40 40 -84 40h-2q-28 -1 -58 -21.5t-47 -52.5q-61 -116 -66 -244q-2 -57 -2 -114q0 -79 4 -113q4 -27 6 -35h-124z" />
    <glyph glyph-name="uni0471" unicode="&#x471;" horiz-adv-x="853" 
d="M258 -7q-6 -1 -10.5 3t-6.5 10q-28 120 -86.5 232.5t-126.5 198.5q-3 4 1 12t10 9q14 2 46 2q38 0 56 -2q7 -1 16 -14q43 -69 102 -190t89 -201q14 2 22 3q-1 9 -1 26q-5 407 -28 628q0 5 -2.5 9t-5.5 6t-9.5 6.5t-10.5 7.5q-7 5 -7 17q0 17 13 18q15 1 40.5 2.5t37 2.5
t29.5 2.5t33.5 4.5t33.5 8h2q7 0 12.5 -11.5t5.5 -23.5q0 -9 -3 -13q-8 -11 -10 -16t-3 -22q-5 -68 -12 -169t-16.5 -236.5t-16.5 -232.5q-1 -4 -1 -11q4 0 12 -0.5t12 -0.5q12 70 35.5 139t58.5 132.5t85.5 105t108.5 47.5h6q34 0 58 -42q2 -3 -1 -16q-6 -24 -32 -61
t-47 -50q-6 -4 -14 4q-28 26 -56 60q-44 -43 -81.5 -113t-45.5 -144q-2 -20 -2 -39q0 -32 7 -62q1 -6 -3.5 -11.5t-10.5 -4.5q-44 5 -92 7q-8 -277 -24 -432q-1 -6 3 -15t9 -10q7 -2 16 -2q6 0 18.5 1.5t18.5 1.5h4q9 0 15 -3.5t9 -8t3 -10.5q0 -19 -25 -29q-34 -14 -92 -14
q-22 0 -40 20t-18 43v4q25 250 25 452q-37 -2 -113 -15z" />
    <glyph glyph-name="uni0472" unicode="&#x472;" horiz-adv-x="861" 
d="M39 214h-37v40h224q-13 46 -13 94v18q2 77 46 150.5t110.5 118.5t132.5 45h10q6 -66 28 -92q24 -28 38 -47t36.5 -55.5t33.5 -78t11 -85.5v-12q-1 -20 -7 -56h209q10 0 10 -13q0 -16 -10 -27q-44 -45 -82 -132q-16 -35 -21 -63q-1 -9 -11.5 -9t-12.5 11q-7 38 -7 80
q0 24 2 53q3 31 3 33q0 27 -17 27h-74q-23 -65 -71 -116t-101.5 -76t-102.5 -25h-3q-8 47 -32 77q-64 77 -90 140h-101v-226h-101v226zM544 309v19q0 66 -12 117t-36 116q-15 40 -20 74q-41 -9 -73 -43.5t-51 -90t-21 -127.5q-1 -14 -1 -27q0 -50 10 -93h199q4 36 5 55z
M391 42q110 26 142 172h-183q10 -37 22 -74q16 -53 19 -98z" />
    <glyph glyph-name="uni0473" unicode="&#x473;" horiz-adv-x="714" 
d="M54 -19q0 7 -2 10t-6.5 7.5t-8.5 11.5t-4 14q0 16 13 16h204q-9 46 -9 92q0 45 16 109t38.5 118.5t41.5 76.5q4 4 10 4t10 -4q31 -36 64 -138.5t33 -171.5q0 -43 -9 -86h232q6 0 10.5 -6.5t4.5 -14.5q0 -10 -7 -16q-17 -14 -47 -58.5t-40 -65.5q-11 -20 -22 -20
q-17 0 -19 11q-7 34 -7 105q0 17 1 25h-115q-27 -100 -78 -147q-11 -9 -22 0q-51 46 -77 147h-95q-9 0 -9 -10v-132q0 -16 -12 -16h-75q-6 0 -10 5t-4 11v123zM345 252q-21 -24 -32 -60t-11 -72q0 -52 14 -80h62q15 33 15 79q0 35 -14 75t-34 58z" />
    <glyph glyph-name="uni0474" unicode="&#x474;" horiz-adv-x="616" 
d="M420 0h-332v40h58l-65 596h-54v40h171l63 -636h68l35 417q4 44 19.5 85t34.5 63q37 46 78 54q18 3 36.5 8t34 9t26.5 6q5 1 8.5 -3.5t2.5 -9.5q-10 -41 -10 -113v-19q0 -5 -5 -9.5t-9 -2.5q-26 13 -36.5 17.5t-26 8t-34.5 3.5q-71 0 -79 -100l-35 -414h51v-40z" />
    <glyph glyph-name="uni0475" unicode="&#x475;" horiz-adv-x="537" 
d="M175 13q2 30 2 41q0 17 -2 31q-16 143 -139 308q-9 12 -9 27q0 6 4 11.5t10 5.5h95q10 0 18 -14q38 -77 69 -169t35 -146q0 -3 7.5 -3t7.5 3q2 40 17 94t39 109t62 93t81 38q24 0 34 -6q8 -5 6 -12q-18 -70 -22 -108q0 -3 -5 -5.5t-8 -0.5q-4 2 -10.5 6t-10.5 6t-10 4
t-11 2q-4 0 -7 -1q-34 -6 -48 -27q-59 -87 -67 -220v-26v-24v-17q0 -13 -10 -13h-118q-10 0 -10 13z" />
    <glyph glyph-name="uni0476" unicode="&#x476;" horiz-adv-x="619" 
d="M420 0h-332v40h58l-65 596h-54v40h171l63 -636h68l35 417q4 44 19.5 85t34.5 63q37 46 78 54q18 3 36.5 8t34 9t26.5 6q5 1 8.5 -3.5t2.5 -9.5q-10 -41 -10 -113v-19q0 -5 -5 -9.5t-9 -2.5q-26 13 -36.5 17.5t-26 8t-34.5 3.5q-71 0 -79 -100l-35 -414h51v-40zM315 863
q-2 5 1 9t8 4h46q3 0 6.5 -4.5t4.5 -8.5l29 -109q1 -3 -0.5 -6t-4.5 -5t-6 -2h-42q-4 0 -8 4.5t-5 8.5zM189 863q-1 2 -0.5 4.5t1.5 4.5t3 3t5 1h44q4 0 8 -4.5t5 -8.5l29 -109q1 -3 -0.5 -6t-4.5 -5t-6 -2h-42q-2 0 -5 2t-5.5 5.5t-2.5 5.5z" />
    <glyph glyph-name="uni0477" unicode="&#x477;" horiz-adv-x="537" 
d="M175 13q2 30 2 41q0 17 -2 31q-16 143 -139 308q-9 12 -9 27q0 6 4 11.5t10 5.5h95q10 0 18 -14q38 -77 69 -169t35 -146q0 -3 7.5 -3t7.5 3q2 40 17 94t39 109t62 93t81 38q24 0 34 -6q8 -5 6 -12q-18 -70 -22 -108q0 -3 -5 -5.5t-8 -0.5q-4 2 -10.5 6t-10.5 6t-10 4
t-11 2q-4 0 -7 -1q-34 -6 -48 -27q-59 -87 -67 -220v-26v-24v-17q0 -13 -10 -13h-118q-10 0 -10 13zM276 623q-2 5 1 9t8 4h49q4 0 8 -4.5t5 -8.5l29 -109q1 -4 -2.5 -8.5t-8.5 -4.5h-47q-4 0 -8 4.5t-5 8.5zM150 623q-2 5 1 9t8 4h49q2 0 5 -2t5.5 -5.5t2.5 -5.5l29 -109
q1 -4 -2.5 -8.5t-8.5 -4.5h-47q-2 0 -5 2t-5.5 5.5t-2.5 5.5z" />
    <glyph glyph-name="uni0478" unicode="&#x478;" horiz-adv-x="1042" 
d="M365 682q10 -59 37 -90q2 -3 21.5 -25t26.5 -31t24.5 -32t25.5 -40.5t18.5 -42t15 -50.5t4.5 -53q0 -70 -33 -133t-82.5 -103t-104 -63.5t-100.5 -23.5q-10 40 -41 76q-72 82 -106 144.5t-34 142.5q0 78 50 154.5t126.5 123t151.5 46.5zM249 41q36 0 66 16t50 42t34 61
t20 72.5t6 76.5v4q0 50 -12.5 98.5t-24 74t-37.5 77.5q-19 38 -25 73q-79 0 -123.5 -76t-44.5 -190q0 -27 2.5 -49.5t10 -46.5t13 -39t19 -47t20.5 -50q20 -53 26 -97zM685 437q13 0 20 -14q42 -90 72 -322q4 0 8.5 0.5t8.5 1t7 0.5q2 14 5.5 42t7 51.5t9 56.5t12.5 61
q13 55 53.5 91t90.5 39h11q38 0 38 -20q0 -3 -1 -6q-1 -5 -10.5 -19t-12.5 -23q-2 -7 -2 -15q0 -3 0.5 -9t0.5 -8q0 -4 -1 -6q-7 -13 -25 -13q-9 0 -16 5t-13.5 9.5t-13.5 4.5h-1q-17 -1 -32.5 -14t-18.5 -29q-14 -71 -24 -195.5t-12.5 -191t-7.5 -214.5q-3 -79 -45 -115
q-17 -15 -30 -15q-6 0 -10.5 3t-7 7.5t-2.5 10.5t3 11q26 51 30 104q6 123 12 326q-33 -4 -84 -22q-7 -2 -12 2.5t-6 12.5q-27 260 -90 394q-2 5 2 11.5t10 6.5h77z" />
    <glyph glyph-name="uni0479" unicode="&#x479;" horiz-adv-x="738" 
d="M381 437q13 0 20 -14q42 -90 72 -322q4 0 12 0.5t12 1.5q2 14 7 54t11.5 80.5t15.5 76.5q13 55 53.5 91t90.5 39h11q38 0 38 -20q0 -3 -1 -6q-1 -5 -10.5 -19t-12.5 -23q-2 -7 -2 -15q0 -3 0.5 -9t0.5 -8q0 -4 -1 -6q-7 -13 -25 -13q-11 0 -23 9.5t-20 9.5h-1
q-17 -1 -32.5 -14t-18.5 -29q-14 -71 -24 -195.5t-12.5 -191t-7.5 -214.5q-3 -79 -45 -115q-17 -15 -30 -15q-6 0 -10.5 3t-7 7.5t-2.5 10.5t3 11q26 51 30 104q6 123 12 326q-33 -4 -84 -22q-7 -2 -12 2.5t-6 12.5q-27 260 -90 394q-2 5 2 11.5t10 6.5h77zM150 446
q21 -12 39 -35t30 -52t18.5 -63.5t6.5 -69.5q0 -74 -26 -135.5t-73 -90.5q-14 -8 -22 0q-93 91 -93 232q0 68 29.5 128t70.5 86q10 6 20 0zM135 347q-45 -51 -45 -117q0 -78 48 -116q22 20 34 51.5t12 63.5q0 33 -14 66.5t-35 51.5z" />
    <glyph glyph-name="uni047A" unicode="&#x47a;" horiz-adv-x="1036" 
d="M518 742q28 0 50.5 -16.5t30.5 -42.5q88 -7 158.5 -28t127.5 -60.5t88.5 -104.5t31.5 -152t-31.5 -152t-88.5 -104.5t-127.5 -61t-157.5 -27.5q-8 -26 -31 -42.5t-51 -16.5t-51 16.5t-31 42.5q-88 6 -158 27.5t-127.5 61t-88.5 104.5t-31 152q0 70 21 126t57 94t88.5 65
t110.5 41t128 19q9 26 31.5 42.5t50.5 16.5zM518 105q28 0 50.5 -16.5t30.5 -42.5q122 20 197 95t75 197q0 121 -75 196t-197 95q-8 -26 -30.5 -42t-50.5 -16t-50.5 16t-31.5 42q-122 -20 -196.5 -94.5t-74.5 -196.5t74.5 -197t196.5 -95q9 26 31.5 42.5t50.5 16.5z" />
    <glyph glyph-name="uni047B" unicode="&#x47b;" horiz-adv-x="722" 
d="M46 218q0 204 260 224q14 38 54 38q39 0 53 -38q261 -20 261 -224q0 -205 -261 -223q-14 -38 -53 -38q-40 0 -54 38q-260 18 -260 223zM567 218q0 80 -40 127.5t-113 59.5q-14 -39 -54 -39q-19 0 -34 11t-20 28q-73 -12 -113 -59.5t-40 -127.5t40 -127.5t112 -59.5
q6 17 21 28.5t34 11.5t34 -11.5t20 -28.5q73 12 113 59.5t40 127.5z" />
    <glyph glyph-name="uni047C" unicode="&#x47c;" horiz-adv-x="870" 
d="M486 138q24 -22 50.5 -34t65.5 -12q67 0 110 32t43 92q0 53 -33.5 87.5t-92.5 34.5q-25 0 -41 -11.5t-33 -35.5q-12 -17 -37 -17q-10 0 -20 3t-16.5 17t-6.5 29q0 8 2 15q9 28 32 48.5t54 30.5t66 10q94 0 154 -59t60 -158q0 -96 -67.5 -154t-174.5 -59h-2q-13 0 -25 1.5
t-24.5 5.5t-22 7t-22 10.5t-19 11t-19 12t-16 11t-15.5 12t-13 10.5q-108 -82 -201 -82q-87 0 -142.5 67.5t-55.5 158.5q0 85 54 148t135 63q44 0 82 -11.5t65 -38t27 -64.5q0 -18 -10 -28t-25 -12h-6q-9 0 -18 2.5t-17 8.5t-12 14q-22 46 -82 46q-46 0 -74 -35.5t-28 -84.5
q0 -61 35.5 -99t99.5 -38h5q86 2 137 36q4 3 17.5 13.5t24 16.5t20.5 7q3 0 8 -4.5t12 -12t12 -11.5zM147 544q-5 0 -5 10q9 81 61 120q1 1 3.5 2t3.5 2q17 11 66.5 38.5t72.5 38.5l8 4q28 11 71 11q89 0 151.5 -25.5t105.5 -91.5q3 -5 13 -20.5t13.5 -20t12 -17.5t13.5 -18
t14 -15t16.5 -15t18 -11.5t21.5 -11t24 -8.5q7 -2 12 -9t5 -15q0 -6 -2 -11.5t-6.5 -9.5t-10.5 -4.5t-12 -0.5q-28 0 -59 8.5t-50 22.5t-40.5 35.5t-34.5 36.5t-42 50q-28 33 -49.5 52t-52 32t-66.5 13h-3q-36 0 -65 -8q-3 0 -8 -5q-36 -28 -57 -49q-1 -1 -3 -4l-2 -2
q-26 -38 -26 -98q0 -6 -8 -6h-104zM500 430q-11 -6 -25 -6q-4 0 -7 1q-15 6 -9 23q3 8 10.5 20.5t11.5 23.5t4 25q0 25 -12 43t-34 18q-27 0 -44 -21.5t-17 -49.5q0 -11 1.5 -20t3 -17.5t1.5 -18.5q0 -17 -13 -21q-3 -1 -7 -1q-16 0 -24 10q-23 28 -23 72q0 57 31.5 100.5
t83.5 43.5q50 0 88.5 -29.5t38.5 -75.5q0 -39 -17 -72t-42 -48z" />
    <glyph glyph-name="uni047D" unicode="&#x47d;" horiz-adv-x="870" 
d="M486 138q24 -22 50.5 -34t65.5 -12q67 0 110 32t43 92q0 53 -33.5 87.5t-92.5 34.5q-25 0 -41 -11.5t-33 -35.5q-12 -17 -37 -17q-10 0 -20 3t-16.5 17t-6.5 29q0 8 2 15q9 28 32 48.5t54 30.5t66 10q94 0 154 -59t60 -158q0 -96 -67.5 -154t-174.5 -59h-2q-13 0 -25 1.5
t-24.5 5.5t-22 7t-22 10.5t-19 11t-19 12t-16 11t-15.5 12t-13 10.5q-108 -82 -201 -82q-87 0 -142.5 67.5t-55.5 158.5q0 85 54 148t135 63q44 0 82 -11.5t65 -38t27 -64.5q0 -18 -10 -28t-25 -12h-6q-9 0 -18 2.5t-17 8.5t-12 14q-22 46 -82 46q-46 0 -74 -35.5t-28 -84.5
q0 -61 35.5 -99t99.5 -38h5q86 2 137 36q4 3 17.5 13.5t24 16.5t20.5 7q3 0 8 -4.5t12 -12t12 -11.5zM147 544q-5 0 -5 10q9 81 61 120q1 1 3.5 2t3.5 2q17 11 66.5 38.5t72.5 38.5l8 4q28 11 71 11q89 0 151.5 -25.5t105.5 -91.5q3 -5 13 -20.5t13.5 -20t12 -17.5t13.5 -18
t14 -15t16.5 -15t18 -11.5t21.5 -11t24 -8.5q7 -2 12 -9t5 -15q0 -6 -2 -11.5t-6.5 -9.5t-10.5 -4.5t-12 -0.5q-28 0 -59 8.5t-50 22.5t-40.5 35.5t-34.5 36.5t-42 50q-28 33 -49.5 52t-52 32t-66.5 13h-3q-36 0 -65 -8q-3 0 -8 -5q-36 -28 -57 -49q-1 -1 -3 -4l-2 -2
q-26 -38 -26 -98q0 -6 -8 -6h-104zM500 430q-11 -6 -25 -6q-4 0 -7 1q-15 6 -9 23q3 8 10.5 20.5t11.5 23.5t4 25q0 25 -12 43t-34 18q-27 0 -44 -21.5t-17 -49.5q0 -11 1.5 -20t3 -17.5t1.5 -18.5q0 -17 -13 -21q-3 -1 -7 -1q-16 0 -24 10q-23 28 -23 72q0 57 31.5 100.5
t83.5 43.5q50 0 88.5 -29.5t38.5 -75.5q0 -39 -17 -72t-42 -48z" />
    <glyph glyph-name="uni047E" unicode="&#x47e;" horiz-adv-x="987" 
d="M592 158q0 -21 -17.5 -36.5t-50.5 -20.5q0 -1 -1 -3.5t-2 -3.5q12 -27 39.5 -43.5t64.5 -16.5q75 0 120.5 43t61.5 108.5t16 158.5q0 52 -7.5 100t-24.5 94.5t-51 74.5t-81 28q-58 0 -89 -44q6 1 17 1q33 0 56 -23.5t23 -55.5t-23.5 -55.5t-55.5 -23.5t-55.5 23t-23.5 56
q0 75 40.5 119.5t125.5 44.5q122 0 199.5 -95.5t77.5 -227.5q0 -187 -82 -276.5t-248 -89.5q-75 0 -128 60q-55 -60 -127 -60q-166 0 -248 89.5t-82 276.5q0 132 77.5 227.5t199.5 95.5q85 0 125.5 -44.5t40.5 -119.5q0 -33 -23 -56t-56 -23t-56 23.5t-23 55.5t23 55.5
t56 23.5q11 0 17 -1q-31 44 -89 44q-47 0 -81 -28t-51 -74.5t-24.5 -94.5t-7.5 -100q0 -93 16 -158.5t61.5 -108.5t120.5 -43t104 61l-3 6q-69 11 -69 57q0 21 17.5 37t50.5 21q-16 64 -62 86q-6 3 -6 12q0 7 3.5 13t8.5 6q10 0 20 -0.5t17 -1t15 -1t16.5 -0.5h18.5
q19 0 46 1.5t41 1.5q4 0 6.5 -3t4 -7t1.5 -9q0 -9 -6 -12q-47 -22 -63 -87q33 -5 51 -20.5t18 -36.5zM194 873h601q11 0 11 -12q0 -17 -17 -31q-53 -44 -93 -96q-9 -12 -25 -12q-13 0 -13 12v99h-106v-120h-118v120h-104v-99q0 -12 -13 -12q-16 0 -25 12q-41 53 -93 96
q-17 14 -17 30q0 13 12 13z" />
    <glyph glyph-name="uni047F" unicode="&#x47f;" horiz-adv-x="699" 
d="M49 389q3 23 23 29q57 17 110 21q8 1 12.5 -9t-0.5 -17q-5 -8 -12.5 -15t-19 -16.5t-15.5 -12.5q-6 -6 -6 -10q-2 -23 -2 -46q0 -72 21.5 -132.5t60.5 -96.5q44 17 83 79q-24 66 -24 171q0 25 1 50q0 9 5 20.5t13 12.5q76 11 131 30q7 2 13 -4.5t2 -13.5
q-61 -108 -61 -207q0 -51 29 -92.5t75 -58.5q33 11 54 53t21 87v3q-2 109 -56 156q-5 4 -5 13t5 11q45 12 107 49q2 1 5 1q7 0 14 -4.5t9 -10.5q7 -19 12 -55t5 -65q0 -37 -9.5 -79.5t-29 -87.5t-53.5 -84.5t-78 -61.5q-6 -3 -17 0q-80 29 -137 109q-54 -70 -131 -109
q-5 -3 -15 0q-44 17 -91 93q-54 87 -54 224q0 39 5 76zM58 678q0 7 -2 10t-6.5 7.5t-8.5 11.5t-4 14q0 16 13 16h592q10 0 12.5 -12t-4.5 -18q-12 -10 -25.5 -25.5t-24.5 -31.5t-16 -28q-8 -20 -22 -20q-10 0 -24 23q-6 10 -13 22t-11.5 19.5t-9.5 16t-10 14.5h-85
q-3 0 -5.5 -2t-3.5 -5t-1 -6v-78q0 -16 -12 -16h-84q-6 0 -10 5t-4 11v78q0 5 -3 9t-7 4h-103q-4 0 -6.5 -3t-2.5 -7v-98q0 -16 -12 -16h-83q-4 0 -7 2.5t-5 6t-2 7.5v89z" />
    <glyph glyph-name="uni0482" unicode="&#x482;" horiz-adv-x="307" 
d="M143 -98l-38 -106l-56 20l39 106l-76 28l21 56l75 -27l35 96l-75 27l20 56l75 -27l54 148l56 -21l-54 -148l76 -27l-21 -56l-75 27l-35 -95l76 -28l-21 -57z" />
    <glyph glyph-name="uni0483" unicode="&#x483;" horiz-adv-x="1" 
d="M-270 547q0 -4 -3.5 -7.5t-8.5 -3.5h-79q-5 0 -9 4t-4 9v84q-1 0 -3 0.5t-3 0.5q-18 2 -18 23q0 6 2.5 12t7 9.5t10.5 3.5h3q53 -9 194 -17q38 -2 55 -2v89q0 5 4 9t9 4h79q5 0 8.5 -3.5t3.5 -7.5v-92q2 0 7 0.5t8 0.5q10 0 15 -6t5 -14t-5 -14t-15 -6h-48q-88 0 -215 4
v-80z" />
    <glyph glyph-name="uni0484" unicode="&#x484;" horiz-adv-x="651" 
d="M46 0v751h559v-751h-559zM559 46v659h-467v-659h467z" />
    <glyph glyph-name="uni0485" unicode="&#x485;" horiz-adv-x="1" 
d="M-188 513q-35 10 -66 49t-31 86q0 41 31 69.5t73 28.5q24 0 45.5 -10t35.5 -28.5t14 -41.5q0 -29 -14 -44q-5 -6 -16.5 -7t-12.5 8q0 30 -12.5 41.5t-35.5 11.5q-8 0 -15 -3.5t-12 -9t-8.5 -13t-3.5 -15.5v-3q0 -49 48 -90q10 -8 10 -16q0 -4 -3 -7.5t-7.5 -5t-10.5 -1.5
q-4 0 -9 1z" />
    <glyph glyph-name="uni0486" unicode="&#x486;" horiz-adv-x="1" 
d="M-183 513q-5 -1 -9 -1q-5 0 -8.5 1t-6.5 2.5t-4.5 4.5t-1.5 6q0 8 10 16q48 41 48 90v3q-1 17 -12 29t-27 12q-48 0 -48 -53q-1 -9 -12.5 -8t-16.5 7q-14 15 -14 44q0 35 28.5 57.5t66.5 22.5q42 0 73 -28.5t31 -69.5q0 -47 -31 -86t-66 -49z" />
    <glyph glyph-name="uni0487" unicode="&#x487;" horiz-adv-x="5" 
d="M180 700q0 -20 -21.5 -28.5t-48.5 -8.5q-34 0 -70.5 14.5t-61 30.5t-64.5 46q-6 5 -23 18t-23 17.5t-20.5 14t-23.5 13t-22.5 8.5t-27 7t-28.5 2q-20 0 -42 -12q-2 -1 -7.5 -4t-7 -4t-6.5 -3.5t-6.5 -4t-5 -3.5t-5.5 -4t-5 -4.5t-5.5 -5.5t-4.5 -6q-11 -15 -11 -52
q0 -8 0.5 -23t0.5 -22q0 -4 -3 -8t-7 -4h-62q-2 0 -4.5 1.5t-3.5 4t-1 5.5q0 79 58 137q35 35 83 54t91 19q29 0 56.5 -9.5t43.5 -19.5t47 -33t46 -33q4 -2 18 -11.5t18.5 -13t17.5 -11.5t19.5 -11.5t18.5 -10t20.5 -9.5t19.5 -7t22 -6t22 -3q19 -2 19 -17z" />
    <glyph glyph-name="uni10FB" unicode="&#x10fb;" horiz-adv-x="334" 
d="M234 156q-27 0 -45.5 19.5t-18.5 46.5t18.5 45.5t45.5 18.5t46.5 -18.5t19.5 -45.5t-19.5 -46.5t-46.5 -19.5zM10 61q0 27 19 46t46 19t45.5 -19t18.5 -46t-18.5 -46t-45.5 -19t-46 19t-19 46zM10 381q0 27 19 46t46 19t45.5 -19t18.5 -46t-18.5 -46t-45.5 -19t-46 19
t-19 46z" />
    <glyph glyph-name="uni1C81" unicode="&#x1c81;" horiz-adv-x="501" 
d="M320 352q0 -80 20.5 -171t49.5 -141h66q15 0 15 -20q0 -13 -7 -23q-21 -27 -39 -125q-20 -107 -25 -124q-5 -16 -16 -16q-13 0 -15 20q-3 27 -4 124t-6 124h-229q-5 -32 -10.5 -120.5t-5.5 -123.5q0 -9 -5 -15.5t-11 -6.5q-11 0 -16 16q-4 10 -17 112q-12 91 -29 128
q-6 14 -6 25q0 25 26 25h81q9 38 44 112t44 101q-6 44 -12 139q-5 12 -5 25q0 7 5 13.5t12 5.5q22 -3 38 -3t44 4q4 0 7.5 -2.5t6 -7.5t3.5 -10q1 -17 -3 -29q-1 -17 -1 -36zM286 40q-28 62 -46 133q-16 -23 -31 -62t-19 -71h96z" />
    <glyph glyph-name="uni1C82" unicode="&#x1c82;" horiz-adv-x="274" 
d="M150 446q43 -24 68.5 -86t25.5 -134q0 -74 -26 -135.5t-73 -90.5q-14 -8 -22 0q-93 91 -93 232q0 68 29.5 128t70.5 86q10 6 20 0zM135 347q-45 -51 -45 -117q0 -78 48 -116q46 41 46 115q0 33 -14 66.5t-35 51.5z" />
    <glyph glyph-name="uni1C83" unicode="&#x1c83;" horiz-adv-x="464" 
d="M59 92q-4 43 -4 75q0 76 30 164q44 48 76.5 73t78.5 36q14 3 20 0q54 -26 130 -40q9 -2 15.5 -9t6.5 -15q0 -5 -3 -8q-6 -8 -12.5 -14t-11 -9.5t-13.5 -7t-12 -4.5t-14.5 -3.5t-13.5 -3.5q-11 -3 -19 -3q-7 0 -15 3q-18 6 -51 22.5t-49 19.5q-20 -20 -36 -58
q-5 -36 -5 -78q0 -27 2 -60q0 -4 2.5 -36.5t3.5 -41.5l4 -36t6.5 -40.5t9.5 -33.5t14 -35q43 9 66 29q43 -4 102 -6q7 0 12.5 -5t5.5 -11q0 -3 -2 -6q-20 -36 -69.5 -71t-79.5 -41q-10 -1 -13 0q-71 31 -113 100t-49 154z" />
    <glyph glyph-name="uni1DC0" unicode="&#x1dc0;" horiz-adv-x="1000" 
d="M-178 700q0 26 18 44q17 18 43 18t44 -18t18 -44t-18 -44q-19 -17 -44 -17q-26 0 -43 17q-18 18 -18 44zM-408 600q0 26 18 44q16 18 43 18q26 0 44 -18t18 -44t-18 -44q-19 -17 -44 -17q-26 0 -43 17q-18 18 -18 44zM-162 520l-183 217l67 48l153 -241z" />
    <glyph glyph-name="uni1DC1" unicode="&#x1dc1;" horiz-adv-x="1000" 
d="M-116 600q0 26 18 44q17 18 43 18t44 -18t18 -44t-18 -44q-19 -17 -44 -17q-26 0 -43 17q-18 18 -18 44zM-328 700q0 26 18 44q17 18 43 18t44 -18t18 -44t-18 -44q-19 -17 -44 -17q-26 0 -43 17q-18 18 -18 44zM-271 560l173 226l62 -53l-201 -200z" />
    <glyph glyph-name="uni2000" unicode="&#x2000;" horiz-adv-x="500" 
 />
    <glyph glyph-name="uni2001" unicode="&#x2001;" horiz-adv-x="685" 
 />
    <glyph glyph-name="uni2002" unicode="&#x2002;" horiz-adv-x="500" 
 />
    <glyph glyph-name="uni2003" unicode="&#x2003;" horiz-adv-x="685" 
 />
    <glyph glyph-name="uni2004" unicode="&#x2004;" horiz-adv-x="240" 
 />
    <glyph glyph-name="uni2005" unicode="&#x2005;" horiz-adv-x="175" 
 />
    <glyph glyph-name="uni2006" unicode="&#x2006;" horiz-adv-x="115" 
 />
    <glyph glyph-name="uni2007" unicode="&#x2007;" horiz-adv-x="115" 
 />
    <glyph glyph-name="uni2008" unicode="&#x2008;" horiz-adv-x="99" 
 />
    <glyph glyph-name="uni2009" unicode="&#x2009;" horiz-adv-x="82" 
 />
    <glyph glyph-name="uni200A" unicode="&#x200a;" horiz-adv-x="60" 
 />
    <glyph glyph-name="uni200B" unicode="&#x200b;" 
 />
    <glyph glyph-name="uni200C" unicode="&#x200c;" 
 />
    <glyph glyph-name="uni200D" unicode="&#x200d;" 
 />
    <glyph glyph-name="uni200E" unicode="&#x200e;" 
 />
    <glyph glyph-name="uni200F" unicode="&#x200f;" 
 />
    <glyph glyph-name="uni2010" unicode="&#x2010;" horiz-adv-x="360" 
d="M333 165h-306v70h306v-70z" />
    <glyph glyph-name="uni2011" unicode="&#x2011;" horiz-adv-x="360" 
d="M333 165h-306v70h306v-70z" />
    <glyph glyph-name="figuredash" unicode="&#x2012;" horiz-adv-x="465" 
d="M436 165h-411v70h411v-70z" />
    <glyph glyph-name="endash" unicode="&#x2013;" horiz-adv-x="465" 
d="M436 165h-411v70h411v-70z" />
    <glyph glyph-name="emdash" unicode="&#x2014;" horiz-adv-x="641" 
d="M618 165h-588v70h588v-70z" />
    <glyph glyph-name="quoteleft" unicode="&#x2018;" horiz-adv-x="225" 
d="M205 632v-1q0 -35 -33.5 -72t-67.5 -37q-38 0 -59.5 34t-21.5 79q0 44 25.5 89t62.5 71q14 10 23 4q12 -9 -2 -26q-41 -61 -41 -101v-4q0 -29 10 -47.5t30 -18.5q30 0 45 36q2 5 8 8.5t10 2.5q11 -1 11 -17z" />
    <glyph glyph-name="quoteright" unicode="&#x2019;" horiz-adv-x="225" 
d="M207 687q0 -44 -25.5 -89t-62.5 -71q-14 -10 -23 -4q-5 5 -4 13t6 13q41 61 41 101v4q0 29 -10 47.5t-30 18.5q-14 0 -26.5 -10.5t-18.5 -25.5q-2 -3 -5 -6t-6.5 -4.5t-6.5 -0.5q-11 1 -11 17v1q0 35 33.5 72t67.5 37q38 0 59.5 -34t21.5 -79z" />
    <glyph glyph-name="quotesinglbase" unicode="&#x201a;" horiz-adv-x="245" 
d="M37 15v1q0 35 33.5 72t66.5 37q38 0 60 -34.5t22 -78.5t-25.5 -89t-62.5 -70q-16 -10 -23 -5q-5 5 -4 13.5t6 13.5q40 57 41 100v5q0 28 -10 46.5t-31 18.5q-28 0 -44 -35q-8 -15 -19 -12q-10 1 -10 17z" />
    <glyph glyph-name="quotedblleft" unicode="&#x201c;" horiz-adv-x="436" 
d="M205 632v-1q0 -35 -33.5 -72t-67.5 -37q-38 0 -59.5 34t-21.5 79q0 44 25.5 89t62.5 71q14 10 23 4q12 -9 -2 -26q-41 -61 -41 -101v-4q0 -29 10 -47.5t30 -18.5q30 0 45 36q2 5 8 8.5t10 2.5q11 -1 11 -17zM415 632v-1q0 -35 -33.5 -72t-67.5 -37q-38 0 -59.5 34
t-21.5 79q0 44 25.5 89t62.5 71q14 10 23 4q5 -5 4 -13t-6 -13q-41 -61 -41 -101v-4q0 -29 10 -47.5t30 -18.5q14 0 26.5 10.5t18.5 25.5q2 5 8 8.5t10 2.5q11 -1 11 -17z" />
    <glyph glyph-name="quotedblright" unicode="&#x201d;" horiz-adv-x="436" 
d="M412 684q0 -44 -25.5 -89t-62.5 -71q-14 -10 -23 -4q-5 5 -4 13t6 13q41 61 41 101v4q0 29 -10 47.5t-30 18.5q-14 0 -26.5 -10.5t-18.5 -25.5q-2 -5 -8 -8.5t-10 -2.5q-11 1 -11 17v1q0 35 33.5 72t67.5 37q38 0 59.5 -34.5t21.5 -78.5zM202 684q0 -44 -25.5 -89
t-62.5 -71q-14 -10 -23 -4q-5 5 -4 13t6 13q41 61 41 101v4q0 29 -10 47.5t-30 18.5q-14 0 -26.5 -10.5t-18.5 -25.5q-1 -2 -2.5 -3.5l-3.5 -3.5t-4 -3t-4 -1.5t-4 0.5q-11 1 -11 17v1q0 35 33.5 72t67.5 37q38 0 59.5 -34t21.5 -79z" />
    <glyph glyph-name="quotedblbase" unicode="&#x201e;" horiz-adv-x="457" 
d="M37 15v1q0 35 33.5 72t66.5 37q38 0 60 -34.5t22 -78.5t-25.5 -89t-62.5 -70q-16 -10 -23 -5q-5 5 -4 13.5t6 13.5q40 57 41 100v5q0 28 -10 46.5t-31 18.5q-28 0 -44 -35q-8 -15 -19 -12q-10 1 -10 17zM252 15v1q0 35 33.5 72t66.5 37q38 0 60 -34.5t22 -78.5t-25.5 -89
t-62.5 -70q-16 -10 -23 -5q-5 5 -4 13.5t6 13.5q40 57 41 100v5q0 28 -10 46.5t-31 18.5q-14 0 -26 -10t-18 -25q-3 -5 -8.5 -9t-10.5 -3q-10 1 -10 17z" />
    <glyph glyph-name="dagger" unicode="&#x2020;" horiz-adv-x="741" 
d="M442 560h250v-80h-250v-480h-120v480h-250v80h250v210h120v-210z" />
    <glyph glyph-name="bullet" unicode="&#x2022;" horiz-adv-x="298" 
d="M20 221q0 54 38 92t92 38t91 -38t37 -92t-37 -92t-91 -38t-92 38t-38 92z" />
    <glyph glyph-name="onedotenleader" unicode="&#x2024;" horiz-adv-x="216" 
d="M34 53q0 29 21 50t50 21t50 -21t21 -50t-21 -50t-50 -21t-50 21t-21 50z" />
    <glyph glyph-name="twodotenleader" unicode="&#x2025;" horiz-adv-x="431" 
d="M255 53q0 29 21.5 50t49.5 21t49.5 -21t21.5 -50t-21.5 -50t-49.5 -21t-49.5 21t-21.5 50zM34 53q0 29 21 50t50 21t50 -21t21 -50t-21 -50t-50 -21t-50 21t-21 50z" />
    <glyph glyph-name="ellipsis" unicode="&#x2026;" horiz-adv-x="654" 
d="M477 53q0 29 21.5 50t49.5 21t49.5 -21t21.5 -50t-21.5 -50t-49.5 -21t-49.5 21t-21.5 50zM255 53q0 29 21.5 50t49.5 21t49.5 -21t21.5 -50t-21.5 -50t-49.5 -21t-49.5 21t-21.5 50zM34 53q0 29 21 50t50 21t50 -21t21 -50t-21 -50t-50 -21t-50 21t-21 50z" />
    <glyph glyph-name="uni2027" unicode="&#x2027;" horiz-adv-x="159" 
d="M37 215q0 19 13 32t31 13t31 -13t13 -32t-13 -32t-31 -13t-31 13t-13 32z" />
    <glyph glyph-name="uni202F" unicode="&#x202f;" horiz-adv-x="250" 
 />
    <glyph glyph-name="guilsinglleft" unicode="&#x2039;" horiz-adv-x="263" 
d="M222 53l-24 -16q-94 124 -158 185q68 68 158 185l24 -16l-90 -169z" />
    <glyph glyph-name="guilsinglright" unicode="&#x203a;" horiz-adv-x="264" 
d="M40 391l24 16q92 -116 160 -185q-74 -75 -160 -185l-24 16l92 169z" />
    <glyph glyph-name="uni203B" unicode="&#x203b;" horiz-adv-x="462" 
d="M78 260q18 0 30 -12q13 -12 13 -30t-13 -30q-12 -12 -30 -12t-30 12q-11 13 -11 30t11 30q12 12 30 12zM220 119q17 0 30 -13q14 -12 14 -30q0 -19 -14 -30q-14 -12 -30 -12t-29 12q-13 10 -13 30q0 18 13 30q13 13 29 13zM222 404q16 0 30 -12q13 -13 13 -31
q0 -14 -13 -29q-14 -14 -30 -14q-19 0 -31 14t-12 29q0 19 12 31t31 12zM364 262q16 0 30 -12q13 -12 13 -30q0 -19 -13 -31q-15 -13 -30 -13q-17 0 -30 13q-12 12 -12 31q0 18 12 30t30 12zM427 58l-45 -47l-162 161l-161 -161l-46 47l160 160l-80 80q-55 55 -80 81l46 46
l160 -161q5 6 11.5 12t14 13.5l11.5 11.5q20 18 39 39l44 43l43 42l45 -46l-161 -161z" />
    <glyph glyph-name="fraction" unicode="&#x2044;" horiz-adv-x="405" 
d="M6 -283h-59l415 1292h59z" />
    <glyph glyph-name="uni2052" unicode="&#x2052;" horiz-adv-x="610" 
d="M405 257q0 33 23.5 56t56.5 23t56.5 -23t23.5 -56t-23.5 -56.5t-56.5 -23.5t-56.5 23.5t-23.5 56.5zM227 149q-14 0 -25 11t-11 25q0 7 3 13l149 314q10 22 37 22q14 0 25 -11t11 -25q0 -7 -3 -13l-148 -314q-13 -22 -38 -22zM45 425q0 33 23.5 56.5t56.5 23.5
t56.5 -23.5t23.5 -56.5q0 -34 -23 -56.5t-57 -22.5q-33 0 -56.5 23t-23.5 56z" />
    <glyph glyph-name="uni2053" unicode="&#x2053;" horiz-adv-x="907" 
d="M806 257q30 0 48 -14.5t18 -41.5q0 -17 -7 -35h-1q-50 -87 -188 -87q-73 0 -250 58q-156 51 -225 51q-4 0 -10 -0.5t-9 -0.5q-44 0 -54 -16q1 -6 1 -16q0 -60 -55 -60q-32 0 -48.5 19t-16.5 52q0 52 44 81t125 29q37 0 94 -12q37 -8 95 -24.5t124 -37.5t91 -28
q60 -16 98 -21q7 -1 19 -1q56 0 56 57q0 48 51 48z" />
    <glyph glyph-name="uni2056" unicode="&#x2056;" horiz-adv-x="344" 
d="M94 156q-27 0 -45.5 19.5t-18.5 46.5t18.5 45.5t45.5 18.5t46.5 -18.5t19.5 -45.5t-19.5 -46.5t-46.5 -19.5zM190 61q0 27 19 46t46 19t45.5 -19t18.5 -46t-18.5 -46t-45.5 -19t-46 19t-19 46zM190 381q0 27 19 46t46 19t45.5 -19t18.5 -46t-18.5 -46t-45.5 -19t-46 19
t-19 46z" />
    <glyph glyph-name="uni2058" unicode="&#x2058;" horiz-adv-x="514" 
d="M414 156q-27 0 -45.5 19.5t-18.5 46.5t18.5 45.5t45.5 18.5t46.5 -18.5t19.5 -45.5t-19.5 -46.5t-46.5 -19.5zM94 156q-27 0 -45.5 19.5t-18.5 46.5t18.5 45.5t45.5 18.5t46.5 -18.5t19.5 -45.5t-19.5 -46.5t-46.5 -19.5zM190 61q0 27 19 46t46 19t45.5 -19t18.5 -46
t-18.5 -46t-45.5 -19t-46 19t-19 46zM190 381q0 27 19 46t46 19t45.5 -19t18.5 -46t-18.5 -46t-45.5 -19t-46 19t-19 46z" />
    <glyph glyph-name="uni2059" unicode="&#x2059;" horiz-adv-x="500" 
d="M164 221q0 30 20 50q20 21 50 21t51 -21q20 -20 20 -50t-20 -50t-51 -20t-50 20q-20 20 -20 50zM324 376q0 30 20 50q20 21 50 21t51 -21q20 -20 20 -50t-20 -50t-51 -20t-50 20q-20 20 -20 50zM6 376q0 31 20 50q20 21 50 21t50 -21q21 -20 21 -50t-21 -50
q-19 -20 -50 -20t-50 20q-20 19 -20 50zM324 63q0 29 20 51q20 20 50 20q29 0 51 -20q20 -22 20 -51q0 -30 -20 -50q-22 -20 -51 -20q-30 0 -50 20t-20 50zM6 63q0 31 20 51t50 20t50 -20q21 -21 21 -51q0 -31 -21 -50q-20 -20 -50 -20t-50 20q-20 19 -20 50z" />
    <glyph glyph-name="uni205C" unicode="&#x205c;" horiz-adv-x="742" 
d="M400 346q0 -18 -0.5 -37.5t-0.5 -23.5q0 -182 66 -250l-7 -9q-18 19 -90 19q-63 0 -84 -22l-7 9q17 14 32 48q34 79 34 211v55h-61q-181 0 -250 -67l-9 7q19 18 19 90q0 63 -22 84l9 7q11 -13 48 -30q84 -36 211 -36h55v22v40q0 182 -66 250l7 9q18 -19 90 -19
q63 0 84 22l7 -9q-17 -14 -32 -48q-34 -79 -34 -211v-57q11 0 33 0.5t28 0.5q181 0 250 67l9 -7q-19 -18 -19 -90q0 -63 22 -84l-9 -7q-14 17 -48 32q-79 34 -211 34h-54zM121 540q0 26 18 44q17 18 43 18t44 -18t18 -44t-18 -44q-19 -17 -44 -17q-26 0 -43 17
q-18 18 -18 44zM496 540q0 25 17 44q18 18 44 18t44 -18t18 -44t-18 -44q-19 -17 -44 -17t-44 17q-17 19 -17 44zM121 195q0 26 18 44q17 18 43 18t44 -18t18 -44q0 -27 -18 -43q-18 -18 -44 -18t-43 18q-18 16 -18 43zM507 195q0 26 18 44q17 18 43 18t44 -18t18 -44
q0 -27 -18 -43q-18 -18 -44 -18t-43 18q-18 16 -18 43zM35 282z" />
    <glyph glyph-name="uni205D" unicode="&#x205d;" horiz-adv-x="196" 
d="M20 276q0 31 20 50q20 21 50 21q31 0 50 -21q21 -20 21 -50t-21 -50q-19 -20 -50 -20t-50 20q-20 19 -20 50zM20 493q0 29 20 51q20 20 50 20q29 0 51 -20q20 -22 20 -51q0 -30 -20 -50q-22 -20 -51 -20q-30 0 -50 20t-20 50zM20 63q0 31 20 51t50 20t50 -20
q21 -21 21 -51q0 -31 -21 -50q-20 -20 -50 -20t-50 20q-20 19 -20 50z" />
    <glyph glyph-name="uni205E" unicode="&#x205e;" horiz-adv-x="196" 
d="M20 698q0 29 20 51q20 20 50 20q29 0 51 -20q20 -22 20 -51q0 -30 -20 -50q-22 -20 -51 -20q-30 0 -50 20t-20 50zM20 276q0 31 20 50q20 21 50 21q31 0 50 -21q21 -20 21 -50t-21 -50q-19 -20 -50 -20t-50 20q-20 19 -20 50zM20 493q0 29 20 51q20 20 50 20q29 0 51 -20
q20 -22 20 -51q0 -30 -20 -50q-22 -20 -51 -20q-30 0 -50 20t-20 50zM20 63q0 31 20 51t50 20t50 -20q21 -21 21 -51q0 -31 -21 -50q-20 -20 -50 -20t-50 20q-20 19 -20 50z" />
    <glyph glyph-name="uni2074" unicode="&#x2074;" horiz-adv-x="367" 
d="M326 492h-58v-27q0 -29 10 -37.5t44 -11.5v-23h-184v23q41 3 52.5 11.5t11.5 37.5v27h-161v24q109 145 185 236h42v-222l58 1v-39zM202 531v144h-3q-47 -60 -105 -144h108z" />
    <glyph glyph-name="Euro" unicode="&#x20ac;" horiz-adv-x="741" 
d="M224 253q17 -99 77.5 -161t161.5 -62q122 0 226 101l18 -18q-41 -59 -117 -93q-75 -34 -154 -34q-134 0 -218.5 72.5t-106.5 194.5h-77l20 46h48v4q0 3 0.5 12t0.5 16q0 4 -0.5 16.5t-0.5 21.5h-68l20 46h57q26 114 115 187.5t216 73.5q77 0 149 -34t109 -83l-12 -27
q-109 104 -237 104q-80 0 -147 -56q-28 -25 -50 -70t-30 -95h414l-20 -46h-399q-1 -9 -1 -40q0 -23 1 -30h369l-20 -46h-344z" />
    <glyph glyph-name="minus" unicode="&#x2212;" horiz-adv-x="360" 
d="M333 165h-306v70h306v-70z" />
    <glyph glyph-name="uni2215" unicode="&#x2215;" horiz-adv-x="405" 
d="M6 -283h-59l415 1292h59z" />
    <glyph glyph-name="uni2219" unicode="&#x2219;" horiz-adv-x="149" 
d="M10 218q0 27 19 46t46 19t45.5 -19t18.5 -46t-18.5 -46t-45.5 -19t-46 19t-19 46z" />
    <glyph glyph-name="uni223B" unicode="&#x223b;" horiz-adv-x="887" 
d="M806 305q30 0 48 -14.5t18 -41.5q0 -17 -7 -35h-1q-50 -87 -188 -87q-73 0 -250 58q-156 51 -225 51q-4 0 -10 -0.5t-9 -0.5q-44 0 -54 -16q1 -6 1 -16q0 -60 -55 -60q-32 0 -48.5 19t-16.5 52q0 52 44 81t125 29q37 0 94 -12q37 -8 95 -24.5t124 -37.5t91 -28
q60 -16 98 -21q7 -1 19 -1q56 0 56 57q0 48 51 48zM390 365q0 26 18 44q16 18 43 18q26 0 44 -18t18 -44q0 -27 -18 -43q-18 -18 -44 -18q-27 0 -43 18q-18 16 -18 43zM390 73q0 26 18 44q16 18 43 18q26 0 44 -18t18 -44q0 -27 -18 -43q-18 -18 -44 -18q-27 0 -43 18
q-18 17 -18 43z" />
    <glyph glyph-name="similar" unicode="&#x223c;" horiz-adv-x="887" 
d="M806 305q30 0 48 -14.5t18 -41.5q0 -17 -7 -35h-1q-50 -87 -188 -87q-73 0 -250 58q-156 51 -225 51q-4 0 -10 -0.5t-9 -0.5q-44 0 -54 -16q1 -6 1 -16q0 -60 -55 -60q-32 0 -48.5 19t-16.5 52q0 52 44 81t125 29q37 0 94 -12q37 -8 95 -24.5t124 -37.5t91 -28
q60 -16 98 -21q7 -1 19 -1q56 0 56 57q0 48 51 48z" />
    <glyph glyph-name="uni223D" unicode="&#x223d;" horiz-adv-x="887" 
d="M806 146q-51 0 -51 48q0 58 -56 58q-5 0 -19 -2q-38 -5 -98 -21q-25 -7 -91 -28t-124 -37.5t-95 -24.5q-57 -12 -94 -12q-81 0 -125 29.5t-44 81.5q0 33 16.5 51.5t48.5 18.5q55 0 55 -59q0 -11 -1 -17q10 -16 54 -16q3 0 9 -0.5t10 -0.5q69 0 225 51q173 58 250 58
q138 0 188 -87h1q7 -18 7 -35q0 -27 -18 -41.5t-48 -14.5z" />
    <glyph glyph-name="uni2241" unicode="&#x2241;" horiz-adv-x="887" 
d="M509 323h64l-61 -80q57 -17 70 -21q60 -16 98 -21q7 -1 19 -1q56 0 56 57q0 48 51 48q30 0 48 -14.5t18 -41.5q0 -17 -7 -35h-1q-50 -87 -188 -87q-66 0 -216 47l-49 -65h-64l62 82q-143 45 -208 45q-4 0 -10 -0.5t-9 -0.5q-44 0 -54 -16q1 -6 1 -16q0 -60 -55 -60
q-32 0 -48.5 19t-16.5 52q0 52 44 81t125 29q37 0 94 -12t189 -53z" />
    <glyph glyph-name="uni25CC" unicode="&#x25cc;" horiz-adv-x="525" 
d="M263 59q15 0 24 -10t9 -25t-9.5 -24.5t-23.5 -9.5t-24 10t-10 24q0 13 10.5 24t23.5 11zM263 446q14 0 23.5 -10t9.5 -24q0 -15 -9 -25t-24 -10q-14 0 -24 10.5t-10 24.5q0 12 11 23t23 11zM69 244q14 0 23.5 -10t9.5 -25t-9 -24.5t-24 -9.5t-24.5 9.5t-9.5 24.5
q0 13 10.5 24t23.5 11zM457 244q14 0 23.5 -10t9.5 -25t-9 -24.5t-24 -9.5q-14 0 -24 10t-10 24q0 13 10.5 24t23.5 11zM129 112q15 0 24.5 -10t9.5 -25q0 -14 -10 -24t-24 -10t-24 10t-10 24q0 13 10.5 24t23.5 11zM394 112q15 0 24.5 -10t9.5 -25t-9.5 -24.5t-24.5 -9.5
q-13 0 -23 10t-10 24q0 12 10.5 23.5t22.5 11.5zM129 389q14 0 24 -10t10 -24q0 -15 -9.5 -25t-24.5 -10q-14 0 -24 10.5t-10 24.5q0 12 11 23t23 11zM394 395q15 0 24.5 -10t9.5 -25t-9.5 -25t-24.5 -10q-14 0 -23.5 10.5t-9.5 24.5q0 12 10.5 23.5t22.5 11.5z" />
    <glyph glyph-name="uni2626" unicode="&#x2626;" horiz-adv-x="756" 
d="M420 625v-75h250v-80h-250v-210l113 -64l-38 -72l-75 44v-168h-120v229l-119 58l28 76l91 -47v154h-250v80h250v75h-144v55h144v90h120v-90h144v-55h-144z" />
    <glyph glyph-name="uni263D" unicode="&#x263d;" horiz-adv-x="487" 
d="M26 780q0 5 38 5h5q125 0 218.5 -63t141.5 -156q38 -73 38 -178q0 -123 -61 -217t-157 -143q-58 -28 -217 -28q12 0 70 36q69 48 106 158q31 92 31 194q0 101 -30 194q-36 110 -103 156q-18 12 -38.5 22t-31 14t-10.5 6zM441 388q0 226 -208 338q-42 22 -96 36
q-6 0 -41 5q12 -4 59 -38q24 -20 39 -42.5t35 -69.5q42 -117 42 -218q0 -120 -29 -206q-5 -12 -8 -20.5t-7 -17.5t-5.5 -13.5t-6 -12t-6.5 -10.5t-8 -11.5t-8.5 -12t-11 -15.5t-13.5 -18q-5 -3 -19 -14.5t-25.5 -19.5t-17.5 -8q9 -2 14 -2l7 1q7 1 14 1q25 0 77 24
q68 26 135 104q68 80 78 152q10 67 10 88z" />
    <glyph glyph-name="uni263E" unicode="&#x263e;" horiz-adv-x="490" 
d="M462 780q0 -2 -10.5 -6t-31 -14t-38.5 -22q-67 -46 -103 -156q-30 -93 -30 -194q0 -102 31 -194q37 -110 106 -158q58 -36 70 -36q-159 0 -217 28q-96 49 -157 143t-61 217q0 105 38 178q48 93 141.5 156t218.5 63h5q38 0 38 -5zM47 388q0 -21 10 -88q10 -73 78 -151.5
t135 -104.5q52 -24 77 -24q7 0 14 -1l7 -1q5 0 14 2q-6 0 -17.5 8t-25.5 19.5t-19 14.5q-5 6 -13.5 18t-11 15.5t-8.5 12t-8 11.5t-6.5 10.5t-6 12t-5.5 13.5t-7 17.5t-8 20.5q-29 86 -29 206q0 101 42 218q20 47 35 69.5t39 42.5q47 34 59 38q-35 -5 -41 -5
q-54 -14 -96 -36q-208 -112 -208 -338z" />
    <glyph glyph-name="uni271A" unicode="&#x271a;" horiz-adv-x="720" 
d="M292 48v277h-275v120h275v277h120v-277h279v-120h-279v-277h-120z" />
    <glyph glyph-name="uni2720" unicode="&#x2720;" horiz-adv-x="594" 
d="M275 359q0 92 -43.5 145t-119.5 53v21h368v-21q-84 0 -133 -79q-30 -50 -30 -87v-45h13q119 0 175 83q23 38 23 83h26v-371h-26q0 74 -54.5 119.5t-132.5 45.5h-24v-14q0 -82 44 -138t119 -56v-23h-368v23q55 0 95.5 32.5t58.5 84.5q9 24 9 76v15h-13q-76 0 -129 -39
q-68 -46 -68 -126h-24v371h24q0 -43 17 -75q52 -91 175 -91h18v13z" />
    <glyph glyph-name="uni2734" unicode="&#x2734;" horiz-adv-x="722" 
d="M213 243q-23 33 -29 69h-136v66h135q5 31 21 59l6 10l-97 97l46 46l97 -97q30 21 68 29v140h65v-140q27 -4 57 -20l16 -10l98 98l46 -46l-99 -100q19 -26 26 -66h140v-66h-141q-8 -42 -28 -67l99 -99l-46 -47l-100 100l-10 -6q-30 -16 -58 -20v-140h-65v140q-38 8 -63 25
l-96 -96l-47 46z" />
    <glyph glyph-name="uni29DF" unicode="&#x29df;" horiz-adv-x="731" 
d="M253 254q0 33 -24 58.5t-55 25.5q-32 0 -55.5 -25t-23.5 -59t23.5 -59t54.5 -25q32 0 56 25t24 59zM636 254q0 33 -23.5 58.5t-54.5 25.5q-32 0 -56 -25t-24 -59t23.5 -59t54.5 -25q32 0 56 25t24 59zM301 231q-8 -47 -44 -79t-84 -32q-54 0 -91 40.5t-37 93.5
q0 54 38 94t91 40q48 0 84 -33.5t43 -80.5h129q8 48 43.5 81t84.5 33q53 0 90.5 -40.5t37.5 -93.5q0 -54 -37.5 -94t-92.5 -40q-47 0 -82.5 32.5t-43.5 78.5h-129z" />
    <glyph glyph-name="uni2DE0" unicode="&#x2de0;" 
d="M-278 521l11 235h174l5 -4l-1 -6l-21 -51l-5 -6l-7 6q-10 32 -23 38l-27 1l-37 -1q-2 -1 -3 -2t-2 -1.5t-1 -2.5v-3.5v-6v-8.5l-4 -57l73 1q8 -11 14 -20.5t11 -19t8.5 -15.5t7.5 -17t6.5 -17t7.5 -20.5t9 -22.5h-196zM-142 541q-1 3 -4.5 10l-4.5 9l-4 8t-4.5 8.5
l-4.5 7.5t-5 8t-5 7t-6 7.5t-7 7.5h-32l-4 -73h81z" />
    <glyph glyph-name="uni2DE1" unicode="&#x2de1;" 
d="M-11 521h-278q-6 0 -9 5.5t-3 12.5q0 16 12 16h10q12 50 12 169h-27q-13 0 -13 19q0 18 13 18h244q10 0 10 -18.5t-10 -18.5h-18q4 -79 7 -101q6 -42 19 -68h31q9 0 9 -19q0 -15 -9 -15zM-119 555q-11 70 -11 141v15.5v12.5h-71q0 -59 -1 -97q0 -42 -3 -72h86z" />
    <glyph glyph-name="uni2DE2" unicode="&#x2de2;" 
d="M-57 708q-26 -26 -47 -70q-10 -17 -14 -17q-5 0 -10 16q-9 31 -15 63h-69q-5 0 -5 -8v-164q0 -8 -5 -8h-59q-6 0 -6 8v201q0 11 6 11h217q14 0 14 -14q0 -11 -7 -18z" />
    <glyph glyph-name="uni2DE3" unicode="&#x2de3;" 
d="M84 618q10 0 10 -10q0 -13 -11 -23q-26 -24 -50 -62q-1 -3 -5.5 -3t-5.5 3q-4 25 -26 55h-244q-16 -22 -24 -54q-1 -4 -7 -4t-9 4q-31 43 -53 61q-8 7 -8 19q0 14 12 14h125q9 30 24 59q17 33 39 58q-26 43 -32 56l-15 4q-19 -50 -51 -91q-7 -10 -16 -10h-63
q-6 0 -5.5 7.5t5.5 12.5q36 37 78 121q5 10 29 4q49 -16 102 -26q3 0 12 -13q5 -8 50 -86.5t55 -95.5h84zM-80 618q-39 65 -49 82q-16 -22 -26 -40q-8 -13 -19 -42h94z" />
    <glyph glyph-name="uni2DE4" unicode="&#x2de4;" 
d="M-227 596q-15 -15 -48 -40t-51 -36q-19 -12 -24 2q-4 9 5 16q23 15 52.5 42.5t41.5 47.5q-5 5 -23 30t-45.5 50t-74.5 52q25 37 64 44q14 -3 34 -16t38.5 -29.5t27.5 -30.5q12 19 19 48t8 48q0 1 3 1q9 0 32.5 -7t24.5 -10v-5q0 -28 -19 -78q20 16 57 34.5t59 18.5
q17 0 31 -7l10 -5l9 -4.5t6.5 -3.5t5 -4.5t1.5 -5.5v-2q-2 -10 -12.5 -39t-17.5 -39q-8 -8 -18 -8q-9 0 -18.5 5.5t-9.5 11.5q0 9 5.5 23.5t5.5 18.5q0 3 -3 4q-2 1 -7 1q-25 0 -65 -23t-56 -45q17 -27 34.5 -47t37.5 -37t25 -23q5 -5 5 -10q0 -8 -12.5 -14.5t-24.5 -6.5
q-6 0 -8 1q-61 26 -105 77z" />
    <glyph glyph-name="uni2DE5" unicode="&#x2de5;" 
d="M-445 751q0 25 19 43.5t45 18.5q17 0 29 -10q67 42 129 42q21 0 47 -6.5t27 -14.5q13 -64 34 -104q9 -12 28 -12q28 2 44 2q93 0 93 -70q0 -13 -3 -28q-8 -43 -35 -65.5t-84 -24.5q-14 -1 -24 -1q-45 0 -72 22q-12 9 -12 22q0 14 14 14q8 0 18 -6q2 -1 15.5 -14.5
t22.5 -14.5t17 -1q98 0 98 72v5q-1 26 -90 26q-15 0 -41 -1t-31 -1q-9 0 -16 9q-41 66 -53 160q-4 7 -9 7q-41 0 -99 -38q1 -8 1 -15q0 -33 -21 -49q-18 -16 -41 -16q-11 0 -20 5q-48 -57 -48 -80q0 -2 1 -4q0 -20 41 -20q9 0 9 -8.5t-12 -9.5h-7q-31 0 -56 12q-10 4 -10 24
q6 44 59 104q-7 12 -7 26z" />
    <glyph glyph-name="uni2DE6" unicode="&#x2de6;" 
d="M-236 521h-64l2 139l2 95h66l-6 -117v-117zM-90 705q-35 12 -42 12q-5 0 -10 -1.5t-9.5 -4.5t-8 -6t-7.5 -8.5t-6.5 -9t-6 -10t-5 -9.5l-5 -10l-4.5 -9l5 -1q55 0 87 -25q32 -24 49 -102h-66q-4 0 -6 5l1 16q0 36 -15.5 55.5t-44.5 29.5q-2 1 -5.5 1.5t-6.5 1l-6 1
t-5.5 0.5t-4.5 0.5t-3 1t-1 1.5q0 11 11 38q9 22 31.5 49t48.5 42q20 11 41 11q7 0 13 -6l-10 -15q-9 -10 -9 -23l3 -17l1 -5z" />
    <glyph glyph-name="uni2DE7" unicode="&#x2de7;" 
d="M-186 755h71q0 -94 26 -217l2 -10q0 -8 -9 -8l-56 1q-6 3 -17 70l-9 64l-8 -4q-9 -14 -15 -23.5t-13 -23t-10.5 -28.5t-3.5 -31q0 -15 5 -24h-63q-8 2 -8 5q0 13 42.5 76.5t52.5 73.5q5 6 9.5 11t6.5 8l2 3q0 3 2 4l-3 27q-3 21 -4 26z" />
    <glyph glyph-name="uni2DE8" unicode="&#x2de8;" 
d="M-157 654q-7 -24 -13 -40t-17.5 -38t-28 -34t-37.5 -12q-11 0 -23 6t-20.5 16t-12.5 19q-13 23 -24 94l-9 -60q-5 -31 -30 -58.5t-57 -27.5q-70 0 -89 61q-2 12 -2 18q0 12 8 21q15 10 46 10q9 0 12 -1.5t6 -7.5q8 -38 11 -46q10 -9 22 -9q23 0 41 41q5 15 8.5 34.5t7 43
t5.5 36.5l8 40l7 8l65 10q7 0 13 -10v-71q0 -109 41 -109q33 0 53 76l3 17q-2 21 -2 48q0 20 1 35q1 4 1 10q0 8 4 13q2 1 2 2l71 9q4 -3 5 -5l3 -47l8 -114q0 -2 1.5 -9t2 -9.5t1.5 -8.5t2 -8.5l3 -7.5t4 -7.5t5 -5.5t6 -5t7 -3q11 -4 31 -6q20 0 20 -9l-4 -14
q-18 -29 -58 -29q-29 0 -54 15.5t-36 36.5q-3 6 -6 14.5t-5 19.5t-3 18t-2.5 21t-1.5 19z" />
    <glyph glyph-name="uni2DE9" unicode="&#x2de9;" 
d="M-281 739h61v-82h116v85h55v-221h-55v95h-116v-95h-61v218z" />
    <glyph glyph-name="uni2DEA" unicode="&#x2dea;" 
d="M-166 519q-55 9 -88 52q-22 27 -22 58q0 38 25.5 69t59.5 50q49 -5 87 -48q21 -24 21 -64q0 -30 -14 -51q-31 -49 -69 -66zM-189 684q-16 0 -25.5 -10t-9.5 -26q0 -12 4.5 -23.5t12.5 -21t19 -15.5t22 -6q17 0 27.5 12t10.5 29q0 26 -18 43.5t-43 17.5z" />
    <glyph glyph-name="uni2DEB" unicode="&#x2deb;" 
d="M-133 636q0 33 5 82h-83q-5 -52 -5 -90q0 -30 5 -108h-67q0 6 -2.5 56.5t-2.5 58.5q0 91 5 109h219q-8 -66 -8 -116q0 -30 5 -108h-66q0 7 -2.5 58t-2.5 58z" />
    <glyph glyph-name="uni2DEC" unicode="&#x2dec;" 
d="M-266 512q8 28 8 54q0 20 -4 69.5t-4 65.5q0 27 31 40.5t67 13.5q16 0 31.5 -4t29 -11t22 -19.5t8.5 -27.5v-2q-1 -26 -25 -41.5t-53 -15.5q-7 0 -13 1q-20 1 -37 14l9 -101v-1q0 -10 -17.5 -19t-34.5 -12zM-201 691q9 -30 33 -30q12 0 21 8.5t11 21.5v2q0 9 -4.5 18
t-12 14.5t-15.5 5.5q-14 -1 -23.5 -12t-9.5 -25v-3z" />
    <glyph glyph-name="uni2DED" unicode="&#x2ded;" 
d="M-116 721q5 -8 5 -22q0 -17 -7 -24q-6 -5 -10 -4.5t-11 2.5t-10 2q-14 -1 -22 -16t-8 -39v-4q0 -15 8 -27t20 -18t25 -6h2q11 0 11 -18q0 -9 -5 -14q-14 -13 -43 -13q-38 0 -63 30t-25 71q0 47 28 84t60 37q33 0 45 -21z" />
    <glyph glyph-name="uni2DEE" unicode="&#x2dee;" 
d="M-398 623q0 6 -1.5 9.5t-3.5 6t-5 5.5t-7 10q-5 9 -3.5 19.5t12.5 10.5h592q11 0 13 -12t-5 -18q-9 -8 -19 -18.5t-19 -22.5t-16.5 -23.5t-11.5 -20.5q-2 -6 -8 -13t-14 -7t-13.5 7.5t-10.5 15.5q-14 23 -24 41t-20 31h-318q-9 0 -9 -10v-98q0 -6 -3 -11t-9 -5h-83
q-6 0 -10 5t-4 11v82v5z" />
    <glyph glyph-name="uni2DEF" unicode="&#x2def;" 
d="M-227 596q-15 -15 -48 -40t-51 -36q-19 -12 -25 2q-3 9 6 16q10 7 23.5 18t27 23.5t25.5 25.5t18 23q-7 7 -16 19.5t-21 27.5t-28 29q-31 29 -78 56q24 38 64 44q14 -3 38.5 -18.5t46.5 -35.5q32 -30 45 -60q35 33 58 50q54 38 96 38q17 0 31 -7l10 -5l9 -4.5t6.5 -4
t5 -4.5t1.5 -5v-2q-2 -10 -12.5 -39t-17.5 -39q-7 -8 -18 -8q-10 0 -19 5t-9 12q0 9 5.5 24t5.5 18t-3 4t-7 1q-13 0 -30.5 -7t-35 -17t-32.5 -22t-23 -22q16 -27 34 -47t38 -37t25 -23q5 -5 5 -10q0 -4 -3.5 -8.5t-9 -7t-12 -4t-12.5 -1.5q-5 0 -8 1q-61 26 -105 77z" />
    <glyph glyph-name="uni2DF0" unicode="&#x2df0;" 
d="M-220 765q-5 -66 -5 -157q0 -19 4.5 -25t21.5 -6h28q9 0 12 3t3 10q0 2 -0.5 4.5t-0.5 4.5v54q0 72 5 112h54q-7 -65 -7 -142l1 -38q2 -8 22 -8h18q12 -3 12 -8q-4 -7 -8.5 -27t-4.5 -22q-3 -7 -9 -27l-5 -4q-8 0 -11 2t-4 8.5t-1 20.5q0 22 -3.5 25.5t-24.5 3.5h-131
q-6 0 -12.5 0.5l-6.5 0.5q-5 3 -5 15q0 123 4 200h54z" />
    <glyph glyph-name="uni2DF1" unicode="&#x2df1;" 
d="M-284 739h80q-2 -11 -2 -26q0 -37 17 -51q10 -7 27 -11t30 -5h12v93h66v-219h-66v93q-69 0 -100 17q-33 17 -46 41.5t-18 67.5z" />
    <glyph glyph-name="uni2DF2" unicode="&#x2df2;" 
d="M-20 610q0 -10 2 -45t2 -44h-280l-1 70q0 82 3 128h50q-7 -109 -7 -115l1 -22l1 -22q0 -9 3 -10q0 -3 15 -3h43q6 0 6 19q0 18 3.5 77t3.5 76h45q0 -45 -2 -67q0 -22 -2 -68v-14l2 -20l20 -3h33q16 0 16 6l-1 20l-2 33q0 62 9 113h41q3 0 5 -1l2 -2l-4 -22q-7 -30 -7 -84
z" />
    <glyph glyph-name="uni2DF3" unicode="&#x2df3;" 
d="M-294 642q0 57 3 99h45q0 -7 -3 -36t-3 -52l1 -35l1 -20q0 -8 2 -9q0 -3 14 -3h39q6 0 6 17t3 70t3 68h41q0 -41 -2 -61q0 -3 -2 -45v-28l2 -18l18 -3h30q15 0 15 6l-1 18l-2 45q0 40 8 86h38q2 0 4 -1l2 -2l-4 -20q-6 -27 -6 -76q0 -9 2 -41t2 -40h-76l-26 -2
q-2 0 -5 -10q0 -29 -8 -51q-6 -17 -15 -17l-4 5l1 18q0 46 -19 55q-8 2 -21 2h-82z" />
    <glyph glyph-name="uni2DF4" unicode="&#x2df4;" 
d="M-13 604q-4 -10 -19 -41.5t-21 -49.5h-6q-2 7 -5.5 26t-5.5 27q-11 34 -31 34l-8 -1q-13 -52 -33 -75q-9 -11 -20 -11q-4 0 -8 2.5t-7.5 7.5t-6 10t-5 13t-4 12.5t-3.5 12t-2 9.5q-4 14 -5 20h-29l-6 -79h-53v78q0 11 7 17h77q-4 30 -4 58q0 31 8.5 65.5t20.5 56.5
q10 18 24 18q18 0 34 -43q20 -53 20 -109q0 -23 -1 -45h85q6 -4 7 -13zM-161 733q-13 -13 -13 -42v-92h34v79q0 42 -21 55z" />
    <glyph glyph-name="uni2DF5" unicode="&#x2df5;" 
d="M-75 616q6 -2 6 -16q0 -34 -47 -60q-41 -22 -77 -22q-29 0 -45 16t-16 45q0 75 109 111l6 -5q-8 -7 -22 -20.5t-17 -16.5q-20 -21 -20 -51.5t40 -30.5q14 0 27 5.5t19 11t17 18t14 15.5h6zM104 707q4 0 4 -3l-22 -134l-88 11l16 99q-36 2 -64.5 16.5t-55.5 31.5t-55.5 31
t-64.5 14q-11 0 -21.5 -3.5t-22 -17t-24.5 -41.5t-29 -78q-16 -7 -32 -10.5t-33 -5.5q-5 -1 -9.5 2t-7.5 6q28 62 62.5 103t70.5 65.5t71 34.5t64 10q27 0 54.5 -21.5t56.5 -46.5t61 -45q29 -18 62 -18h7z" />
    <glyph glyph-name="uni2DFD" unicode="&#x2dfd;" 
d="M-244 611q-15 -18 -20 -29.5t-5 -38.5v-22h-50q0 45 13 67q13 24 44 56q35 35 41 48q11 14 11 38l-3 26h66q0 -43 39 -88t54 -72q14 -23 24 -75h-59q0 18 -4.5 31.5t-7 19t-15.5 20t-16 19.5h-26v-38l1 -52h-52l1 90h-36zM-232 633h92q-28 32 -34 44q-7 13 -14 22
q-11 -23 -19 -34q-10 -15 -25 -32z" />
    <glyph glyph-name="uni2E2A" unicode="&#x2e2a;" horiz-adv-x="544" 
d="M443 232q-28 0 -47 19.5t-19 47.5q0 27 19 46t47 19t47 -19t19 -46q0 -28 -19 -47.5t-47 -19.5zM76 232q-27 0 -46.5 19.5t-19.5 47.5q0 27 19.5 46t46.5 19q28 0 47.5 -19t19.5 -46q0 -28 -19.5 -47.5t-47.5 -19.5zM194 125q0 27 19 46.5t47 19.5q27 0 46 -19.5
t19 -46.5q0 -28 -18.5 -47.5t-46.5 -19.5t-47 19.5t-19 47.5z" />
    <glyph glyph-name="uni2E2B" unicode="&#x2e2b;" horiz-adv-x="544" 
d="M443 190q28 0 47 -19.5t19 -46.5q0 -28 -19 -47t-47 -19t-47 19t-19 47q0 27 19 46.5t47 19.5zM76 190q28 0 47.5 -19.5t19.5 -46.5q0 -28 -19.5 -47t-47.5 -19q-27 0 -46.5 19t-19.5 47q0 27 19.5 46.5t46.5 19.5zM194 297q0 28 19 47.5t47 19.5t46.5 -19.5t18.5 -47.5
q0 -27 -19 -46.5t-46 -19.5q-28 0 -47 19.5t-19 46.5z" />
    <glyph glyph-name="uni2E2C" unicode="&#x2e2c;" horiz-adv-x="500" 
d="M324 376q0 30 20 50q20 21 50 21t51 -21q20 -20 20 -50t-20 -50t-51 -20t-50 20q-20 20 -20 50zM6 376q0 31 20 50q20 21 50 21t50 -21q21 -20 21 -50t-21 -50q-19 -20 -50 -20t-50 20q-20 19 -20 50zM324 63q0 29 20 51q20 20 50 20q29 0 51 -20q20 -22 20 -51
q0 -30 -20 -50q-22 -20 -51 -20q-30 0 -50 20t-20 50zM6 63q0 31 20 51t50 20t50 -20q21 -21 21 -51q0 -31 -21 -50q-20 -20 -50 -20t-50 20q-20 19 -20 50z" />
    <glyph glyph-name="uni2E2D" unicode="&#x2e2d;" horiz-adv-x="514" 
d="M200 217q0 23 16 39t39 16t38.5 -16t15.5 -39t-15.5 -39t-38.5 -16t-39 16t-16 39zM424 163q-23 0 -39 16t-16 39t16 38.5t39 15.5t39 -15.5t16 -38.5t-16 -39t-39 -16zM85 163q-23 0 -39 16t-16 39t16 38.5t39 15.5t39 -15.5t16 -38.5t-16 -39t-39 -16zM200 48
q0 23 16 39t39 16t38.5 -16t15.5 -39t-15.5 -39t-38.5 -16t-39 16t-16 39zM200 387q0 23 16 39t39 16t38.5 -16t15.5 -39t-15.5 -39t-38.5 -16t-39 16t-16 39z" />
    <glyph glyph-name="uni2E2F" unicode="&#x2e2f;" horiz-adv-x="183" 
d="M18 539q-9 -5 -13 5t3 13l43 24q0 38 -8 55q-21 54 -21 82q0 12 1 17l125 70q4 2 6 2q10 0 10 -10q0 -6 -6 -10l-48 -28q29 -71 36 -124q2 -16 1 -23z" />
    <glyph glyph-name="uni2E34" unicode="&#x2e34;" horiz-adv-x="304" 
d="M181 273q0 30 -16.5 51.5t-42.5 21.5q-37 0 -73 -41q-5 -5 -10.5 -3.5t-5.5 6.5q0 3 1 4q21 48 66 93q37 37 81 37q37 0 55 -29.5t18 -74.5q0 -98 -79 -163q-9 -9 -36.5 -29t-38.5 -20q-10 0 -3 9q1 3 4 5q57 33 75 98q5 20 5 35z" />
    <glyph glyph-name="uni2E43" unicode="&#x2e43;" horiz-adv-x="860" 
d="M687 298h121l42 -30h-13q-14 0 -44.5 -1t-48.5 -1l-143 -6h-53h-59q-298 0 -416 70q-47 28 -61 74q0 2 -1 5q-1 4 -1 5q0 40 86 40q38 0 59 -6q7 -52 30.5 -80t72.5 -42q65 -20 234 -26q55 -2 195 -2z" />
    <glyph glyph-name="uniA640" unicode="&#xa640;" horiz-adv-x="526" 
d="M506 -63q0 -82 -58 -137q-60 -58 -130 -92l-14 38q31 29 51 59q21 28 21 68q0 59 -56 103q-43 28 -82 28h-18q-24 0 -70 -1.5t-68 -1.5q-29 0 -54 31q-12 24 -12 61q0 34 31 78q23 31 102 117l99 103l135 131q55 56 55 88q0 8 -7 14q-8 4 -31 4h-85q-55 0 -77 -5
q-52 -15 -52 -85q0 -49 16 -109h-59q-5 24 -17 70q-8 30 -25 67q-25 54 -25 81q0 9 6 23q6 15 25 15l58 -4l65 -3h70h70h69q33 0 45 -7q18 -11 18 -38q0 -16 -5 -32t-16 -33.5t-18.5 -28.5t-22 -28.5t-17.5 -21.5l-46 -60q-130 -166 -186 -253q-29 -55 -29 -83q0 -18 10 -27
q4 -4 11 -5.5t12 -1.5h5q1 0 79 3q96 0 140 -19q87 -38 87 -106z" />
    <glyph glyph-name="uniA641" unicode="&#xa641;" horiz-adv-x="526" 
d="M279 42q53 0 89.5 -4.5t70 -16.5t50.5 -36.5t17 -62.5q0 -56 -66 -119q-49 -42 -122 -66l-14 26q27 18 49.5 50.5t22.5 64.5q0 75 -56 105q-42 19 -82 19h-71l-85 -2h-2q-32 0 -52 18q-12 16 -12 45q0 27 31 54q160 138 296 241q55 41 55 60q0 13 -28 13h-10h-85
q-59 0 -74 -9t-15 -53q0 -34 16 -75h-59q-13 42 -42 94q-2 4 -8.5 14.5t-9 15t-5 12t-2.5 14.5q0 11 8.5 18.5t22.5 7.5l58 -3l65 -2h105h57q18 0 26.5 -0.5t20.5 -3t17.5 -9.5t5.5 -18q0 -31 -68 -99q-145 -146 -203 -215q-29 -35 -29 -57q0 -24 40 -24q3 0 8 0.5t7 0.5z
" />
    <glyph glyph-name="uniA64A" unicode="&#xa64a;" horiz-adv-x="552" 
d="M510 130q0 -67 -55 -99t-146 -32t-146 32t-55 99q0 65 52 97t139 34l4 71h-189v40h54q-26 138 -89 264h-54v40h241v-40h-54q44 -114 69 -264h24l1 11q4 71 23 124q24 67 52 105q50 66 118 66q41 0 41 -16q0 -4 -3 -9q-31 -56 -31 -107v-8q0 -7 -4 -11t-10 -1
q-25 11 -56 11q-41 0 -61 -46q-26 -61 -29 -110l-6 -121q78 -6 124 -37.5t46 -92.5zM414 107h-210v40h89l4 74q-149 -4 -149 -91q0 -91 161 -91t161 91q0 83 -132 90l-4 -73h80v-40z" />
    <glyph glyph-name="uniA64B" unicode="&#xa64b;" horiz-adv-x="440" 
d="M262 297q27 -21 51 -47q46 -48 46 -113q0 -61 -44 -99t-108 -38q-56 0 -96 34.5t-40 89.5t30 85q17 17 51 53q-116 100 -116 244q0 13 22 39.5t51 42.5q7 4 16 4t17 -5t8 -13q0 -6 -6 -29t-6 -27q0 -115 79 -185q8 9 21 24.5t19 22.5q45 53 69 129.5t33 202.5
q-17 -12 -39.5 -34.5t-36.5 -32.5q-2 -2 -6 -2q-10 0 -20.5 8t-10.5 16q0 2 1 4q29 43 111 125q6 6 25 6q16 0 22 -4q10 -7 10 -46q0 -261 -114 -406q-26 -32 -39 -49zM199 225q-24 -26 -37 -39q-25 -25 -25 -56q0 -30 19 -50t55 -20q20 0 38.5 23t18.5 49q0 31 -23 54
q-15 16 -46 39z" />
    <glyph glyph-name="uniA64C" unicode="&#xa64c;" horiz-adv-x="1036" 
d="M467 508q0 -30 -13 -47t-38 -17q-12 0 -24.5 6t-20.5 15t-10 19q-16 93 -41.5 118t-57.5 25q-61 0 -91 -68q-16 -36 -24 -96t-8 -97q0 -165 43 -236q45 -76 98 -76q56 0 193 121q17 15 35.5 35.5t39.5 23.5h6l2 -2q52 -93 88 -135q36 -41 91 -41q28 0 64 17q64 31 99 165
q14 57 14 100q0 133 -41 210q-38 70 -112 70q-31 0 -53 -24q-10 -13 -36 -131q-6 -28 -43 -28q-54 0 -54 78q0 40 18 72.5t44.5 52t60.5 31.5q33 11 63 11q114 0 186 -92q73 -95 73 -254q0 -77 -21.5 -139.5t-60.5 -106t-93 -68.5q-53 -25 -117 -25q-62 0 -126 47
q-28 20 -50 42l-39 40l-45 -42l-52 -38q-73 -50 -141 -50q-61 0 -104 30q-66 47 -103 133t-37 196q0 103 36.5 185t99.5 124q42 27 92 27q67 0 116.5 -26.5t74.5 -72.5q19 -34 19 -82z" />
    <glyph glyph-name="uniA64D" unicode="&#xa64d;" horiz-adv-x="870" 
d="M843 210q0 -96 -68 -154.5t-176 -58.5q-13 0 -25 1.5t-24.5 5.5t-22 7t-22 10.5t-19 11t-19 12t-16 11t-15.5 12t-13 10.5q-108 -82 -201 -82q-87 0 -142.5 67.5t-55.5 158.5q0 85 54 148t135 63q44 0 82 -11.5t65 -38t27 -64.5q0 -20 -12.5 -30.5t-30.5 -10.5
q-33 0 -45 26q-22 46 -82 46q-46 0 -74 -35.5t-28 -84.5q0 -61 35.5 -99t99.5 -38q88 0 142 36q4 3 13.5 10.5t16.5 12.5t16 9.5t16 4.5q3 0 8 -4.5t12 -12t12 -11.5q16 -14 29 -22.5t36.5 -16t50.5 -7.5q67 0 110 32t43 92q0 53 -33.5 87.5t-92.5 34.5q-25 0 -41 -11.5
t-33 -35.5q-12 -17 -37 -17q-43 0 -43 49q0 8 2 15q14 42 56 65.5t96 23.5q94 0 154 -59t60 -158z" />
    <glyph glyph-name="uniA656" unicode="&#xa656;" horiz-adv-x="777" 
d="M322 251q0 25 14 42.5t35 24.5q-10 13 -10 26q0 58 41 84q23 15 70 32l47 17l4 2t3.5 2t3.5 1.5t3.5 1.5t3.5 1.5t3 1.5h-149q-7 -18 -23 -29.5t-36 -11.5q-13 0 -25 5t-20.5 14.5t-12.5 21.5h-80v-447h54v-40h-226v40h54v596h-54v40h226v-40h-54v-109h80q3 9 8.5 16.5
t13 13t17 8.5t19.5 3q20 0 36 -11.5t23 -29.5h192v109h-54v40h226v-40h-54v-596h54v-40h-206v40h34v404q-6 -6 -25 -22.5t-34 -31.5t-27 -31q-18 -24 -23 -64q23 -22 23 -53q0 -27 -16.5 -45t-39.5 -24v-53q0 -13 6.5 -27t20 -27.5t32.5 -23.5q11 -6 11 -24t-16 -18h-163
q-16 0 -16 17q0 16 11 23q59 38 59 80v56q-19 6 -33 17t-22.5 26t-8.5 32zM473 378q28 33 62 58q-5 -3 -23 -10.5t-35 -16.5t-30 -19q-10 -8 -14 -15t-9 -23q-4 -15 1 -22q1 -2 8.5 -5t8.5 -2q4 2 9 15q10 26 22 40z" />
    <glyph glyph-name="uniA657" unicode="&#xa657;" horiz-adv-x="580" 
d="M161 111q0 -18 1.5 -44.5t1.5 -40.5q0 -26 -13 -26h-73q-6 0 -10.5 5t-4.5 11q-1 27 -1 65q0 125 13 342q0 2 0.5 4t1.5 3.5t2.5 3t3.5 2.5t4 1h72q6 0 11.5 -6.5t5.5 -14.5q0 -9 -5 -62h236q0 41 2 65q0 6 4.5 12t10.5 6h71q13 0 13 -18q0 -7 -2.5 -58t-2.5 -88
q0 -58 7 -126t17 -111q1 -4 1 -10q0 -26 -15 -26h-69q-12 0 -18 17q-7 17 -14 102q-57 -83 -99 -105q-25 -14 -50 -14q-16 0 -28 7q-8 5 -13.5 22t-5.5 29q0 33 9.5 58t18 36t33.5 40q11 13 37.5 41t43.5 48q15 18 27 33h-216q-8 -131 -8 -203zM294 99q0 -12 10 -12
q17 0 55 46q29 34 47 79v18v19v19q-55 -65 -82 -102q-30 -42 -30 -67z" />
    <glyph glyph-name="uniA66F" unicode="&#xa66f;" horiz-adv-x="1" 
d="M13 642q0 -8 -5.5 -13.5t-14.5 -5.5q-36 -1 -72 -1q-86 0 -191 5v-80q0 -11 -12 -11h-79q-13 0 -13 13v84q-1 0 -3 0.5t-3 0.5q-17 2 -17 23q0 10 5.5 17.5t14.5 7.5h2q111 -19 249 -19v89q0 13 13 13h79q12 0 12 -11v-92q3 0 7.5 0.5t7.5 0.5q9 0 14.5 -6t5.5 -15z" />
    <glyph glyph-name="uniA673" unicode="&#xa673;" horiz-adv-x="556" 
d="M488 534h-135l-65 -108l-59 116h-133l72 115l-69 108l135 -2l49 115l61 -115h137l-65 -118zM439 564l-61 84l55 87h-102l-46 86l-37 -86h-101l55 -80l-58 -85h100l44 -87l49 81h102z" />
    <glyph glyph-name="uniA675" unicode="&#xa675;" horiz-adv-x="5" 
d="M-244 623q-2 5 1 9t8 4h49q4 0 8 -4.5t5 -8.5l29 -109q2 -5 -2 -9t-9 -4h-47q-4 0 -8 4.5t-5 8.5l-28 106zM-370 623q-2 5 1 9t8 4h49q4 0 8 -4.5t5 -8.5l29 -109q2 -5 -2 -9t-9 -4h-47q-4 0 -10 4.5t-7 8.5l-24 106z" />
    <glyph glyph-name="uniA67C" unicode="&#xa67c;" 
d="M-21 708q-1 -84 -46.5 -141t-117.5 -57q-46 0 -83.5 25t-59 70t-21.5 101v2h60v-3q0 -57 29 -96t75 -39q48 0 75.5 40t28.5 98h60z" />
    <glyph glyph-name="uniA67D" unicode="&#xa67d;" horiz-adv-x="1" 
d="M-90 739q7 4 12.5 1.5t8 -7.5t1.5 -12.5t-7 -14.5q-7 -8 -19 -20.5t-21 -20.5q-2 -2 -0.5 -4t3.5 -4q8 -8 16 -17l18 -20q7 -8 6.5 -18t-8.5 -16q-23 -17 -47 -30l-42 -25q-5 -3 -11.5 -1.5t-11.5 5.5t-7 8.5t3 9.5q9 8 18 19l17 19q4 4 -1 10q-4 5 -15.5 18t-17.5 21
q-8 9 -6.5 20.5t9.5 16.5q24 17 51.5 34t50.5 28z" />
    <glyph glyph-name="uniA67E" unicode="&#xa67e;" horiz-adv-x="362" 
d="M349 708q-1 -84 -46.5 -141t-117.5 -57q-70 0 -117 55.5t-47 140.5v2h60v-3q0 -57 29 -96t75 -39q48 0 75.5 40t28.5 98h60z" />
    <glyph glyph-name="uniA67F" unicode="&#xa67f;" horiz-adv-x="185" 
d="M131 739q7 4 12.5 1.5t8 -7.5t1.5 -12.5t-7 -14.5q-7 -8 -19 -20.5t-21 -20.5q-2 -2 -0.5 -4t3.5 -4q8 -8 16 -17l18 -20q7 -8 6.5 -18t-8.5 -16q-23 -17 -47 -30l-42 -25q-5 -3 -11.5 -1.5t-11.5 5.5t-7 8.5t3 9.5q9 8 18 19l17 19q4 4 -1 10q-4 5 -15.5 18t-17.5 21
q-8 9 -6.5 20.5t9.5 16.5q24 17 51.5 34t50.5 28z" />
    <glyph glyph-name="uni0486.upper" unicode="&#xe000;" horiz-adv-x="1" 
d="M-105 922q0 -86 -56 -139q-14 -13 -28 -2q-3 2 -4 6t-0.5 7.5t2.5 8.5t2 7q12 44 12 75q0 23 -18.5 46.5t-46.5 23.5q-31 0 -53.5 -21t-23.5 -59v-12q0 -23 12 -42q4 -6 2.5 -16t-8.5 -14q-3 -2 -7 -2q-16 0 -28 16q-27 35 -27 91q0 66 39 107.5t105 41.5
q49 0 87.5 -37.5t38.5 -85.5z" />
    <glyph glyph-name="uni04860301" unicode="&#xe001;" horiz-adv-x="1" 
d="M-226 533q-5 -1 -9 -1q-5 0 -8.5 1t-6.5 2.5t-4.5 4.5t-1.5 6q0 8 10 16q48 41 48 90v3q-1 17 -12 29t-27 12q-48 0 -48 -53q-1 -9 -12.5 -8t-16.5 7q-14 15 -14 44q0 35 28.5 57.5t66.5 22.5q42 0 73 -28.5t31 -69.5q0 -47 -31 -86t-66 -49zM-101 534q-9 -15 -26 -15
q-4 0 -7 1q-13 4 -13 23q0 7 2 12l87 196q7 14 22 14h57q6 0 11 -6t2 -11z" />
    <glyph glyph-name="uni04860301.upper" unicode="&#xe002;" horiz-adv-x="1" 
d="M-384 779q0 -5 -1.5 -9.5t-5 -8t-8.5 -3.5q-12 0 -23 17q-16 23 -21.5 43t-5.5 50q0 67 40.5 115t105.5 48q49 0 87.5 -37.5t38.5 -85.5q0 -87 -84 -146q-9 -7 -18 -7q-7 0 -12 6q-9 9 5 26q29 33 29 84q0 14 -6 30t-18 28t-26 12q-35 0 -61 -31t-26 -79q0 -23 8 -41
q2 -5 2 -11zM-185 761l100 267q3 7 10 7h61q3 0 5.5 -3t1.5 -6l-105 -267q-3 -7 -10 -7h-56q-3 0 -5.5 3t-1.5 6z" />
    <glyph glyph-name="uni04860300" unicode="&#xe003;" horiz-adv-x="1" 
d="M-96 640q0 -24 -9 -47t-23.5 -40.5t-31.5 -30t-33 -17.5q-5 -1 -9 -1q-5 0 -8.5 1t-6.5 2.5t-4.5 4.5t-1.5 6q0 8 10 16q48 41 48 90v3q-1 17 -12 29t-27 12q-48 0 -48 -53q-1 -9 -12.5 -8t-16.5 7q-14 15 -14 44q0 35 28.5 57.5t66.5 22.5q42 0 73 -28.5t31 -69.5z
M33 676q10 -9 10 -22q0 -12 -9 -21t-21 -9q-11 0 -20 8l-208 190q-10 9 -10 21.5t9 21.5t21 9q11 0 20 -8z" />
    <glyph glyph-name="uni04860300.upper" unicode="&#xe004;" horiz-adv-x="1" 
d="M-168 803q0 -22 -7 -48t-14 -33q-5 -6 -14 -6.5t-9 6.5q-1 39 -19.5 66t-50.5 27q-30 0 -49 -24t-19 -59q-1 -5 -8 -4.5t-13 4.5q-18 14 -18 41q0 53 26.5 93t78.5 40q48 0 82 -33t34 -70zM-396 1042l303 -93q8 -2 6 -10l-13 -39q-2 -6 -10 -4l-303 93q-8 2 -6 10l13 39
q2 6 10 4z" />
    <glyph glyph-name="uni04860311" unicode="&#xe005;" 
d="M128 682q0 -26 -31 -26q-28 0 -59 8.5t-50 22.5t-40.5 35.5t-34.5 36.5t-42 50q-42 50 -79 73.5t-89 23.5h-3q-36 0 -65 -8q-3 0 -8 -5q-36 -28 -57 -49q-16 -16 -23.5 -47t-7.5 -57q0 -6 -8 -6h-104q-5 0 -5 10q9 81 61 120q1 0 3 1.5t4 2.5q49 32 147 81q28 11 71 11
q89 0 151.5 -25.5t105.5 -91.5q3 -5 13 -20.5t13.5 -20t12 -17.5t13.5 -18t14 -15t16.5 -15t18 -11.5t21.5 -11t24 -8.5q17 -4 17 -24zM-220 620q-11 -6 -25 -6q-17 0 -17 17q0 3 1 7q3 8 10.5 20.5t11.5 23.5t4 25q0 25 -12 43t-34 18q-27 0 -44 -21.5t-17 -49.5
q0 -14 3 -29t3 -27q0 -11 -6.5 -16.5t-15.5 -5.5q-14 0 -22 10q-23 28 -23 72q0 57 31.5 100.5t83.5 43.5q50 0 88.5 -29.5t38.5 -75.5q0 -39 -17 -72t-42 -48z" />
    <glyph glyph-name="uni0463.trunc" unicode="&#xe0ec;" horiz-adv-x="597" 
d="M347 489q0 -9 -2 -25t-3 -27h185q12 0 12 -14q0 -8 -4 -16q-7 -15 -18.5 -55t-14.5 -49q-6 -21 -22 -21q-10 0 -22 23q-4 9 -14 35.5t-18 39.5l-10 17h-75q-2 -100 -2 -201q28 10 61 19q28 8 29 8q9 0 15 -8q61 -91 104 -194q2 -4 2 -7q0 -14 -19 -14h-261q-26 0 -26 13
q-3 78 -3 171q0 32 0.5 101.5t0.5 111.5h-88q-13 0 -13 -10v-185q0 -14 -9 -14h-83q-8 0 -8 11v217q0 21 15 21h186l2 24q2 14 28 28t58 14q17 0 17 -14zM425 50q-22 68 -87 108v-118h85q3 0 3 3q0 4 -1 7z" />
    <glyph glyph-name="uni0460.alt" unicode="&#xe2ea;" horiz-adv-x="987" 
d="M592 158q0 -21 -17.5 -36.5t-50.5 -20.5q0 -1 -1 -3.5t-2 -3.5q12 -27 39.5 -43.5t64.5 -16.5q75 0 120.5 43t61.5 108.5t16 158.5q0 52 -7.5 100t-24.5 94.5t-51 74.5t-81 28q-58 0 -89 -44q6 1 17 1q33 0 56 -23.5t23 -55.5t-23.5 -55.5t-55.5 -23.5t-55.5 23t-23.5 56
q0 75 40.5 119.5t125.5 44.5q122 0 199.5 -95.5t77.5 -227.5q0 -187 -82 -276.5t-248 -89.5q-75 0 -128 60q-55 -60 -127 -60q-166 0 -248 89.5t-82 276.5q0 132 77.5 227.5t199.5 95.5q85 0 125.5 -44.5t40.5 -119.5q0 -33 -23 -56t-56 -23t-56 23.5t-23 55.5t23 55.5
t56 23.5q11 0 17 -1q-31 44 -89 44q-47 0 -81 -28t-51 -74.5t-24.5 -94.5t-7.5 -100q0 -93 16 -158.5t61.5 -108.5t120.5 -43t104 61l-3 6q-69 11 -69 57q0 21 17.5 37t50.5 21q-16 64 -62 86q-6 3 -6 12q0 7 3.5 13t8.5 6q10 0 20 -0.5t17 -1t15 -1t16.5 -0.5h18.5
q19 0 46 1.5t41 1.5q4 0 6.5 -3t4 -7t1.5 -9q0 -9 -6 -12q-47 -22 -63 -87q33 -5 51 -20.5t18 -36.5z" />
    <glyph glyph-name="u1f545.alt1" unicode="&#xe5d0;" horiz-adv-x="735" 
d="M374 789q-2 -9 -6.5 -33t-6.5 -42t-2 -36v-24q0 -14 2 -24h-26h-15.5h-15.5h-12q-2 13 -2 30v8q0 43 6 73q9 50 12 56q32 5 52 6q14 0 14 -14zM510 802q-22 -21 -44 -41q-2 -2 -2 0q-1 1 -16 11q-6 6 -14 6q-12 -5 -25 -22l-10 -14q-6 -8 -7 -12h45q12 -13 29 -44
q12 -32 15 -56h-64q-11 51 -37 89q-2 2 -5 8v3q3 15 15.5 30.5t26.5 24.5q26 19 74 19q19 0 19 -2zM485 529q0 -58 -60 -58h-10q-8 -2 -20 0l-28 10q0 -7 0.5 -18t0.5 -15v-35l-30 -11l-33 -4l-4 4v117q3 24 19 42t39.5 26.5t52.5 8.5q22 0 43 -12q30 -13 30 -52v-3z
M370 516l-2 -12l17 -6q10 -2 16 -2q20 0 23 13v13q0 23 -22 26h-3q-12 0 -20.5 -5t-8.5 -14v-13zM714 1039q-6 -47 -11.5 -66.5t-23.5 -51.5q-38 -60 -107 -77q-20 -5 -39 -5q-26 0 -55 6t-42 14q-49 27 -87 62l-41 35q-24 22 -43 25h-10q-26 0 -39 -14.5t-24 -44.5
q-11 -33 -11 -63l-2 -30l-19 3q-12 2 -19 2h-7q-29 0 -29 -2l-24 -3q-8 -2 -22 -4l-3 6q0 40 19.5 79.5t45.5 60.5q21 18 36.5 26t47.5 16q32 5 77 5q33 0 52 -8q12 -6 47 -29q13 -9 25.5 -19.5t29.5 -26t24 -22.5q33 -27 68 -27h13q24 5 30 44l7 28l5 38q3 27 3 43v5l30 -6
q6 -1 25 -1h22q16 0 25 3l23 4zM47 0v761h122v-311q64 0 132 -68q66 -69 73 -94q9 33 77 89q64 56 114 63v321h122v-761h-122v401q-29 -9 -78 -49q-37 -31 -52 -71v-281h-122v281q-16 40 -51 73q-46 41 -92 50v-404h-123z" />
    <glyph glyph-name="u1f545.alt2" unicode="&#xe5d1;" horiz-adv-x="1035" 
d="M714 1039q-10 -57 -17 -80q-5 -15 -18 -38q-42 -62 -107 -77q-20 -5 -39 -5q-63 0 -97 20q-30 18 -48 30q-22 17 -39 32l-41 35q-24 22 -43 25h-10q-7 0 -12 -0.5t-9.5 -3.5t-6.5 -4t-7.5 -6t-6.5 -6q-14 -17 -21 -39q-12 -36 -12 -63l-1 -30l-19 3q-12 2 -19 2h-7
q-29 0 -29 -2l-24 -3q-8 -2 -22 -4l-3 6q0 44 31 98q20 33 69 64q40 25 110 25q27 0 62 -11q25 -7 53 -26q13 -8 26 -19.5t28 -26t25 -22.5q35 -27 68 -27h13q24 7 30 44l7 28l5 38q3 27 3 43v5l30 -6q6 -1 25 -1h22q16 0 25 3l23 4zM50 0v761h122l1 -311q65 -1 131 -69
q65 -65 73 -93q9 32 77 89q64 55 114 63v321h122l1 -323q77 3 102 112q14 64 14 117q0 47 -10 87h142q-6 -175 -126 -290l-35 -26q132 0 190 -225l18 -213h-138l-6 174q0 156 -113 245q-26 -7 -38 -78l1 -341h-124v401q-29 -9 -78 -49q-37 -31 -52 -71l3 -281h-125v281
q-16 40 -51 73q-46 41 -92 50l2 -404h-125zM382 625q71 0 71 53q0 34 -46 49q-8 3 -14 3q-36 0 -36 -82q0 -14 1 -22q9 -1 24 -1zM390 774q116 0 116 -119q0 -38 -21 -52.5t-62 -14.5q-32 0 -65 12v-138h-89l2 191v6q0 115 119 115z" />
    <glyph glyph-name="u1f545.alt3" unicode="&#xe5d2;" horiz-adv-x="743" 
d="M352 159q-2 -9 -6.5 -33t-6.5 -42t-2 -36v-24q0 -14 2 -24h-26h-15.5h-15.5h-12q-2 13 -2 30v8q0 43 6 73q9 50 12 56q32 5 52 6q14 0 14 -14zM488 172q-22 -21 -44 -41q-2 -2 -2 0q-1 1 -16 11q-6 6 -14 6q-12 -5 -25 -22l-10 -14q-6 -8 -7 -12h45q12 -13 29 -44
q12 -32 15 -56h-64q-11 51 -37 89q-2 2 -5 8v3q2 10 9.5 21t15.5 19.5t17 14.5q26 19 74 19q19 0 19 -2zM470 664q0 -57 -61 -57h-9q-8 -2 -20 0l-28 9q0 -6 0.5 -17t0.5 -15v-16l-2 -19l-28 -11l-33 -4l-4 4v117q6 36 35.5 56.5t73.5 20.5q31 0 53 -17.5t22 -46.5v-4z
M386 632q7 -1 14 3t9 10v13q0 5 -1 9t-2.5 6.5t-4.5 4.5t-6 3.5t-8 2.5h-5q-25 0 -28 -20v-25l16 -5q5 -2 16 -2zM714 1039q-10 -57 -17 -80q-17 -52 -60.5 -86t-103.5 -34q-26 0 -55 6t-42 14q-30 18 -48 30q-22 17 -39 32l-41 35q-24 22 -43 25h-10q-7 0 -12 -0.5
t-9.5 -3.5t-6.5 -4t-7.5 -6t-6.5 -6q-14 -17 -21 -39q-12 -36 -12 -63l-1 -30l-19 3q-12 2 -19 2h-7q-29 0 -29 -2l-24 -3q-8 -2 -22 -4l-3 6q0 44 31 98q10 16 23.5 29t21.5 19t24 16q40 25 110 25q27 0 62 -11q25 -7 53 -26q10 -7 21 -15.5t19 -16.5t19 -18.5t20 -17.5
q35 -27 68 -27h13q24 7 30 44l7 28l5 38q3 27 3 43v5l30 -6q6 -1 25 -1h22q16 0 25 3l23 4zM47 0v763h122v-236q64 0 132 -68q66 -69 73 -94q9 33 77 89q64 56 114 63v246h122v-763h-122v478q-29 -9 -78 -49q-37 -31 -52 -71v-129h-122v129q-16 40 -51 73q-46 41 -92 50
v-481h-123z" />
    <glyph glyph-name="u1f545.alt4" unicode="&#xe5d3;" horiz-adv-x="743" 
d="M352 159q-2 -9 -6.5 -33t-6.5 -42t-2 -36v-24q0 -14 2 -24h-26h-15.5h-15.5h-12q-2 13 -2 30v8q0 43 6 73q9 50 12 56q32 5 52 6q14 0 14 -14zM488 172q-22 -21 -44 -41q-2 -2 -2 0q-1 1 -16 11q-6 6 -14 6q-12 -5 -25 -22l-10 -14q-6 -8 -7 -12h45q12 -13 29 -44
q12 -32 15 -56h-64q-11 51 -37 89q-2 2 -5 8v3q2 10 9.5 21t15.5 19.5t17 14.5q26 19 74 19q19 0 19 -2zM714 1039q-10 -57 -17 -80q-17 -52 -60.5 -86t-103.5 -34q-26 0 -55 6t-42 14q-30 18 -48 30q-22 17 -39 32l-41 35q-24 22 -43 25h-10q-7 0 -12 -0.5t-9.5 -3.5
t-6.5 -4t-7.5 -6t-6.5 -6q-14 -17 -21 -39q-12 -36 -12 -63l-1 -30l-19 3q-12 2 -19 2h-7q-29 0 -29 -2l-24 -3q-8 -2 -22 -4l-3 6q0 44 31 98q10 16 23.5 29t21.5 19t24 16q40 25 110 25q27 0 62 -11q25 -7 53 -26q10 -7 21 -15.5t19 -16.5t19 -18.5t20 -17.5
q35 -27 68 -27h13q24 7 30 44l7 28l5 38q3 27 3 43v5l30 -6q6 -1 25 -1h22q16 0 25 3l23 4zM47 0v763h122v-124q64 0 132 -68q66 -69 73 -94q9 33 77 89q64 56 114 63v134h122v-763h-122v590q-29 -9 -78 -49q-37 -31 -52 -71v-248h-122v248q-16 40 -51 73q-46 41 -92 50
v-593h-123z" />
    <glyph glyph-name="u1f545.alt5" unicode="&#xe5d4;" horiz-adv-x="939" 
d="M10 897h906v-1059h-906v1059zM66 849v-966h796v966h-796zM186 144v658h106v-269q55 0 114 -59q58 -59 63 -81q8 28 67 77q55 47 98 55v277h106v-658h-106v347q-24 -8 -67 -43q-31 -25 -45 -61v-243h-106v243q-13 34 -44 63q-38 35 -79 43v-349h-107zM264 53q0 5 -1 9
q-5 -16 -30 -35q-16 -14 -16 -21q0 -6 9 -6q16 0 25 15q13 19 13 38zM267 30q-5 -16 -20.5 -29.5t-30.5 -13.5q13 -5 13 -18v-3q0 -7 -6 -12t-13 -5v-3q0 -8 6 -18t12 -10h9v-6h-59v6h7q7 0 12.5 10t5.5 19v3q-15 5 -15 19q0 8 5 13.5t13 5.5q-11 5 -11 16q0 9 7.5 17.5
t12.5 11.5t22 12q21 11 21 27v1q-7 12 -19 12h-3q7 -3 7 -13q0 -16 -16 -16q-7 0 -11.5 4.5t-4.5 10.5q0 8 5 13h1q10 8 22 8q18 0 28 -21v31h-16v6h61v-6h-15v-184h15v-6h-61v6h16v112zM413 104q-32 0 -32 -32v-64l26 33q1 1 3 0h1q7 -5 12 -5q9 0 14.5 10.5t5.5 22.5
q0 35 -30 35zM421 111q21 0 35.5 -11t14.5 -31q0 -19 -9 -31.5t-26 -12.5q-11 0 -27 9l-28 -34v-81h14v-6h-58v6h15v145q0 13 8 23q17 24 61 24zM602 72q0 -43 -41 -54q28 -6 36 -18q12 -17 12 -41q0 -7 -0.5 -23t-0.5 -17h12v-6h-59v6h14q4 28 4 32q0 35 -10 49
q-9 10 -22 15q-13 -3 -28 -3v-93h16v-6h-62v6h16v184h-16v6h62v-6h-16v-84q31 0 40 13q14 18 14 48q0 16 -3 23h-14v6h59v-6h-13v-31zM707 105q-44 0 -44 -79q0 -47 10 -72q7 -14 7 -30v-6q6 0 23 12q7 6 12.5 26.5t5.5 39.5q0 30 -8 58q-6 22 -6 36v15zM715 -69
q-22 -19 -38 -19q-4 0 -4 2v8q0 15 -17 39q-25 37 -25 65q0 36 40 70q18 16 40 16q3 0 3 -3v-11q0 -7 3.5 -13.5t10 -15.5t10.5 -15q15 -24 15 -46q0 -45 -38 -77z" />
    <glyph glyph-name="u1f545.alt6" unicode="&#xe5d5;" horiz-adv-x="857" 
d="M0 0v32h51l58 633h-51v29h179q24 -213 50 -335t56.5 -174t73.5 -52t73.5 52t56.5 174t51 335h179v-29h-50l56 -633h51v-32h-244v32h55l-40 439h-3q-66 -476 -185 -476q-118 0 -183 476h-3l-40 -439h54v-32h-245zM313 492v194q0 45 34 71t87 26q55 0 85 -26.5t30 -68.5
q0 -40 -29.5 -63t-72.5 -23q-28 0 -51 8l-3 -2v-116q-21 -4 -40 -4t-40 4zM393 693q0 -69 37 -69q38 0 38 69q0 70 -38 70q-37 0 -37 -70zM228 788q0 -12 -41 -29.5t-59 -17.5q-6 0 -10 2t-6.5 7t-3.5 8.5t-3 12.5t-3 13q-5 20 -5 36q0 68 73 119q36 26 89 44q57 19 107 19
q35 0 69 -13t50.5 -24t48.5 -35q16 -12 38 -24t38 -18.5t46 -18.5t43 -17q11 -4 15 -5.5t9.5 -6t5.5 -11.5q0 -23 -44 -23q-6 0 -18 -1t-19 -1q-89 0 -139 20q-30 13 -73 50t-56 46q-26 17 -50 17h-7q-20 0 -44.5 -10.5t-37.5 -22.5q-24 -19 -24 -54q0 -36 11 -60v-2z" />
    <glyph glyph-name="u1f545.alt7" unicode="&#xe5d6;" horiz-adv-x="693" 
d="M346 625q-1 -8 -5 -29.5t-6 -38t-2 -32.5v-22q0 -12 2 -21h-24h-13.5h-13.5h-12q-1 11 -1 27v7q0 39 5 66q9 44 11 50q29 5 47 5q12 1 12 -12zM469 636q-20 -19 -40 -36q-2 -2 -2 0q-1 0 -14 9q-6 6 -13 6q-11 -5 -22 -20l-9 -13q-6 -7 -7 -10h41q11 -12 26 -40
q11 -29 14 -50h-58q-10 46 -33 80q-2 2 -5 7v3q7 27 38 49q24 17 67 17q17 0 17 -2zM438 387q0 -51 -54 -51h-9q-8 -3 -18 0l-25 8q0 -6 0.5 -15.5t0.5 -13.5v-15l-2 -17l-25 -10l-30 -3l-3 3v106q5 32 32 50.5t66 18.5q28 0 47.5 -16t19.5 -42v-3zM363 358q6 -1 12.5 2.5
t8.5 9.5v11q0 20 -20 24h-5q-10 0 -17.5 -5t-7.5 -13v-23l14 -4q5 -2 15 -2zM640 726q0 -11 -15 -18t-31 -9.5t-30 -2.5q-17 0 -34.5 4.5t-31.5 10t-31.5 16.5t-29 19.5t-30.5 22.5q-5 4 -18.5 14t-18.5 14t-16.5 11.5t-18.5 10.5t-18 7t-21.5 5.5t-22.5 1.5q-16 0 -34 -10
q-32 -17 -42 -31q-9 -12 -9 -42q0 -6 0.5 -18t0.5 -17q0 -10 -8 -10h-70q-7 0 -7 9q0 63 46 109q27 27 74.5 43t84.5 16q10 0 20 -1.5t18 -3t19 -5.5t17 -6t18.5 -9t16 -8.5t17.5 -10.5t16 -10t17 -11.5t16 -10.5q3 -2 14 -9.5t15 -10t14 -9t15.5 -9.5t15 -8t16.5 -7.5
t15.5 -5.5t17.5 -5t18 -3q15 -1 15 -13zM199 356q0 -59 51.5 -116.5t105.5 -57.5q43 0 84.5 54t53.5 103q5 22 5 38q0 15 -2 34.5t-4.5 34.5t-6 40t-5.5 38q-2 11 -6 28.5t-4 21.5q0 22 85 22q19 0 21 -25q12 -144 34 -288q8 -53 32.5 -152.5t26.5 -108.5q1 -5 1 -9
q0 -10 -6.5 -13t-21.5 -3h-9h-9h-30q-28 0 -38 24q-10 49 -17 92.5t-12.5 83t-7.5 51.5q-5 35 -10 35q-4 0 -5 -13q-2 -44 -22 -89t-55.5 -76.5t-75.5 -31.5q-24 0 -46.5 12t-40 31.5t-32.5 44t-24.5 48.5t-15.5 47q-5 18 -6 18q-2 0 -5 -22q-19 -147 -35 -216
q-5 -21 -13 -30q-7 -7 -22 -10q-7 0 -26 -1.5t-28 -1.5q-18 0 -25 4q-6 0 -9 4.5t-1 12.5q14 56 22 91t17.5 89t22.5 139q17 112 21 224q0 17 7 27t17 12q32 6 68 6h15q13 0 13 -14q0 -6 -1.5 -12.5t-3.5 -16.5t-3 -21q-19 -166 -19 -182z" />
    <glyph glyph-name="uniE8E1" unicode="&#xe8e1;" horiz-adv-x="440" 
d="M262 297q27 -21 51 -47q46 -48 46 -113v-5q-1 -58 -45.5 -95t-106.5 -37q-56 0 -96 34.5t-40 89.5t30 85q17 17 51 53q-116 100 -116 244q0 13 22 39.5t51 42.5q7 4 16 4t16.5 -5t8.5 -12v-1q0 -6 -6 -29t-6 -27q0 -115 79 -185q8 9 21 24.5t19 22.5q47 55 74.5 133
t36.5 199q-32 -22 -52 -52q-2 -2 -6 -2q-8 0 -19 8t-11 16q0 2 1 4q38 64 86 110q6 6 25 6q16 0 22 -4q10 -7 10 -46q0 -249 -123 -406q-26 -32 -39 -49zM192 645q-9 -15 -26 -15q-4 0 -7 1q-13 4 -13 23q0 7 2 12l87 196q7 14 22 14h57q6 0 11 -6t2 -11zM199 225
q-24 -26 -37 -39q-25 -25 -25 -56q0 -30 19 -50t55 -20q20 0 38.5 23t18.5 49q0 31 -23 54q-15 16 -46 39z" />
    <glyph glyph-name="uniE8E3" unicode="&#xe8e3;" horiz-adv-x="440" 
d="M262 297q27 -21 51 -47q46 -48 46 -113v-5q-1 -58 -45.5 -95t-106.5 -37q-56 0 -96 34.5t-40 89.5t30 85q17 17 51 53q-116 100 -116 244q0 13 22 39.5t51 42.5q7 4 16 4t16.5 -5t8.5 -12v-1q0 -6 -6 -29t-6 -27q0 -115 79 -185q8 9 21 24.5t19 22.5q47 55 74.5 133
t36.5 199q-18 -12 -47 -37q-2 -2 -6 -2q-9 0 -20 8t-11 16q0 2 1 4q42 59 82 95q6 6 26 6q15 0 21 -4q10 -7 10 -46q0 -249 -123 -406q-26 -32 -39 -49zM244 646q2 -5 2 -11q0 -18 -14 -24q-4 -2 -9 -2q-18 0 -26 16l-113 220q-3 6 2 11.5t11 5.5h57q17 0 22 -14zM199 225
q-24 -26 -37 -39q-25 -25 -25 -56q0 -30 19 -50t55 -20q20 0 38.5 23t18.5 49q0 31 -23 54q-15 16 -46 39z" />
    </font>
</defs>
</svg>
