<svg version="1.1"
    xmlns="http://www.w3.org/2000/svg"
    xmlns:xlink="http://www.w3.org/1999/xlink"
  >
    <symbol id="menu" viewBox="0 0 25 21" >
      <path d="M23.9583 2.45053H1.04167C0.466665 2.45053 0 2.00253 0 1.45053C0 0.898529 0.466665 0.450531 1.04167 0.450531H23.9583C24.5333 0.450531 25 0.898529 25 1.45053C25 2.00253 24.5333 2.45053 23.9583 2.45053Z" />
      <path d="M23.9583 11.4367H1.04167C0.466665 11.4367 0 10.9887 0 10.4367C0 9.8847 0.466665 9.43671 1.04167 9.43671H23.9583C24.5333 9.43671 25 9.8847 25 10.4367C25 10.9887 24.5333 11.4367 23.9583 11.4367Z" />
      <path d="M23.9583 20.4227H1.04167C0.466665 20.4227 0 19.9747 0 19.4227C0 18.8707 0.466665 18.4227 1.04167 18.4227H23.9583C24.5333 18.4227 25 18.8707 25 19.4227C25 19.9747 24.5333 20.4227 23.9583 20.4227Z" />
    </symbol>

    <symbol id="bible" viewBox="0 0 32 32">
      <path d="m26.566 3.2049e-6h-18.354c-0.8897 0.0010337-1.7427 0.35492-2.3718 0.98404-0.62912 0.62912-0.98301 1.4821-0.98404 2.3718v23.262c7.95e-4 0.73504 0.29311 1.4396 0.81281 1.9595 0.51971 0.51974 1.2244 0.81214 1.9594 0.81298h10.759v2.1079c0 0.09834 0.02764 0.19437 0.0793 0.27773 0.05164 0.08334 0.12571 0.1507 0.21375 0.19425 0.08775 0.04374 0.1863 0.06146 0.28397 0.05204 0.09766-0.0079 0.19076-0.04586 0.26871-0.10562l1.8437-1.4063 1.8435 1.4063c0.07786 0.05976 0.17117 0.0961 0.26884 0.10562 0.09758 0.0078 0.19606-0.0072 0.28398-0.05204 0.08804-0.04376 0.16201-0.11098 0.21374-0.19425 0.05164-0.08334 0.0793-0.17958 0.0792-0.27773v-2.1079h2.8011c0.13953 0 0.2734-0.05528 0.37203-0.15407 0.09884-0.09884 0.1542-0.23263 0.1542-0.37215v-28.338c0-0.06913-0.01346-0.13759-0.04008-0.20145-0.02648-0.063875-0.0653-0.12189-0.11432-0.17076-0.04891-0.04888-0.10699-0.087635-0.17096-0.11405-0.063879-0.026425-0.13231-0.040007-0.20148-0.039974zm-18.354 1.0525h17.828v22.793h-18.412c-0.62483-2.52e-4 -1.2312 0.21181-1.7197 0.6014v-21.091c7.24e-4 -0.61068 0.24363-1.1961 0.67544-1.6279 0.43181-0.43181 1.0173-0.67471 1.6279-0.67544zm-0.58366 27.286c-0.45609 0-0.89352-0.18114-1.216-0.50374-0.32251-0.32247-0.50369-0.75993-0.50369-1.2159 0-0.45611 0.18118-0.89357 0.50369-1.216 0.32251-0.32258 0.75993-0.50373 1.216-0.50373h18.412v1.1917l-17.329-0.05397h-0.0013c-0.13956-2.37e-4 -0.2735 0.05498-0.37231 0.15361-0.09887 0.09864-0.15446 0.23225-0.15467 0.3719-1.95e-4 0.13954 0.05504 0.27352 0.1536 0.37227 0.0986 0.09894 0.23232 0.15444 0.37188 0.15468l9.6793 0.02986v1.219zm13.767 1.0921c-0.09186-0.07008-0.20376-0.108-0.31909-0.108-0.11534 0-0.22759 0.03798-0.31924 0.108l-1.3174 1.0049v-3.3128l3.2732 0.0085v3.3025zm2.3699-1.0921v-1.2028l2.2748 0.0058v1.1952z"/>
      <path d="m18.914 11.885h-1.9311c-0.13807 0-0.25091 0.11267-0.25091 0.25079v2.7938c0 0.10985 0.07342 0.20858 0.17765 0.2396l1.0995 0.33547v1.607l-0.95287-0.29037c-0.07626-0.02258-0.15792-0.0071-0.22276 0.03928-0.0647 0.0479-0.10166 0.12125-0.10166 0.20293v2.0523h-1.5138v-0.98954c0-0.13809-0.11267-0.2509-0.25089-0.2509-0.1381 0-0.2508 0.11277-0.2508 0.2509v1.2405c0 0.13808 0.11267 0.25089 0.2508 0.25089h2.0186c0.13807 0 0.25088-0.11278 0.25088-0.25089v-1.9649l0.95289 0.29037c0.07616 0.02248 0.15779 7e-3 0.22264-0.03928 0.0647-0.048 0.10166-0.12124 0.10166-0.20303v-2.134c0-0.10985-0.07342-0.20855-0.17766-0.23959l-1.0994-0.33547v-2.354h1.6801c0.13818 0 0.25088-0.11268 0.25088-0.25092 0-0.13809-0.11558-0.25079-0.25366-0.25079z" stroke-width="1.203"/>
      <path d="m20.273 9.8357h-3.0389v-0.79204h1.0261c0.13807 0 0.2509-0.11278 0.2509-0.25096v-2.0185c0-0.13813-0.11279-0.25089-0.2509-0.25089h-1.0261v-1.0854c0-0.13813-0.11277-0.25089-0.25093-0.25089h-2.0185c-0.13807 0-0.25078 0.11276-0.25078 0.25089v1.0825h-1.0262c-0.1381 0-0.25091 0.11276-0.25091 0.25091v2.0185c0 0.13819 0.11277 0.2509 0.25091 0.2509h1.0262v0.79217h-3.039c-0.13817 0-0.25088 0.11266-0.25088 0.2509v2.0495c0 0.13807 0.11267 0.25088 0.25088 0.25088h3.039v1.5871l-0.95284-0.29036c-0.07626-0.02248-0.15795-7e-3 -0.22278 0.03928-0.0647 0.048-0.10166 0.12125-0.10166 0.20303v2.134c0 0.10985 0.07342 0.20857 0.17764 0.2396l1.0995 0.33548v0.65407c0 0.13809 0.11266 0.25092 0.25078 0.25092 0.13819 0 0.25089-0.11279 0.25089-0.25092v-0.84013c0-0.10985-0.07332-0.20857-0.17753-0.2396l-1.0994-0.33541v-1.6068l0.95284 0.29034c0.07626 0.02248 0.15794 7e-3 0.22278-0.03928 0.0647-0.048 0.10156-0.12124 0.10156-0.20303v-2.1791c0-0.13808-0.11267-0.25092-0.25093-0.25092h-3.0361v-1.5477h3.039c0.1381 0 0.25093-0.11279 0.25093-0.25092v-1.2968c0-0.13816-0.11277-0.25091-0.25093-0.25091h-1.0261v-1.5111h1.0261c0.13807 0 0.25093-0.11276 0.25093-0.25089v-1.0825h1.5138v1.0825c0 0.13813 0.11267 0.25089 0.25088 0.25089h1.0261v1.5139h-1.0261c-0.13817 0-0.25088 0.11275-0.25088 0.25089v1.2967c0 0.13819 0.11267 0.25089 0.25088 0.25089h3.0389v1.5478h-0.27065c-0.13809 0-0.25091 0.11267-0.25091 0.25079 0 0.13822 0.11278 0.25092 0.25091 0.25092h0.51877c0.13809 0 0.2509-0.11267 0.2509-0.25092v-2.0494c0.0023-0.13809-0.10985-0.25092-0.24815-0.25092z"/>
      <path d="m20.118 11.885h-1.8042v0.5046h1.8042z"/>
      <path d="m15.219 16.635h-0.5046v1.9423h0.5046z"/>
    </symbol>

    <symbol id="calendar" viewBox="0 0 25 25" >
      <path d="M23.75 1.66667H20.8333V0.416667C20.8333 0.18625 20.6471 0 20.4167 0H17.5C17.2696 0 17.0833 0.18625 17.0833 0.416667V1.66667H7.91668V0.416667C7.91668 0.18625 7.73043 0 7.50001 0H4.58334C4.35293 0 4.16668 0.18625 4.16668 0.416667V1.66667H1.25001C1.01959 1.66667 0.833344 1.85292 0.833344 2.08333V6.66667V24.5833C0.833344 24.8137 1.01959 25 1.25001 25H23.75C23.9804 25 24.1667 24.8137 24.1667 24.5833V6.66667V2.08333C24.1667 1.85292 23.9804 1.66667 23.75 1.66667ZM17.9167 0.833333H20V2.08333V3.33333H17.9167V2.08333V0.833333ZM5.00001 0.833333H7.08334V2.08333V3.33333H5.00001V2.08333V0.833333ZM1.66668 2.5H4.16668V3.75C4.16668 3.98042 4.35293 4.16667 4.58334 4.16667H7.50001C7.73043 4.16667 7.91668 3.98042 7.91668 3.75V2.5H17.0833V3.75C17.0833 3.98042 17.2696 4.16667 17.5 4.16667H20.4167C20.6471 4.16667 20.8333 3.98042 20.8333 3.75V2.5H23.3333V6.25H1.66668V2.5ZM1.66668 24.1667V7.08333H23.3333V24.1667H1.66668Z" />
      <path d="M15.8333 9.58334H12.9167H12.0833H9.16668H8.33334H4.58334V13.3333V14.1667V17.0833V17.9167V21.6667H8.33334H9.16668H12.0833H12.9167H15.8333H16.6667H20.4167V17.9167V17.0833V14.1667V13.3333V9.58334H16.6667H15.8333ZM12.9167 10.4167H15.8333V13.3333H12.9167V10.4167ZM15.8333 17.0833H12.9167V14.1667H15.8333V17.0833ZM9.16668 14.1667H12.0833V17.0833H9.16668V14.1667ZM9.16668 10.4167H12.0833V13.3333H9.16668V10.4167ZM5.41668 10.4167H8.33334V13.3333H5.41668V10.4167ZM5.41668 14.1667H8.33334V17.0833H5.41668V14.1667ZM8.33334 20.8333H5.41668V17.9167H8.33334V20.8333ZM12.0833 20.8333H9.16668V17.9167H12.0833V20.8333ZM15.8333 20.8333H12.9167V17.9167H15.8333V20.8333ZM19.5833 20.8333H16.6667V17.9167H19.5833V20.8333ZM19.5833 17.0833H16.6667V14.1667H19.5833V17.0833ZM19.5833 10.4167V13.3333H16.6667V10.4167H19.5833Z" />
    </symbol>
    <symbol id="audio" viewBox="0 0 25 25">
      <path d="M22.9 5.69999V0.899991C22.9 0.699991 22.8 0.499991 22.6 0.299991C22.4 0.199991 22.2 0.0999907 22 0.199991L7.69998 4.69999C7.39998 4.79999 7.19998 5.09999 7.19998 5.39999V10.2V19.8C6.39998 19.3 5.49998 19 4.49998 19C3.39998 19 2.59998 19.1 1.89998 19.7C0.999976 20.3 0.599976 21 0.599976 21.9C0.599976 22.8 0.799976 23.5 1.69998 24.1C2.49998 24.7 3.09998 24.9 4.09998 24.9C5.09998 24.9 6.19998 24.8 6.99998 24.2C7.79998 23.6 8.29998 22.8 8.29998 21.9V10.2L21.9 5.99999V15.4C21.2 14.9 19.9 14.3 18.9 14.3C17.8 14.3 17.1 14.4 16.3 15C15.5 15.6 15 16.3 15 17.2C15 18.1 15.2 18.8 16 19.4C16.8 20 17.7 20.2 18.8 20.2C19.9 20.2 20.8 20 21.5 19.4C22.3 18.8 22.7 17.8 22.7 16.9L22.9 5.69999ZM4.49998 23.7C2.99998 23.7 1.79998 22.8 1.79998 21.8C1.79998 20.8 2.99998 20 4.49998 20C5.99998 20 7.19998 20.9 7.19998 21.9C7.19998 22.9 5.89998 23.7 4.49998 23.7ZM8.19998 9.29999V5.49999L21.8 1.09999V4.99999L8.19998 9.29999ZM18.8 19.2C17.3 19.2 16 18.5 16 17.5C16 16.5 17.1 15.4 18.6 15.4C20.1 15.4 21.7 16.3 21.7 17.4C21.6 18.4 20.2 19.2 18.8 19.2Z" />
    </symbol>
    <symbol id="candles-thin" viewBox="0 0 19 28">
      <path d="M11.3943 11.7627H9.57229V10.8249C10.4699 10.6038 11.1331 9.27082 11.1331 7.70335C11.1331 6.13589 9.69957 1.67465 9.5388 1.17225C9.45842 0.9579 9.29096 0.890915 9.16368 1.03158C9.13019 1.06508 9.1034 1.11197 9.0833 1.17225C8.92253 1.67465 7.48904 6.13589 7.48904 7.70335C7.48904 9.27082 8.1589 10.5971 9.04981 10.8249V11.7627H7.2278C7.08713 11.7627 6.96655 11.9636 6.96655 12.2115V27.5378C6.96655 27.7856 7.08043 27.9866 7.2278 27.9866H11.3943C11.535 27.9866 11.6555 27.7856 11.6555 27.5378V12.2115C11.6555 11.9636 11.5417 11.7627 11.3943 11.7627ZM8.01153 7.70335C8.01153 6.81245 8.72158 4.2268 9.31105 2.33111C9.90052 4.2268 10.6106 6.81245 10.6106 7.70335C10.6106 8.77512 10.1752 9.69953 9.5656 9.91388V7.70335C9.5656 7.45551 9.45172 7.25455 9.30435 7.25455C9.15698 7.25455 9.04311 7.45551 9.04311 7.70335V9.91388C8.44694 9.69283 8.01153 8.77512 8.01153 7.70335ZM11.1331 27.089H7.48904V14.4622H8.27277C8.41344 14.4622 8.53402 14.6632 8.53402 14.911V15.3598C8.53402 16.1101 8.88234 16.7129 9.31775 16.7129C9.75316 16.7129 10.1015 16.1101 10.1015 15.3598V14.911C10.1015 14.6632 10.2154 14.4622 10.3627 14.4622H11.1465V27.089H11.1331ZM11.1331 13.5646H10.3493C9.92062 13.5646 9.5656 14.1675 9.5656 14.9177V15.3665C9.5656 15.6144 9.45172 15.8153 9.30435 15.8153C9.15698 15.8153 9.04311 15.6144 9.04311 15.3665V14.9177C9.04311 14.1675 8.69478 13.5646 8.25938 13.5646H7.47564V12.6603H11.1197V13.5646H11.1331Z" />
      <path d="M17.7111 15.3799H16.0163V14.5091C16.847 14.3014 17.4699 13.0622 17.4699 11.6019C17.4699 10.1416 16.1369 5.9818 15.9895 5.5129C15.9159 5.31195 15.7551 5.25166 15.6412 5.38563C15.6144 5.41912 15.5876 5.45932 15.5675 5.5129C15.4135 5.9818 14.0872 10.1416 14.0872 11.6019C14.0872 13.0622 14.7034 14.3014 15.5407 14.5091V15.3799H13.846C13.712 15.3799 13.6049 15.5674 13.6049 15.8019V27.5646C13.6049 27.799 13.712 27.9866 13.846 27.9866H17.7178C17.8517 27.9866 17.9589 27.799 17.9589 27.5646V15.7952C17.9522 15.5674 17.8451 15.3799 17.7111 15.3799ZM14.5628 11.5952C14.5628 10.7646 15.2259 8.3531 15.7752 6.58467C16.3245 8.3531 16.9876 10.7646 16.9876 11.5952C16.9876 12.5933 16.5857 13.4507 16.023 13.6517V11.5952C16.023 11.3608 15.9159 11.1732 15.7819 11.1732C15.6479 11.1732 15.5407 11.3608 15.5407 11.5952V13.6517C14.9714 13.4507 14.5695 12.5933 14.5628 11.5952ZM17.4699 27.1426H14.0805V17.8985H14.5628C14.6967 17.8985 14.8039 18.0861 14.8039 18.3206V18.7426C14.8039 19.4392 15.1321 20.0019 15.5273 20.0019C15.9293 20.0019 16.2508 19.4392 16.2508 18.7426V18.3206C16.2508 18.0861 16.358 17.8985 16.4919 17.8985H17.4565V27.1426H17.4699ZM17.4699 17.0545H16.5053C16.1034 17.0545 15.7819 17.6172 15.7819 18.3139V18.7359C15.7819 18.9703 15.6747 19.1579 15.5407 19.1579C15.4068 19.1579 15.2996 18.9703 15.2996 18.7359V18.3139C15.2996 17.6172 14.9714 17.0545 14.5762 17.0545H14.0939V16.2172H17.4833V17.0545H17.4699Z" />
      <path d="M4.54834 15.4134H2.85361V14.5426C3.68423 14.3349 4.3072 13.0957 4.3072 11.6354C4.3072 10.1751 2.97418 6.01531 2.82681 5.54641C2.75313 5.34546 2.59236 5.28517 2.47849 5.41914C2.45169 5.45263 2.4249 5.49282 2.4048 5.54641C2.25074 6.01531 0.92442 10.1751 0.92442 11.6354C0.92442 13.0957 1.54069 14.3349 2.37801 14.5426V15.4134H0.676573C0.542602 15.4134 0.435425 15.601 0.435425 15.8354V27.5981C0.435425 27.8325 0.542602 28.0201 0.676573 28.0201H4.54834C4.68231 28.0201 4.78949 27.8325 4.78949 27.5981V15.8354C4.78949 15.601 4.68231 15.4134 4.54834 15.4134ZM1.40002 11.6354C1.40002 10.8048 2.06318 8.3933 2.61246 6.62488C3.16174 8.3933 3.8249 10.8048 3.8249 11.6354C3.8249 12.6335 3.42298 13.4909 2.86031 13.6919V11.6354C2.86031 11.401 2.75313 11.2134 2.61916 11.2134C2.48519 11.2134 2.37801 11.401 2.37801 11.6354V13.6919C1.80863 13.4909 1.40672 12.6335 1.40002 11.6354ZM4.3072 27.1761H0.917721V17.9321H1.40002C1.53399 17.9321 1.64117 18.1196 1.64117 18.3541V18.7761C1.64117 19.4727 1.9694 20.0354 2.36461 20.0354C2.75983 20.0354 3.08806 19.4727 3.08806 18.7761V18.3541C3.08806 18.1196 3.19523 17.9321 3.3292 17.9321H4.2938V27.1761H4.3072ZM4.3072 17.0947H3.3359C2.93399 17.0947 2.61246 17.6574 2.61246 18.3541V18.7761C2.61246 19.0105 2.50528 19.1981 2.37131 19.1981C2.23734 19.1981 2.13016 19.0105 2.13016 18.7761V18.3541C2.13016 17.6574 1.80193 17.0947 1.40672 17.0947H0.92442V16.2574H4.31389V17.0947H4.3072Z" />
    </symbol>
    
    <symbol id="candles" viewBox="0 0 32 32">
      <path d="m21.226 26.337v4.7034h1.07v-4.2528c0.9562-0.0139 1.7318-1.0263 1.7318-2.2744v-2.8223c0-0.56173 0.35442-1.0263 0.7891-1.0263 0.43455 0 0.78895 0.45762 0.78895 1.0263v0.7211c0 1.3662 0.8559 2.4825 1.9058 2.4825 0.04679 0 0.09371 0 0.14036-0.0064v6.1459h1.07v-6.6939c0.42795-0.45766 0.7021-1.1442 0.7021-1.9208v-4.0359c0-1.5949-0.9964-2.8917-2.2267-2.8917h-1.6851v-0.40228c0.38788-0.12476 0.74229-0.38141 1.0365-0.76269 0.67534-0.8738 0.84247-2.2122 0.41451-3.3217l-1.5045-3.9251c-0.09367-0.23577-0.27414-0.3814-0.47473-0.3814-0.20062 0-0.38778 0.14563-0.47476 0.3814l-1.5245 3.9248c-0.42795 1.1095-0.26083 2.4479 0.41452 3.3217 0.28759 0.37444 0.64859 0.63794 1.0365 0.7627v0.40222h-1.685c-1.2304 0-2.2268 1.2968-2.2268 2.8917v6.1301c0 0.7489 0.27415 1.4076 0.7021 1.8238zm2.9289-12.988c-0.34768-0.45776-0.43466-1.1443-0.21391-1.7198l1.0297-2.6836 1.0298 2.6836c0.22062 0.57554 0.13364 1.269-0.21404 1.7198-0.08034 0.11095-0.18057 0.20111-0.28085 0.27032v-0.19413c0-0.38141-0.24068-0.69347-0.53486-0.69347-0.2943 0-0.53498 0.31206-0.53498 0.69347v0.19413c-0.10027-0.07609-0.19388-0.16636-0.28086-0.27032zm-2.561 5.0344c0-0.8322 0.52153-1.5048 1.1635-1.5048h4.4399c0.642 0 1.1635 0.67953 1.1635 1.5048v4.0358c0 0.54094-0.30763 0.99159-0.70211 1.0749-0.04679 0.0064-0.09371 0.01391-0.14048 0.01391-0.46132 0-0.84246-0.49237-0.84246-1.0957v-0.72112c0-1.3314-0.82916-2.4133-1.8589-2.4133-1.0232 0-1.8589 1.0819-1.8589 2.4133v2.8223c0 0.47842-0.29431 0.87367-0.66202 0.8876h-0.01998c-0.37443 0-0.68205-0.39537-0.68205-0.8876z" stroke-width="1.1428"/>
      <path d="m11.757 19.638v12.239h1.1434v-11.789c1.023-0.01389 1.8523-1.0262 1.8523-2.2744v-2.8223c0-0.56172 0.38105-1.0263 0.84248-1.0263 0.46141 0 0.84259 0.45773 0.84259 1.0263v0.7281c0 1.3661 0.91602 2.4825 2.0395 2.4825 0.04678 0 0.10028 0 0.14711-0.0064v13.682h1.1434v-14.237c0.46144-0.45774 0.74901-1.1442 0.74901-1.9209v-4.0358c0-1.5949-1.07-2.8917-2.3873-2.8917h-1.8054v-0.40216c0.41466-0.12483 0.79569-0.38141 1.1033-0.7628 0.72227-0.87374 0.9027-2.2121 0.44801-3.3216l-1.6115-3.9249c-0.09363-0.23577-0.29419-0.38139-0.5081-0.38139-0.21405 0-0.41463 0.14562-0.50822 0.38139l-1.6115 3.9249c-0.4547 1.1095-0.27414 2.4479 0.448 3.3216 0.30762 0.37447 0.68877 0.63797 1.1033 0.7628v0.40218h-1.8054c-1.3173 0-2.3872 1.2968-2.3872 2.8917v6.1301c0.01337 0.7489 0.30759 1.4076 0.76229 1.8238zm3.1361-12.995c-0.37445-0.45768-0.46804-1.1442-0.23408-1.7197l1.1033-2.6836 1.1034 2.6836c0.23397 0.57556 0.14038 1.269-0.23407 1.7197-0.08694 0.11096-0.18727 0.2011-0.30089 0.27044v-0.19416c0-0.38139-0.2541-0.69345-0.56845-0.69345-0.31423 0-0.56833 0.31206-0.56833 0.69345v0.19416c-0.10702-0.069348-0.20731-0.15949-0.30089-0.27044zm-2.7416 5.0413c0-0.83209 0.55501-1.5048 1.2437-1.5048h4.7544c0.68194 0 1.2437 0.67953 1.2437 1.5048v4.0358c0 0.54094-0.32765 0.99171-0.7489 1.0749-0.04679 0.0064-0.10028 0.0139-0.14709 0.0139-0.49491 0-0.9027-0.49238-0.9027-1.0956v-0.72124c0-1.3314-0.88938-2.4132-1.986-2.4132-1.0967 0-1.9861 1.0817-1.9861 2.4132v2.8223c0 0.47843-0.31421 0.8738-0.70869 0.88761h-0.02022c-0.40119 0-0.72885-0.39524-0.72885-0.88761v-6.1301z" stroke-width="1.1428"/>
      <path d="m2.817 29.645v2.1675h1.0699v-1.7169c0.95621-0.01389 1.7319-1.0262 1.7319-2.2744v-2.8223c0-0.56172 0.3544-1.0263 0.78903-1.0263 0.43465 0 0.78904 0.45763 0.78904 1.0263v0.72113c0 1.3662 0.85591 2.4826 1.9057 2.4826 0.046814 0 0.093617 0 0.14042-0.0064v3.7562h1.0699v-4.3043c0.42795-0.45778 0.70211-1.1443 0.70211-1.9209v-4.036c0-1.5949-0.99632-2.8917-2.2267-2.8917h-1.6851v-0.40225c0.38783-0.12479 0.74223-0.38143 1.0364-0.76273 0.67537-0.87379 0.84254-2.2122 0.41459-3.3217l-1.5045-3.9249c-0.093603-0.23569-0.27416-0.3814-0.47476-0.3814-0.2006 0-0.38784 0.1457-0.47476 0.38141l-1.5045 3.9249c-0.42796 1.1095-0.26078 2.4479 0.41459 3.3217 0.28752 0.37445 0.64861 0.63793 1.0364 0.76272v0.4022h-1.7051c-1.2304-2.4e-5 -2.2267 1.2968-2.2267 2.8917v6.1301c0 0.74889 0.27416 1.4076 0.70211 1.8238zm2.9288-12.988c-0.3477-0.45774-0.43464-1.1442-0.21398-1.7198l1.0298-2.6836 1.0298 2.6836c0.22067 0.57556 0.13374 1.269-0.21398 1.7198-0.080237 0.11095-0.18054 0.20111-0.28084 0.27035v-0.19413c0-0.38143-0.24073-0.69346-0.53495-0.69346s-0.53494 0.31204-0.53494 0.69346v0.19413c-0.1003-0.076238-0.19392-0.16636-0.28085-0.27035zm-2.5677 5.0344c0-0.83222 0.52157-1.5048 1.1635-1.5048h4.44c0.64193 0 1.1635 0.67953 1.1635 1.5048v4.0358c0 0.54094-0.30759 0.99159-0.70211 1.0749-0.046797 0.0064-0.093616 0.01388-0.14042 0.01388-0.46139 0-0.84253-0.49238-0.84253-1.0957v-0.72113c0-1.3314-0.82917-2.4132-1.8589-2.4132-1.0231 0-1.8589 1.0818-1.8589 2.4132v2.8223c0 0.47843-0.29423 0.87366-0.66199 0.88762h-0.020047c-0.37447 0-0.68206-0.39526-0.68206-0.88762z" stroke-width="1.1428"/>
      <path d="m29.885 30.976h-27.77v1.0238h27.77z" stroke-width="1.1428"/>
    </symbol>
</svg>
